<?xml version="1.0" encoding="utf-8"?>
<svg xmlns="http://www.w3.org/2000/svg" xmlns:xlink="http://www.w3.org/1999/xlink" width="600" height="400" viewBox="0 0 2400 1600">
<defs>
  <clipPath id="clip900">
    <rect x="0" y="0" width="2400" height="1600"/>
  </clipPath>
</defs>
<path clip-path="url(#clip900)" d="
M0 1600 L2400 1600 L2400 0 L0 0  Z
  " fill="#ffffff" fill-rule="evenodd" fill-opacity="1"/>
<defs>
  <clipPath id="clip901">
    <rect x="480" y="0" width="1681" height="1600"/>
  </clipPath>
</defs>
<path clip-path="url(#clip900)" d="
M340.699 1486.45 L2352.76 1486.45 L2352.76 47.2441 L340.699 47.2441  Z
  " fill="#ffffff" fill-rule="evenodd" fill-opacity="1"/>
<defs>
  <clipPath id="clip902">
    <rect x="340" y="47" width="2013" height="1440"/>
  </clipPath>
</defs>
<polyline clip-path="url(#clip902)" style="stroke:#222255; stroke-linecap:round; stroke-linejoin:round; stroke-width:2; stroke-opacity:0.1; fill:none" points="
  397.066,1486.45 397.066,47.2441 
  "/>
<polyline clip-path="url(#clip902)" style="stroke:#222255; stroke-linecap:round; stroke-linejoin:round; stroke-width:2; stroke-opacity:0.1; fill:none" points="
  975.071,1486.45 975.071,47.2441 
  "/>
<polyline clip-path="url(#clip902)" style="stroke:#222255; stroke-linecap:round; stroke-linejoin:round; stroke-width:2; stroke-opacity:0.1; fill:none" points="
  1553.08,1486.45 1553.08,47.2441 
  "/>
<polyline clip-path="url(#clip902)" style="stroke:#222255; stroke-linecap:round; stroke-linejoin:round; stroke-width:2; stroke-opacity:0.1; fill:none" points="
  2131.08,1486.45 2131.08,47.2441 
  "/>
<polyline clip-path="url(#clip902)" style="stroke:#222255; stroke-linecap:round; stroke-linejoin:round; stroke-width:2; stroke-opacity:0.05; fill:none" points="
  512.667,1486.45 512.667,47.2441 
  "/>
<polyline clip-path="url(#clip902)" style="stroke:#222255; stroke-linecap:round; stroke-linejoin:round; stroke-width:2; stroke-opacity:0.05; fill:none" points="
  628.268,1486.45 628.268,47.2441 
  "/>
<polyline clip-path="url(#clip902)" style="stroke:#222255; stroke-linecap:round; stroke-linejoin:round; stroke-width:2; stroke-opacity:0.05; fill:none" points="
  743.869,1486.45 743.869,47.2441 
  "/>
<polyline clip-path="url(#clip902)" style="stroke:#222255; stroke-linecap:round; stroke-linejoin:round; stroke-width:2; stroke-opacity:0.05; fill:none" points="
  859.47,1486.45 859.47,47.2441 
  "/>
<polyline clip-path="url(#clip902)" style="stroke:#222255; stroke-linecap:round; stroke-linejoin:round; stroke-width:2; stroke-opacity:0.05; fill:none" points="
  1090.67,1486.45 1090.67,47.2441 
  "/>
<polyline clip-path="url(#clip902)" style="stroke:#222255; stroke-linecap:round; stroke-linejoin:round; stroke-width:2; stroke-opacity:0.05; fill:none" points="
  1206.27,1486.45 1206.27,47.2441 
  "/>
<polyline clip-path="url(#clip902)" style="stroke:#222255; stroke-linecap:round; stroke-linejoin:round; stroke-width:2; stroke-opacity:0.05; fill:none" points="
  1321.87,1486.45 1321.87,47.2441 
  "/>
<polyline clip-path="url(#clip902)" style="stroke:#222255; stroke-linecap:round; stroke-linejoin:round; stroke-width:2; stroke-opacity:0.05; fill:none" points="
  1437.47,1486.45 1437.47,47.2441 
  "/>
<polyline clip-path="url(#clip902)" style="stroke:#222255; stroke-linecap:round; stroke-linejoin:round; stroke-width:2; stroke-opacity:0.05; fill:none" points="
  1668.68,1486.45 1668.68,47.2441 
  "/>
<polyline clip-path="url(#clip902)" style="stroke:#222255; stroke-linecap:round; stroke-linejoin:round; stroke-width:2; stroke-opacity:0.05; fill:none" points="
  1784.28,1486.45 1784.28,47.2441 
  "/>
<polyline clip-path="url(#clip902)" style="stroke:#222255; stroke-linecap:round; stroke-linejoin:round; stroke-width:2; stroke-opacity:0.05; fill:none" points="
  1899.88,1486.45 1899.88,47.2441 
  "/>
<polyline clip-path="url(#clip902)" style="stroke:#222255; stroke-linecap:round; stroke-linejoin:round; stroke-width:2; stroke-opacity:0.05; fill:none" points="
  2015.48,1486.45 2015.48,47.2441 
  "/>
<polyline clip-path="url(#clip902)" style="stroke:#222255; stroke-linecap:round; stroke-linejoin:round; stroke-width:2; stroke-opacity:0.05; fill:none" points="
  2246.68,1486.45 2246.68,47.2441 
  "/>
<polyline clip-path="url(#clip900)" style="stroke:#000000; stroke-linecap:round; stroke-linejoin:round; stroke-width:4; stroke-opacity:1; fill:none" points="
  340.699,1486.45 2352.76,1486.45 
  "/>
<polyline clip-path="url(#clip900)" style="stroke:#000000; stroke-linecap:round; stroke-linejoin:round; stroke-width:4; stroke-opacity:1; fill:none" points="
  340.699,47.2441 2352.76,47.2441 
  "/>
<polyline clip-path="url(#clip900)" style="stroke:#000000; stroke-linecap:round; stroke-linejoin:round; stroke-width:4; stroke-opacity:1; fill:none" points="
  397.066,1486.45 397.066,1467.55 
  "/>
<polyline clip-path="url(#clip900)" style="stroke:#000000; stroke-linecap:round; stroke-linejoin:round; stroke-width:4; stroke-opacity:1; fill:none" points="
  975.071,1486.45 975.071,1467.55 
  "/>
<polyline clip-path="url(#clip900)" style="stroke:#000000; stroke-linecap:round; stroke-linejoin:round; stroke-width:4; stroke-opacity:1; fill:none" points="
  1553.08,1486.45 1553.08,1467.55 
  "/>
<polyline clip-path="url(#clip900)" style="stroke:#000000; stroke-linecap:round; stroke-linejoin:round; stroke-width:4; stroke-opacity:1; fill:none" points="
  2131.08,1486.45 2131.08,1467.55 
  "/>
<polyline clip-path="url(#clip900)" style="stroke:#000000; stroke-linecap:round; stroke-linejoin:round; stroke-width:4; stroke-opacity:1; fill:none" points="
  512.667,1486.45 512.667,1477 
  "/>
<polyline clip-path="url(#clip900)" style="stroke:#000000; stroke-linecap:round; stroke-linejoin:round; stroke-width:4; stroke-opacity:1; fill:none" points="
  628.268,1486.45 628.268,1477 
  "/>
<polyline clip-path="url(#clip900)" style="stroke:#000000; stroke-linecap:round; stroke-linejoin:round; stroke-width:4; stroke-opacity:1; fill:none" points="
  743.869,1486.45 743.869,1477 
  "/>
<polyline clip-path="url(#clip900)" style="stroke:#000000; stroke-linecap:round; stroke-linejoin:round; stroke-width:4; stroke-opacity:1; fill:none" points="
  859.47,1486.45 859.47,1477 
  "/>
<polyline clip-path="url(#clip900)" style="stroke:#000000; stroke-linecap:round; stroke-linejoin:round; stroke-width:4; stroke-opacity:1; fill:none" points="
  1090.67,1486.45 1090.67,1477 
  "/>
<polyline clip-path="url(#clip900)" style="stroke:#000000; stroke-linecap:round; stroke-linejoin:round; stroke-width:4; stroke-opacity:1; fill:none" points="
  1206.27,1486.45 1206.27,1477 
  "/>
<polyline clip-path="url(#clip900)" style="stroke:#000000; stroke-linecap:round; stroke-linejoin:round; stroke-width:4; stroke-opacity:1; fill:none" points="
  1321.87,1486.45 1321.87,1477 
  "/>
<polyline clip-path="url(#clip900)" style="stroke:#000000; stroke-linecap:round; stroke-linejoin:round; stroke-width:4; stroke-opacity:1; fill:none" points="
  1437.47,1486.45 1437.47,1477 
  "/>
<polyline clip-path="url(#clip900)" style="stroke:#000000; stroke-linecap:round; stroke-linejoin:round; stroke-width:4; stroke-opacity:1; fill:none" points="
  1668.68,1486.45 1668.68,1477 
  "/>
<polyline clip-path="url(#clip900)" style="stroke:#000000; stroke-linecap:round; stroke-linejoin:round; stroke-width:4; stroke-opacity:1; fill:none" points="
  1784.28,1486.45 1784.28,1477 
  "/>
<polyline clip-path="url(#clip900)" style="stroke:#000000; stroke-linecap:round; stroke-linejoin:round; stroke-width:4; stroke-opacity:1; fill:none" points="
  1899.88,1486.45 1899.88,1477 
  "/>
<polyline clip-path="url(#clip900)" style="stroke:#000000; stroke-linecap:round; stroke-linejoin:round; stroke-width:4; stroke-opacity:1; fill:none" points="
  2015.48,1486.45 2015.48,1477 
  "/>
<polyline clip-path="url(#clip900)" style="stroke:#000000; stroke-linecap:round; stroke-linejoin:round; stroke-width:4; stroke-opacity:1; fill:none" points="
  2246.68,1486.45 2246.68,1477 
  "/>
<path clip-path="url(#clip900)" d="M397.066 1517.37 Q393.455 1517.37 391.626 1520.93 Q389.821 1524.47 389.821 1531.6 Q389.821 1538.71 391.626 1542.27 Q393.455 1545.82 397.066 1545.82 Q400.7 1545.82 402.506 1542.27 Q404.334 1538.71 404.334 1531.6 Q404.334 1524.47 402.506 1520.93 Q400.7 1517.37 397.066 1517.37 M397.066 1513.66 Q402.876 1513.66 405.932 1518.27 Q409.01 1522.85 409.01 1531.6 Q409.01 1540.33 405.932 1544.94 Q402.876 1549.52 397.066 1549.52 Q391.256 1549.52 388.177 1544.94 Q385.122 1540.33 385.122 1531.6 Q385.122 1522.85 388.177 1518.27 Q391.256 1513.66 397.066 1513.66 Z" fill="#000000" fill-rule="evenodd" fill-opacity="1" /><path clip-path="url(#clip900)" d="M919.596 1544.91 L927.235 1544.91 L927.235 1518.55 L918.925 1520.21 L918.925 1515.95 L927.189 1514.29 L931.865 1514.29 L931.865 1544.91 L939.504 1544.91 L939.504 1548.85 L919.596 1548.85 L919.596 1544.91 Z" fill="#000000" fill-rule="evenodd" fill-opacity="1" /><path clip-path="url(#clip900)" d="M958.948 1517.37 Q955.337 1517.37 953.508 1520.93 Q951.703 1524.47 951.703 1531.6 Q951.703 1538.71 953.508 1542.27 Q955.337 1545.82 958.948 1545.82 Q962.582 1545.82 964.388 1542.27 Q966.216 1538.71 966.216 1531.6 Q966.216 1524.47 964.388 1520.93 Q962.582 1517.37 958.948 1517.37 M958.948 1513.66 Q964.758 1513.66 967.814 1518.27 Q970.892 1522.85 970.892 1531.6 Q970.892 1540.33 967.814 1544.94 Q964.758 1549.52 958.948 1549.52 Q953.138 1549.52 950.059 1544.94 Q947.004 1540.33 947.004 1531.6 Q947.004 1522.85 950.059 1518.27 Q953.138 1513.66 958.948 1513.66 Z" fill="#000000" fill-rule="evenodd" fill-opacity="1" /><path clip-path="url(#clip900)" d="M989.11 1517.37 Q985.499 1517.37 983.67 1520.93 Q981.864 1524.47 981.864 1531.6 Q981.864 1538.71 983.67 1542.27 Q985.499 1545.82 989.11 1545.82 Q992.744 1545.82 994.55 1542.27 Q996.378 1538.71 996.378 1531.6 Q996.378 1524.47 994.55 1520.93 Q992.744 1517.37 989.11 1517.37 M989.11 1513.66 Q994.92 1513.66 997.975 1518.27 Q1001.05 1522.85 1001.05 1531.6 Q1001.05 1540.33 997.975 1544.94 Q994.92 1549.52 989.11 1549.52 Q983.3 1549.52 980.221 1544.94 Q977.165 1540.33 977.165 1531.6 Q977.165 1522.85 980.221 1518.27 Q983.3 1513.66 989.11 1513.66 Z" fill="#000000" fill-rule="evenodd" fill-opacity="1" /><path clip-path="url(#clip900)" d="M1019.27 1517.37 Q1015.66 1517.37 1013.83 1520.93 Q1012.03 1524.47 1012.03 1531.6 Q1012.03 1538.71 1013.83 1542.27 Q1015.66 1545.82 1019.27 1545.82 Q1022.91 1545.82 1024.71 1542.27 Q1026.54 1538.71 1026.54 1531.6 Q1026.54 1524.47 1024.71 1520.93 Q1022.91 1517.37 1019.27 1517.37 M1019.27 1513.66 Q1025.08 1513.66 1028.14 1518.27 Q1031.22 1522.85 1031.22 1531.6 Q1031.22 1540.33 1028.14 1544.94 Q1025.08 1549.52 1019.27 1549.52 Q1013.46 1549.52 1010.38 1544.94 Q1007.33 1540.33 1007.33 1531.6 Q1007.33 1522.85 1010.38 1518.27 Q1013.46 1513.66 1019.27 1513.66 Z" fill="#000000" fill-rule="evenodd" fill-opacity="1" /><path clip-path="url(#clip900)" d="M1501.69 1544.91 L1518.01 1544.91 L1518.01 1548.85 L1496.06 1548.85 L1496.06 1544.91 Q1498.72 1542.16 1503.31 1537.53 Q1507.91 1532.88 1509.09 1531.53 Q1511.34 1529.01 1512.22 1527.27 Q1513.12 1525.51 1513.12 1523.82 Q1513.12 1521.07 1511.18 1519.33 Q1509.26 1517.6 1506.15 1517.6 Q1503.95 1517.6 1501.5 1518.36 Q1499.07 1519.13 1496.29 1520.68 L1496.29 1515.95 Q1499.12 1514.82 1501.57 1514.24 Q1504.02 1513.66 1506.06 1513.66 Q1511.43 1513.66 1514.63 1516.35 Q1517.82 1519.03 1517.82 1523.52 Q1517.82 1525.65 1517.01 1527.57 Q1516.22 1529.47 1514.12 1532.07 Q1513.54 1532.74 1510.44 1535.95 Q1507.33 1539.15 1501.69 1544.91 Z" fill="#000000" fill-rule="evenodd" fill-opacity="1" /><path clip-path="url(#clip900)" d="M1537.82 1517.37 Q1534.21 1517.37 1532.38 1520.93 Q1530.58 1524.47 1530.58 1531.6 Q1530.58 1538.71 1532.38 1542.27 Q1534.21 1545.82 1537.82 1545.82 Q1541.45 1545.82 1543.26 1542.27 Q1545.09 1538.71 1545.09 1531.6 Q1545.09 1524.47 1543.26 1520.93 Q1541.45 1517.37 1537.82 1517.37 M1537.82 1513.66 Q1543.63 1513.66 1546.69 1518.27 Q1549.76 1522.85 1549.76 1531.6 Q1549.76 1540.33 1546.69 1544.94 Q1543.63 1549.52 1537.82 1549.52 Q1532.01 1549.52 1528.93 1544.94 Q1525.88 1540.33 1525.88 1531.6 Q1525.88 1522.85 1528.93 1518.27 Q1532.01 1513.66 1537.82 1513.66 Z" fill="#000000" fill-rule="evenodd" fill-opacity="1" /><path clip-path="url(#clip900)" d="M1567.98 1517.37 Q1564.37 1517.37 1562.54 1520.93 Q1560.74 1524.47 1560.74 1531.6 Q1560.74 1538.71 1562.54 1542.27 Q1564.37 1545.82 1567.98 1545.82 Q1571.62 1545.82 1573.42 1542.27 Q1575.25 1538.71 1575.25 1531.6 Q1575.25 1524.47 1573.42 1520.93 Q1571.62 1517.37 1567.98 1517.37 M1567.98 1513.66 Q1573.79 1513.66 1576.85 1518.27 Q1579.93 1522.85 1579.93 1531.6 Q1579.93 1540.33 1576.85 1544.94 Q1573.79 1549.52 1567.98 1549.52 Q1562.17 1549.52 1559.09 1544.94 Q1556.04 1540.33 1556.04 1531.6 Q1556.04 1522.85 1559.09 1518.27 Q1562.17 1513.66 1567.98 1513.66 Z" fill="#000000" fill-rule="evenodd" fill-opacity="1" /><path clip-path="url(#clip900)" d="M1598.14 1517.37 Q1594.53 1517.37 1592.7 1520.93 Q1590.9 1524.47 1590.9 1531.6 Q1590.9 1538.71 1592.7 1542.27 Q1594.53 1545.82 1598.14 1545.82 Q1601.78 1545.82 1603.58 1542.27 Q1605.41 1538.71 1605.41 1531.6 Q1605.41 1524.47 1603.58 1520.93 Q1601.78 1517.37 1598.14 1517.37 M1598.14 1513.66 Q1603.95 1513.66 1607.01 1518.27 Q1610.09 1522.85 1610.09 1531.6 Q1610.09 1540.33 1607.01 1544.94 Q1603.95 1549.52 1598.14 1549.52 Q1592.33 1549.52 1589.26 1544.94 Q1586.2 1540.33 1586.2 1531.6 Q1586.2 1522.85 1589.26 1518.27 Q1592.33 1513.66 1598.14 1513.66 Z" fill="#000000" fill-rule="evenodd" fill-opacity="1" /><path clip-path="url(#clip900)" d="M2089.76 1530.21 Q2093.12 1530.93 2094.99 1533.2 Q2096.89 1535.47 2096.89 1538.8 Q2096.89 1543.92 2093.37 1546.72 Q2089.85 1549.52 2083.37 1549.52 Q2081.2 1549.52 2078.88 1549.08 Q2076.59 1548.66 2074.14 1547.81 L2074.14 1543.29 Q2076.08 1544.43 2078.39 1545.01 Q2080.71 1545.58 2083.23 1545.58 Q2087.63 1545.58 2089.92 1543.85 Q2092.24 1542.11 2092.24 1538.8 Q2092.24 1535.75 2090.08 1534.03 Q2087.95 1532.3 2084.14 1532.3 L2080.11 1532.3 L2080.11 1528.45 L2084.32 1528.45 Q2087.77 1528.45 2089.6 1527.09 Q2091.43 1525.7 2091.43 1523.11 Q2091.43 1520.45 2089.53 1519.03 Q2087.65 1517.6 2084.14 1517.6 Q2082.21 1517.6 2080.02 1518.01 Q2077.82 1518.43 2075.18 1519.31 L2075.18 1515.14 Q2077.84 1514.4 2080.15 1514.03 Q2082.49 1513.66 2084.55 1513.66 Q2089.88 1513.66 2092.98 1516.09 Q2096.08 1518.5 2096.08 1522.62 Q2096.08 1525.49 2094.44 1527.48 Q2092.79 1529.45 2089.76 1530.21 Z" fill="#000000" fill-rule="evenodd" fill-opacity="1" /><path clip-path="url(#clip900)" d="M2115.76 1517.37 Q2112.14 1517.37 2110.32 1520.93 Q2108.51 1524.47 2108.51 1531.6 Q2108.51 1538.71 2110.32 1542.27 Q2112.14 1545.82 2115.76 1545.82 Q2119.39 1545.82 2121.2 1542.27 Q2123.02 1538.71 2123.02 1531.6 Q2123.02 1524.47 2121.2 1520.93 Q2119.39 1517.37 2115.76 1517.37 M2115.76 1513.66 Q2121.57 1513.66 2124.62 1518.27 Q2127.7 1522.85 2127.7 1531.6 Q2127.7 1540.33 2124.62 1544.94 Q2121.57 1549.52 2115.76 1549.52 Q2109.95 1549.52 2106.87 1544.94 Q2103.81 1540.33 2103.81 1531.6 Q2103.81 1522.85 2106.87 1518.27 Q2109.95 1513.66 2115.76 1513.66 Z" fill="#000000" fill-rule="evenodd" fill-opacity="1" /><path clip-path="url(#clip900)" d="M2145.92 1517.37 Q2142.31 1517.37 2140.48 1520.93 Q2138.67 1524.47 2138.67 1531.6 Q2138.67 1538.71 2140.48 1542.27 Q2142.31 1545.82 2145.92 1545.82 Q2149.55 1545.82 2151.36 1542.27 Q2153.19 1538.71 2153.19 1531.6 Q2153.19 1524.47 2151.36 1520.93 Q2149.55 1517.37 2145.92 1517.37 M2145.92 1513.66 Q2151.73 1513.66 2154.78 1518.27 Q2157.86 1522.85 2157.86 1531.6 Q2157.86 1540.33 2154.78 1544.94 Q2151.73 1549.52 2145.92 1549.52 Q2140.11 1549.52 2137.03 1544.94 Q2133.97 1540.33 2133.97 1531.6 Q2133.97 1522.85 2137.03 1518.27 Q2140.11 1513.66 2145.92 1513.66 Z" fill="#000000" fill-rule="evenodd" fill-opacity="1" /><path clip-path="url(#clip900)" d="M2176.08 1517.37 Q2172.47 1517.37 2170.64 1520.93 Q2168.83 1524.47 2168.83 1531.6 Q2168.83 1538.71 2170.64 1542.27 Q2172.47 1545.82 2176.08 1545.82 Q2179.71 1545.82 2181.52 1542.27 Q2183.35 1538.71 2183.35 1531.6 Q2183.35 1524.47 2181.52 1520.93 Q2179.71 1517.37 2176.08 1517.37 M2176.08 1513.66 Q2181.89 1513.66 2184.95 1518.27 Q2188.02 1522.85 2188.02 1531.6 Q2188.02 1540.33 2184.95 1544.94 Q2181.89 1549.52 2176.08 1549.52 Q2170.27 1549.52 2167.19 1544.94 Q2164.13 1540.33 2164.13 1531.6 Q2164.13 1522.85 2167.19 1518.27 Q2170.27 1513.66 2176.08 1513.66 Z" fill="#000000" fill-rule="evenodd" fill-opacity="1" /><polyline clip-path="url(#clip902)" style="stroke:#222255; stroke-linecap:round; stroke-linejoin:round; stroke-width:2; stroke-opacity:0.1; fill:none" points="
  340.699,1445.93 2352.76,1445.93 
  "/>
<polyline clip-path="url(#clip902)" style="stroke:#222255; stroke-linecap:round; stroke-linejoin:round; stroke-width:2; stroke-opacity:0.1; fill:none" points="
  340.699,1088.28 2352.76,1088.28 
  "/>
<polyline clip-path="url(#clip902)" style="stroke:#222255; stroke-linecap:round; stroke-linejoin:round; stroke-width:2; stroke-opacity:0.1; fill:none" points="
  340.699,730.621 2352.76,730.621 
  "/>
<polyline clip-path="url(#clip902)" style="stroke:#222255; stroke-linecap:round; stroke-linejoin:round; stroke-width:2; stroke-opacity:0.1; fill:none" points="
  340.699,372.966 2352.76,372.966 
  "/>
<polyline clip-path="url(#clip902)" style="stroke:#222255; stroke-linecap:round; stroke-linejoin:round; stroke-width:2; stroke-opacity:0.05; fill:none" points="
  340.699,1374.4 2352.76,1374.4 
  "/>
<polyline clip-path="url(#clip902)" style="stroke:#222255; stroke-linecap:round; stroke-linejoin:round; stroke-width:2; stroke-opacity:0.05; fill:none" points="
  340.699,1302.87 2352.76,1302.87 
  "/>
<polyline clip-path="url(#clip902)" style="stroke:#222255; stroke-linecap:round; stroke-linejoin:round; stroke-width:2; stroke-opacity:0.05; fill:none" points="
  340.699,1231.34 2352.76,1231.34 
  "/>
<polyline clip-path="url(#clip902)" style="stroke:#222255; stroke-linecap:round; stroke-linejoin:round; stroke-width:2; stroke-opacity:0.05; fill:none" points="
  340.699,1159.81 2352.76,1159.81 
  "/>
<polyline clip-path="url(#clip902)" style="stroke:#222255; stroke-linecap:round; stroke-linejoin:round; stroke-width:2; stroke-opacity:0.05; fill:none" points="
  340.699,1016.74 2352.76,1016.74 
  "/>
<polyline clip-path="url(#clip902)" style="stroke:#222255; stroke-linecap:round; stroke-linejoin:round; stroke-width:2; stroke-opacity:0.05; fill:none" points="
  340.699,945.214 2352.76,945.214 
  "/>
<polyline clip-path="url(#clip902)" style="stroke:#222255; stroke-linecap:round; stroke-linejoin:round; stroke-width:2; stroke-opacity:0.05; fill:none" points="
  340.699,873.683 2352.76,873.683 
  "/>
<polyline clip-path="url(#clip902)" style="stroke:#222255; stroke-linecap:round; stroke-linejoin:round; stroke-width:2; stroke-opacity:0.05; fill:none" points="
  340.699,802.152 2352.76,802.152 
  "/>
<polyline clip-path="url(#clip902)" style="stroke:#222255; stroke-linecap:round; stroke-linejoin:round; stroke-width:2; stroke-opacity:0.05; fill:none" points="
  340.699,659.09 2352.76,659.09 
  "/>
<polyline clip-path="url(#clip902)" style="stroke:#222255; stroke-linecap:round; stroke-linejoin:round; stroke-width:2; stroke-opacity:0.05; fill:none" points="
  340.699,587.559 2352.76,587.559 
  "/>
<polyline clip-path="url(#clip902)" style="stroke:#222255; stroke-linecap:round; stroke-linejoin:round; stroke-width:2; stroke-opacity:0.05; fill:none" points="
  340.699,516.028 2352.76,516.028 
  "/>
<polyline clip-path="url(#clip902)" style="stroke:#222255; stroke-linecap:round; stroke-linejoin:round; stroke-width:2; stroke-opacity:0.05; fill:none" points="
  340.699,444.497 2352.76,444.497 
  "/>
<polyline clip-path="url(#clip902)" style="stroke:#222255; stroke-linecap:round; stroke-linejoin:round; stroke-width:2; stroke-opacity:0.05; fill:none" points="
  340.699,301.435 2352.76,301.435 
  "/>
<polyline clip-path="url(#clip902)" style="stroke:#222255; stroke-linecap:round; stroke-linejoin:round; stroke-width:2; stroke-opacity:0.05; fill:none" points="
  340.699,229.904 2352.76,229.904 
  "/>
<polyline clip-path="url(#clip902)" style="stroke:#222255; stroke-linecap:round; stroke-linejoin:round; stroke-width:2; stroke-opacity:0.05; fill:none" points="
  340.699,158.373 2352.76,158.373 
  "/>
<polyline clip-path="url(#clip902)" style="stroke:#222255; stroke-linecap:round; stroke-linejoin:round; stroke-width:2; stroke-opacity:0.05; fill:none" points="
  340.699,86.8415 2352.76,86.8415 
  "/>
<polyline clip-path="url(#clip900)" style="stroke:#000000; stroke-linecap:round; stroke-linejoin:round; stroke-width:4; stroke-opacity:1; fill:none" points="
  340.699,1486.45 340.699,47.2441 
  "/>
<polyline clip-path="url(#clip900)" style="stroke:#000000; stroke-linecap:round; stroke-linejoin:round; stroke-width:4; stroke-opacity:1; fill:none" points="
  2352.76,1486.45 2352.76,47.2441 
  "/>
<polyline clip-path="url(#clip900)" style="stroke:#000000; stroke-linecap:round; stroke-linejoin:round; stroke-width:4; stroke-opacity:1; fill:none" points="
  340.699,1445.93 359.597,1445.93 
  "/>
<polyline clip-path="url(#clip900)" style="stroke:#000000; stroke-linecap:round; stroke-linejoin:round; stroke-width:4; stroke-opacity:1; fill:none" points="
  340.699,1088.28 359.597,1088.28 
  "/>
<polyline clip-path="url(#clip900)" style="stroke:#000000; stroke-linecap:round; stroke-linejoin:round; stroke-width:4; stroke-opacity:1; fill:none" points="
  340.699,730.621 359.597,730.621 
  "/>
<polyline clip-path="url(#clip900)" style="stroke:#000000; stroke-linecap:round; stroke-linejoin:round; stroke-width:4; stroke-opacity:1; fill:none" points="
  340.699,372.966 359.597,372.966 
  "/>
<polyline clip-path="url(#clip900)" style="stroke:#000000; stroke-linecap:round; stroke-linejoin:round; stroke-width:4; stroke-opacity:1; fill:none" points="
  340.699,1374.4 350.148,1374.4 
  "/>
<polyline clip-path="url(#clip900)" style="stroke:#000000; stroke-linecap:round; stroke-linejoin:round; stroke-width:4; stroke-opacity:1; fill:none" points="
  340.699,1302.87 350.148,1302.87 
  "/>
<polyline clip-path="url(#clip900)" style="stroke:#000000; stroke-linecap:round; stroke-linejoin:round; stroke-width:4; stroke-opacity:1; fill:none" points="
  340.699,1231.34 350.148,1231.34 
  "/>
<polyline clip-path="url(#clip900)" style="stroke:#000000; stroke-linecap:round; stroke-linejoin:round; stroke-width:4; stroke-opacity:1; fill:none" points="
  340.699,1159.81 350.148,1159.81 
  "/>
<polyline clip-path="url(#clip900)" style="stroke:#000000; stroke-linecap:round; stroke-linejoin:round; stroke-width:4; stroke-opacity:1; fill:none" points="
  340.699,1016.74 350.148,1016.74 
  "/>
<polyline clip-path="url(#clip900)" style="stroke:#000000; stroke-linecap:round; stroke-linejoin:round; stroke-width:4; stroke-opacity:1; fill:none" points="
  340.699,945.214 350.148,945.214 
  "/>
<polyline clip-path="url(#clip900)" style="stroke:#000000; stroke-linecap:round; stroke-linejoin:round; stroke-width:4; stroke-opacity:1; fill:none" points="
  340.699,873.683 350.148,873.683 
  "/>
<polyline clip-path="url(#clip900)" style="stroke:#000000; stroke-linecap:round; stroke-linejoin:round; stroke-width:4; stroke-opacity:1; fill:none" points="
  340.699,802.152 350.148,802.152 
  "/>
<polyline clip-path="url(#clip900)" style="stroke:#000000; stroke-linecap:round; stroke-linejoin:round; stroke-width:4; stroke-opacity:1; fill:none" points="
  340.699,659.09 350.148,659.09 
  "/>
<polyline clip-path="url(#clip900)" style="stroke:#000000; stroke-linecap:round; stroke-linejoin:round; stroke-width:4; stroke-opacity:1; fill:none" points="
  340.699,587.559 350.148,587.559 
  "/>
<polyline clip-path="url(#clip900)" style="stroke:#000000; stroke-linecap:round; stroke-linejoin:round; stroke-width:4; stroke-opacity:1; fill:none" points="
  340.699,516.028 350.148,516.028 
  "/>
<polyline clip-path="url(#clip900)" style="stroke:#000000; stroke-linecap:round; stroke-linejoin:round; stroke-width:4; stroke-opacity:1; fill:none" points="
  340.699,444.497 350.148,444.497 
  "/>
<polyline clip-path="url(#clip900)" style="stroke:#000000; stroke-linecap:round; stroke-linejoin:round; stroke-width:4; stroke-opacity:1; fill:none" points="
  340.699,301.435 350.148,301.435 
  "/>
<polyline clip-path="url(#clip900)" style="stroke:#000000; stroke-linecap:round; stroke-linejoin:round; stroke-width:4; stroke-opacity:1; fill:none" points="
  340.699,229.904 350.148,229.904 
  "/>
<polyline clip-path="url(#clip900)" style="stroke:#000000; stroke-linecap:round; stroke-linejoin:round; stroke-width:4; stroke-opacity:1; fill:none" points="
  340.699,158.373 350.148,158.373 
  "/>
<polyline clip-path="url(#clip900)" style="stroke:#000000; stroke-linecap:round; stroke-linejoin:round; stroke-width:4; stroke-opacity:1; fill:none" points="
  340.699,86.8415 350.148,86.8415 
  "/>
<path clip-path="url(#clip900)" d="M292.755 1431.73 Q289.143 1431.73 287.315 1435.29 Q285.509 1438.84 285.509 1445.97 Q285.509 1453.07 287.315 1456.64 Q289.143 1460.18 292.755 1460.18 Q296.389 1460.18 298.194 1456.64 Q300.023 1453.07 300.023 1445.97 Q300.023 1438.84 298.194 1435.29 Q296.389 1431.73 292.755 1431.73 M292.755 1428.03 Q298.565 1428.03 301.62 1432.63 Q304.699 1437.22 304.699 1445.97 Q304.699 1454.69 301.62 1459.3 Q298.565 1463.88 292.755 1463.88 Q286.944 1463.88 283.866 1459.3 Q280.81 1454.69 280.81 1445.97 Q280.81 1437.22 283.866 1432.63 Q286.944 1428.03 292.755 1428.03 Z" fill="#000000" fill-rule="evenodd" fill-opacity="1" /><path clip-path="url(#clip900)" d="M121.043 1108.07 L137.362 1108.07 L137.362 1112 L115.418 1112 L115.418 1108.07 Q118.08 1105.31 122.663 1100.68 Q127.269 1096.03 128.45 1094.69 Q130.695 1092.17 131.575 1090.43 Q132.478 1088.67 132.478 1086.98 Q132.478 1084.23 130.533 1082.49 Q128.612 1080.75 125.51 1080.75 Q123.311 1080.75 120.857 1081.52 Q118.427 1082.28 115.649 1083.83 L115.649 1079.11 Q118.473 1077.98 120.927 1077.4 Q123.38 1076.82 125.418 1076.82 Q130.788 1076.82 133.982 1079.5 Q137.177 1082.19 137.177 1086.68 Q137.177 1088.81 136.367 1090.73 Q135.579 1092.63 133.473 1095.22 Q132.894 1095.89 129.792 1099.11 Q126.691 1102.3 121.043 1108.07 Z" fill="#000000" fill-rule="evenodd" fill-opacity="1" /><path clip-path="url(#clip900)" d="M147.177 1106.12 L152.061 1106.12 L152.061 1112 L147.177 1112 L147.177 1106.12 Z" fill="#000000" fill-rule="evenodd" fill-opacity="1" /><path clip-path="url(#clip900)" d="M172.246 1080.52 Q168.635 1080.52 166.806 1084.09 Q165.001 1087.63 165.001 1094.76 Q165.001 1101.86 166.806 1105.43 Q168.635 1108.97 172.246 1108.97 Q175.88 1108.97 177.686 1105.43 Q179.514 1101.86 179.514 1094.76 Q179.514 1087.63 177.686 1084.09 Q175.88 1080.52 172.246 1080.52 M172.246 1076.82 Q178.056 1076.82 181.112 1081.43 Q184.19 1086.01 184.19 1094.76 Q184.19 1103.49 181.112 1108.09 Q178.056 1112.67 172.246 1112.67 Q166.436 1112.67 163.357 1108.09 Q160.302 1103.49 160.302 1094.76 Q160.302 1086.01 163.357 1081.43 Q166.436 1076.82 172.246 1076.82 Z" fill="#000000" fill-rule="evenodd" fill-opacity="1" /><path clip-path="url(#clip900)" d="M220.579 1086.54 L210 1097.17 L220.579 1107.74 L217.824 1110.55 L207.199 1099.92 L196.575 1110.55 L193.843 1107.74 L204.399 1097.17 L193.843 1086.54 L196.575 1083.74 L207.199 1094.36 L217.824 1083.74 L220.579 1086.54 Z" fill="#000000" fill-rule="evenodd" fill-opacity="1" /><path clip-path="url(#clip900)" d="M232.94 1108.07 L240.579 1108.07 L240.579 1081.7 L232.269 1083.37 L232.269 1079.11 L240.533 1077.44 L245.209 1077.44 L245.209 1108.07 L252.847 1108.07 L252.847 1112 L232.94 1112 L232.94 1108.07 Z" fill="#000000" fill-rule="evenodd" fill-opacity="1" /><path clip-path="url(#clip900)" d="M272.292 1080.52 Q268.681 1080.52 266.852 1084.09 Q265.046 1087.63 265.046 1094.76 Q265.046 1101.86 266.852 1105.43 Q268.681 1108.97 272.292 1108.97 Q275.926 1108.97 277.732 1105.43 Q279.56 1101.86 279.56 1094.76 Q279.56 1087.63 277.732 1084.09 Q275.926 1080.52 272.292 1080.52 M272.292 1076.82 Q278.102 1076.82 281.157 1081.43 Q284.236 1086.01 284.236 1094.76 Q284.236 1103.49 281.157 1108.09 Q278.102 1112.67 272.292 1112.67 Q266.482 1112.67 263.403 1108.09 Q260.347 1103.49 260.347 1094.76 Q260.347 1086.01 263.403 1081.43 Q266.482 1076.82 272.292 1076.82 Z" fill="#000000" fill-rule="evenodd" fill-opacity="1" /><path clip-path="url(#clip900)" d="M296.913 1059.82 L287.321 1074.81 L296.913 1074.81 L296.913 1059.82 M295.916 1056.51 L300.693 1056.51 L300.693 1074.81 L304.699 1074.81 L304.699 1077.97 L300.693 1077.97 L300.693 1084.59 L296.913 1084.59 L296.913 1077.97 L284.236 1077.97 L284.236 1074.31 L295.916 1056.51 Z" fill="#000000" fill-rule="evenodd" fill-opacity="1" /><path clip-path="url(#clip900)" d="M129.862 723.862 L118.056 742.311 L129.862 742.311 L129.862 723.862 M128.635 719.788 L134.515 719.788 L134.515 742.311 L139.445 742.311 L139.445 746.2 L134.515 746.2 L134.515 754.348 L129.862 754.348 L129.862 746.2 L114.26 746.2 L114.26 741.686 L128.635 719.788 Z" fill="#000000" fill-rule="evenodd" fill-opacity="1" /><path clip-path="url(#clip900)" d="M147.177 748.469 L152.061 748.469 L152.061 754.348 L147.177 754.348 L147.177 748.469 Z" fill="#000000" fill-rule="evenodd" fill-opacity="1" /><path clip-path="url(#clip900)" d="M172.246 722.867 Q168.635 722.867 166.806 726.432 Q165.001 729.974 165.001 737.103 Q165.001 744.21 166.806 747.774 Q168.635 751.316 172.246 751.316 Q175.88 751.316 177.686 747.774 Q179.514 744.21 179.514 737.103 Q179.514 729.974 177.686 726.432 Q175.88 722.867 172.246 722.867 M172.246 719.163 Q178.056 719.163 181.112 723.77 Q184.19 728.353 184.19 737.103 Q184.19 745.83 181.112 750.436 Q178.056 755.02 172.246 755.02 Q166.436 755.02 163.357 750.436 Q160.302 745.83 160.302 737.103 Q160.302 728.353 163.357 723.77 Q166.436 719.163 172.246 719.163 Z" fill="#000000" fill-rule="evenodd" fill-opacity="1" /><path clip-path="url(#clip900)" d="M220.579 728.886 L210 739.511 L220.579 750.089 L217.824 752.89 L207.199 742.265 L196.575 752.89 L193.843 750.089 L204.399 739.511 L193.843 728.886 L196.575 726.085 L207.199 736.71 L217.824 726.085 L220.579 728.886 Z" fill="#000000" fill-rule="evenodd" fill-opacity="1" /><path clip-path="url(#clip900)" d="M232.94 750.413 L240.579 750.413 L240.579 724.048 L232.269 725.714 L232.269 721.455 L240.533 719.788 L245.209 719.788 L245.209 750.413 L252.847 750.413 L252.847 754.348 L232.94 754.348 L232.94 750.413 Z" fill="#000000" fill-rule="evenodd" fill-opacity="1" /><path clip-path="url(#clip900)" d="M272.292 722.867 Q268.681 722.867 266.852 726.432 Q265.046 729.974 265.046 737.103 Q265.046 744.21 266.852 747.774 Q268.681 751.316 272.292 751.316 Q275.926 751.316 277.732 747.774 Q279.56 744.21 279.56 737.103 Q279.56 729.974 277.732 726.432 Q275.926 722.867 272.292 722.867 M272.292 719.163 Q278.102 719.163 281.157 723.77 Q284.236 728.353 284.236 737.103 Q284.236 745.83 281.157 750.436 Q278.102 755.02 272.292 755.02 Q266.482 755.02 263.403 750.436 Q260.347 745.83 260.347 737.103 Q260.347 728.353 263.403 723.77 Q266.482 719.163 272.292 719.163 Z" fill="#000000" fill-rule="evenodd" fill-opacity="1" /><path clip-path="url(#clip900)" d="M296.913 702.168 L287.321 717.158 L296.913 717.158 L296.913 702.168 M295.916 698.858 L300.693 698.858 L300.693 717.158 L304.699 717.158 L304.699 720.318 L300.693 720.318 L300.693 726.938 L296.913 726.938 L296.913 720.318 L284.236 720.318 L284.236 716.65 L295.916 698.858 Z" fill="#000000" fill-rule="evenodd" fill-opacity="1" /><path clip-path="url(#clip900)" d="M127.593 377.55 Q124.445 377.55 122.593 379.703 Q120.765 381.855 120.765 385.605 Q120.765 389.332 122.593 391.508 Q124.445 393.661 127.593 393.661 Q130.742 393.661 132.57 391.508 Q134.422 389.332 134.422 385.605 Q134.422 381.855 132.57 379.703 Q130.742 377.55 127.593 377.55 M136.876 362.897 L136.876 367.156 Q135.117 366.323 133.311 365.883 Q131.529 365.443 129.769 365.443 Q125.14 365.443 122.686 368.568 Q120.255 371.693 119.908 378.013 Q121.274 375.999 123.334 374.934 Q125.394 373.846 127.871 373.846 Q133.08 373.846 136.089 377.017 Q139.121 380.166 139.121 385.605 Q139.121 390.929 135.973 394.147 Q132.825 397.365 127.593 397.365 Q121.598 397.365 118.427 392.781 Q115.256 388.175 115.256 379.448 Q115.256 371.254 119.144 366.392 Q123.033 361.508 129.584 361.508 Q131.343 361.508 133.126 361.855 Q134.931 362.203 136.876 362.897 Z" fill="#000000" fill-rule="evenodd" fill-opacity="1" /><path clip-path="url(#clip900)" d="M147.177 390.814 L152.061 390.814 L152.061 396.693 L147.177 396.693 L147.177 390.814 Z" fill="#000000" fill-rule="evenodd" fill-opacity="1" /><path clip-path="url(#clip900)" d="M172.246 365.212 Q168.635 365.212 166.806 368.777 Q165.001 372.318 165.001 379.448 Q165.001 386.554 166.806 390.119 Q168.635 393.661 172.246 393.661 Q175.88 393.661 177.686 390.119 Q179.514 386.554 179.514 379.448 Q179.514 372.318 177.686 368.777 Q175.88 365.212 172.246 365.212 M172.246 361.508 Q178.056 361.508 181.112 366.115 Q184.19 370.698 184.19 379.448 Q184.19 388.175 181.112 392.781 Q178.056 397.365 172.246 397.365 Q166.436 397.365 163.357 392.781 Q160.302 388.175 160.302 379.448 Q160.302 370.698 163.357 366.115 Q166.436 361.508 172.246 361.508 Z" fill="#000000" fill-rule="evenodd" fill-opacity="1" /><path clip-path="url(#clip900)" d="M220.579 371.23 L210 381.855 L220.579 392.434 L217.824 395.235 L207.199 384.61 L196.575 395.235 L193.843 392.434 L204.399 381.855 L193.843 371.23 L196.575 368.43 L207.199 379.054 L217.824 368.43 L220.579 371.23 Z" fill="#000000" fill-rule="evenodd" fill-opacity="1" /><path clip-path="url(#clip900)" d="M232.94 392.758 L240.579 392.758 L240.579 366.392 L232.269 368.059 L232.269 363.8 L240.533 362.133 L245.209 362.133 L245.209 392.758 L252.847 392.758 L252.847 396.693 L232.94 396.693 L232.94 392.758 Z" fill="#000000" fill-rule="evenodd" fill-opacity="1" /><path clip-path="url(#clip900)" d="M272.292 365.212 Q268.681 365.212 266.852 368.777 Q265.046 372.318 265.046 379.448 Q265.046 386.554 266.852 390.119 Q268.681 393.661 272.292 393.661 Q275.926 393.661 277.732 390.119 Q279.56 386.554 279.56 379.448 Q279.56 372.318 277.732 368.777 Q275.926 365.212 272.292 365.212 M272.292 361.508 Q278.102 361.508 281.157 366.115 Q284.236 370.698 284.236 379.448 Q284.236 388.175 281.157 392.781 Q278.102 397.365 272.292 397.365 Q266.482 397.365 263.403 392.781 Q260.347 388.175 260.347 379.448 Q260.347 370.698 263.403 366.115 Q266.482 361.508 272.292 361.508 Z" fill="#000000" fill-rule="evenodd" fill-opacity="1" /><path clip-path="url(#clip900)" d="M296.913 344.513 L287.321 359.503 L296.913 359.503 L296.913 344.513 M295.916 341.203 L300.693 341.203 L300.693 359.503 L304.699 359.503 L304.699 362.663 L300.693 362.663 L300.693 369.283 L296.913 369.283 L296.913 362.663 L284.236 362.663 L284.236 358.995 L295.916 341.203 Z" fill="#000000" fill-rule="evenodd" fill-opacity="1" /><path clip-path="url(#clip900)" d="M22.818 1084.91 L46.4666 1093.63 L46.4666 1076.16 L22.818 1084.91 M16.4842 1088.54 L16.4842 1081.25 L64.0042 1063.14 L64.0042 1069.82 L51.8138 1074.15 L51.8138 1095.57 L64.0042 1099.9 L64.0042 1106.68 L16.4842 1088.54 Z" fill="#000000" fill-rule="evenodd" fill-opacity="1" /><path clip-path="url(#clip900)" d="M35.1993 1028.7 Q31.2526 1026.5 29.3747 1023.45 Q27.4968 1020.39 27.4968 1016.25 Q27.4968 1010.68 31.4117 1007.66 Q35.2948 1004.64 42.4881 1004.64 L64.0042 1004.64 L64.0042 1010.53 L42.679 1010.53 Q37.5546 1010.53 35.072 1012.34 Q32.5894 1014.15 32.5894 1017.88 Q32.5894 1022.43 35.6131 1025.07 Q38.6368 1027.71 43.8567 1027.71 L64.0042 1027.71 L64.0042 1033.6 L42.679 1033.6 Q37.5228 1033.6 35.072 1035.42 Q32.5894 1037.23 32.5894 1041.02 Q32.5894 1045.5 35.6449 1048.15 Q38.6686 1050.79 43.8567 1050.79 L64.0042 1050.79 L64.0042 1056.68 L28.3562 1056.68 L28.3562 1050.79 L33.8944 1050.79 Q30.616 1048.78 29.0564 1045.98 Q27.4968 1043.18 27.4968 1039.33 Q27.4968 1035.45 29.4702 1032.74 Q31.4436 1030 35.1993 1028.7 Z" fill="#000000" fill-rule="evenodd" fill-opacity="1" /><path clip-path="url(#clip900)" d="M58.657 987.29 L77.5631 987.29 L77.5631 993.179 L28.3562 993.179 L28.3562 987.29 L33.7671 987.29 Q30.5842 985.444 29.0564 982.643 Q27.4968 979.811 27.4968 975.896 Q27.4968 969.403 32.6531 965.361 Q37.8093 961.286 46.212 961.286 Q54.6147 961.286 59.771 965.361 Q64.9272 969.403 64.9272 975.896 Q64.9272 979.811 63.3994 982.643 Q61.8398 985.444 58.657 987.29 M46.212 967.366 Q39.7508 967.366 36.0905 970.039 Q32.3984 972.681 32.3984 977.328 Q32.3984 981.975 36.0905 984.649 Q39.7508 987.29 46.212 987.29 Q52.6732 987.29 56.3653 984.649 Q60.0256 981.975 60.0256 977.328 Q60.0256 972.681 56.3653 970.039 Q52.6732 967.366 46.212 967.366 Z" fill="#000000" fill-rule="evenodd" fill-opacity="1" /><path clip-path="url(#clip900)" d="M14.479 951.579 L14.479 945.722 L64.0042 945.722 L64.0042 951.579 L14.479 951.579 Z" fill="#000000" fill-rule="evenodd" fill-opacity="1" /><path clip-path="url(#clip900)" d="M28.3562 933.468 L28.3562 927.612 L64.0042 927.612 L64.0042 933.468 L28.3562 933.468 M14.479 933.468 L14.479 927.612 L21.895 927.612 L21.895 933.468 L14.479 933.468 Z" fill="#000000" fill-rule="evenodd" fill-opacity="1" /><path clip-path="url(#clip900)" d="M18.2347 909.565 L28.3562 909.565 L28.3562 897.502 L32.9077 897.502 L32.9077 909.565 L52.2594 909.565 Q56.6199 909.565 57.8613 908.387 Q59.1026 907.178 59.1026 903.518 L59.1026 897.502 L64.0042 897.502 L64.0042 903.518 Q64.0042 910.297 61.4897 912.875 Q58.9434 915.453 52.2594 915.453 L32.9077 915.453 L32.9077 919.75 L28.3562 919.75 L28.3562 915.453 L18.2347 915.453 L18.2347 909.565 Z" fill="#000000" fill-rule="evenodd" fill-opacity="1" /><path clip-path="url(#clip900)" d="M49.9359 890.404 L28.3562 890.404 L28.3562 884.548 L49.7131 884.548 Q54.7739 884.548 57.3202 882.575 Q59.8346 880.601 59.8346 876.654 Q59.8346 871.912 56.8109 869.175 Q53.7872 866.406 48.5673 866.406 L28.3562 866.406 L28.3562 860.549 L64.0042 860.549 L64.0042 866.406 L58.5296 866.406 Q61.7762 868.538 63.3676 871.371 Q64.9272 874.172 64.9272 877.896 Q64.9272 884.039 61.1078 887.221 Q57.2883 890.404 49.9359 890.404 M27.4968 875.668 L27.4968 875.668 Z" fill="#000000" fill-rule="evenodd" fill-opacity="1" /><path clip-path="url(#clip900)" d="M33.7671 825.029 L14.479 825.029 L14.479 819.172 L64.0042 819.172 L64.0042 825.029 L58.657 825.029 Q61.8398 826.875 63.3994 829.707 Q64.9272 832.508 64.9272 836.455 Q64.9272 842.916 59.771 846.99 Q54.6147 851.032 46.212 851.032 Q37.8093 851.032 32.6531 846.99 Q27.4968 842.916 27.4968 836.455 Q27.4968 832.508 29.0564 829.707 Q30.5842 826.875 33.7671 825.029 M46.212 844.985 Q52.6732 844.985 56.3653 842.343 Q60.0256 839.67 60.0256 835.023 Q60.0256 830.376 56.3653 827.702 Q52.6732 825.029 46.212 825.029 Q39.7508 825.029 36.0905 827.702 Q32.3984 830.376 32.3984 835.023 Q32.3984 839.67 36.0905 842.343 Q39.7508 844.985 46.212 844.985 Z" fill="#000000" fill-rule="evenodd" fill-opacity="1" /><path clip-path="url(#clip900)" d="M44.7161 776.617 L47.5806 776.617 L47.5806 803.544 Q53.6281 803.162 56.8109 799.916 Q59.9619 796.637 59.9619 790.813 Q59.9619 787.439 59.1344 784.288 Q58.3069 781.105 56.6518 777.986 L62.1899 777.986 Q63.5267 781.137 64.227 784.447 Q64.9272 787.757 64.9272 791.163 Q64.9272 799.693 59.9619 804.69 Q54.9967 809.655 46.5303 809.655 Q37.7774 809.655 32.6531 804.945 Q27.4968 800.202 27.4968 792.181 Q27.4968 784.988 32.1438 780.819 Q36.7589 776.617 44.7161 776.617 M42.9973 782.474 Q38.1912 782.537 35.3266 785.179 Q32.4621 787.789 32.4621 792.118 Q32.4621 797.019 35.2312 799.979 Q38.0002 802.908 43.0292 803.353 L42.9973 782.474 Z" fill="#000000" fill-rule="evenodd" fill-opacity="1" /><path clip-path="url(#clip900)" d="M42.4881 737.373 L64.0042 737.373 L64.0042 743.229 L42.679 743.229 Q37.6183 743.229 35.1038 745.203 Q32.5894 747.176 32.5894 751.123 Q32.5894 755.865 35.6131 758.602 Q38.6368 761.34 43.8567 761.34 L64.0042 761.34 L64.0042 767.228 L28.3562 767.228 L28.3562 761.34 L33.8944 761.34 Q30.6797 759.239 29.0883 756.406 Q27.4968 753.542 27.4968 749.818 Q27.4968 743.675 31.3163 740.524 Q35.1038 737.373 42.4881 737.373 Z" fill="#000000" fill-rule="evenodd" fill-opacity="1" /><path clip-path="url(#clip900)" d="M29.4065 702.966 L34.9447 702.966 Q33.6716 705.449 33.035 708.122 Q32.3984 710.796 32.3984 713.661 Q32.3984 718.021 33.7352 720.217 Q35.072 722.382 37.7456 722.382 Q39.7826 722.382 40.9603 720.822 Q42.1061 719.262 43.1565 714.552 L43.6021 712.547 Q44.9389 706.308 47.3897 703.698 Q49.8086 701.056 54.1691 701.056 Q59.1344 701.056 62.0308 705.003 Q64.9272 708.918 64.9272 715.793 Q64.9272 718.658 64.3543 721.777 Q63.8132 724.864 62.6992 728.302 L56.6518 728.302 Q58.3387 725.055 59.198 721.904 Q60.0256 718.753 60.0256 715.666 Q60.0256 711.528 58.6251 709.3 Q57.1929 707.072 54.6147 707.072 Q52.2276 707.072 50.9545 708.695 Q49.6813 710.287 48.5037 715.729 L48.0262 717.766 Q46.8804 723.209 44.5251 725.628 Q42.138 728.047 38.0002 728.047 Q32.9713 728.047 30.2341 724.482 Q27.4968 720.917 27.4968 714.361 Q27.4968 711.114 27.9743 708.25 Q28.4517 705.385 29.4065 702.966 Z" fill="#000000" fill-rule="evenodd" fill-opacity="1" /><path clip-path="url(#clip900)" d="M58.657 686.065 L77.5631 686.065 L77.5631 691.953 L28.3562 691.953 L28.3562 686.065 L33.7671 686.065 Q30.5842 684.219 29.0564 681.418 Q27.4968 678.585 27.4968 674.671 Q27.4968 668.178 32.6531 664.135 Q37.8093 660.061 46.212 660.061 Q54.6147 660.061 59.771 664.135 Q64.9272 668.178 64.9272 674.671 Q64.9272 678.585 63.3994 681.418 Q61.8398 684.219 58.657 686.065 M46.212 666.141 Q39.7508 666.141 36.0905 668.814 Q32.3984 671.456 32.3984 676.103 Q32.3984 680.75 36.0905 683.423 Q39.7508 686.065 46.212 686.065 Q52.6732 686.065 56.3653 683.423 Q60.0256 680.75 60.0256 676.103 Q60.0256 671.456 56.3653 668.814 Q52.6732 666.141 46.212 666.141 Z" fill="#000000" fill-rule="evenodd" fill-opacity="1" /><path clip-path="url(#clip900)" d="M44.7161 619.862 L47.5806 619.862 L47.5806 646.789 Q53.6281 646.407 56.8109 643.16 Q59.9619 639.882 59.9619 634.057 Q59.9619 630.684 59.1344 627.532 Q58.3069 624.35 56.6518 621.23 L62.1899 621.23 Q63.5267 624.381 64.227 627.692 Q64.9272 631.002 64.9272 634.407 Q64.9272 642.938 59.9619 647.935 Q54.9967 652.9 46.5303 652.9 Q37.7774 652.9 32.6531 648.189 Q27.4968 643.447 27.4968 635.426 Q27.4968 628.233 32.1438 624.063 Q36.7589 619.862 44.7161 619.862 M42.9973 625.718 Q38.1912 625.782 35.3266 628.424 Q32.4621 631.034 32.4621 635.362 Q32.4621 640.264 35.2312 643.224 Q38.0002 646.152 43.0292 646.598 L42.9973 625.718 Z" fill="#000000" fill-rule="evenodd" fill-opacity="1" /><path clip-path="url(#clip900)" d="M14.479 610.472 L14.479 604.584 L43.7294 604.584 L28.3562 587.11 L28.3562 579.631 L45.0344 598.537 L64.0042 578.835 L64.0042 586.474 L46.5939 604.584 L64.0042 604.584 L64.0042 610.472 L14.479 610.472 Z" fill="#000000" fill-rule="evenodd" fill-opacity="1" /><path clip-path="url(#clip900)" d="M18.2347 566.708 L28.3562 566.708 L28.3562 554.645 L32.9077 554.645 L32.9077 566.708 L52.2594 566.708 Q56.6199 566.708 57.8613 565.531 Q59.1026 564.321 59.1026 560.661 L59.1026 554.645 L64.0042 554.645 L64.0042 560.661 Q64.0042 567.44 61.4897 570.018 Q58.9434 572.596 52.2594 572.596 L32.9077 572.596 L32.9077 576.893 L28.3562 576.893 L28.3562 572.596 L18.2347 572.596 L18.2347 566.708 Z" fill="#000000" fill-rule="evenodd" fill-opacity="1" /><path clip-path="url(#clip900)" d="M33.8307 526.286 Q33.2578 527.273 33.0032 528.45 Q32.7167 529.596 32.7167 530.997 Q32.7167 535.962 35.9632 538.635 Q39.1779 541.277 45.2253 541.277 L64.0042 541.277 L64.0042 547.165 L28.3562 547.165 L28.3562 541.277 L33.8944 541.277 Q30.6479 539.431 29.0883 536.471 Q27.4968 533.511 27.4968 529.278 Q27.4968 528.673 27.5923 527.941 Q27.656 527.209 27.8151 526.318 L33.8307 526.286 Z" fill="#000000" fill-rule="evenodd" fill-opacity="1" /><path clip-path="url(#clip900)" d="M49.9359 520.748 L28.3562 520.748 L28.3562 514.891 L49.7131 514.891 Q54.7739 514.891 57.3202 512.918 Q59.8346 510.945 59.8346 506.998 Q59.8346 502.255 56.8109 499.518 Q53.7872 496.749 48.5673 496.749 L28.3562 496.749 L28.3562 490.893 L64.0042 490.893 L64.0042 496.749 L58.5296 496.749 Q61.7762 498.882 63.3676 501.714 Q64.9272 504.515 64.9272 508.239 Q64.9272 514.382 61.1078 517.565 Q57.2883 520.748 49.9359 520.748 M27.4968 506.011 L27.4968 506.011 Z" fill="#000000" fill-rule="evenodd" fill-opacity="1" /><path clip-path="url(#clip900)" d="M35.1993 451.075 Q31.2526 448.879 29.3747 445.823 Q27.4968 442.768 27.4968 438.63 Q27.4968 433.06 31.4117 430.036 Q35.2948 427.013 42.4881 427.013 L64.0042 427.013 L64.0042 432.901 L42.679 432.901 Q37.5546 432.901 35.072 434.715 Q32.5894 436.529 32.5894 440.253 Q32.5894 444.805 35.6131 447.447 Q38.6368 450.088 43.8567 450.088 L64.0042 450.088 L64.0042 455.977 L42.679 455.977 Q37.5228 455.977 35.072 457.791 Q32.5894 459.605 32.5894 463.393 Q32.5894 467.881 35.6449 470.522 Q38.6686 473.164 43.8567 473.164 L64.0042 473.164 L64.0042 479.052 L28.3562 479.052 L28.3562 473.164 L33.8944 473.164 Q30.616 471.159 29.0564 468.358 Q27.4968 465.557 27.4968 461.706 Q27.4968 457.823 29.4702 455.117 Q31.4436 452.38 35.1993 451.075 Z" fill="#000000" fill-rule="evenodd" fill-opacity="1" /><polyline clip-path="url(#clip902)" style="stroke:#ee7733; stroke-linecap:round; stroke-linejoin:round; stroke-width:4.8; stroke-opacity:1; fill:none" points="
  397.644,1137.65 398.222,1116.03 398.8,742.458 399.378,935.359 399.956,1041.31 400.534,1375.69 401.112,1200.88 401.69,1344.21 402.268,1313.71 402.846,1239.3 
  403.424,1329.64 404.002,1371.61 404.58,1153.84 405.158,1335.43 405.736,1351.29 406.314,1311.05 406.892,1320.37 407.47,1173.17 408.048,1255.31 408.626,1295.02 
  409.204,1167.25 409.782,1395.65 410.36,726.625 410.938,1052.43 411.516,87.9763 412.094,502.084 412.672,662.428 413.25,1033.87 413.828,1041.72 414.406,1270 
  414.984,1048.52 415.562,1067.39 416.14,1323.04 416.718,1040.56 417.296,1289.74 417.874,1302.6 418.452,1285.26 419.03,1274.87 419.608,1366.82 420.186,1356.52 
  420.764,1348.11 421.342,1419.65 421.92,1383.11 422.498,1413.55 423.076,1349.4 423.654,1346 424.232,1284.56 424.81,1243.23 425.388,1391.3 425.966,1166.71 
  426.544,1404.37 427.122,1251.29 427.7,1334.65 428.278,1397.85 428.856,1342.87 429.434,1381.74 430.012,1248.93 430.59,1377.69 431.168,1413.74 431.746,1356.33 
  432.324,1361.52 432.902,1398.2 433.48,1384.02 434.058,1405.61 434.636,1367.65 435.214,1366.01 435.792,1322.25 436.37,1400.46 436.948,1355.38 437.526,1412.32 
  438.104,1395.25 438.682,1412.24 439.26,1387.04 439.838,1393.37 440.416,1376.5 440.994,1395.64 441.572,1441.56 442.15,1362.98 442.728,1395.23 443.306,1390.35 
  443.884,1439.88 444.462,1416.14 445.04,1391.52 445.618,1384.13 446.196,1418.39 446.774,1368.88 447.352,1415.94 447.93,1380.42 448.508,1396.71 449.086,1425.06 
  449.664,1429.51 450.242,1431.36 450.82,1412.4 451.398,1353.05 451.976,1394.77 452.554,1404.26 453.132,1396.11 453.71,1392.03 454.288,1414.25 454.866,1404.55 
  455.444,1396.09 456.022,1443.33 456.6,1407.47 457.178,1412.67 457.756,1420.4 458.334,1436.81 458.912,1438.33 459.49,1412.12 460.068,1410.61 460.646,1390.68 
  461.224,1392.47 461.802,1429.85 462.38,1432.25 462.958,1421.22 463.536,1424.22 464.114,1393.03 464.692,1397.13 465.27,1394.18 465.848,1402.2 466.427,1408.02 
  467.005,1438.72 467.583,1407.52 468.161,1422.22 468.739,1430.32 469.317,1393.16 469.895,1397.21 470.473,1430.04 471.051,1390.54 471.629,1397.44 472.207,1382.98 
  472.785,1406.86 473.363,1414.3 473.941,1413.43 474.519,1421.27 475.097,1425.94 475.675,1409.09 476.253,1388.71 476.831,1433.12 477.409,1387.92 477.987,1407.59 
  478.565,1400.59 479.143,1408.68 479.721,1408.53 480.299,1437.88 480.877,1396.07 481.455,1422.75 482.033,1421.75 482.611,1400.55 483.189,1415.55 483.767,1418.56 
  484.345,1436.94 484.923,1437.46 485.501,1409.54 486.079,1426 486.657,1414.57 487.235,1406.54 487.813,1419.99 488.391,1432.14 488.969,1410.57 489.547,1429.9 
  490.125,1419.53 490.703,1437.46 491.281,1413.93 491.859,1442.95 492.437,1392.5 493.015,1434.72 493.593,1416.52 494.171,1414.99 494.749,1411.06 495.327,1416.57 
  495.905,1431.1 496.483,1435.98 497.061,1421.18 497.639,1410.1 498.217,1435.82 498.795,1416.99 499.373,1411.38 499.951,1415.65 500.529,1422 501.107,1409.85 
  501.685,1431.22 502.263,1419.1 502.841,1427.59 503.419,1406.08 503.997,1419.97 504.575,1418.56 505.153,1412.56 505.731,1393.84 506.309,1432.75 506.887,1409.03 
  507.465,1407.26 508.043,1442.24 508.621,1414.08 509.199,1413.19 509.777,1417.28 510.355,1399.48 510.933,1387.2 511.511,1439.5 512.089,1421.68 512.667,1434.16 
  513.245,1428.25 513.823,1414.07 514.401,1406 514.979,1407.88 515.557,1423.34 516.135,1392.68 516.713,1411.26 517.291,1432.97 517.869,1409.26 518.447,1418.14 
  519.025,1410.74 519.603,1400.34 520.181,1399.64 520.759,1422.18 521.337,1435.43 521.915,1394.13 522.493,1419.46 523.071,1437.8 523.649,1440.38 524.227,1415.96 
  524.805,1399.15 525.383,1403.76 525.961,1434.85 526.539,1387.68 527.117,1424.98 527.695,1413.6 528.273,1406.82 528.851,1415.06 529.429,1420.14 530.007,1423.1 
  530.585,1411.21 531.163,1397.52 531.741,1402.04 532.319,1425.19 532.897,1386.56 533.475,1441.92 534.053,1412.53 534.631,1391.79 535.209,1388.72 535.787,1410.12 
  536.365,1399.31 536.943,1390.94 537.521,1417.79 538.099,1433.83 538.677,1422.32 539.255,1414.33 539.833,1439.38 540.411,1411.14 540.989,1420.41 541.567,1404.83 
  542.145,1375.32 542.723,1436.72 543.301,1404.6 543.879,1412.46 544.457,1397.7 545.035,1377.67 545.613,1409.63 546.191,1415.34 546.769,1406.41 547.347,1401.57 
  547.925,1416.68 548.503,1434.35 549.081,1439.11 549.659,1373.78 550.237,1417.38 550.815,1436.53 551.393,1413.64 551.971,1418.81 552.549,1396.98 553.127,1411.01 
  553.705,1437.02 554.283,1415.84 554.861,1389.95 555.439,1401.53 556.017,1427.12 556.595,1427.9 557.173,1415.63 557.751,1416.13 558.329,1430.15 558.907,1383.04 
  559.485,1409.87 560.063,1419.94 560.641,1416.75 561.219,1393.29 561.797,1425.59 562.375,1410.87 562.953,1397.52 563.531,1407.67 564.109,1420.23 564.687,1395.39 
  565.265,1425.87 565.843,1421.8 566.421,1435.16 566.999,1415.82 567.577,1426.43 568.155,1426.44 568.733,1404.02 569.311,1406.36 569.889,1413.02 570.467,1432.23 
  571.045,1403.26 571.623,1427.43 572.201,1409.88 572.779,1418.21 573.357,1392.27 573.935,1443.18 574.513,1430.13 575.091,1388.95 575.669,1419.47 576.247,1403.11 
  576.825,1417.19 577.403,1426.68 577.981,1361.61 578.559,1420.79 579.137,1424.02 579.715,1382.91 580.293,1427.49 580.871,1430.61 581.449,1417.79 582.027,1430.07 
  582.605,1421.49 583.183,1413.18 583.761,1427.6 584.339,1430.15 584.917,1433.97 585.495,1418.72 586.073,1419.61 586.651,1443.19 587.229,1403.6 587.807,1437.93 
  588.385,1416.45 588.963,1424.25 589.541,1442.39 590.119,1433.01 590.697,1428.76 591.275,1410.7 591.853,1431.62 592.431,1438.11 593.009,1405.39 593.588,1433.52 
  594.166,1410.09 594.744,1437.59 595.322,1430.68 595.9,1429.91 596.478,1437.1 597.056,1425.12 597.634,1408.73 598.212,1399.24 598.79,1439.12 599.368,1414.09 
  599.946,1418.77 600.524,1440.79 601.102,1422.79 601.68,1416.13 602.258,1435.14 602.836,1401.64 603.414,1420.52 603.992,1410.93 604.57,1399.52 605.148,1430.24 
  605.726,1433.11 606.304,1380.08 606.882,1427.82 607.46,1421.67 608.038,1437.93 608.616,1433.63 609.194,1413.87 609.772,1423.03 610.35,1418.54 610.928,1422.09 
  611.506,1435.63 612.084,1425.35 612.662,1413.58 613.24,1427.44 613.818,1411.76 614.396,1405.87 614.974,1414.31 615.552,1424.07 616.13,1395.56 616.708,1444.42 
  617.286,1421.22 617.864,1441.8 618.442,1406.35 619.02,1416.39 619.598,1374.89 620.176,1438.48 620.754,1399.37 621.332,1427.94 621.91,1436.91 622.488,1430.68 
  623.066,1435.18 623.644,1416.12 624.222,1410.64 624.8,1427.8 625.378,1410.8 625.956,1403.3 626.534,1407.86 627.112,1403.09 627.69,1424.94 628.268,1433.05 
  628.846,1416.23 629.424,1431.61 630.002,1433.9 630.58,1436.02 631.158,1385.93 631.736,1404.66 632.314,1416.58 632.892,1416 633.47,1420.32 634.048,1435.37 
  634.626,1418.13 635.204,1434.35 635.782,1399.74 636.36,1429.06 636.938,1436.59 637.516,1413.63 638.094,1434.09 638.672,1392.58 639.25,1429.31 639.828,1414.34 
  640.406,1417.51 640.984,1391.99 641.562,1404.11 642.14,1410.97 642.718,1406.87 643.296,1436.99 643.874,1407.43 644.452,1428.75 645.03,1413.26 645.608,1394.53 
  646.186,1417.26 646.764,1432.33 647.342,1421.75 647.92,1415.52 648.498,1426.69 649.076,1428.57 649.654,1433.39 650.232,1414.08 650.81,1428.31 651.388,1413.96 
  651.966,1439.22 652.544,1403.83 653.122,1423.93 653.7,1423.76 654.278,1428.2 654.856,1436.44 655.434,1420.53 656.012,1440.62 656.59,1425.6 657.168,1422.86 
  657.746,1433.17 658.324,1405.89 658.902,1434.85 659.48,1431.83 660.058,1434.93 660.636,1437.74 661.214,1432.71 661.792,1421.2 662.37,1423.11 662.948,1421.16 
  663.526,1420 664.104,1407.33 664.682,1430.63 665.26,1434.57 665.838,1427.13 666.416,1431.15 666.994,1415.23 667.572,1425.15 668.15,1434.2 668.728,1435.48 
  669.306,1422.49 669.884,1437.66 670.462,1425.03 671.04,1433 671.618,1409.64 672.196,1403.98 672.774,1431.87 673.352,1424.11 673.93,1432.57 674.508,1428.7 
  675.086,1437.94 675.664,1439.92 676.242,1424.6 676.82,1416.08 677.398,1439.96 677.976,1425.52 678.554,1417.16 679.132,1393.07 679.71,1435.03 680.288,1429.19 
  680.866,1429.65 681.444,1420.08 682.022,1421.9 682.6,1433.66 683.178,1421.21 683.756,1416.12 684.334,1428.28 684.912,1426.59 685.49,1426.27 686.068,1410.88 
  686.646,1407.08 687.224,1428.46 687.802,1396.3 688.38,1412.79 688.958,1424.94 689.536,1437.63 690.114,1420.62 690.692,1404.25 691.27,1418.69 691.848,1428.64 
  692.426,1417.43 693.004,1426.6 693.582,1430.65 694.16,1412.23 694.738,1417.25 695.316,1434.05 695.894,1424.08 696.472,1428.76 697.05,1423.23 697.628,1429.96 
  698.206,1407.59 698.784,1431.67 699.362,1411.54 699.94,1425.32 700.518,1426.91 701.096,1412.69 701.674,1418.78 702.252,1408.25 702.83,1437.65 703.408,1425.88 
  703.986,1422.87 704.564,1421.82 705.142,1419.03 705.72,1426.5 706.298,1431.28 706.876,1417.39 707.454,1417.96 708.032,1436.47 708.61,1413.51 709.188,1417.09 
  709.766,1431.65 710.344,1422.59 710.922,1424.17 711.5,1427.28 712.078,1421.59 712.656,1421.18 713.234,1424.33 713.812,1420.74 714.39,1404.82 714.968,1430.53 
  715.546,1418.96 716.124,1428.82 716.702,1439.56 717.28,1434.53 717.858,1414.47 718.436,1416.03 719.014,1422.53 719.592,1430.89 720.17,1420.37 720.749,1429.1 
  721.327,1427.76 721.905,1422.36 722.483,1432.33 723.061,1429.31 723.639,1432.61 724.217,1426.26 724.795,1410.74 725.373,1424.09 725.951,1401.46 726.529,1429.55 
  727.107,1423.04 727.685,1428.62 728.263,1436.82 728.841,1433.83 729.419,1445.24 729.997,1432.08 730.575,1436.61 731.153,1433.52 731.731,1435.11 732.309,1411.1 
  732.887,1422.6 733.465,1407.51 734.043,1421.78 734.621,1431.7 735.199,1421.17 735.777,1415.96 736.355,1412.69 736.933,1420.94 737.511,1423.44 738.089,1430.8 
  738.667,1441.45 739.245,1396.61 739.823,1414.52 740.401,1430.81 740.979,1428.61 741.557,1443.36 742.135,1424.04 742.713,1424.45 743.291,1429.21 743.869,1440.54 
  744.447,1434.52 745.025,1417.76 745.603,1432.3 746.181,1432.71 746.759,1420.28 747.337,1431.7 747.915,1407.67 748.493,1423.64 749.071,1438.22 749.649,1420.91 
  750.227,1431.77 750.805,1413.72 751.383,1418.77 751.961,1412.67 752.539,1410.38 753.117,1415.43 753.695,1416.75 754.273,1422.41 754.851,1406.65 755.429,1441.09 
  756.007,1405.8 756.585,1413.87 757.163,1423.43 757.741,1432.7 758.319,1403.84 758.897,1442.27 759.475,1425.72 760.053,1434.13 760.631,1422.73 761.209,1434.17 
  761.787,1435.61 762.365,1411.27 762.943,1409.04 763.521,1403.71 764.099,1418.85 764.677,1438.96 765.255,1433.61 765.833,1426.44 766.411,1400.04 766.989,1401.77 
  767.567,1413.94 768.145,1411.2 768.723,1411.98 769.301,1419.71 769.879,1411.83 770.457,1389.19 771.035,1437.59 771.613,1443.46 772.191,1424.74 772.769,1421.5 
  773.347,1424.22 773.925,1421.09 774.503,1423.11 775.081,1427.22 775.659,1428.14 776.237,1421.64 776.815,1424.97 777.393,1413.45 777.971,1409.37 778.549,1435.04 
  779.127,1429.05 779.705,1416.56 780.283,1403.92 780.861,1401.49 781.439,1421.5 782.017,1413.25 782.595,1413.83 783.173,1434.83 783.751,1437.55 784.329,1415.69 
  784.907,1425.53 785.485,1422.01 786.063,1438.03 786.641,1414.54 787.219,1438.91 787.797,1416.89 788.375,1407.23 788.953,1427.72 789.531,1412.74 790.109,1430.78 
  790.687,1420.31 791.265,1420.29 791.843,1432.26 792.421,1434.44 792.999,1420.5 793.577,1416.08 794.155,1430.35 794.733,1419.77 795.311,1427.47 795.889,1415.6 
  796.467,1423.84 797.045,1430.06 797.623,1407.95 798.201,1419.18 798.779,1440.82 799.357,1412.57 799.935,1422.64 800.513,1422.23 801.091,1408.45 801.669,1408.52 
  802.247,1411.51 802.825,1409.69 803.403,1435.43 803.981,1423.08 804.559,1439.29 805.137,1404.27 805.715,1423.52 806.293,1433.21 806.871,1443.39 807.449,1422.5 
  808.027,1410.32 808.605,1425.12 809.183,1414.9 809.761,1432.3 810.339,1429.37 810.917,1423.87 811.495,1426.88 812.073,1435.61 812.651,1439.81 813.229,1416.6 
  813.807,1428.89 814.385,1405.02 814.963,1435.09 815.541,1426.71 816.119,1434.54 816.697,1418.77 817.275,1418.22 817.853,1400.19 818.431,1429.07 819.009,1426.16 
  819.587,1415.85 820.165,1430.66 820.743,1419.2 821.321,1420.76 821.899,1408.18 822.477,1437.47 823.055,1429.33 823.633,1430.44 824.211,1418.29 824.789,1424.19 
  825.367,1416.23 825.945,1429.39 826.523,1427.49 827.101,1424.23 827.679,1412.95 828.257,1400.51 828.835,1434.02 829.413,1437.69 829.991,1421.78 830.569,1439.02 
  831.147,1426.61 831.725,1445.13 832.303,1426.47 832.881,1433.84 833.459,1427.25 834.037,1412.3 834.615,1418.11 835.193,1430.59 835.771,1434.41 836.349,1424.55 
  836.927,1424.7 837.505,1439.58 838.083,1410.46 838.661,1434.7 839.239,1419.3 839.817,1420.73 840.395,1394.74 840.973,1434.58 841.551,1421.92 842.129,1427.17 
  842.707,1431.63 843.285,1426.73 843.863,1432.21 844.441,1424.95 845.019,1417.1 845.597,1428.7 846.175,1428.21 846.753,1432.97 847.331,1433.53 847.91,1420.98 
  848.488,1432.55 849.066,1420.33 849.644,1426.86 850.222,1443.45 850.8,1421.01 851.378,1424.58 851.956,1416.22 852.534,1427.46 853.112,1443.17 853.69,1399.24 
  854.268,1440.68 854.846,1434.91 855.424,1440 856.002,1412.94 856.58,1426.48 857.158,1425.5 857.736,1424.14 858.314,1430.52 858.892,1438.3 859.47,1430.84 
  860.048,1436.25 860.626,1421.27 861.204,1443.59 861.782,1424.69 862.36,1425.26 862.938,1428.02 863.516,1430.64 864.094,1440.04 864.672,1421.01 865.25,1434.09 
  865.828,1438.53 866.406,1417.05 866.984,1434.99 867.562,1417.87 868.14,1405.41 868.718,1432.36 869.296,1384.25 869.874,1437.8 870.452,1423.99 871.03,1426.89 
  871.608,1438.71 872.186,1437.06 872.764,1422.95 873.342,1440.01 873.92,1425.1 874.498,1420.61 875.076,1434.88 875.654,1420.5 876.232,1430.68 876.81,1438.34 
  877.388,1425.84 877.966,1439.65 878.544,1438.61 879.122,1416.1 879.7,1440.09 880.278,1435.89 880.856,1429.57 881.434,1441.34 882.012,1426.33 882.59,1414.1 
  883.168,1429.4 883.746,1443.86 884.324,1429.5 884.902,1441.4 885.48,1433.8 886.058,1419.84 886.636,1428.31 887.214,1439.14 887.792,1414.03 888.37,1424.84 
  888.948,1427.91 889.526,1441.13 890.104,1433.68 890.682,1430.01 891.26,1429.38 891.838,1412.01 892.416,1411.62 892.994,1434.72 893.572,1414.94 894.15,1438.45 
  894.728,1435.66 895.306,1427.68 895.884,1431.66 896.462,1442.24 897.04,1428.18 897.618,1426.38 898.196,1437.94 898.774,1428.35 899.352,1421.21 899.93,1432.51 
  900.508,1410.04 901.086,1438.7 901.664,1421.09 902.242,1398.68 902.82,1439.57 903.398,1421.79 903.976,1432.91 904.554,1422.12 905.132,1438.62 905.71,1412.5 
  906.288,1411.46 906.866,1432.06 907.444,1432.04 908.022,1423.52 908.6,1430.52 909.178,1406.49 909.756,1429.95 910.334,1437.57 910.912,1428.77 911.49,1436.58 
  912.068,1425.65 912.646,1419.79 913.224,1413.43 913.802,1426.02 914.38,1424.97 914.958,1410.74 915.536,1431.13 916.114,1424.77 916.692,1418.45 917.27,1427.55 
  917.848,1435.5 918.426,1424.98 919.004,1443.87 919.582,1433.23 920.16,1429.16 920.738,1425.34 921.316,1439.74 921.894,1408.18 922.472,1425.27 923.05,1427.7 
  923.628,1428.68 924.206,1406.76 924.784,1422.31 925.362,1418.05 925.94,1435.27 926.518,1439.78 927.096,1428.09 927.674,1433.71 928.252,1438.44 928.83,1418.48 
  929.408,1432.63 929.986,1434.16 930.564,1433.65 931.142,1443.54 931.72,1435.37 932.298,1432.2 932.876,1417.33 933.454,1417.58 934.032,1439.58 934.61,1427 
  935.188,1434.84 935.766,1429.01 936.344,1422.81 936.922,1429.72 937.5,1433.88 938.078,1423.37 938.656,1443.9 939.234,1427.09 939.812,1432.92 940.39,1427.96 
  940.968,1428.05 941.546,1419.65 942.124,1426.14 942.702,1440.52 943.28,1441.08 943.858,1437.84 944.436,1443.06 945.014,1432.76 945.592,1424.67 946.17,1431.37 
  946.748,1431.89 947.326,1434.12 947.904,1432.66 948.482,1415.11 949.06,1424.39 949.638,1430.43 950.216,1434.53 950.794,1431.79 951.372,1433.87 951.95,1431.44 
  952.528,1432.54 953.106,1437.95 953.684,1426.26 954.262,1430.94 954.84,1432.87 955.418,1418.05 955.996,1430.26 956.574,1421.28 957.152,1422.86 957.73,1417.27 
  958.308,1430.05 958.886,1440.05 959.464,1439.83 960.042,1425.92 960.62,1429.74 961.198,1424.79 961.776,1421.53 962.354,1428.41 962.932,1427.4 963.51,1421.28 
  964.088,1431.66 964.666,1429.29 965.244,1425.05 965.822,1438.82 966.4,1414.51 966.978,1430.92 967.556,1441 968.134,1435.24 968.712,1426.18 969.29,1417.6 
  969.868,1433.33 970.446,1414.06 971.024,1435.07 971.602,1409.04 972.18,1424.16 972.758,1437.63 973.336,1432.99 973.914,1414.23 974.492,1438.86 975.071,1432.94 
  975.649,1420.04 976.227,1432.79 976.805,1415.19 977.383,1422.65 977.961,1433.34 978.539,1438.57 979.117,1432.91 979.695,1422.1 980.273,1442.04 980.851,1416.15 
  981.429,1427.82 982.007,1417.99 982.585,1438.05 983.163,1427.68 983.741,1432.89 984.319,1406.71 984.897,1440.94 985.475,1431.58 986.053,1432.61 986.631,1445.72 
  987.209,1427.86 987.787,1429.05 988.365,1438.26 988.943,1438.68 989.521,1433.06 990.099,1415.03 990.677,1428.18 991.255,1428.48 991.833,1383.65 992.411,1401.92 
  992.989,1427.58 993.567,1426.47 994.145,1423.96 994.723,1430.49 995.301,1441.41 995.879,1436.81 996.457,1419.75 997.035,1437.46 997.613,1414.78 998.191,1425.27 
  998.769,1411.09 999.347,1440.46 999.925,1416.91 1000.5,1429.35 1001.08,1428.56 1001.66,1421.39 1002.24,1422.01 1002.81,1437.21 1003.39,1436.31 1003.97,1432.87 
  1004.55,1431.36 1005.13,1444.13 1005.7,1425.77 1006.28,1423.65 1006.86,1435.9 1007.44,1431.1 1008.02,1433.02 1008.59,1425.15 1009.17,1414.6 1009.75,1434.89 
  1010.33,1425.96 1010.91,1436.06 1011.48,1432.35 1012.06,1420.21 1012.64,1421.86 1013.22,1441.16 1013.8,1440.74 1014.37,1432.02 1014.95,1423.83 1015.53,1419.41 
  1016.11,1418.16 1016.69,1441.31 1017.26,1416.21 1017.84,1434.1 1018.42,1440.79 1019,1427.84 1019.58,1431.15 1020.15,1416.03 1020.73,1433.43 1021.31,1437.14 
  1021.89,1430.83 1022.47,1422.78 1023.04,1429.25 1023.62,1427.15 1024.2,1423.21 1024.78,1437.11 1025.36,1440.17 1025.93,1427.79 1026.51,1439.58 1027.09,1430.27 
  1027.67,1438.29 1028.25,1428.67 1028.82,1435.55 1029.4,1433.67 1029.98,1421.05 1030.56,1438.72 1031.14,1424.03 1031.71,1425 1032.29,1422.43 1032.87,1421.26 
  1033.45,1421.03 1034.03,1437.33 1034.6,1426.71 1035.18,1420.78 1035.76,1441.6 1036.34,1433.69 1036.92,1421.13 1037.49,1431.61 1038.07,1422.33 1038.65,1425.35 
  1039.23,1433.36 1039.81,1428.22 1040.39,1428.95 1040.96,1441.18 1041.54,1423.13 1042.12,1437.8 1042.7,1429.66 1043.28,1421.43 1043.85,1417.07 1044.43,1436.51 
  1045.01,1442.25 1045.59,1410.44 1046.17,1419.43 1046.74,1427.16 1047.32,1401.72 1047.9,1417.96 1048.48,1428 1049.06,1427.87 1049.63,1439.42 1050.21,1414.53 
  1050.79,1428.05 1051.37,1414.53 1051.95,1433.6 1052.52,1411.06 1053.1,1429.18 1053.68,1423.54 1054.26,1434.81 1054.84,1432.03 1055.41,1438.34 1055.99,1429.52 
  1056.57,1428.59 1057.15,1439.63 1057.73,1419.64 1058.3,1422.46 1058.88,1433.22 1059.46,1420.95 1060.04,1434.05 1060.62,1439.93 1061.19,1430.37 1061.77,1427.66 
  1062.35,1431.84 1062.93,1437.44 1063.51,1393.97 1064.08,1436.4 1064.66,1437.5 1065.24,1429.61 1065.82,1416.94 1066.4,1425.97 1066.97,1428.62 1067.55,1429.37 
  1068.13,1429.3 1068.71,1421.22 1069.29,1432.27 1069.86,1426.91 1070.44,1438.67 1071.02,1418.11 1071.6,1412.89 1072.18,1408.86 1072.75,1444.53 1073.33,1431.78 
  1073.91,1425.04 1074.49,1440.63 1075.07,1419.06 1075.64,1426.04 1076.22,1425.28 1076.8,1440.03 1077.38,1424.97 1077.96,1413.96 1078.53,1419.57 1079.11,1426.4 
  1079.69,1429.02 1080.27,1422.93 1080.85,1440 1081.42,1417.63 1082,1431.88 1082.58,1423.76 1083.16,1427.24 1083.74,1442.01 1084.31,1425.71 1084.89,1442.62 
  1085.47,1427.67 1086.05,1427.75 1086.63,1436.3 1087.2,1426.82 1087.78,1427.92 1088.36,1418.25 1088.94,1442.1 1089.52,1433.21 1090.09,1432.45 1090.67,1420.61 
  1091.25,1437.04 1091.83,1442.15 1092.41,1433.24 1092.98,1441.85 1093.56,1428.81 1094.14,1422.19 1094.72,1420.04 1095.3,1430.09 1095.87,1433.01 1096.45,1438.69 
  1097.03,1441.39 1097.61,1423.77 1098.19,1425.33 1098.76,1422.86 1099.34,1441.63 1099.92,1430.62 1100.5,1424.14 1101.08,1430.79 1101.65,1422.19 1102.23,1434.89 
  1102.81,1430.82 1103.39,1428.49 1103.97,1440.42 1104.54,1441.58 1105.12,1426.22 1105.7,1432.2 1106.28,1436.34 1106.86,1437.43 1107.43,1429.9 1108.01,1425.23 
  1108.59,1432.95 1109.17,1436.17 1109.75,1438.85 1110.32,1426.76 1110.9,1436.7 1111.48,1422.8 1112.06,1440.03 1112.64,1440.92 1113.21,1438.56 1113.79,1440.28 
  1114.37,1442.8 1114.95,1441.73 1115.53,1426.36 1116.1,1425.37 1116.68,1428.39 1117.26,1442.76 1117.84,1436.25 1118.42,1432.67 1118.99,1442.54 1119.57,1432.32 
  1120.15,1418.23 1120.73,1433.52 1121.31,1437.46 1121.88,1437.02 1122.46,1426.97 1123.04,1434.27 1123.62,1433.9 1124.2,1440.67 1124.77,1430.72 1125.35,1440.42 
  1125.93,1440.88 1126.51,1434.48 1127.09,1433.47 1127.66,1430.69 1128.24,1431.69 1128.82,1421.39 1129.4,1427.34 1129.98,1437.34 1130.55,1428.73 1131.13,1439.16 
  1131.71,1432.85 1132.29,1432.83 1132.87,1428.51 1133.44,1428.34 1134.02,1443.19 1134.6,1434.14 1135.18,1435.63 1135.76,1439.55 1136.33,1421.07 1136.91,1429.86 
  1137.49,1425.59 1138.07,1434.81 1138.65,1422.75 1139.22,1435.7 1139.8,1439.01 1140.38,1431.58 1140.96,1438.77 1141.54,1408.25 1142.11,1436.18 1142.69,1432.25 
  1143.27,1437.52 1143.85,1421.83 1144.43,1428 1145,1436.15 1145.58,1434.45 1146.16,1441.88 1146.74,1431.16 1147.32,1443.21 1147.89,1434.2 1148.47,1420.54 
  1149.05,1428.38 1149.63,1429.01 1150.21,1423.65 1150.78,1426.91 1151.36,1430.76 1151.94,1432.56 1152.52,1433.54 1153.1,1418.24 1153.67,1433.05 1154.25,1437.51 
  1154.83,1413.37 1155.41,1430.7 1155.99,1428.06 1156.56,1436.98 1157.14,1420.64 1157.72,1425.21 1158.3,1423.64 1158.88,1428.01 1159.45,1424.55 1160.03,1418.9 
  1160.61,1436.82 1161.19,1429.79 1161.77,1413.8 1162.34,1437.93 1162.92,1429.53 1163.5,1428.74 1164.08,1433.57 1164.66,1417.79 1165.23,1438.95 1165.81,1438.54 
  1166.39,1414.4 1166.97,1419.15 1167.55,1433.43 1168.12,1441.09 1168.7,1422.56 1169.28,1435.59 1169.86,1443.33 1170.44,1425.3 1171.01,1430.46 1171.59,1425.23 
  1172.17,1432.55 1172.75,1429.91 1173.33,1429.24 1173.9,1441.85 1174.48,1442.47 1175.06,1428.84 1175.64,1426.65 1176.22,1441.14 1176.79,1422.95 1177.37,1431.97 
  1177.95,1428.86 1178.53,1427.32 1179.11,1435.21 1179.68,1418.68 1180.26,1436.37 1180.84,1434.39 1181.42,1440.39 1182,1428.72 1182.57,1441.32 1183.15,1436.04 
  1183.73,1437.39 1184.31,1428.66 1184.89,1436.7 1185.46,1439.03 1186.04,1428.76 1186.62,1432.17 1187.2,1418.31 1187.78,1431.74 1188.35,1420.57 1188.93,1439.83 
  1189.51,1433.88 1190.09,1437.96 1190.67,1437.14 1191.24,1436.88 1191.82,1426.01 1192.4,1442.58 1192.98,1420.97 1193.56,1440.77 1194.13,1437.6 1194.71,1430.32 
  1195.29,1422.95 1195.87,1443.89 1196.45,1434.07 1197.02,1435.77 1197.6,1421.98 1198.18,1438.68 1198.76,1433.81 1199.34,1441.44 1199.91,1436.86 1200.49,1445.48 
  1201.07,1417.67 1201.65,1429.19 1202.23,1424.09 1202.8,1427.28 1203.38,1430.58 1203.96,1430.88 1204.54,1435.08 1205.12,1437.71 1205.69,1421.67 1206.27,1416.88 
  1206.85,1431.84 1207.43,1415.84 1208.01,1431.34 1208.58,1420.41 1209.16,1425.19 1209.74,1430.06 1210.32,1428 1210.9,1440.15 1211.47,1437.1 1212.05,1431.35 
  1212.63,1424.78 1213.21,1436.95 1213.79,1440.24 1214.36,1415.72 1214.94,1441.85 1215.52,1443.55 1216.1,1432.32 1216.68,1433.95 1217.25,1410.21 1217.83,1429.53 
  1218.41,1421.34 1218.99,1422.56 1219.57,1417.16 1220.14,1428.47 1220.72,1435.09 1221.3,1430.28 1221.88,1439.16 1222.46,1428.64 1223.03,1428.39 1223.61,1428.92 
  1224.19,1418.3 1224.77,1432.37 1225.35,1440.1 1225.92,1429.03 1226.5,1428.85 1227.08,1431.74 1227.66,1431.47 1228.24,1425.09 1228.81,1431.23 1229.39,1407.84 
  1229.97,1437.26 1230.55,1438.17 1231.13,1429.86 1231.7,1432.71 1232.28,1443.81 1232.86,1410.47 1233.44,1435.24 1234.02,1437.46 1234.59,1442.67 1235.17,1428.03 
  1235.75,1433.35 1236.33,1426.23 1236.91,1434.55 1237.48,1418.51 1238.06,1433.28 1238.64,1433.47 1239.22,1423.99 1239.8,1431.05 1240.37,1434.79 1240.95,1422.15 
  1241.53,1436.83 1242.11,1435.21 1242.69,1436.98 1243.26,1428.39 1243.84,1434.13 1244.42,1422.62 1245,1429.01 1245.58,1418.46 1246.15,1437.09 1246.73,1436.49 
  1247.31,1439.35 1247.89,1422.88 1248.47,1440.71 1249.04,1433.15 1249.62,1426.36 1250.2,1428.51 1250.78,1428.42 1251.36,1428.76 1251.93,1420.53 1252.51,1438.31 
  1253.09,1426.61 1253.67,1426.64 1254.25,1437.05 1254.82,1428.4 1255.4,1427.45 1255.98,1424.8 1256.56,1434.19 1257.14,1433.95 1257.71,1438.79 1258.29,1426.15 
  1258.87,1432.48 1259.45,1433.33 1260.03,1420.91 1260.6,1427.47 1261.18,1434.8 1261.76,1441.09 1262.34,1440.9 1262.92,1439.96 1263.49,1439.64 1264.07,1438.93 
  1264.65,1434.1 1265.23,1440.4 1265.81,1430.47 1266.38,1430.9 1266.96,1431.89 1267.54,1436.17 1268.12,1420.87 1268.7,1431.3 1269.27,1442.89 1269.85,1421.38 
  1270.43,1429.75 1271.01,1435.6 1271.59,1422.99 1272.16,1419.11 1272.74,1427.89 1273.32,1432.71 1273.9,1437.97 1274.48,1426.69 1275.05,1435.41 1275.63,1421.4 
  1276.21,1437.05 1276.79,1434.11 1277.37,1429.16 1277.94,1427.83 1278.52,1424.21 1279.1,1417.96 1279.68,1437.3 1280.26,1422.7 1280.83,1434.3 1281.41,1420 
  1281.99,1434.03 1282.57,1417.43 1283.15,1432.7 1283.72,1427.84 1284.3,1430.42 1284.88,1433.54 1285.46,1427.27 1286.04,1422.12 1286.61,1420.37 1287.19,1430.01 
  1287.77,1432.94 1288.35,1411.27 1288.93,1440.27 1289.5,1431.92 1290.08,1419.61 1290.66,1416.35 1291.24,1428.66 1291.82,1436.73 1292.4,1432.73 1292.97,1411.4 
  1293.55,1421.73 1294.13,1434.4 1294.71,1433.05 1295.29,1437.04 1295.86,1426.43 1296.44,1433.46 1297.02,1436.06 1297.6,1430.64 1298.18,1432.38 1298.75,1432.47 
  1299.33,1435.98 1299.91,1436.84 1300.49,1429.62 1301.07,1438.26 1301.64,1440.38 1302.22,1417.39 1302.8,1424.91 1303.38,1399.8 1303.96,1418.5 1304.53,1421.67 
  1305.11,1430.52 1305.69,1425.19 1306.27,1438.4 1306.85,1439.04 1307.42,1410.46 1308,1429.57 1308.58,1431.64 1309.16,1434.78 1309.74,1420.3 1310.31,1427.61 
  1310.89,1435.14 1311.47,1437.54 1312.05,1428.85 1312.63,1430.45 1313.2,1436.47 1313.78,1419.65 1314.36,1432.06 1314.94,1440.36 1315.52,1435.89 1316.09,1433.4 
  1316.67,1419.56 1317.25,1434.8 1317.83,1428.4 1318.41,1421.41 1318.98,1442.86 1319.56,1434.68 1320.14,1433.74 1320.72,1436.53 1321.3,1431.43 1321.87,1439.94 
  1322.45,1431.84 1323.03,1415.16 1323.61,1443.01 1324.19,1434.36 1324.76,1443.91 1325.34,1419.99 1325.92,1431.2 1326.5,1439.04 1327.08,1433.28 1327.65,1428.19 
  1328.23,1425.63 1328.81,1426.45 1329.39,1429.58 1329.97,1436.39 1330.54,1425.39 1331.12,1434.03 1331.7,1433.16 1332.28,1427.26 1332.86,1425.21 1333.43,1437.71 
  1334.01,1435.09 1334.59,1434.77 1335.17,1417.16 1335.75,1438.1 1336.32,1435.23 1336.9,1429.42 1337.48,1440.45 1338.06,1438.63 1338.64,1420.5 1339.21,1436.12 
  1339.79,1434.24 1340.37,1427.89 1340.95,1437.59 1341.53,1433.43 1342.1,1439.96 1342.68,1438.14 1343.26,1416.41 1343.84,1415.57 1344.42,1441.61 1344.99,1432.09 
  1345.57,1412.95 1346.15,1426.78 1346.73,1420.85 1347.31,1426.78 1347.88,1412.95 1348.46,1432.09 1349.04,1441.61 1349.62,1415.57 1350.2,1416.41 1350.77,1438.14 
  1351.35,1439.96 1351.93,1433.43 1352.51,1437.59 1353.09,1427.89 1353.66,1434.24 1354.24,1436.12 1354.82,1420.5 1355.4,1438.63 1355.98,1440.45 1356.55,1429.42 
  1357.13,1435.23 1357.71,1438.1 1358.29,1417.16 1358.87,1434.77 1359.44,1435.09 1360.02,1437.71 1360.6,1425.21 1361.18,1427.26 1361.76,1433.16 1362.33,1434.03 
  1362.91,1425.39 1363.49,1436.39 1364.07,1429.58 1364.65,1426.45 1365.22,1425.63 1365.8,1428.19 1366.38,1433.28 1366.96,1439.04 1367.54,1431.2 1368.11,1419.99 
  1368.69,1443.91 1369.27,1434.36 1369.85,1443.01 1370.43,1415.16 1371,1431.84 1371.58,1439.94 1372.16,1431.43 1372.74,1436.53 1373.32,1433.74 1373.89,1434.68 
  1374.47,1442.86 1375.05,1421.41 1375.63,1428.4 1376.21,1434.8 1376.78,1419.56 1377.36,1433.4 1377.94,1435.89 1378.52,1440.36 1379.1,1432.06 1379.67,1419.65 
  1380.25,1436.47 1380.83,1430.45 1381.41,1428.85 1381.99,1437.54 1382.56,1435.14 1383.14,1427.61 1383.72,1420.3 1384.3,1434.78 1384.88,1431.64 1385.45,1429.57 
  1386.03,1410.46 1386.61,1439.04 1387.19,1438.4 1387.77,1425.19 1388.34,1430.52 1388.92,1421.67 1389.5,1418.5 1390.08,1399.8 1390.66,1424.91 1391.23,1417.39 
  1391.81,1440.38 1392.39,1438.26 1392.97,1429.62 1393.55,1436.84 1394.12,1435.98 1394.7,1432.47 1395.28,1432.38 1395.86,1430.64 1396.44,1436.06 1397.01,1433.46 
  1397.59,1426.43 1398.17,1437.04 1398.75,1433.05 1399.33,1434.4 1399.9,1421.73 1400.48,1411.4 1401.06,1432.73 1401.64,1436.73 1402.22,1428.66 1402.79,1416.35 
  1403.37,1419.61 1403.95,1431.92 1404.53,1440.27 1405.11,1411.27 1405.68,1432.94 1406.26,1430.01 1406.84,1420.37 1407.42,1422.12 1408,1427.27 1408.57,1433.54 
  1409.15,1430.42 1409.73,1427.84 1410.31,1432.7 1410.89,1417.43 1411.46,1434.03 1412.04,1420 1412.62,1434.3 1413.2,1422.7 1413.78,1437.3 1414.35,1417.96 
  1414.93,1424.21 1415.51,1427.83 1416.09,1429.16 1416.67,1434.11 1417.24,1437.05 1417.82,1421.4 1418.4,1435.41 1418.98,1426.69 1419.56,1437.97 1420.13,1432.71 
  1420.71,1427.89 1421.29,1419.11 1421.87,1422.99 1422.45,1435.6 1423.02,1429.75 1423.6,1421.38 1424.18,1442.89 1424.76,1431.3 1425.34,1420.87 1425.91,1436.17 
  1426.49,1431.89 1427.07,1430.9 1427.65,1430.47 1428.23,1440.4 1428.8,1434.1 1429.38,1438.93 1429.96,1439.64 1430.54,1439.96 1431.12,1440.9 1431.69,1441.09 
  1432.27,1434.8 1432.85,1427.47 1433.43,1420.91 1434.01,1433.33 1434.58,1432.48 1435.16,1426.15 1435.74,1438.79 1436.32,1433.95 1436.9,1434.19 1437.47,1424.8 
  1438.05,1427.45 1438.63,1428.4 1439.21,1437.05 1439.79,1426.64 1440.36,1426.61 1440.94,1438.31 1441.52,1420.53 1442.1,1428.76 1442.68,1428.42 1443.25,1428.51 
  1443.83,1426.36 1444.41,1433.15 1444.99,1440.71 1445.57,1422.88 1446.14,1439.35 1446.72,1436.49 1447.3,1437.09 1447.88,1418.46 1448.46,1429.01 1449.03,1422.62 
  1449.61,1434.13 1450.19,1428.39 1450.77,1436.98 1451.35,1435.21 1451.92,1436.83 1452.5,1422.15 1453.08,1434.79 1453.66,1431.05 1454.24,1423.99 1454.81,1433.47 
  1455.39,1433.28 1455.97,1418.51 1456.55,1434.55 1457.13,1426.23 1457.7,1433.35 1458.28,1428.03 1458.86,1442.67 1459.44,1437.46 1460.02,1435.24 1460.59,1410.47 
  1461.17,1443.81 1461.75,1432.71 1462.33,1429.86 1462.91,1438.17 1463.48,1437.26 1464.06,1407.84 1464.64,1431.23 1465.22,1425.09 1465.8,1431.47 1466.37,1431.74 
  1466.95,1428.85 1467.53,1429.03 1468.11,1440.1 1468.69,1432.37 1469.26,1418.3 1469.84,1428.92 1470.42,1428.39 1471,1428.64 1471.58,1439.16 1472.15,1430.28 
  1472.73,1435.09 1473.31,1428.47 1473.89,1417.16 1474.47,1422.56 1475.04,1421.34 1475.62,1429.53 1476.2,1410.21 1476.78,1433.95 1477.36,1432.32 1477.93,1443.55 
  1478.51,1441.85 1479.09,1415.72 1479.67,1440.24 1480.25,1436.95 1480.82,1424.78 1481.4,1431.35 1481.98,1437.1 1482.56,1440.15 1483.14,1428 1483.71,1430.06 
  1484.29,1425.19 1484.87,1420.41 1485.45,1431.34 1486.03,1415.84 1486.6,1431.84 1487.18,1416.88 1487.76,1421.67 1488.34,1437.71 1488.92,1435.08 1489.49,1430.88 
  1490.07,1430.58 1490.65,1427.28 1491.23,1424.09 1491.81,1429.19 1492.38,1417.67 1492.96,1445.48 1493.54,1436.86 1494.12,1441.44 1494.7,1433.81 1495.27,1438.68 
  1495.85,1421.98 1496.43,1435.77 1497.01,1434.07 1497.59,1443.89 1498.16,1422.95 1498.74,1430.32 1499.32,1437.6 1499.9,1440.77 1500.48,1420.97 1501.05,1442.58 
  1501.63,1426.01 1502.21,1436.88 1502.79,1437.14 1503.37,1437.96 1503.94,1433.88 1504.52,1439.83 1505.1,1420.57 1505.68,1431.74 1506.26,1418.31 1506.83,1432.17 
  1507.41,1428.76 1507.99,1439.03 1508.57,1436.7 1509.15,1428.66 1509.72,1437.39 1510.3,1436.04 1510.88,1441.32 1511.46,1428.72 1512.04,1440.39 1512.61,1434.39 
  1513.19,1436.37 1513.77,1418.68 1514.35,1435.21 1514.93,1427.32 1515.5,1428.86 1516.08,1431.97 1516.66,1422.95 1517.24,1441.14 1517.82,1426.65 1518.39,1428.84 
  1518.97,1442.47 1519.55,1441.85 1520.13,1429.24 1520.71,1429.91 1521.28,1432.55 1521.86,1425.23 1522.44,1430.46 1523.02,1425.3 1523.6,1443.33 1524.17,1435.59 
  1524.75,1422.56 1525.33,1441.09 1525.91,1433.43 1526.49,1419.15 1527.06,1414.4 1527.64,1438.54 1528.22,1438.95 1528.8,1417.79 1529.38,1433.57 1529.95,1428.74 
  1530.53,1429.53 1531.11,1437.93 1531.69,1413.8 1532.27,1429.79 1532.84,1436.82 1533.42,1418.9 1534,1424.55 1534.58,1428.01 1535.16,1423.64 1535.73,1425.21 
  1536.31,1420.64 1536.89,1436.98 1537.47,1428.06 1538.05,1430.7 1538.62,1413.37 1539.2,1437.51 1539.78,1433.05 1540.36,1418.24 1540.94,1433.54 1541.51,1432.56 
  1542.09,1430.76 1542.67,1426.91 1543.25,1423.65 1543.83,1429.01 1544.4,1428.38 1544.98,1420.54 1545.56,1434.2 1546.14,1443.21 1546.72,1431.16 1547.3,1441.88 
  1547.87,1434.45 1548.45,1436.15 1549.03,1428 1549.61,1421.83 1550.19,1437.52 1550.76,1432.25 1551.34,1436.18 1551.92,1408.25 1552.5,1438.77 1553.08,1431.58 
  1553.65,1439.01 1554.23,1435.7 1554.81,1422.75 1555.39,1434.81 1555.97,1425.59 1556.54,1429.86 1557.12,1421.07 1557.7,1439.55 1558.28,1435.63 1558.86,1434.14 
  1559.43,1443.19 1560.01,1428.34 1560.59,1428.51 1561.17,1432.83 1561.75,1432.85 1562.32,1439.16 1562.9,1428.73 1563.48,1437.34 1564.06,1427.34 1564.64,1421.39 
  1565.21,1431.69 1565.79,1430.69 1566.37,1433.47 1566.95,1434.48 1567.53,1440.88 1568.1,1440.42 1568.68,1430.72 1569.26,1440.67 1569.84,1433.9 1570.42,1434.27 
  1570.99,1426.97 1571.57,1437.02 1572.15,1437.46 1572.73,1433.52 1573.31,1418.23 1573.88,1432.32 1574.46,1442.54 1575.04,1432.67 1575.62,1436.25 1576.2,1442.76 
  1576.77,1428.39 1577.35,1425.37 1577.93,1426.36 1578.51,1441.73 1579.09,1442.8 1579.66,1440.28 1580.24,1438.56 1580.82,1440.92 1581.4,1440.03 1581.98,1422.8 
  1582.55,1436.7 1583.13,1426.76 1583.71,1438.85 1584.29,1436.17 1584.87,1432.95 1585.44,1425.23 1586.02,1429.9 1586.6,1437.43 1587.18,1436.34 1587.76,1432.2 
  1588.33,1426.22 1588.91,1441.58 1589.49,1440.42 1590.07,1428.49 1590.65,1430.82 1591.22,1434.89 1591.8,1422.19 1592.38,1430.79 1592.96,1424.14 1593.54,1430.62 
  1594.11,1441.63 1594.69,1422.86 1595.27,1425.33 1595.85,1423.77 1596.43,1441.39 1597,1438.69 1597.58,1433.01 1598.16,1430.09 1598.74,1420.04 1599.32,1422.19 
  1599.89,1428.81 1600.47,1441.85 1601.05,1433.24 1601.63,1442.15 1602.21,1437.04 1602.78,1420.61 1603.36,1432.45 1603.94,1433.21 1604.52,1442.1 1605.1,1418.25 
  1605.67,1427.92 1606.25,1426.82 1606.83,1436.3 1607.41,1427.75 1607.99,1427.67 1608.56,1442.62 1609.14,1425.71 1609.72,1442.01 1610.3,1427.24 1610.88,1423.76 
  1611.45,1431.88 1612.03,1417.63 1612.61,1440 1613.19,1422.93 1613.77,1429.02 1614.34,1426.4 1614.92,1419.57 1615.5,1413.96 1616.08,1424.97 1616.66,1440.03 
  1617.23,1425.28 1617.81,1426.04 1618.39,1419.06 1618.97,1440.63 1619.55,1425.04 1620.12,1431.78 1620.7,1444.53 1621.28,1408.86 1621.86,1412.89 1622.44,1418.11 
  1623.01,1438.67 1623.59,1426.91 1624.17,1432.27 1624.75,1421.22 1625.33,1429.3 1625.9,1429.37 1626.48,1428.62 1627.06,1425.97 1627.64,1416.94 1628.22,1429.61 
  1628.79,1437.5 1629.37,1436.4 1629.95,1393.97 1630.53,1437.44 1631.11,1431.84 1631.68,1427.66 1632.26,1430.37 1632.84,1439.93 1633.42,1434.05 1634,1420.95 
  1634.57,1433.22 1635.15,1422.46 1635.73,1419.64 1636.31,1439.63 1636.89,1428.59 1637.46,1429.52 1638.04,1438.34 1638.62,1432.03 1639.2,1434.81 1639.78,1423.54 
  1640.35,1429.18 1640.93,1411.06 1641.51,1433.6 1642.09,1414.53 1642.67,1428.05 1643.24,1414.53 1643.82,1439.42 1644.4,1427.87 1644.98,1428 1645.56,1417.96 
  1646.13,1401.72 1646.71,1427.16 1647.29,1419.43 1647.87,1410.44 1648.45,1442.25 1649.02,1436.51 1649.6,1417.07 1650.18,1421.43 1650.76,1429.66 1651.34,1437.8 
  1651.91,1423.13 1652.49,1441.18 1653.07,1428.95 1653.65,1428.22 1654.23,1433.36 1654.8,1425.35 1655.38,1422.33 1655.96,1431.61 1656.54,1421.13 1657.12,1433.69 
  1657.69,1441.6 1658.27,1420.78 1658.85,1426.71 1659.43,1437.33 1660.01,1421.03 1660.58,1421.26 1661.16,1422.43 1661.74,1425 1662.32,1424.03 1662.9,1438.72 
  1663.47,1421.05 1664.05,1433.67 1664.63,1435.55 1665.21,1428.67 1665.79,1438.29 1666.36,1430.27 1666.94,1439.58 1667.52,1427.79 1668.1,1440.17 1668.68,1437.11 
  1669.25,1423.21 1669.83,1427.15 1670.41,1429.25 1670.99,1422.78 1671.57,1430.83 1672.14,1437.14 1672.72,1433.43 1673.3,1416.03 1673.88,1431.15 1674.46,1427.84 
  1675.03,1440.79 1675.61,1434.1 1676.19,1416.21 1676.77,1441.31 1677.35,1418.16 1677.92,1419.41 1678.5,1423.83 1679.08,1432.02 1679.66,1440.74 1680.24,1441.16 
  1680.81,1421.86 1681.39,1420.21 1681.97,1432.35 1682.55,1436.06 1683.13,1425.96 1683.7,1434.89 1684.28,1414.6 1684.86,1425.15 1685.44,1433.02 1686.02,1431.1 
  1686.59,1435.9 1687.17,1423.65 1687.75,1425.77 1688.33,1444.13 1688.91,1431.36 1689.48,1432.87 1690.06,1436.31 1690.64,1437.21 1691.22,1422.01 1691.8,1421.39 
  1692.37,1428.56 1692.95,1429.35 1693.53,1416.91 1694.11,1440.46 1694.69,1411.09 1695.26,1425.27 1695.84,1414.78 1696.42,1437.46 1697,1419.75 1697.58,1436.81 
  1698.15,1441.41 1698.73,1430.49 1699.31,1423.96 1699.89,1426.47 1700.47,1427.58 1701.04,1401.92 1701.62,1383.65 1702.2,1428.48 1702.78,1428.18 1703.36,1415.03 
  1703.93,1433.06 1704.51,1438.68 1705.09,1438.26 1705.67,1429.05 1706.25,1427.86 1706.82,1445.72 1707.4,1432.61 1707.98,1431.58 1708.56,1440.94 1709.14,1406.71 
  1709.71,1432.89 1710.29,1427.68 1710.87,1438.05 1711.45,1417.99 1712.03,1427.82 1712.6,1416.15 1713.18,1442.04 1713.76,1422.1 1714.34,1432.91 1714.92,1438.57 
  1715.49,1433.34 1716.07,1422.65 1716.65,1415.19 1717.23,1432.79 1717.81,1420.04 1718.38,1432.94 1718.96,1438.86 1719.54,1414.23 1720.12,1432.99 1720.7,1437.63 
  1721.27,1424.16 1721.85,1409.04 1722.43,1435.07 1723.01,1414.06 1723.59,1433.33 1724.16,1417.6 1724.74,1426.18 1725.32,1435.24 1725.9,1441 1726.48,1430.92 
  1727.05,1414.51 1727.63,1438.82 1728.21,1425.05 1728.79,1429.29 1729.37,1431.66 1729.94,1421.28 1730.52,1427.4 1731.1,1428.41 1731.68,1421.53 1732.26,1424.79 
  1732.83,1429.74 1733.41,1425.92 1733.99,1439.83 1734.57,1440.05 1735.15,1430.05 1735.72,1417.27 1736.3,1422.86 1736.88,1421.28 1737.46,1430.26 1738.04,1418.05 
  1738.61,1432.87 1739.19,1430.94 1739.77,1426.26 1740.35,1437.95 1740.93,1432.54 1741.5,1431.44 1742.08,1433.87 1742.66,1431.79 1743.24,1434.53 1743.82,1430.43 
  1744.39,1424.39 1744.97,1415.11 1745.55,1432.66 1746.13,1434.12 1746.71,1431.89 1747.28,1431.37 1747.86,1424.67 1748.44,1432.76 1749.02,1443.06 1749.6,1437.84 
  1750.17,1441.08 1750.75,1440.52 1751.33,1426.14 1751.91,1419.65 1752.49,1428.05 1753.06,1427.96 1753.64,1432.92 1754.22,1427.09 1754.8,1443.9 1755.38,1423.37 
  1755.95,1433.88 1756.53,1429.72 1757.11,1422.81 1757.69,1429.01 1758.27,1434.84 1758.84,1427 1759.42,1439.58 1760,1417.58 1760.58,1417.33 1761.16,1432.2 
  1761.73,1435.37 1762.31,1443.54 1762.89,1433.65 1763.47,1434.16 1764.05,1432.63 1764.62,1418.48 1765.2,1438.44 1765.78,1433.71 1766.36,1428.09 1766.94,1439.78 
  1767.51,1435.27 1768.09,1418.05 1768.67,1422.31 1769.25,1406.76 1769.83,1428.68 1770.4,1427.7 1770.98,1425.27 1771.56,1408.18 1772.14,1439.74 1772.72,1425.34 
  1773.29,1429.16 1773.87,1433.23 1774.45,1443.87 1775.03,1424.98 1775.61,1435.5 1776.18,1427.55 1776.76,1418.45 1777.34,1424.77 1777.92,1431.13 1778.5,1410.74 
  1779.07,1424.97 1779.65,1426.02 1780.23,1413.43 1780.81,1419.79 1781.39,1425.65 1781.96,1436.58 1782.54,1428.77 1783.12,1437.57 1783.7,1429.95 1784.28,1406.49 
  1784.85,1430.52 1785.43,1423.52 1786.01,1432.04 1786.59,1432.06 1787.17,1411.46 1787.74,1412.5 1788.32,1438.62 1788.9,1422.12 1789.48,1432.91 1790.06,1421.79 
  1790.63,1439.57 1791.21,1398.68 1791.79,1421.09 1792.37,1438.7 1792.95,1410.04 1793.52,1432.51 1794.1,1421.21 1794.68,1428.35 1795.26,1437.94 1795.84,1426.38 
  1796.41,1428.18 1796.99,1442.24 1797.57,1431.66 1798.15,1427.68 1798.73,1435.66 1799.3,1438.45 1799.88,1414.94 1800.46,1434.72 1801.04,1411.62 1801.62,1412.01 
  1802.2,1429.38 1802.77,1430.01 1803.35,1433.68 1803.93,1441.13 1804.51,1427.91 1805.09,1424.84 1805.66,1414.03 1806.24,1439.14 1806.82,1428.31 1807.4,1419.84 
  1807.98,1433.8 1808.55,1441.4 1809.13,1429.5 1809.71,1443.86 1810.29,1429.4 1810.87,1414.1 1811.44,1426.33 1812.02,1441.34 1812.6,1429.57 1813.18,1435.89 
  1813.76,1440.09 1814.33,1416.1 1814.91,1438.61 1815.49,1439.65 1816.07,1425.84 1816.65,1438.34 1817.22,1430.68 1817.8,1420.5 1818.38,1434.88 1818.96,1420.61 
  1819.54,1425.1 1820.11,1440.01 1820.69,1422.95 1821.27,1437.06 1821.85,1438.71 1822.43,1426.89 1823,1423.99 1823.58,1437.8 1824.16,1384.25 1824.74,1432.36 
  1825.32,1405.41 1825.89,1417.87 1826.47,1434.99 1827.05,1417.05 1827.63,1438.53 1828.21,1434.09 1828.78,1421.01 1829.36,1440.04 1829.94,1430.64 1830.52,1428.02 
  1831.1,1425.26 1831.67,1424.69 1832.25,1443.59 1832.83,1421.27 1833.41,1436.25 1833.99,1430.84 1834.56,1438.3 1835.14,1430.52 1835.72,1424.14 1836.3,1425.5 
  1836.88,1426.48 1837.45,1412.94 1838.03,1440 1838.61,1434.91 1839.19,1440.68 1839.77,1399.24 1840.34,1443.17 1840.92,1427.46 1841.5,1416.22 1842.08,1424.58 
  1842.66,1421.01 1843.23,1443.45 1843.81,1426.86 1844.39,1420.33 1844.97,1432.55 1845.55,1420.98 1846.12,1433.53 1846.7,1432.97 1847.28,1428.21 1847.86,1428.7 
  1848.44,1417.1 1849.01,1424.95 1849.59,1432.21 1850.17,1426.73 1850.75,1431.63 1851.33,1427.17 1851.9,1421.92 1852.48,1434.58 1853.06,1394.74 1853.64,1420.73 
  1854.22,1419.3 1854.79,1434.7 1855.37,1410.46 1855.95,1439.58 1856.53,1424.7 1857.11,1424.55 1857.68,1434.41 1858.26,1430.59 1858.84,1418.11 1859.42,1412.3 
  1860,1427.25 1860.57,1433.84 1861.15,1426.47 1861.73,1445.13 1862.31,1426.61 1862.89,1439.02 1863.46,1421.78 1864.04,1437.69 1864.62,1434.02 1865.2,1400.51 
  1865.78,1412.95 1866.35,1424.23 1866.93,1427.49 1867.51,1429.39 1868.09,1416.23 1868.67,1424.19 1869.24,1418.29 1869.82,1430.44 1870.4,1429.33 1870.98,1437.47 
  1871.56,1408.18 1872.13,1420.76 1872.71,1419.2 1873.29,1430.66 1873.87,1415.85 1874.45,1426.16 1875.02,1429.07 1875.6,1400.19 1876.18,1418.22 1876.76,1418.77 
  1877.34,1434.54 1877.91,1426.71 1878.49,1435.09 1879.07,1405.02 1879.65,1428.89 1880.23,1416.6 1880.8,1439.81 1881.38,1435.61 1881.96,1426.88 1882.54,1423.87 
  1883.12,1429.37 1883.69,1432.3 1884.27,1414.9 1884.85,1425.12 1885.43,1410.32 1886.01,1422.5 1886.58,1443.39 1887.16,1433.21 1887.74,1423.52 1888.32,1404.27 
  1888.9,1439.29 1889.47,1423.08 1890.05,1435.43 1890.63,1409.69 1891.21,1411.51 1891.79,1408.52 1892.36,1408.45 1892.94,1422.23 1893.52,1422.64 1894.1,1412.57 
  1894.68,1440.82 1895.25,1419.18 1895.83,1407.95 1896.41,1430.06 1896.99,1423.84 1897.57,1415.6 1898.14,1427.47 1898.72,1419.77 1899.3,1430.35 1899.88,1416.08 
  1900.46,1420.5 1901.03,1434.44 1901.61,1432.26 1902.19,1420.29 1902.77,1420.31 1903.35,1430.78 1903.92,1412.74 1904.5,1427.72 1905.08,1407.23 1905.66,1416.89 
  1906.24,1438.91 1906.81,1414.54 1907.39,1438.03 1907.97,1422.01 1908.55,1425.53 1909.13,1415.69 1909.7,1437.55 1910.28,1434.83 1910.86,1413.83 1911.44,1413.25 
  1912.02,1421.5 1912.59,1401.49 1913.17,1403.92 1913.75,1416.56 1914.33,1429.05 1914.91,1435.04 1915.48,1409.37 1916.06,1413.45 1916.64,1424.97 1917.22,1421.64 
  1917.8,1428.14 1918.37,1427.22 1918.95,1423.11 1919.53,1421.09 1920.11,1424.22 1920.69,1421.5 1921.26,1424.74 1921.84,1443.46 1922.42,1437.59 1923,1389.19 
  1923.58,1411.83 1924.15,1419.71 1924.73,1411.98 1925.31,1411.2 1925.89,1413.94 1926.47,1401.77 1927.04,1400.04 1927.62,1426.44 1928.2,1433.61 1928.78,1438.96 
  1929.36,1418.85 1929.93,1403.71 1930.51,1409.04 1931.09,1411.27 1931.67,1435.61 1932.25,1434.17 1932.82,1422.73 1933.4,1434.13 1933.98,1425.72 1934.56,1442.27 
  1935.14,1403.84 1935.71,1432.7 1936.29,1423.43 1936.87,1413.87 1937.45,1405.8 1938.03,1441.09 1938.6,1406.65 1939.18,1422.41 1939.76,1416.75 1940.34,1415.43 
  1940.92,1410.38 1941.49,1412.67 1942.07,1418.77 1942.65,1413.72 1943.23,1431.77 1943.81,1420.91 1944.38,1438.22 1944.96,1423.64 1945.54,1407.67 1946.12,1431.7 
  1946.7,1420.28 1947.27,1432.71 1947.85,1432.3 1948.43,1417.76 1949.01,1434.52 1949.59,1440.54 1950.16,1429.21 1950.74,1424.45 1951.32,1424.04 1951.9,1443.36 
  1952.48,1428.61 1953.05,1430.81 1953.63,1414.52 1954.21,1396.61 1954.79,1441.45 1955.37,1430.8 1955.94,1423.44 1956.52,1420.94 1957.1,1412.69 1957.68,1415.96 
  1958.26,1421.17 1958.83,1431.7 1959.41,1421.78 1959.99,1407.51 1960.57,1422.6 1961.15,1411.1 1961.72,1435.11 1962.3,1433.52 1962.88,1436.61 1963.46,1432.08 
  1964.04,1445.24 1964.61,1433.83 1965.19,1436.82 1965.77,1428.62 1966.35,1423.04 1966.93,1429.55 1967.5,1401.46 1968.08,1424.09 1968.66,1410.74 1969.24,1426.26 
  1969.82,1432.61 1970.39,1429.31 1970.97,1432.33 1971.55,1422.36 1972.13,1427.76 1972.71,1429.1 1973.28,1420.37 1973.86,1430.89 1974.44,1422.53 1975.02,1416.03 
  1975.6,1414.47 1976.17,1434.53 1976.75,1439.56 1977.33,1428.82 1977.91,1418.96 1978.49,1430.53 1979.06,1404.82 1979.64,1420.74 1980.22,1424.33 1980.8,1421.18 
  1981.38,1421.59 1981.95,1427.28 1982.53,1424.17 1983.11,1422.59 1983.69,1431.65 1984.27,1417.09 1984.84,1413.51 1985.42,1436.47 1986,1417.96 1986.58,1417.39 
  1987.16,1431.28 1987.73,1426.5 1988.31,1419.03 1988.89,1421.82 1989.47,1422.87 1990.05,1425.88 1990.62,1437.65 1991.2,1408.25 1991.78,1418.78 1992.36,1412.69 
  1992.94,1426.91 1993.51,1425.32 1994.09,1411.54 1994.67,1431.67 1995.25,1407.59 1995.83,1429.96 1996.4,1423.23 1996.98,1428.76 1997.56,1424.08 1998.14,1434.05 
  1998.72,1417.25 1999.29,1412.23 1999.87,1430.65 2000.45,1426.6 2001.03,1417.43 2001.61,1428.64 2002.18,1418.69 2002.76,1404.25 2003.34,1420.62 2003.92,1437.63 
  2004.5,1424.94 2005.07,1412.79 2005.65,1396.3 2006.23,1428.46 2006.81,1407.08 2007.39,1410.88 2007.96,1426.27 2008.54,1426.59 2009.12,1428.28 2009.7,1416.12 
  2010.28,1421.21 2010.85,1433.66 2011.43,1421.9 2012.01,1420.08 2012.59,1429.65 2013.17,1429.19 2013.74,1435.03 2014.32,1393.07 2014.9,1417.16 2015.48,1425.52 
  2016.06,1439.96 2016.63,1416.08 2017.21,1424.6 2017.79,1439.92 2018.37,1437.94 2018.95,1428.7 2019.52,1432.57 2020.1,1424.11 2020.68,1431.87 2021.26,1403.98 
  2021.84,1409.64 2022.41,1433 2022.99,1425.03 2023.57,1437.66 2024.15,1422.49 2024.73,1435.48 2025.3,1434.2 2025.88,1425.15 2026.46,1415.23 2027.04,1431.15 
  2027.62,1427.13 2028.19,1434.57 2028.77,1430.63 2029.35,1407.33 2029.93,1420 2030.51,1421.16 2031.08,1423.11 2031.66,1421.2 2032.24,1432.71 2032.82,1437.74 
  2033.4,1434.93 2033.97,1431.83 2034.55,1434.85 2035.13,1405.89 2035.71,1433.17 2036.29,1422.86 2036.86,1425.6 2037.44,1440.62 2038.02,1420.53 2038.6,1436.44 
  2039.18,1428.2 2039.75,1423.76 2040.33,1423.93 2040.91,1403.83 2041.49,1439.22 2042.07,1413.96 2042.64,1428.31 2043.22,1414.08 2043.8,1433.39 2044.38,1428.57 
  2044.96,1426.69 2045.53,1415.52 2046.11,1421.75 2046.69,1432.33 2047.27,1417.26 2047.85,1394.53 2048.42,1413.26 2049,1428.75 2049.58,1407.43 2050.16,1436.99 
  2050.74,1406.87 2051.31,1410.97 2051.89,1404.11 2052.47,1391.99 2053.05,1417.51 2053.63,1414.34 2054.2,1429.31 2054.78,1392.58 2055.36,1434.09 2055.94,1413.63 
  2056.52,1436.59 2057.1,1429.06 2057.67,1399.74 2058.25,1434.35 2058.83,1418.13 2059.41,1435.37 2059.99,1420.32 2060.56,1416 2061.14,1416.58 2061.72,1404.66 
  2062.3,1385.93 2062.88,1436.02 2063.45,1433.9 2064.03,1431.61 2064.61,1416.23 2065.19,1433.05 2065.77,1424.94 2066.34,1403.09 2066.92,1407.86 2067.5,1403.3 
  2068.08,1410.8 2068.66,1427.8 2069.23,1410.64 2069.81,1416.12 2070.39,1435.18 2070.97,1430.68 2071.55,1436.91 2072.12,1427.94 2072.7,1399.37 2073.28,1438.48 
  2073.86,1374.89 2074.44,1416.39 2075.01,1406.35 2075.59,1441.8 2076.17,1421.22 2076.75,1444.42 2077.33,1395.56 2077.9,1424.07 2078.48,1414.31 2079.06,1405.87 
  2079.64,1411.76 2080.22,1427.44 2080.79,1413.58 2081.37,1425.35 2081.95,1435.63 2082.53,1422.09 2083.11,1418.54 2083.68,1423.03 2084.26,1413.87 2084.84,1433.63 
  2085.42,1437.93 2086,1421.67 2086.57,1427.82 2087.15,1380.08 2087.73,1433.11 2088.31,1430.24 2088.89,1399.52 2089.46,1410.93 2090.04,1420.52 2090.62,1401.64 
  2091.2,1435.14 2091.78,1416.13 2092.35,1422.79 2092.93,1440.79 2093.51,1418.77 2094.09,1414.09 2094.67,1439.12 2095.24,1399.24 2095.82,1408.73 2096.4,1425.12 
  2096.98,1437.1 2097.56,1429.91 2098.13,1430.68 2098.71,1437.59 2099.29,1410.09 2099.87,1433.52 2100.45,1405.39 2101.02,1438.11 2101.6,1431.62 2102.18,1410.7 
  2102.76,1428.76 2103.34,1433.01 2103.91,1442.39 2104.49,1424.25 2105.07,1416.45 2105.65,1437.93 2106.23,1403.6 2106.8,1443.19 2107.38,1419.61 2107.96,1418.72 
  2108.54,1433.97 2109.12,1430.15 2109.69,1427.6 2110.27,1413.18 2110.85,1421.49 2111.43,1430.07 2112.01,1417.79 2112.58,1430.61 2113.16,1427.49 2113.74,1382.91 
  2114.32,1424.02 2114.9,1420.79 2115.47,1361.61 2116.05,1426.68 2116.63,1417.19 2117.21,1403.11 2117.79,1419.47 2118.36,1388.95 2118.94,1430.13 2119.52,1443.18 
  2120.1,1392.27 2120.68,1418.21 2121.25,1409.88 2121.83,1427.43 2122.41,1403.26 2122.99,1432.23 2123.57,1413.02 2124.14,1406.36 2124.72,1404.02 2125.3,1426.44 
  2125.88,1426.43 2126.46,1415.82 2127.03,1435.16 2127.61,1421.8 2128.19,1425.87 2128.77,1395.39 2129.35,1420.23 2129.92,1407.67 2130.5,1397.52 2131.08,1410.87 
  2131.66,1425.59 2132.24,1393.29 2132.81,1416.75 2133.39,1419.94 2133.97,1409.87 2134.55,1383.04 2135.13,1430.15 2135.7,1416.13 2136.28,1415.63 2136.86,1427.9 
  2137.44,1427.12 2138.02,1401.53 2138.59,1389.95 2139.17,1415.84 2139.75,1437.02 2140.33,1411.01 2140.91,1396.98 2141.48,1418.81 2142.06,1413.64 2142.64,1436.53 
  2143.22,1417.38 2143.8,1373.78 2144.37,1439.11 2144.95,1434.35 2145.53,1416.68 2146.11,1401.57 2146.69,1406.41 2147.26,1415.34 2147.84,1409.63 2148.42,1377.67 
  2149,1397.7 2149.58,1412.46 2150.15,1404.6 2150.73,1436.72 2151.31,1375.32 2151.89,1404.83 2152.47,1420.41 2153.04,1411.14 2153.62,1439.38 2154.2,1414.33 
  2154.78,1422.32 2155.36,1433.83 2155.93,1417.79 2156.51,1390.94 2157.09,1399.31 2157.67,1410.12 2158.25,1388.72 2158.82,1391.79 2159.4,1412.53 2159.98,1441.92 
  2160.56,1386.56 2161.14,1425.19 2161.71,1402.04 2162.29,1397.52 2162.87,1411.21 2163.45,1423.1 2164.03,1420.14 2164.6,1415.06 2165.18,1406.82 2165.76,1413.6 
  2166.34,1424.98 2166.92,1387.68 2167.49,1434.85 2168.07,1403.76 2168.65,1399.15 2169.23,1415.96 2169.81,1440.38 2170.38,1437.8 2170.96,1419.46 2171.54,1394.13 
  2172.12,1435.43 2172.7,1422.18 2173.27,1399.64 2173.85,1400.34 2174.43,1410.74 2175.01,1418.14 2175.59,1409.26 2176.16,1432.97 2176.74,1411.26 2177.32,1392.68 
  2177.9,1423.34 2178.48,1407.88 2179.05,1406 2179.63,1414.07 2180.21,1428.25 2180.79,1434.16 2181.37,1421.68 2181.94,1439.5 2182.52,1387.2 2183.1,1399.48 
  2183.68,1417.28 2184.26,1413.19 2184.83,1414.08 2185.41,1442.24 2185.99,1407.26 2186.57,1409.03 2187.15,1432.75 2187.72,1393.84 2188.3,1412.56 2188.88,1418.56 
  2189.46,1419.97 2190.04,1406.08 2190.61,1427.59 2191.19,1419.1 2191.77,1431.22 2192.35,1409.85 2192.93,1422 2193.5,1415.65 2194.08,1411.38 2194.66,1416.99 
  2195.24,1435.82 2195.82,1410.1 2196.39,1421.18 2196.97,1435.98 2197.55,1431.1 2198.13,1416.57 2198.71,1411.06 2199.28,1414.99 2199.86,1416.52 2200.44,1434.72 
  2201.02,1392.5 2201.6,1442.95 2202.17,1413.93 2202.75,1437.46 2203.33,1419.53 2203.91,1429.9 2204.49,1410.57 2205.06,1432.14 2205.64,1419.99 2206.22,1406.54 
  2206.8,1414.57 2207.38,1426 2207.95,1409.54 2208.53,1437.46 2209.11,1436.94 2209.69,1418.56 2210.27,1415.55 2210.84,1400.55 2211.42,1421.75 2212,1422.75 
  2212.58,1396.07 2213.16,1437.88 2213.73,1408.53 2214.31,1408.68 2214.89,1400.59 2215.47,1407.59 2216.05,1387.92 2216.62,1433.12 2217.2,1388.71 2217.78,1409.09 
  2218.36,1425.94 2218.94,1421.27 2219.51,1413.43 2220.09,1414.3 2220.67,1406.86 2221.25,1382.98 2221.83,1397.44 2222.4,1390.54 2222.98,1430.04 2223.56,1397.21 
  2224.14,1393.16 2224.72,1430.32 2225.29,1422.22 2225.87,1407.52 2226.45,1438.72 2227.03,1408.02 2227.61,1402.2 2228.18,1394.18 2228.76,1397.13 2229.34,1393.03 
  2229.92,1424.22 2230.5,1421.22 2231.07,1432.25 2231.65,1429.85 2232.23,1392.47 2232.81,1390.68 2233.39,1410.61 2233.96,1412.12 2234.54,1438.33 2235.12,1436.81 
  2235.7,1420.4 2236.28,1412.67 2236.85,1407.47 2237.43,1443.33 2238.01,1396.09 2238.59,1404.55 2239.17,1414.25 2239.74,1392.03 2240.32,1396.11 2240.9,1404.26 
  2241.48,1394.77 2242.06,1353.05 2242.63,1412.4 2243.21,1431.36 2243.79,1429.51 2244.37,1425.06 2244.95,1396.71 2245.52,1380.42 2246.1,1415.94 2246.68,1368.88 
  2247.26,1418.39 2247.84,1384.13 2248.41,1391.52 2248.99,1416.14 2249.57,1439.88 2250.15,1390.35 2250.73,1395.23 2251.3,1362.98 2251.88,1441.56 2252.46,1395.64 
  2253.04,1376.5 2253.62,1393.37 2254.19,1387.04 2254.77,1412.24 2255.35,1395.25 2255.93,1412.32 2256.51,1355.38 2257.08,1400.46 2257.66,1322.25 2258.24,1366.01 
  2258.82,1367.65 2259.4,1405.61 2259.97,1384.02 2260.55,1398.2 2261.13,1361.52 2261.71,1356.33 2262.29,1413.74 2262.86,1377.69 2263.44,1248.93 2264.02,1381.74 
  2264.6,1342.87 2265.18,1397.85 2265.75,1334.65 2266.33,1251.29 2266.91,1404.37 2267.49,1166.71 2268.07,1391.3 2268.64,1243.23 2269.22,1284.56 2269.8,1346 
  2270.38,1349.4 2270.96,1413.55 2271.53,1383.11 2272.11,1419.65 2272.69,1348.11 2273.27,1356.52 2273.85,1366.82 2274.42,1274.87 2275,1285.26 2275.58,1302.6 
  2276.16,1289.74 2276.74,1040.56 2277.31,1323.04 2277.89,1067.39 2278.47,1048.52 2279.05,1270 2279.63,1041.72 2280.2,1033.87 2280.78,662.428 2281.36,502.084 
  2281.94,87.9763 2282.52,1052.43 2283.09,726.625 2283.67,1395.65 2284.25,1167.25 2284.83,1295.02 2285.41,1255.31 2285.98,1173.17 2286.56,1320.37 2287.14,1311.05 
  2287.72,1351.29 2288.3,1335.43 2288.87,1153.84 2289.45,1371.61 2290.03,1329.64 2290.61,1239.3 2291.19,1313.71 2291.76,1344.21 2292.34,1200.88 2292.92,1375.69 
  2293.5,1041.31 2294.08,935.359 2294.65,742.458 2295.23,1116.03 2295.81,1137.65 
  "/>
</svg>
