<?xml version="1.0" encoding="utf-8"?>
<svg xmlns="http://www.w3.org/2000/svg" xmlns:xlink="http://www.w3.org/1999/xlink" width="600" height="400" viewBox="0 0 2400 1600">
<defs>
  <clipPath id="clip470">
    <rect x="0" y="0" width="2400" height="1600"/>
  </clipPath>
</defs>
<path clip-path="url(#clip470)" d="
M0 1600 L2400 1600 L2400 0 L0 0  Z
  " fill="#ffffff" fill-rule="evenodd" fill-opacity="1"/>
<defs>
  <clipPath id="clip471">
    <rect x="480" y="0" width="1681" height="1600"/>
  </clipPath>
</defs>
<path clip-path="url(#clip470)" d="
M339.608 1423.18 L2352.76 1423.18 L2352.76 47.2441 L339.608 47.2441  Z
  " fill="#ffffff" fill-rule="evenodd" fill-opacity="1"/>
<defs>
  <clipPath id="clip472">
    <rect x="339" y="47" width="2014" height="1377"/>
  </clipPath>
</defs>
<polyline clip-path="url(#clip472)" style="stroke:#222255; stroke-linecap:round; stroke-linejoin:round; stroke-width:2; stroke-opacity:0.1; fill:none" points="
  395.427,1423.18 395.427,47.2441 
  "/>
<polyline clip-path="url(#clip472)" style="stroke:#222255; stroke-linecap:round; stroke-linejoin:round; stroke-width:2; stroke-opacity:0.1; fill:none" points="
  712.249,1423.18 712.249,47.2441 
  "/>
<polyline clip-path="url(#clip472)" style="stroke:#222255; stroke-linecap:round; stroke-linejoin:round; stroke-width:2; stroke-opacity:0.1; fill:none" points="
  1029.07,1423.18 1029.07,47.2441 
  "/>
<polyline clip-path="url(#clip472)" style="stroke:#222255; stroke-linecap:round; stroke-linejoin:round; stroke-width:2; stroke-opacity:0.1; fill:none" points="
  1345.89,1423.18 1345.89,47.2441 
  "/>
<polyline clip-path="url(#clip472)" style="stroke:#222255; stroke-linecap:round; stroke-linejoin:round; stroke-width:2; stroke-opacity:0.1; fill:none" points="
  1662.71,1423.18 1662.71,47.2441 
  "/>
<polyline clip-path="url(#clip472)" style="stroke:#222255; stroke-linecap:round; stroke-linejoin:round; stroke-width:2; stroke-opacity:0.1; fill:none" points="
  1979.54,1423.18 1979.54,47.2441 
  "/>
<polyline clip-path="url(#clip472)" style="stroke:#222255; stroke-linecap:round; stroke-linejoin:round; stroke-width:2; stroke-opacity:0.1; fill:none" points="
  2296.36,1423.18 2296.36,47.2441 
  "/>
<polyline clip-path="url(#clip472)" style="stroke:#222255; stroke-linecap:round; stroke-linejoin:round; stroke-width:2; stroke-opacity:0.05; fill:none" points="
  458.791,1423.18 458.791,47.2441 
  "/>
<polyline clip-path="url(#clip472)" style="stroke:#222255; stroke-linecap:round; stroke-linejoin:round; stroke-width:2; stroke-opacity:0.05; fill:none" points="
  522.155,1423.18 522.155,47.2441 
  "/>
<polyline clip-path="url(#clip472)" style="stroke:#222255; stroke-linecap:round; stroke-linejoin:round; stroke-width:2; stroke-opacity:0.05; fill:none" points="
  585.52,1423.18 585.52,47.2441 
  "/>
<polyline clip-path="url(#clip472)" style="stroke:#222255; stroke-linecap:round; stroke-linejoin:round; stroke-width:2; stroke-opacity:0.05; fill:none" points="
  648.884,1423.18 648.884,47.2441 
  "/>
<polyline clip-path="url(#clip472)" style="stroke:#222255; stroke-linecap:round; stroke-linejoin:round; stroke-width:2; stroke-opacity:0.05; fill:none" points="
  775.613,1423.18 775.613,47.2441 
  "/>
<polyline clip-path="url(#clip472)" style="stroke:#222255; stroke-linecap:round; stroke-linejoin:round; stroke-width:2; stroke-opacity:0.05; fill:none" points="
  838.977,1423.18 838.977,47.2441 
  "/>
<polyline clip-path="url(#clip472)" style="stroke:#222255; stroke-linecap:round; stroke-linejoin:round; stroke-width:2; stroke-opacity:0.05; fill:none" points="
  902.342,1423.18 902.342,47.2441 
  "/>
<polyline clip-path="url(#clip472)" style="stroke:#222255; stroke-linecap:round; stroke-linejoin:round; stroke-width:2; stroke-opacity:0.05; fill:none" points="
  965.706,1423.18 965.706,47.2441 
  "/>
<polyline clip-path="url(#clip472)" style="stroke:#222255; stroke-linecap:round; stroke-linejoin:round; stroke-width:2; stroke-opacity:0.05; fill:none" points="
  1092.44,1423.18 1092.44,47.2441 
  "/>
<polyline clip-path="url(#clip472)" style="stroke:#222255; stroke-linecap:round; stroke-linejoin:round; stroke-width:2; stroke-opacity:0.05; fill:none" points="
  1155.8,1423.18 1155.8,47.2441 
  "/>
<polyline clip-path="url(#clip472)" style="stroke:#222255; stroke-linecap:round; stroke-linejoin:round; stroke-width:2; stroke-opacity:0.05; fill:none" points="
  1219.16,1423.18 1219.16,47.2441 
  "/>
<polyline clip-path="url(#clip472)" style="stroke:#222255; stroke-linecap:round; stroke-linejoin:round; stroke-width:2; stroke-opacity:0.05; fill:none" points="
  1282.53,1423.18 1282.53,47.2441 
  "/>
<polyline clip-path="url(#clip472)" style="stroke:#222255; stroke-linecap:round; stroke-linejoin:round; stroke-width:2; stroke-opacity:0.05; fill:none" points="
  1409.26,1423.18 1409.26,47.2441 
  "/>
<polyline clip-path="url(#clip472)" style="stroke:#222255; stroke-linecap:round; stroke-linejoin:round; stroke-width:2; stroke-opacity:0.05; fill:none" points="
  1472.62,1423.18 1472.62,47.2441 
  "/>
<polyline clip-path="url(#clip472)" style="stroke:#222255; stroke-linecap:round; stroke-linejoin:round; stroke-width:2; stroke-opacity:0.05; fill:none" points="
  1535.99,1423.18 1535.99,47.2441 
  "/>
<polyline clip-path="url(#clip472)" style="stroke:#222255; stroke-linecap:round; stroke-linejoin:round; stroke-width:2; stroke-opacity:0.05; fill:none" points="
  1599.35,1423.18 1599.35,47.2441 
  "/>
<polyline clip-path="url(#clip472)" style="stroke:#222255; stroke-linecap:round; stroke-linejoin:round; stroke-width:2; stroke-opacity:0.05; fill:none" points="
  1726.08,1423.18 1726.08,47.2441 
  "/>
<polyline clip-path="url(#clip472)" style="stroke:#222255; stroke-linecap:round; stroke-linejoin:round; stroke-width:2; stroke-opacity:0.05; fill:none" points="
  1789.44,1423.18 1789.44,47.2441 
  "/>
<polyline clip-path="url(#clip472)" style="stroke:#222255; stroke-linecap:round; stroke-linejoin:round; stroke-width:2; stroke-opacity:0.05; fill:none" points="
  1852.81,1423.18 1852.81,47.2441 
  "/>
<polyline clip-path="url(#clip472)" style="stroke:#222255; stroke-linecap:round; stroke-linejoin:round; stroke-width:2; stroke-opacity:0.05; fill:none" points="
  1916.17,1423.18 1916.17,47.2441 
  "/>
<polyline clip-path="url(#clip472)" style="stroke:#222255; stroke-linecap:round; stroke-linejoin:round; stroke-width:2; stroke-opacity:0.05; fill:none" points="
  2042.9,1423.18 2042.9,47.2441 
  "/>
<polyline clip-path="url(#clip472)" style="stroke:#222255; stroke-linecap:round; stroke-linejoin:round; stroke-width:2; stroke-opacity:0.05; fill:none" points="
  2106.27,1423.18 2106.27,47.2441 
  "/>
<polyline clip-path="url(#clip472)" style="stroke:#222255; stroke-linecap:round; stroke-linejoin:round; stroke-width:2; stroke-opacity:0.05; fill:none" points="
  2169.63,1423.18 2169.63,47.2441 
  "/>
<polyline clip-path="url(#clip472)" style="stroke:#222255; stroke-linecap:round; stroke-linejoin:round; stroke-width:2; stroke-opacity:0.05; fill:none" points="
  2232.99,1423.18 2232.99,47.2441 
  "/>
<polyline clip-path="url(#clip470)" style="stroke:#000000; stroke-linecap:round; stroke-linejoin:round; stroke-width:4; stroke-opacity:1; fill:none" points="
  339.608,1423.18 2352.76,1423.18 
  "/>
<polyline clip-path="url(#clip470)" style="stroke:#000000; stroke-linecap:round; stroke-linejoin:round; stroke-width:4; stroke-opacity:1; fill:none" points="
  339.608,47.2441 2352.76,47.2441 
  "/>
<polyline clip-path="url(#clip470)" style="stroke:#000000; stroke-linecap:round; stroke-linejoin:round; stroke-width:4; stroke-opacity:1; fill:none" points="
  395.427,1423.18 395.427,1404.28 
  "/>
<polyline clip-path="url(#clip470)" style="stroke:#000000; stroke-linecap:round; stroke-linejoin:round; stroke-width:4; stroke-opacity:1; fill:none" points="
  712.249,1423.18 712.249,1404.28 
  "/>
<polyline clip-path="url(#clip470)" style="stroke:#000000; stroke-linecap:round; stroke-linejoin:round; stroke-width:4; stroke-opacity:1; fill:none" points="
  1029.07,1423.18 1029.07,1404.28 
  "/>
<polyline clip-path="url(#clip470)" style="stroke:#000000; stroke-linecap:round; stroke-linejoin:round; stroke-width:4; stroke-opacity:1; fill:none" points="
  1345.89,1423.18 1345.89,1404.28 
  "/>
<polyline clip-path="url(#clip470)" style="stroke:#000000; stroke-linecap:round; stroke-linejoin:round; stroke-width:4; stroke-opacity:1; fill:none" points="
  1662.71,1423.18 1662.71,1404.28 
  "/>
<polyline clip-path="url(#clip470)" style="stroke:#000000; stroke-linecap:round; stroke-linejoin:round; stroke-width:4; stroke-opacity:1; fill:none" points="
  1979.54,1423.18 1979.54,1404.28 
  "/>
<polyline clip-path="url(#clip470)" style="stroke:#000000; stroke-linecap:round; stroke-linejoin:round; stroke-width:4; stroke-opacity:1; fill:none" points="
  2296.36,1423.18 2296.36,1404.28 
  "/>
<polyline clip-path="url(#clip470)" style="stroke:#000000; stroke-linecap:round; stroke-linejoin:round; stroke-width:4; stroke-opacity:1; fill:none" points="
  458.791,1423.18 458.791,1413.73 
  "/>
<polyline clip-path="url(#clip470)" style="stroke:#000000; stroke-linecap:round; stroke-linejoin:round; stroke-width:4; stroke-opacity:1; fill:none" points="
  522.155,1423.18 522.155,1413.73 
  "/>
<polyline clip-path="url(#clip470)" style="stroke:#000000; stroke-linecap:round; stroke-linejoin:round; stroke-width:4; stroke-opacity:1; fill:none" points="
  585.52,1423.18 585.52,1413.73 
  "/>
<polyline clip-path="url(#clip470)" style="stroke:#000000; stroke-linecap:round; stroke-linejoin:round; stroke-width:4; stroke-opacity:1; fill:none" points="
  648.884,1423.18 648.884,1413.73 
  "/>
<polyline clip-path="url(#clip470)" style="stroke:#000000; stroke-linecap:round; stroke-linejoin:round; stroke-width:4; stroke-opacity:1; fill:none" points="
  775.613,1423.18 775.613,1413.73 
  "/>
<polyline clip-path="url(#clip470)" style="stroke:#000000; stroke-linecap:round; stroke-linejoin:round; stroke-width:4; stroke-opacity:1; fill:none" points="
  838.977,1423.18 838.977,1413.73 
  "/>
<polyline clip-path="url(#clip470)" style="stroke:#000000; stroke-linecap:round; stroke-linejoin:round; stroke-width:4; stroke-opacity:1; fill:none" points="
  902.342,1423.18 902.342,1413.73 
  "/>
<polyline clip-path="url(#clip470)" style="stroke:#000000; stroke-linecap:round; stroke-linejoin:round; stroke-width:4; stroke-opacity:1; fill:none" points="
  965.706,1423.18 965.706,1413.73 
  "/>
<polyline clip-path="url(#clip470)" style="stroke:#000000; stroke-linecap:round; stroke-linejoin:round; stroke-width:4; stroke-opacity:1; fill:none" points="
  1092.44,1423.18 1092.44,1413.73 
  "/>
<polyline clip-path="url(#clip470)" style="stroke:#000000; stroke-linecap:round; stroke-linejoin:round; stroke-width:4; stroke-opacity:1; fill:none" points="
  1155.8,1423.18 1155.8,1413.73 
  "/>
<polyline clip-path="url(#clip470)" style="stroke:#000000; stroke-linecap:round; stroke-linejoin:round; stroke-width:4; stroke-opacity:1; fill:none" points="
  1219.16,1423.18 1219.16,1413.73 
  "/>
<polyline clip-path="url(#clip470)" style="stroke:#000000; stroke-linecap:round; stroke-linejoin:round; stroke-width:4; stroke-opacity:1; fill:none" points="
  1282.53,1423.18 1282.53,1413.73 
  "/>
<polyline clip-path="url(#clip470)" style="stroke:#000000; stroke-linecap:round; stroke-linejoin:round; stroke-width:4; stroke-opacity:1; fill:none" points="
  1409.26,1423.18 1409.26,1413.73 
  "/>
<polyline clip-path="url(#clip470)" style="stroke:#000000; stroke-linecap:round; stroke-linejoin:round; stroke-width:4; stroke-opacity:1; fill:none" points="
  1472.62,1423.18 1472.62,1413.73 
  "/>
<polyline clip-path="url(#clip470)" style="stroke:#000000; stroke-linecap:round; stroke-linejoin:round; stroke-width:4; stroke-opacity:1; fill:none" points="
  1535.99,1423.18 1535.99,1413.73 
  "/>
<polyline clip-path="url(#clip470)" style="stroke:#000000; stroke-linecap:round; stroke-linejoin:round; stroke-width:4; stroke-opacity:1; fill:none" points="
  1599.35,1423.18 1599.35,1413.73 
  "/>
<polyline clip-path="url(#clip470)" style="stroke:#000000; stroke-linecap:round; stroke-linejoin:round; stroke-width:4; stroke-opacity:1; fill:none" points="
  1726.08,1423.18 1726.08,1413.73 
  "/>
<polyline clip-path="url(#clip470)" style="stroke:#000000; stroke-linecap:round; stroke-linejoin:round; stroke-width:4; stroke-opacity:1; fill:none" points="
  1789.44,1423.18 1789.44,1413.73 
  "/>
<polyline clip-path="url(#clip470)" style="stroke:#000000; stroke-linecap:round; stroke-linejoin:round; stroke-width:4; stroke-opacity:1; fill:none" points="
  1852.81,1423.18 1852.81,1413.73 
  "/>
<polyline clip-path="url(#clip470)" style="stroke:#000000; stroke-linecap:round; stroke-linejoin:round; stroke-width:4; stroke-opacity:1; fill:none" points="
  1916.17,1423.18 1916.17,1413.73 
  "/>
<polyline clip-path="url(#clip470)" style="stroke:#000000; stroke-linecap:round; stroke-linejoin:round; stroke-width:4; stroke-opacity:1; fill:none" points="
  2042.9,1423.18 2042.9,1413.73 
  "/>
<polyline clip-path="url(#clip470)" style="stroke:#000000; stroke-linecap:round; stroke-linejoin:round; stroke-width:4; stroke-opacity:1; fill:none" points="
  2106.27,1423.18 2106.27,1413.73 
  "/>
<polyline clip-path="url(#clip470)" style="stroke:#000000; stroke-linecap:round; stroke-linejoin:round; stroke-width:4; stroke-opacity:1; fill:none" points="
  2169.63,1423.18 2169.63,1413.73 
  "/>
<polyline clip-path="url(#clip470)" style="stroke:#000000; stroke-linecap:round; stroke-linejoin:round; stroke-width:4; stroke-opacity:1; fill:none" points="
  2232.99,1423.18 2232.99,1413.73 
  "/>
<path clip-path="url(#clip470)" d="M395.427 1454.1 Q391.816 1454.1 389.987 1457.66 Q388.181 1461.2 388.181 1468.33 Q388.181 1475.44 389.987 1479.01 Q391.816 1482.55 395.427 1482.55 Q399.061 1482.55 400.866 1479.01 Q402.695 1475.44 402.695 1468.33 Q402.695 1461.2 400.866 1457.66 Q399.061 1454.1 395.427 1454.1 M395.427 1450.39 Q401.237 1450.39 404.292 1455 Q407.371 1459.58 407.371 1468.33 Q407.371 1477.06 404.292 1481.67 Q401.237 1486.25 395.427 1486.25 Q389.616 1486.25 386.538 1481.67 Q383.482 1477.06 383.482 1468.33 Q383.482 1459.58 386.538 1455 Q389.616 1450.39 395.427 1450.39 Z" fill="#000000" fill-rule="evenodd" fill-opacity="1" /><path clip-path="url(#clip470)" d="M702.631 1481.64 L710.269 1481.64 L710.269 1455.28 L701.959 1456.95 L701.959 1452.69 L710.223 1451.02 L714.899 1451.02 L714.899 1481.64 L722.538 1481.64 L722.538 1485.58 L702.631 1485.58 L702.631 1481.64 Z" fill="#000000" fill-rule="evenodd" fill-opacity="1" /><path clip-path="url(#clip470)" d="M1023.72 1481.64 L1040.04 1481.64 L1040.04 1485.58 L1018.1 1485.58 L1018.1 1481.64 Q1020.76 1478.89 1025.34 1474.26 Q1029.95 1469.61 1031.13 1468.27 Q1033.38 1465.74 1034.26 1464.01 Q1035.16 1462.25 1035.16 1460.56 Q1035.16 1457.8 1033.21 1456.07 Q1031.29 1454.33 1028.19 1454.33 Q1025.99 1454.33 1023.54 1455.09 Q1021.11 1455.86 1018.33 1457.41 L1018.33 1452.69 Q1021.15 1451.55 1023.61 1450.97 Q1026.06 1450.39 1028.1 1450.39 Q1033.47 1450.39 1036.66 1453.08 Q1039.86 1455.77 1039.86 1460.26 Q1039.86 1462.39 1039.05 1464.31 Q1038.26 1466.2 1036.15 1468.8 Q1035.58 1469.47 1032.47 1472.69 Q1029.37 1475.88 1023.72 1481.64 Z" fill="#000000" fill-rule="evenodd" fill-opacity="1" /><path clip-path="url(#clip470)" d="M1350.14 1466.95 Q1353.5 1467.66 1355.37 1469.93 Q1357.27 1472.2 1357.27 1475.53 Q1357.27 1480.65 1353.75 1483.45 Q1350.23 1486.25 1343.75 1486.25 Q1341.58 1486.25 1339.26 1485.81 Q1336.97 1485.39 1334.52 1484.54 L1334.52 1480.02 Q1336.46 1481.16 1338.77 1481.74 Q1341.09 1482.32 1343.61 1482.32 Q1348.01 1482.32 1350.3 1480.58 Q1352.62 1478.84 1352.62 1475.53 Q1352.62 1472.48 1350.46 1470.77 Q1348.33 1469.03 1344.52 1469.03 L1340.49 1469.03 L1340.49 1465.19 L1344.7 1465.19 Q1348.15 1465.19 1349.98 1463.82 Q1351.81 1462.43 1351.81 1459.84 Q1351.81 1457.18 1349.91 1455.77 Q1348.03 1454.33 1344.52 1454.33 Q1342.59 1454.33 1340.4 1454.75 Q1338.2 1455.16 1335.56 1456.04 L1335.56 1451.88 Q1338.22 1451.14 1340.53 1450.77 Q1342.87 1450.39 1344.93 1450.39 Q1350.26 1450.39 1353.36 1452.83 Q1356.46 1455.23 1356.46 1459.35 Q1356.46 1462.22 1354.82 1464.21 Q1353.17 1466.18 1350.14 1466.95 Z" fill="#000000" fill-rule="evenodd" fill-opacity="1" /><path clip-path="url(#clip470)" d="M1665.72 1455.09 L1653.92 1473.54 L1665.72 1473.54 L1665.72 1455.09 M1664.5 1451.02 L1670.38 1451.02 L1670.38 1473.54 L1675.31 1473.54 L1675.31 1477.43 L1670.38 1477.43 L1670.38 1485.58 L1665.72 1485.58 L1665.72 1477.43 L1650.12 1477.43 L1650.12 1472.92 L1664.5 1451.02 Z" fill="#000000" fill-rule="evenodd" fill-opacity="1" /><path clip-path="url(#clip470)" d="M1969.81 1451.02 L1988.17 1451.02 L1988.17 1454.96 L1974.1 1454.96 L1974.1 1463.43 Q1975.12 1463.08 1976.13 1462.92 Q1977.15 1462.73 1978.17 1462.73 Q1983.96 1462.73 1987.34 1465.9 Q1990.72 1469.08 1990.72 1474.49 Q1990.72 1480.07 1987.24 1483.17 Q1983.77 1486.25 1977.45 1486.25 Q1975.28 1486.25 1973.01 1485.88 Q1970.76 1485.51 1968.36 1484.77 L1968.36 1480.07 Q1970.44 1481.2 1972.66 1481.76 Q1974.88 1482.32 1977.36 1482.32 Q1981.37 1482.32 1983.7 1480.21 Q1986.04 1478.1 1986.04 1474.49 Q1986.04 1470.88 1983.7 1468.77 Q1981.37 1466.67 1977.36 1466.67 Q1975.49 1466.67 1973.61 1467.08 Q1971.76 1467.5 1969.81 1468.38 L1969.81 1451.02 Z" fill="#000000" fill-rule="evenodd" fill-opacity="1" /><path clip-path="url(#clip470)" d="M2296.76 1466.44 Q2293.62 1466.44 2291.76 1468.59 Q2289.94 1470.74 2289.94 1474.49 Q2289.94 1478.22 2291.76 1480.39 Q2293.62 1482.55 2296.76 1482.55 Q2299.91 1482.55 2301.74 1480.39 Q2303.59 1478.22 2303.59 1474.49 Q2303.59 1470.74 2301.74 1468.59 Q2299.91 1466.44 2296.76 1466.44 M2306.05 1451.78 L2306.05 1456.04 Q2304.29 1455.21 2302.48 1454.77 Q2300.7 1454.33 2298.94 1454.33 Q2294.31 1454.33 2291.86 1457.45 Q2289.43 1460.58 2289.08 1466.9 Q2290.44 1464.89 2292.5 1463.82 Q2294.56 1462.73 2297.04 1462.73 Q2302.25 1462.73 2305.26 1465.9 Q2308.29 1469.05 2308.29 1474.49 Q2308.29 1479.82 2305.14 1483.03 Q2302 1486.25 2296.76 1486.25 Q2290.77 1486.25 2287.6 1481.67 Q2284.43 1477.06 2284.43 1468.33 Q2284.43 1460.14 2288.31 1455.28 Q2292.2 1450.39 2298.75 1450.39 Q2300.51 1450.39 2302.3 1450.74 Q2304.1 1451.09 2306.05 1451.78 Z" fill="#000000" fill-rule="evenodd" fill-opacity="1" /><path clip-path="url(#clip470)" d="M1101.95 1520.52 L1129.25 1520.52 L1129.25 1525.93 L1108.38 1525.93 L1108.38 1539.94 L1127.22 1539.94 L1127.22 1545.35 L1108.38 1545.35 L1108.38 1568.04 L1101.95 1568.04 L1101.95 1520.52 Z" fill="#000000" fill-rule="evenodd" fill-opacity="1" /><path clip-path="url(#clip470)" d="M1155.1 1537.87 Q1154.11 1537.3 1152.94 1537.04 Q1151.79 1536.76 1150.39 1536.76 Q1145.42 1536.76 1142.75 1540 Q1140.11 1543.22 1140.11 1549.27 L1140.11 1568.04 L1134.22 1568.04 L1134.22 1532.4 L1140.11 1532.4 L1140.11 1537.93 Q1141.95 1534.69 1144.91 1533.13 Q1147.87 1531.54 1152.11 1531.54 Q1152.71 1531.54 1153.44 1531.63 Q1154.18 1531.7 1155.07 1531.85 L1155.1 1537.87 Z" fill="#000000" fill-rule="evenodd" fill-opacity="1" /><path clip-path="url(#clip470)" d="M1190.3 1548.76 L1190.3 1551.62 L1163.37 1551.62 Q1163.76 1557.67 1167 1560.85 Q1170.28 1564 1176.11 1564 Q1179.48 1564 1182.63 1563.17 Q1185.81 1562.35 1188.93 1560.69 L1188.93 1566.23 Q1185.78 1567.57 1182.47 1568.27 Q1179.16 1568.97 1175.76 1568.97 Q1167.23 1568.97 1162.23 1564 Q1157.26 1559.04 1157.26 1550.57 Q1157.26 1541.82 1161.97 1536.69 Q1166.72 1531.54 1174.74 1531.54 Q1181.93 1531.54 1186.1 1536.18 Q1190.3 1540.8 1190.3 1548.76 M1184.45 1547.04 Q1184.38 1542.23 1181.74 1539.37 Q1179.13 1536.5 1174.8 1536.5 Q1169.9 1536.5 1166.94 1539.27 Q1164.01 1542.04 1163.57 1547.07 L1184.45 1547.04 Z" fill="#000000" fill-rule="evenodd" fill-opacity="1" /><path clip-path="url(#clip470)" d="M1203.42 1550.25 Q1203.42 1556.71 1206.06 1560.4 Q1208.73 1564.07 1213.38 1564.07 Q1218.02 1564.07 1220.7 1560.4 Q1223.37 1556.71 1223.37 1550.25 Q1223.37 1543.79 1220.7 1540.13 Q1218.02 1536.44 1213.38 1536.44 Q1208.73 1536.44 1206.06 1540.13 Q1203.42 1543.79 1203.42 1550.25 M1223.37 1562.7 Q1221.53 1565.88 1218.69 1567.44 Q1215.89 1568.97 1211.95 1568.97 Q1205.48 1568.97 1201.41 1563.81 Q1197.37 1558.65 1197.37 1550.25 Q1197.37 1541.85 1201.41 1536.69 Q1205.48 1531.54 1211.95 1531.54 Q1215.89 1531.54 1218.69 1533.1 Q1221.53 1534.62 1223.37 1537.81 L1223.37 1532.4 L1229.23 1532.4 L1229.23 1581.6 L1223.37 1581.6 L1223.37 1562.7 Z" fill="#000000" fill-rule="evenodd" fill-opacity="1" /><path clip-path="url(#clip470)" d="M1240.69 1553.98 L1240.69 1532.4 L1246.54 1532.4 L1246.54 1553.75 Q1246.54 1558.81 1248.52 1561.36 Q1250.49 1563.87 1254.44 1563.87 Q1259.18 1563.87 1261.92 1560.85 Q1264.69 1557.83 1264.69 1552.61 L1264.69 1532.4 L1270.54 1532.4 L1270.54 1568.04 L1264.69 1568.04 L1264.69 1562.57 Q1262.55 1565.82 1259.72 1567.41 Q1256.92 1568.97 1253.19 1568.97 Q1247.05 1568.97 1243.87 1565.15 Q1240.69 1561.33 1240.69 1553.98 M1255.42 1531.54 L1255.42 1531.54 Z" fill="#000000" fill-rule="evenodd" fill-opacity="1" /><path clip-path="url(#clip470)" d="M1313.1 1548.76 L1313.1 1551.62 L1286.17 1551.62 Q1286.55 1557.67 1289.8 1560.85 Q1293.08 1564 1298.9 1564 Q1302.27 1564 1305.43 1563.17 Q1308.61 1562.35 1311.73 1560.69 L1311.73 1566.23 Q1308.58 1567.57 1305.27 1568.27 Q1301.96 1568.97 1298.55 1568.97 Q1290.02 1568.97 1285.02 1564 Q1280.06 1559.04 1280.06 1550.57 Q1280.06 1541.82 1284.77 1536.69 Q1289.51 1531.54 1297.53 1531.54 Q1304.73 1531.54 1308.89 1536.18 Q1313.1 1540.8 1313.1 1548.76 M1307.24 1547.04 Q1307.18 1542.23 1304.53 1539.37 Q1301.92 1536.5 1297.6 1536.5 Q1292.69 1536.5 1289.73 1539.27 Q1286.81 1542.04 1286.36 1547.07 L1307.24 1547.04 Z" fill="#000000" fill-rule="evenodd" fill-opacity="1" /><path clip-path="url(#clip470)" d="M1352.34 1546.53 L1352.34 1568.04 L1346.48 1568.04 L1346.48 1546.72 Q1346.48 1541.66 1344.51 1539.14 Q1342.54 1536.63 1338.59 1536.63 Q1333.85 1536.63 1331.11 1539.65 Q1328.37 1542.68 1328.37 1547.9 L1328.37 1568.04 L1322.49 1568.04 L1322.49 1532.4 L1328.37 1532.4 L1328.37 1537.93 Q1330.47 1534.72 1333.31 1533.13 Q1336.17 1531.54 1339.9 1531.54 Q1346.04 1531.54 1349.19 1535.36 Q1352.34 1539.14 1352.34 1546.53 Z" fill="#000000" fill-rule="evenodd" fill-opacity="1" /><path clip-path="url(#clip470)" d="M1361.48 1532.4 L1389.29 1532.4 L1389.29 1537.74 L1367.27 1563.37 L1389.29 1563.37 L1389.29 1568.04 L1360.68 1568.04 L1360.68 1562.7 L1382.71 1537.07 L1361.48 1537.07 L1361.48 1532.4 Z" fill="#000000" fill-rule="evenodd" fill-opacity="1" /><path clip-path="url(#clip470)" d="M1418.96 1532.4 L1424.81 1532.4 L1424.81 1568.04 L1418.96 1568.04 L1418.96 1532.4 M1418.96 1518.52 L1424.81 1518.52 L1424.81 1525.93 L1418.96 1525.93 L1418.96 1518.52 Z" fill="#000000" fill-rule="evenodd" fill-opacity="1" /><path clip-path="url(#clip470)" d="M1466.7 1546.53 L1466.7 1568.04 L1460.84 1568.04 L1460.84 1546.72 Q1460.84 1541.66 1458.87 1539.14 Q1456.9 1536.63 1452.95 1536.63 Q1448.21 1536.63 1445.47 1539.65 Q1442.73 1542.68 1442.73 1547.9 L1442.73 1568.04 L1436.85 1568.04 L1436.85 1532.4 L1442.73 1532.4 L1442.73 1537.93 Q1444.83 1534.72 1447.67 1533.13 Q1450.53 1531.54 1454.26 1531.54 Q1460.4 1531.54 1463.55 1535.36 Q1466.7 1539.14 1466.7 1546.53 Z" fill="#000000" fill-rule="evenodd" fill-opacity="1" /><path clip-path="url(#clip470)" d="M1501.04 1562.63 L1511.55 1562.63 L1511.55 1526.38 L1500.12 1528.67 L1500.12 1522.82 L1511.48 1520.52 L1517.91 1520.52 L1517.91 1562.63 L1528.42 1562.63 L1528.42 1568.04 L1501.04 1568.04 L1501.04 1562.63 Z" fill="#000000" fill-rule="evenodd" fill-opacity="1" /><path clip-path="url(#clip470)" d="M1550.98 1520.52 L1556.39 1520.52 L1539.84 1574.09 L1534.43 1574.09 L1550.98 1520.52 Z" fill="#000000" fill-rule="evenodd" fill-opacity="1" /><path clip-path="url(#clip470)" d="M1578.74 1550.12 Q1571.64 1550.12 1568.9 1551.75 Q1566.16 1553.37 1566.16 1557.29 Q1566.16 1560.4 1568.2 1562.25 Q1570.27 1564.07 1573.8 1564.07 Q1578.67 1564.07 1581.6 1560.63 Q1584.56 1557.16 1584.56 1551.43 L1584.56 1550.12 L1578.74 1550.12 M1590.42 1547.71 L1590.42 1568.04 L1584.56 1568.04 L1584.56 1562.63 Q1582.56 1565.88 1579.56 1567.44 Q1576.57 1568.97 1572.24 1568.97 Q1566.77 1568.97 1563.52 1565.91 Q1560.31 1562.82 1560.31 1557.67 Q1560.31 1551.65 1564.32 1548.6 Q1568.36 1545.54 1576.35 1545.54 L1584.56 1545.54 L1584.56 1544.97 Q1584.56 1540.93 1581.89 1538.73 Q1579.25 1536.5 1574.44 1536.5 Q1571.38 1536.5 1568.49 1537.23 Q1565.59 1537.97 1562.92 1539.43 L1562.92 1534.02 Q1566.13 1532.78 1569.16 1532.17 Q1572.18 1531.54 1575.05 1531.54 Q1582.78 1531.54 1586.6 1535.55 Q1590.42 1539.56 1590.42 1547.71 Z" fill="#000000" fill-rule="evenodd" fill-opacity="1" /><polyline clip-path="url(#clip472)" style="stroke:#222255; stroke-linecap:round; stroke-linejoin:round; stroke-width:2; stroke-opacity:0.1; fill:none" points="
  339.608,1384.24 2352.76,1384.24 
  "/>
<polyline clip-path="url(#clip472)" style="stroke:#222255; stroke-linecap:round; stroke-linejoin:round; stroke-width:2; stroke-opacity:0.1; fill:none" points="
  339.608,1159.13 2352.76,1159.13 
  "/>
<polyline clip-path="url(#clip472)" style="stroke:#222255; stroke-linecap:round; stroke-linejoin:round; stroke-width:2; stroke-opacity:0.1; fill:none" points="
  339.608,934.023 2352.76,934.023 
  "/>
<polyline clip-path="url(#clip472)" style="stroke:#222255; stroke-linecap:round; stroke-linejoin:round; stroke-width:2; stroke-opacity:0.1; fill:none" points="
  339.608,708.915 2352.76,708.915 
  "/>
<polyline clip-path="url(#clip472)" style="stroke:#222255; stroke-linecap:round; stroke-linejoin:round; stroke-width:2; stroke-opacity:0.1; fill:none" points="
  339.608,483.807 2352.76,483.807 
  "/>
<polyline clip-path="url(#clip472)" style="stroke:#222255; stroke-linecap:round; stroke-linejoin:round; stroke-width:2; stroke-opacity:0.1; fill:none" points="
  339.608,258.699 2352.76,258.699 
  "/>
<polyline clip-path="url(#clip472)" style="stroke:#222255; stroke-linecap:round; stroke-linejoin:round; stroke-width:2; stroke-opacity:0.05; fill:none" points="
  339.608,1339.22 2352.76,1339.22 
  "/>
<polyline clip-path="url(#clip472)" style="stroke:#222255; stroke-linecap:round; stroke-linejoin:round; stroke-width:2; stroke-opacity:0.05; fill:none" points="
  339.608,1294.2 2352.76,1294.2 
  "/>
<polyline clip-path="url(#clip472)" style="stroke:#222255; stroke-linecap:round; stroke-linejoin:round; stroke-width:2; stroke-opacity:0.05; fill:none" points="
  339.608,1249.17 2352.76,1249.17 
  "/>
<polyline clip-path="url(#clip472)" style="stroke:#222255; stroke-linecap:round; stroke-linejoin:round; stroke-width:2; stroke-opacity:0.05; fill:none" points="
  339.608,1204.15 2352.76,1204.15 
  "/>
<polyline clip-path="url(#clip472)" style="stroke:#222255; stroke-linecap:round; stroke-linejoin:round; stroke-width:2; stroke-opacity:0.05; fill:none" points="
  339.608,1114.11 2352.76,1114.11 
  "/>
<polyline clip-path="url(#clip472)" style="stroke:#222255; stroke-linecap:round; stroke-linejoin:round; stroke-width:2; stroke-opacity:0.05; fill:none" points="
  339.608,1069.09 2352.76,1069.09 
  "/>
<polyline clip-path="url(#clip472)" style="stroke:#222255; stroke-linecap:round; stroke-linejoin:round; stroke-width:2; stroke-opacity:0.05; fill:none" points="
  339.608,1024.07 2352.76,1024.07 
  "/>
<polyline clip-path="url(#clip472)" style="stroke:#222255; stroke-linecap:round; stroke-linejoin:round; stroke-width:2; stroke-opacity:0.05; fill:none" points="
  339.608,979.044 2352.76,979.044 
  "/>
<polyline clip-path="url(#clip472)" style="stroke:#222255; stroke-linecap:round; stroke-linejoin:round; stroke-width:2; stroke-opacity:0.05; fill:none" points="
  339.608,889.001 2352.76,889.001 
  "/>
<polyline clip-path="url(#clip472)" style="stroke:#222255; stroke-linecap:round; stroke-linejoin:round; stroke-width:2; stroke-opacity:0.05; fill:none" points="
  339.608,843.979 2352.76,843.979 
  "/>
<polyline clip-path="url(#clip472)" style="stroke:#222255; stroke-linecap:round; stroke-linejoin:round; stroke-width:2; stroke-opacity:0.05; fill:none" points="
  339.608,798.958 2352.76,798.958 
  "/>
<polyline clip-path="url(#clip472)" style="stroke:#222255; stroke-linecap:round; stroke-linejoin:round; stroke-width:2; stroke-opacity:0.05; fill:none" points="
  339.608,753.936 2352.76,753.936 
  "/>
<polyline clip-path="url(#clip472)" style="stroke:#222255; stroke-linecap:round; stroke-linejoin:round; stroke-width:2; stroke-opacity:0.05; fill:none" points="
  339.608,663.893 2352.76,663.893 
  "/>
<polyline clip-path="url(#clip472)" style="stroke:#222255; stroke-linecap:round; stroke-linejoin:round; stroke-width:2; stroke-opacity:0.05; fill:none" points="
  339.608,618.872 2352.76,618.872 
  "/>
<polyline clip-path="url(#clip472)" style="stroke:#222255; stroke-linecap:round; stroke-linejoin:round; stroke-width:2; stroke-opacity:0.05; fill:none" points="
  339.608,573.85 2352.76,573.85 
  "/>
<polyline clip-path="url(#clip472)" style="stroke:#222255; stroke-linecap:round; stroke-linejoin:round; stroke-width:2; stroke-opacity:0.05; fill:none" points="
  339.608,528.828 2352.76,528.828 
  "/>
<polyline clip-path="url(#clip472)" style="stroke:#222255; stroke-linecap:round; stroke-linejoin:round; stroke-width:2; stroke-opacity:0.05; fill:none" points="
  339.608,438.785 2352.76,438.785 
  "/>
<polyline clip-path="url(#clip472)" style="stroke:#222255; stroke-linecap:round; stroke-linejoin:round; stroke-width:2; stroke-opacity:0.05; fill:none" points="
  339.608,393.764 2352.76,393.764 
  "/>
<polyline clip-path="url(#clip472)" style="stroke:#222255; stroke-linecap:round; stroke-linejoin:round; stroke-width:2; stroke-opacity:0.05; fill:none" points="
  339.608,348.742 2352.76,348.742 
  "/>
<polyline clip-path="url(#clip472)" style="stroke:#222255; stroke-linecap:round; stroke-linejoin:round; stroke-width:2; stroke-opacity:0.05; fill:none" points="
  339.608,303.721 2352.76,303.721 
  "/>
<polyline clip-path="url(#clip472)" style="stroke:#222255; stroke-linecap:round; stroke-linejoin:round; stroke-width:2; stroke-opacity:0.05; fill:none" points="
  339.608,213.677 2352.76,213.677 
  "/>
<polyline clip-path="url(#clip472)" style="stroke:#222255; stroke-linecap:round; stroke-linejoin:round; stroke-width:2; stroke-opacity:0.05; fill:none" points="
  339.608,168.656 2352.76,168.656 
  "/>
<polyline clip-path="url(#clip472)" style="stroke:#222255; stroke-linecap:round; stroke-linejoin:round; stroke-width:2; stroke-opacity:0.05; fill:none" points="
  339.608,123.634 2352.76,123.634 
  "/>
<polyline clip-path="url(#clip472)" style="stroke:#222255; stroke-linecap:round; stroke-linejoin:round; stroke-width:2; stroke-opacity:0.05; fill:none" points="
  339.608,78.6128 2352.76,78.6128 
  "/>
<polyline clip-path="url(#clip470)" style="stroke:#000000; stroke-linecap:round; stroke-linejoin:round; stroke-width:4; stroke-opacity:1; fill:none" points="
  339.608,1423.18 339.608,47.2441 
  "/>
<polyline clip-path="url(#clip470)" style="stroke:#000000; stroke-linecap:round; stroke-linejoin:round; stroke-width:4; stroke-opacity:1; fill:none" points="
  2352.76,1423.18 2352.76,47.2441 
  "/>
<polyline clip-path="url(#clip470)" style="stroke:#000000; stroke-linecap:round; stroke-linejoin:round; stroke-width:4; stroke-opacity:1; fill:none" points="
  339.608,1384.24 358.506,1384.24 
  "/>
<polyline clip-path="url(#clip470)" style="stroke:#000000; stroke-linecap:round; stroke-linejoin:round; stroke-width:4; stroke-opacity:1; fill:none" points="
  339.608,1159.13 358.506,1159.13 
  "/>
<polyline clip-path="url(#clip470)" style="stroke:#000000; stroke-linecap:round; stroke-linejoin:round; stroke-width:4; stroke-opacity:1; fill:none" points="
  339.608,934.023 358.506,934.023 
  "/>
<polyline clip-path="url(#clip470)" style="stroke:#000000; stroke-linecap:round; stroke-linejoin:round; stroke-width:4; stroke-opacity:1; fill:none" points="
  339.608,708.915 358.506,708.915 
  "/>
<polyline clip-path="url(#clip470)" style="stroke:#000000; stroke-linecap:round; stroke-linejoin:round; stroke-width:4; stroke-opacity:1; fill:none" points="
  339.608,483.807 358.506,483.807 
  "/>
<polyline clip-path="url(#clip470)" style="stroke:#000000; stroke-linecap:round; stroke-linejoin:round; stroke-width:4; stroke-opacity:1; fill:none" points="
  339.608,258.699 358.506,258.699 
  "/>
<polyline clip-path="url(#clip470)" style="stroke:#000000; stroke-linecap:round; stroke-linejoin:round; stroke-width:4; stroke-opacity:1; fill:none" points="
  339.608,1339.22 349.057,1339.22 
  "/>
<polyline clip-path="url(#clip470)" style="stroke:#000000; stroke-linecap:round; stroke-linejoin:round; stroke-width:4; stroke-opacity:1; fill:none" points="
  339.608,1294.2 349.057,1294.2 
  "/>
<polyline clip-path="url(#clip470)" style="stroke:#000000; stroke-linecap:round; stroke-linejoin:round; stroke-width:4; stroke-opacity:1; fill:none" points="
  339.608,1249.17 349.057,1249.17 
  "/>
<polyline clip-path="url(#clip470)" style="stroke:#000000; stroke-linecap:round; stroke-linejoin:round; stroke-width:4; stroke-opacity:1; fill:none" points="
  339.608,1204.15 349.057,1204.15 
  "/>
<polyline clip-path="url(#clip470)" style="stroke:#000000; stroke-linecap:round; stroke-linejoin:round; stroke-width:4; stroke-opacity:1; fill:none" points="
  339.608,1114.11 349.057,1114.11 
  "/>
<polyline clip-path="url(#clip470)" style="stroke:#000000; stroke-linecap:round; stroke-linejoin:round; stroke-width:4; stroke-opacity:1; fill:none" points="
  339.608,1069.09 349.057,1069.09 
  "/>
<polyline clip-path="url(#clip470)" style="stroke:#000000; stroke-linecap:round; stroke-linejoin:round; stroke-width:4; stroke-opacity:1; fill:none" points="
  339.608,1024.07 349.057,1024.07 
  "/>
<polyline clip-path="url(#clip470)" style="stroke:#000000; stroke-linecap:round; stroke-linejoin:round; stroke-width:4; stroke-opacity:1; fill:none" points="
  339.608,979.044 349.057,979.044 
  "/>
<polyline clip-path="url(#clip470)" style="stroke:#000000; stroke-linecap:round; stroke-linejoin:round; stroke-width:4; stroke-opacity:1; fill:none" points="
  339.608,889.001 349.057,889.001 
  "/>
<polyline clip-path="url(#clip470)" style="stroke:#000000; stroke-linecap:round; stroke-linejoin:round; stroke-width:4; stroke-opacity:1; fill:none" points="
  339.608,843.979 349.057,843.979 
  "/>
<polyline clip-path="url(#clip470)" style="stroke:#000000; stroke-linecap:round; stroke-linejoin:round; stroke-width:4; stroke-opacity:1; fill:none" points="
  339.608,798.958 349.057,798.958 
  "/>
<polyline clip-path="url(#clip470)" style="stroke:#000000; stroke-linecap:round; stroke-linejoin:round; stroke-width:4; stroke-opacity:1; fill:none" points="
  339.608,753.936 349.057,753.936 
  "/>
<polyline clip-path="url(#clip470)" style="stroke:#000000; stroke-linecap:round; stroke-linejoin:round; stroke-width:4; stroke-opacity:1; fill:none" points="
  339.608,663.893 349.057,663.893 
  "/>
<polyline clip-path="url(#clip470)" style="stroke:#000000; stroke-linecap:round; stroke-linejoin:round; stroke-width:4; stroke-opacity:1; fill:none" points="
  339.608,618.872 349.057,618.872 
  "/>
<polyline clip-path="url(#clip470)" style="stroke:#000000; stroke-linecap:round; stroke-linejoin:round; stroke-width:4; stroke-opacity:1; fill:none" points="
  339.608,573.85 349.057,573.85 
  "/>
<polyline clip-path="url(#clip470)" style="stroke:#000000; stroke-linecap:round; stroke-linejoin:round; stroke-width:4; stroke-opacity:1; fill:none" points="
  339.608,528.828 349.057,528.828 
  "/>
<polyline clip-path="url(#clip470)" style="stroke:#000000; stroke-linecap:round; stroke-linejoin:round; stroke-width:4; stroke-opacity:1; fill:none" points="
  339.608,438.785 349.057,438.785 
  "/>
<polyline clip-path="url(#clip470)" style="stroke:#000000; stroke-linecap:round; stroke-linejoin:round; stroke-width:4; stroke-opacity:1; fill:none" points="
  339.608,393.764 349.057,393.764 
  "/>
<polyline clip-path="url(#clip470)" style="stroke:#000000; stroke-linecap:round; stroke-linejoin:round; stroke-width:4; stroke-opacity:1; fill:none" points="
  339.608,348.742 349.057,348.742 
  "/>
<polyline clip-path="url(#clip470)" style="stroke:#000000; stroke-linecap:round; stroke-linejoin:round; stroke-width:4; stroke-opacity:1; fill:none" points="
  339.608,303.721 349.057,303.721 
  "/>
<polyline clip-path="url(#clip470)" style="stroke:#000000; stroke-linecap:round; stroke-linejoin:round; stroke-width:4; stroke-opacity:1; fill:none" points="
  339.608,213.677 349.057,213.677 
  "/>
<polyline clip-path="url(#clip470)" style="stroke:#000000; stroke-linecap:round; stroke-linejoin:round; stroke-width:4; stroke-opacity:1; fill:none" points="
  339.608,168.656 349.057,168.656 
  "/>
<polyline clip-path="url(#clip470)" style="stroke:#000000; stroke-linecap:round; stroke-linejoin:round; stroke-width:4; stroke-opacity:1; fill:none" points="
  339.608,123.634 349.057,123.634 
  "/>
<polyline clip-path="url(#clip470)" style="stroke:#000000; stroke-linecap:round; stroke-linejoin:round; stroke-width:4; stroke-opacity:1; fill:none" points="
  339.608,78.6128 349.057,78.6128 
  "/>
<path clip-path="url(#clip470)" d="M291.664 1370.04 Q288.053 1370.04 286.224 1373.6 Q284.418 1377.14 284.418 1384.27 Q284.418 1391.38 286.224 1394.94 Q288.053 1398.49 291.664 1398.49 Q295.298 1398.49 297.104 1394.94 Q298.932 1391.38 298.932 1384.27 Q298.932 1377.14 297.104 1373.6 Q295.298 1370.04 291.664 1370.04 M291.664 1366.33 Q297.474 1366.33 300.529 1370.94 Q303.608 1375.52 303.608 1384.27 Q303.608 1393 300.529 1397.61 Q297.474 1402.19 291.664 1402.19 Q285.854 1402.19 282.775 1397.61 Q279.719 1393 279.719 1384.27 Q279.719 1375.52 282.775 1370.94 Q285.854 1366.33 291.664 1366.33 Z" fill="#000000" fill-rule="evenodd" fill-opacity="1" /><path clip-path="url(#clip470)" d="M117.825 1178.92 L125.464 1178.92 L125.464 1152.56 L117.154 1154.22 L117.154 1149.96 L125.418 1148.3 L130.093 1148.3 L130.093 1178.92 L137.732 1178.92 L137.732 1182.86 L117.825 1182.86 L117.825 1178.92 Z" fill="#000000" fill-rule="evenodd" fill-opacity="1" /><path clip-path="url(#clip470)" d="M147.177 1176.98 L152.061 1176.98 L152.061 1182.86 L147.177 1182.86 L147.177 1176.98 Z" fill="#000000" fill-rule="evenodd" fill-opacity="1" /><path clip-path="url(#clip470)" d="M172.246 1151.38 Q168.635 1151.38 166.806 1154.94 Q165.001 1158.48 165.001 1165.61 Q165.001 1172.72 166.806 1176.28 Q168.635 1179.83 172.246 1179.83 Q175.88 1179.83 177.686 1176.28 Q179.514 1172.72 179.514 1165.61 Q179.514 1158.48 177.686 1154.94 Q175.88 1151.38 172.246 1151.38 M172.246 1147.67 Q178.056 1147.67 181.112 1152.28 Q184.19 1156.86 184.19 1165.61 Q184.19 1174.34 181.112 1178.95 Q178.056 1183.53 172.246 1183.53 Q166.436 1183.53 163.357 1178.95 Q160.302 1174.34 160.302 1165.61 Q160.302 1156.86 163.357 1152.28 Q166.436 1147.67 172.246 1147.67 Z" fill="#000000" fill-rule="evenodd" fill-opacity="1" /><path clip-path="url(#clip470)" d="M220.579 1157.4 L210 1168.02 L220.579 1178.6 L217.824 1181.4 L207.199 1170.77 L196.575 1181.4 L193.843 1178.6 L204.399 1168.02 L193.843 1157.4 L196.575 1154.59 L207.199 1165.22 L217.824 1154.59 L220.579 1157.4 Z" fill="#000000" fill-rule="evenodd" fill-opacity="1" /><path clip-path="url(#clip470)" d="M232.94 1178.92 L240.579 1178.92 L240.579 1152.56 L232.269 1154.22 L232.269 1149.96 L240.533 1148.3 L245.209 1148.3 L245.209 1178.92 L252.847 1178.92 L252.847 1182.86 L232.94 1182.86 L232.94 1178.92 Z" fill="#000000" fill-rule="evenodd" fill-opacity="1" /><path clip-path="url(#clip470)" d="M272.292 1151.38 Q268.681 1151.38 266.852 1154.94 Q265.046 1158.48 265.046 1165.61 Q265.046 1172.72 266.852 1176.28 Q268.681 1179.83 272.292 1179.83 Q275.926 1179.83 277.732 1176.28 Q279.56 1172.72 279.56 1165.61 Q279.56 1158.48 277.732 1154.94 Q275.926 1151.38 272.292 1151.38 M272.292 1147.67 Q278.102 1147.67 281.157 1152.28 Q284.236 1156.86 284.236 1165.61 Q284.236 1174.34 281.157 1178.95 Q278.102 1183.53 272.292 1183.53 Q266.482 1183.53 263.403 1178.95 Q260.347 1174.34 260.347 1165.61 Q260.347 1156.86 263.403 1152.28 Q266.482 1147.67 272.292 1147.67 Z" fill="#000000" fill-rule="evenodd" fill-opacity="1" /><path clip-path="url(#clip470)" d="M286.042 1154.86 L286.042 1151.4 Q287.471 1152.08 288.938 1152.44 Q290.405 1152.8 291.816 1152.8 Q295.577 1152.8 297.552 1150.28 Q299.546 1147.74 299.828 1142.58 Q298.737 1144.2 297.063 1145.07 Q295.389 1145.93 293.358 1145.93 Q289.145 1145.93 286.681 1143.39 Q284.236 1140.83 284.236 1136.41 Q284.236 1132.09 286.794 1129.47 Q289.352 1126.86 293.602 1126.86 Q298.474 1126.86 301.031 1130.6 Q303.608 1134.33 303.608 1141.44 Q303.608 1148.08 300.448 1152.04 Q297.307 1155.99 291.985 1155.99 Q290.556 1155.99 289.089 1155.71 Q287.621 1155.43 286.042 1154.86 M293.602 1142.96 Q296.16 1142.96 297.646 1141.21 Q299.151 1139.46 299.151 1136.41 Q299.151 1133.39 297.646 1131.64 Q296.16 1129.87 293.602 1129.87 Q291.045 1129.87 289.54 1131.64 Q288.054 1133.39 288.054 1136.41 Q288.054 1139.46 289.54 1141.21 Q291.045 1142.96 293.602 1142.96 Z" fill="#000000" fill-rule="evenodd" fill-opacity="1" /><path clip-path="url(#clip470)" d="M121.043 953.815 L137.362 953.815 L137.362 957.75 L115.418 957.75 L115.418 953.815 Q118.08 951.06 122.663 946.431 Q127.269 941.778 128.45 940.435 Q130.695 937.912 131.575 936.176 Q132.478 934.417 132.478 932.727 Q132.478 929.973 130.533 928.236 Q128.612 926.5 125.51 926.5 Q123.311 926.5 120.857 927.264 Q118.427 928.028 115.649 929.579 L115.649 924.857 Q118.473 923.723 120.927 923.144 Q123.38 922.565 125.418 922.565 Q130.788 922.565 133.982 925.25 Q137.177 927.936 137.177 932.426 Q137.177 934.556 136.367 936.477 Q135.579 938.375 133.473 940.968 Q132.894 941.639 129.792 944.857 Q126.691 948.051 121.043 953.815 Z" fill="#000000" fill-rule="evenodd" fill-opacity="1" /><path clip-path="url(#clip470)" d="M147.177 951.871 L152.061 951.871 L152.061 957.75 L147.177 957.75 L147.177 951.871 Z" fill="#000000" fill-rule="evenodd" fill-opacity="1" /><path clip-path="url(#clip470)" d="M172.246 926.269 Q168.635 926.269 166.806 929.834 Q165.001 933.375 165.001 940.505 Q165.001 947.611 166.806 951.176 Q168.635 954.718 172.246 954.718 Q175.88 954.718 177.686 951.176 Q179.514 947.611 179.514 940.505 Q179.514 933.375 177.686 929.834 Q175.88 926.269 172.246 926.269 M172.246 922.565 Q178.056 922.565 181.112 927.172 Q184.19 931.755 184.19 940.505 Q184.19 949.232 181.112 953.838 Q178.056 958.421 172.246 958.421 Q166.436 958.421 163.357 953.838 Q160.302 949.232 160.302 940.505 Q160.302 931.755 163.357 927.172 Q166.436 922.565 172.246 922.565 Z" fill="#000000" fill-rule="evenodd" fill-opacity="1" /><path clip-path="url(#clip470)" d="M220.579 932.287 L210 942.912 L220.579 953.491 L217.824 956.292 L207.199 945.667 L196.575 956.292 L193.843 953.491 L204.399 942.912 L193.843 932.287 L196.575 929.486 L207.199 940.111 L217.824 929.486 L220.579 932.287 Z" fill="#000000" fill-rule="evenodd" fill-opacity="1" /><path clip-path="url(#clip470)" d="M232.94 953.815 L240.579 953.815 L240.579 927.449 L232.269 929.116 L232.269 924.857 L240.533 923.19 L245.209 923.19 L245.209 953.815 L252.847 953.815 L252.847 957.75 L232.94 957.75 L232.94 953.815 Z" fill="#000000" fill-rule="evenodd" fill-opacity="1" /><path clip-path="url(#clip470)" d="M272.292 926.269 Q268.681 926.269 266.852 929.834 Q265.046 933.375 265.046 940.505 Q265.046 947.611 266.852 951.176 Q268.681 954.718 272.292 954.718 Q275.926 954.718 277.732 951.176 Q279.56 947.611 279.56 940.505 Q279.56 933.375 277.732 929.834 Q275.926 926.269 272.292 926.269 M272.292 922.565 Q278.102 922.565 281.157 927.172 Q284.236 931.755 284.236 940.505 Q284.236 949.232 281.157 953.838 Q278.102 958.421 272.292 958.421 Q266.482 958.421 263.403 953.838 Q260.347 949.232 260.347 940.505 Q260.347 931.755 263.403 927.172 Q266.482 922.565 272.292 922.565 Z" fill="#000000" fill-rule="evenodd" fill-opacity="1" /><path clip-path="url(#clip470)" d="M286.042 929.757 L286.042 926.296 Q287.471 926.973 288.938 927.331 Q290.405 927.688 291.816 927.688 Q295.577 927.688 297.552 925.168 Q299.546 922.629 299.828 917.475 Q298.737 919.093 297.063 919.958 Q295.389 920.823 293.358 920.823 Q289.145 920.823 286.681 918.284 Q284.236 915.726 284.236 911.306 Q284.236 906.981 286.794 904.366 Q289.352 901.752 293.602 901.752 Q298.474 901.752 301.031 905.495 Q303.608 909.219 303.608 916.328 Q303.608 922.967 300.448 926.936 Q297.307 930.885 291.985 930.885 Q290.556 930.885 289.089 930.603 Q287.621 930.321 286.042 929.757 M293.602 917.851 Q296.16 917.851 297.646 916.102 Q299.151 914.353 299.151 911.306 Q299.151 908.278 297.646 906.529 Q296.16 904.761 293.602 904.761 Q291.045 904.761 289.54 906.529 Q288.054 908.278 288.054 911.306 Q288.054 914.353 289.54 916.102 Q291.045 917.851 293.602 917.851 Z" fill="#000000" fill-rule="evenodd" fill-opacity="1" /><path clip-path="url(#clip470)" d="M131.181 714.008 Q134.538 714.726 136.413 716.994 Q138.311 719.263 138.311 722.596 Q138.311 727.712 134.792 730.513 Q131.274 733.314 124.793 733.314 Q122.617 733.314 120.302 732.874 Q118.01 732.457 115.556 731.601 L115.556 727.087 Q117.501 728.221 119.816 728.8 Q122.13 729.378 124.654 729.378 Q129.052 729.378 131.343 727.642 Q133.658 725.906 133.658 722.596 Q133.658 719.541 131.505 717.828 Q129.376 716.092 125.556 716.092 L121.529 716.092 L121.529 712.249 L125.742 712.249 Q129.191 712.249 131.019 710.883 Q132.848 709.494 132.848 706.902 Q132.848 704.24 130.95 702.828 Q129.075 701.393 125.556 701.393 Q123.635 701.393 121.436 701.809 Q119.237 702.226 116.598 703.105 L116.598 698.939 Q119.26 698.198 121.575 697.828 Q123.913 697.457 125.973 697.457 Q131.297 697.457 134.399 699.888 Q137.501 702.295 137.501 706.416 Q137.501 709.286 135.857 711.277 Q134.214 713.244 131.181 714.008 Z" fill="#000000" fill-rule="evenodd" fill-opacity="1" /><path clip-path="url(#clip470)" d="M147.177 726.763 L152.061 726.763 L152.061 732.642 L147.177 732.642 L147.177 726.763 Z" fill="#000000" fill-rule="evenodd" fill-opacity="1" /><path clip-path="url(#clip470)" d="M172.246 701.161 Q168.635 701.161 166.806 704.726 Q165.001 708.267 165.001 715.397 Q165.001 722.504 166.806 726.068 Q168.635 729.61 172.246 729.61 Q175.88 729.61 177.686 726.068 Q179.514 722.504 179.514 715.397 Q179.514 708.267 177.686 704.726 Q175.88 701.161 172.246 701.161 M172.246 697.457 Q178.056 697.457 181.112 702.064 Q184.19 706.647 184.19 715.397 Q184.19 724.124 181.112 728.73 Q178.056 733.314 172.246 733.314 Q166.436 733.314 163.357 728.73 Q160.302 724.124 160.302 715.397 Q160.302 706.647 163.357 702.064 Q166.436 697.457 172.246 697.457 Z" fill="#000000" fill-rule="evenodd" fill-opacity="1" /><path clip-path="url(#clip470)" d="M220.579 707.18 L210 717.804 L220.579 728.383 L217.824 731.184 L207.199 720.559 L196.575 731.184 L193.843 728.383 L204.399 717.804 L193.843 707.18 L196.575 704.379 L207.199 715.004 L217.824 704.379 L220.579 707.18 Z" fill="#000000" fill-rule="evenodd" fill-opacity="1" /><path clip-path="url(#clip470)" d="M232.94 728.707 L240.579 728.707 L240.579 702.342 L232.269 704.008 L232.269 699.749 L240.533 698.082 L245.209 698.082 L245.209 728.707 L252.847 728.707 L252.847 732.642 L232.94 732.642 L232.94 728.707 Z" fill="#000000" fill-rule="evenodd" fill-opacity="1" /><path clip-path="url(#clip470)" d="M272.292 701.161 Q268.681 701.161 266.852 704.726 Q265.046 708.267 265.046 715.397 Q265.046 722.504 266.852 726.068 Q268.681 729.61 272.292 729.61 Q275.926 729.61 277.732 726.068 Q279.56 722.504 279.56 715.397 Q279.56 708.267 277.732 704.726 Q275.926 701.161 272.292 701.161 M272.292 697.457 Q278.102 697.457 281.157 702.064 Q284.236 706.647 284.236 715.397 Q284.236 724.124 281.157 728.73 Q278.102 733.314 272.292 733.314 Q266.482 733.314 263.403 728.73 Q260.347 724.124 260.347 715.397 Q260.347 706.647 263.403 702.064 Q266.482 697.457 272.292 697.457 Z" fill="#000000" fill-rule="evenodd" fill-opacity="1" /><path clip-path="url(#clip470)" d="M286.042 704.649 L286.042 701.188 Q287.471 701.865 288.938 702.223 Q290.405 702.58 291.816 702.58 Q295.577 702.58 297.552 700.06 Q299.546 697.521 299.828 692.367 Q298.737 693.985 297.063 694.85 Q295.389 695.715 293.358 695.715 Q289.145 695.715 286.681 693.176 Q284.236 690.618 284.236 686.198 Q284.236 681.873 286.794 679.258 Q289.352 676.644 293.602 676.644 Q298.474 676.644 301.031 680.387 Q303.608 684.111 303.608 691.22 Q303.608 697.859 300.448 701.828 Q297.307 705.777 291.985 705.777 Q290.556 705.777 289.089 705.495 Q287.621 705.213 286.042 704.649 M293.602 692.744 Q296.16 692.744 297.646 690.994 Q299.151 689.245 299.151 686.198 Q299.151 683.17 297.646 681.421 Q296.16 679.653 293.602 679.653 Q291.045 679.653 289.54 681.421 Q288.054 683.17 288.054 686.198 Q288.054 689.245 289.54 690.994 Q291.045 692.744 293.602 692.744 Z" fill="#000000" fill-rule="evenodd" fill-opacity="1" /><path clip-path="url(#clip470)" d="M129.862 477.049 L118.056 495.498 L129.862 495.498 L129.862 477.049 M128.635 472.975 L134.515 472.975 L134.515 495.498 L139.445 495.498 L139.445 499.386 L134.515 499.386 L134.515 507.535 L129.862 507.535 L129.862 499.386 L114.26 499.386 L114.26 494.873 L128.635 472.975 Z" fill="#000000" fill-rule="evenodd" fill-opacity="1" /><path clip-path="url(#clip470)" d="M147.177 501.655 L152.061 501.655 L152.061 507.535 L147.177 507.535 L147.177 501.655 Z" fill="#000000" fill-rule="evenodd" fill-opacity="1" /><path clip-path="url(#clip470)" d="M172.246 476.053 Q168.635 476.053 166.806 479.618 Q165.001 483.16 165.001 490.289 Q165.001 497.396 166.806 500.96 Q168.635 504.502 172.246 504.502 Q175.88 504.502 177.686 500.96 Q179.514 497.396 179.514 490.289 Q179.514 483.16 177.686 479.618 Q175.88 476.053 172.246 476.053 M172.246 472.35 Q178.056 472.35 181.112 476.956 Q184.19 481.539 184.19 490.289 Q184.19 499.016 181.112 503.622 Q178.056 508.206 172.246 508.206 Q166.436 508.206 163.357 503.622 Q160.302 499.016 160.302 490.289 Q160.302 481.539 163.357 476.956 Q166.436 472.35 172.246 472.35 Z" fill="#000000" fill-rule="evenodd" fill-opacity="1" /><path clip-path="url(#clip470)" d="M220.579 482.072 L210 492.697 L220.579 503.275 L217.824 506.076 L207.199 495.451 L196.575 506.076 L193.843 503.275 L204.399 492.697 L193.843 482.072 L196.575 479.271 L207.199 489.896 L217.824 479.271 L220.579 482.072 Z" fill="#000000" fill-rule="evenodd" fill-opacity="1" /><path clip-path="url(#clip470)" d="M232.94 503.599 L240.579 503.599 L240.579 477.234 L232.269 478.9 L232.269 474.641 L240.533 472.975 L245.209 472.975 L245.209 503.599 L252.847 503.599 L252.847 507.535 L232.94 507.535 L232.94 503.599 Z" fill="#000000" fill-rule="evenodd" fill-opacity="1" /><path clip-path="url(#clip470)" d="M272.292 476.053 Q268.681 476.053 266.852 479.618 Q265.046 483.16 265.046 490.289 Q265.046 497.396 266.852 500.96 Q268.681 504.502 272.292 504.502 Q275.926 504.502 277.732 500.96 Q279.56 497.396 279.56 490.289 Q279.56 483.16 277.732 479.618 Q275.926 476.053 272.292 476.053 M272.292 472.35 Q278.102 472.35 281.157 476.956 Q284.236 481.539 284.236 490.289 Q284.236 499.016 281.157 503.622 Q278.102 508.206 272.292 508.206 Q266.482 508.206 263.403 503.622 Q260.347 499.016 260.347 490.289 Q260.347 481.539 263.403 476.956 Q266.482 472.35 272.292 472.35 Z" fill="#000000" fill-rule="evenodd" fill-opacity="1" /><path clip-path="url(#clip470)" d="M286.042 479.541 L286.042 476.08 Q287.471 476.758 288.938 477.115 Q290.405 477.472 291.816 477.472 Q295.577 477.472 297.552 474.952 Q299.546 472.413 299.828 467.26 Q298.737 468.877 297.063 469.742 Q295.389 470.607 293.358 470.607 Q289.145 470.607 286.681 468.068 Q284.236 465.51 284.236 461.091 Q284.236 456.765 286.794 454.151 Q289.352 451.536 293.602 451.536 Q298.474 451.536 301.031 455.279 Q303.608 459.003 303.608 466.112 Q303.608 472.751 300.448 476.72 Q297.307 480.67 291.985 480.67 Q290.556 480.67 289.089 480.387 Q287.621 480.105 286.042 479.541 M293.602 467.636 Q296.16 467.636 297.646 465.887 Q299.151 464.137 299.151 461.091 Q299.151 458.063 297.646 456.313 Q296.16 454.546 293.602 454.546 Q291.045 454.546 289.54 456.313 Q288.054 458.063 288.054 461.091 Q288.054 464.137 289.54 465.887 Q291.045 467.636 293.602 467.636 Z" fill="#000000" fill-rule="evenodd" fill-opacity="1" /><path clip-path="url(#clip470)" d="M117.061 247.867 L135.417 247.867 L135.417 251.802 L121.343 251.802 L121.343 260.274 Q122.362 259.927 123.38 259.765 Q124.399 259.58 125.418 259.58 Q131.205 259.58 134.584 262.751 Q137.964 265.922 137.964 271.339 Q137.964 276.917 134.492 280.019 Q131.019 283.098 124.7 283.098 Q122.524 283.098 120.255 282.728 Q118.01 282.357 115.603 281.616 L115.603 276.917 Q117.686 278.052 119.908 278.607 Q122.13 279.163 124.607 279.163 Q128.612 279.163 130.95 277.056 Q133.288 274.95 133.288 271.339 Q133.288 267.728 130.95 265.621 Q128.612 263.515 124.607 263.515 Q122.732 263.515 120.857 263.931 Q119.006 264.348 117.061 265.228 L117.061 247.867 Z" fill="#000000" fill-rule="evenodd" fill-opacity="1" /><path clip-path="url(#clip470)" d="M147.177 276.547 L152.061 276.547 L152.061 282.427 L147.177 282.427 L147.177 276.547 Z" fill="#000000" fill-rule="evenodd" fill-opacity="1" /><path clip-path="url(#clip470)" d="M172.246 250.945 Q168.635 250.945 166.806 254.51 Q165.001 258.052 165.001 265.181 Q165.001 272.288 166.806 275.853 Q168.635 279.394 172.246 279.394 Q175.88 279.394 177.686 275.853 Q179.514 272.288 179.514 265.181 Q179.514 258.052 177.686 254.51 Q175.88 250.945 172.246 250.945 M172.246 247.242 Q178.056 247.242 181.112 251.848 Q184.19 256.431 184.19 265.181 Q184.19 273.908 181.112 278.515 Q178.056 283.098 172.246 283.098 Q166.436 283.098 163.357 278.515 Q160.302 273.908 160.302 265.181 Q160.302 256.431 163.357 251.848 Q166.436 247.242 172.246 247.242 Z" fill="#000000" fill-rule="evenodd" fill-opacity="1" /><path clip-path="url(#clip470)" d="M220.579 256.964 L210 267.589 L220.579 278.167 L217.824 280.968 L207.199 270.343 L196.575 280.968 L193.843 278.167 L204.399 267.589 L193.843 256.964 L196.575 254.163 L207.199 264.788 L217.824 254.163 L220.579 256.964 Z" fill="#000000" fill-rule="evenodd" fill-opacity="1" /><path clip-path="url(#clip470)" d="M232.94 278.491 L240.579 278.491 L240.579 252.126 L232.269 253.793 L232.269 249.533 L240.533 247.867 L245.209 247.867 L245.209 278.491 L252.847 278.491 L252.847 282.427 L232.94 282.427 L232.94 278.491 Z" fill="#000000" fill-rule="evenodd" fill-opacity="1" /><path clip-path="url(#clip470)" d="M272.292 250.945 Q268.681 250.945 266.852 254.51 Q265.046 258.052 265.046 265.181 Q265.046 272.288 266.852 275.853 Q268.681 279.394 272.292 279.394 Q275.926 279.394 277.732 275.853 Q279.56 272.288 279.56 265.181 Q279.56 258.052 277.732 254.51 Q275.926 250.945 272.292 250.945 M272.292 247.242 Q278.102 247.242 281.157 251.848 Q284.236 256.431 284.236 265.181 Q284.236 273.908 281.157 278.515 Q278.102 283.098 272.292 283.098 Q266.482 283.098 263.403 278.515 Q260.347 273.908 260.347 265.181 Q260.347 256.431 263.403 251.848 Q266.482 247.242 272.292 247.242 Z" fill="#000000" fill-rule="evenodd" fill-opacity="1" /><path clip-path="url(#clip470)" d="M286.042 254.433 L286.042 250.973 Q287.471 251.65 288.938 252.007 Q290.405 252.364 291.816 252.364 Q295.577 252.364 297.552 249.844 Q299.546 247.305 299.828 242.152 Q298.737 243.769 297.063 244.634 Q295.389 245.5 293.358 245.5 Q289.145 245.5 286.681 242.96 Q284.236 240.403 284.236 235.983 Q284.236 231.657 286.794 229.043 Q289.352 226.428 293.602 226.428 Q298.474 226.428 301.031 230.171 Q303.608 233.895 303.608 241.004 Q303.608 247.644 300.448 251.612 Q297.307 255.562 291.985 255.562 Q290.556 255.562 289.089 255.28 Q287.621 254.997 286.042 254.433 M293.602 242.528 Q296.16 242.528 297.646 240.779 Q299.151 239.03 299.151 235.983 Q299.151 232.955 297.646 231.206 Q296.16 229.438 293.602 229.438 Q291.045 229.438 289.54 231.206 Q288.054 232.955 288.054 235.983 Q288.054 239.03 289.54 240.779 Q291.045 242.528 293.602 242.528 Z" fill="#000000" fill-rule="evenodd" fill-opacity="1" /><path clip-path="url(#clip470)" d="M21.7677 976.536 L39.6235 976.536 L39.6235 968.451 Q39.6235 963.964 37.3 961.513 Q34.9765 959.062 30.6797 959.062 Q26.4147 959.062 24.0912 961.513 Q21.7677 963.964 21.7677 968.451 L21.7677 976.536 M16.4842 982.965 L16.4842 968.451 Q16.4842 960.462 20.1126 956.388 Q23.7092 952.283 30.6797 952.283 Q37.7138 952.283 41.3104 956.388 Q44.907 960.462 44.907 968.451 L44.907 976.536 L64.0042 976.536 L64.0042 982.965 L16.4842 982.965 Z" fill="#000000" fill-rule="evenodd" fill-opacity="1" /><path clip-path="url(#clip470)" d="M32.4621 932.422 Q32.4621 937.132 36.1542 939.869 Q39.8145 942.607 46.212 942.607 Q52.6095 942.607 56.3017 939.901 Q59.9619 937.164 59.9619 932.422 Q59.9619 927.743 56.2698 925.006 Q52.5777 922.268 46.212 922.268 Q39.8781 922.268 36.186 925.006 Q32.4621 927.743 32.4621 932.422 M27.4968 932.422 Q27.4968 924.783 32.4621 920.422 Q37.4273 916.062 46.212 916.062 Q54.9649 916.062 59.9619 920.422 Q64.9272 924.783 64.9272 932.422 Q64.9272 940.092 59.9619 944.453 Q54.9649 948.781 46.212 948.781 Q37.4273 948.781 32.4621 944.453 Q27.4968 940.092 27.4968 932.422 Z" fill="#000000" fill-rule="evenodd" fill-opacity="1" /><path clip-path="url(#clip470)" d="M28.3562 909.76 L28.3562 903.903 L56.1743 896.583 L28.3562 889.294 L28.3562 882.387 L56.1743 875.067 L28.3562 867.778 L28.3562 861.921 L64.0042 871.247 L64.0042 878.154 L34.7856 885.825 L64.0042 893.527 L64.0042 900.434 L28.3562 909.76 Z" fill="#000000" fill-rule="evenodd" fill-opacity="1" /><path clip-path="url(#clip470)" d="M44.7161 822.549 L47.5806 822.549 L47.5806 849.476 Q53.6281 849.094 56.8109 845.848 Q59.9619 842.57 59.9619 836.745 Q59.9619 833.371 59.1344 830.22 Q58.3069 827.037 56.6518 823.918 L62.1899 823.918 Q63.5267 827.069 64.227 830.379 Q64.9272 833.689 64.9272 837.095 Q64.9272 845.625 59.9619 850.622 Q54.9967 855.587 46.5303 855.587 Q37.7774 855.587 32.6531 850.877 Q27.4968 846.134 27.4968 838.114 Q27.4968 830.92 32.1438 826.751 Q36.7589 822.549 44.7161 822.549 M42.9973 828.406 Q38.1912 828.47 35.3266 831.111 Q32.4621 833.721 32.4621 838.05 Q32.4621 842.952 35.2312 845.912 Q38.0002 848.84 43.0292 849.285 L42.9973 828.406 Z" fill="#000000" fill-rule="evenodd" fill-opacity="1" /><path clip-path="url(#clip470)" d="M33.8307 792.281 Q33.2578 793.267 33.0032 794.445 Q32.7167 795.591 32.7167 796.991 Q32.7167 801.956 35.9632 804.63 Q39.1779 807.272 45.2253 807.272 L64.0042 807.272 L64.0042 813.16 L28.3562 813.16 L28.3562 807.272 L33.8944 807.272 Q30.6479 805.426 29.0883 802.466 Q27.4968 799.506 27.4968 795.272 Q27.4968 794.668 27.5923 793.936 Q27.656 793.204 27.8151 792.312 L33.8307 792.281 Z" fill="#000000" fill-rule="evenodd" fill-opacity="1" /><path clip-path="url(#clip470)" d="M29.4065 763.412 L34.9447 763.412 Q33.6716 765.895 33.035 768.568 Q32.3984 771.242 32.3984 774.106 Q32.3984 778.467 33.7352 780.663 Q35.072 782.827 37.7456 782.827 Q39.7826 782.827 40.9603 781.268 Q42.1061 779.708 43.1565 774.998 L43.6021 772.992 Q44.9389 766.754 47.3897 764.144 Q49.8086 761.502 54.1691 761.502 Q59.1344 761.502 62.0308 765.449 Q64.9272 769.364 64.9272 776.239 Q64.9272 779.104 64.3543 782.223 Q63.8132 785.31 62.6992 788.748 L56.6518 788.748 Q58.3387 785.501 59.198 782.35 Q60.0256 779.199 60.0256 776.112 Q60.0256 771.974 58.6251 769.746 Q57.1929 767.518 54.6147 767.518 Q52.2276 767.518 50.9545 769.141 Q49.6813 770.733 48.5037 776.175 L48.0262 778.212 Q46.8804 783.655 44.5251 786.074 Q42.138 788.493 38.0002 788.493 Q32.9713 788.493 30.2341 784.928 Q27.4968 781.363 27.4968 774.807 Q27.4968 771.56 27.9743 768.696 Q28.4517 765.831 29.4065 763.412 Z" fill="#000000" fill-rule="evenodd" fill-opacity="1" /><path clip-path="url(#clip470)" d="M58.657 746.511 L77.5631 746.511 L77.5631 752.399 L28.3562 752.399 L28.3562 746.511 L33.7671 746.511 Q30.5842 744.665 29.0564 741.864 Q27.4968 739.031 27.4968 735.116 Q27.4968 728.623 32.6531 724.581 Q37.8093 720.507 46.212 720.507 Q54.6147 720.507 59.771 724.581 Q64.9272 728.623 64.9272 735.116 Q64.9272 739.031 63.3994 741.864 Q61.8398 744.665 58.657 746.511 M46.212 726.586 Q39.7508 726.586 36.0905 729.26 Q32.3984 731.902 32.3984 736.549 Q32.3984 741.196 36.0905 743.869 Q39.7508 746.511 46.212 746.511 Q52.6732 746.511 56.3653 743.869 Q60.0256 741.196 60.0256 736.549 Q60.0256 731.902 56.3653 729.26 Q52.6732 726.586 46.212 726.586 Z" fill="#000000" fill-rule="evenodd" fill-opacity="1" /><path clip-path="url(#clip470)" d="M44.7161 680.308 L47.5806 680.308 L47.5806 707.235 Q53.6281 706.853 56.8109 703.606 Q59.9619 700.328 59.9619 694.503 Q59.9619 691.129 59.1344 687.978 Q58.3069 684.796 56.6518 681.676 L62.1899 681.676 Q63.5267 684.827 64.227 688.138 Q64.9272 691.448 64.9272 694.853 Q64.9272 703.383 59.9619 708.381 Q54.9967 713.346 46.5303 713.346 Q37.7774 713.346 32.6531 708.635 Q27.4968 703.893 27.4968 695.872 Q27.4968 688.679 32.1438 684.509 Q36.7589 680.308 44.7161 680.308 M42.9973 686.164 Q38.1912 686.228 35.3266 688.87 Q32.4621 691.48 32.4621 695.808 Q32.4621 700.71 35.2312 703.67 Q38.0002 706.598 43.0292 707.044 L42.9973 686.164 Z" fill="#000000" fill-rule="evenodd" fill-opacity="1" /><path clip-path="url(#clip470)" d="M14.479 670.918 L14.479 665.03 L43.7294 665.03 L28.3562 647.556 L28.3562 640.076 L45.0344 658.983 L64.0042 639.281 L64.0042 646.92 L46.5939 665.03 L64.0042 665.03 L64.0042 670.918 L14.479 670.918 Z" fill="#000000" fill-rule="evenodd" fill-opacity="1" /><path clip-path="url(#clip470)" d="M18.2347 627.154 L28.3562 627.154 L28.3562 615.091 L32.9077 615.091 L32.9077 627.154 L52.2594 627.154 Q56.6199 627.154 57.8613 625.976 Q59.1026 624.767 59.1026 621.107 L59.1026 615.091 L64.0042 615.091 L64.0042 621.107 Q64.0042 627.886 61.4897 630.464 Q58.9434 633.042 52.2594 633.042 L32.9077 633.042 L32.9077 637.339 L28.3562 637.339 L28.3562 633.042 L18.2347 633.042 L18.2347 627.154 Z" fill="#000000" fill-rule="evenodd" fill-opacity="1" /><path clip-path="url(#clip470)" d="M33.8307 586.732 Q33.2578 587.719 33.0032 588.896 Q32.7167 590.042 32.7167 591.442 Q32.7167 596.408 35.9632 599.081 Q39.1779 601.723 45.2253 601.723 L64.0042 601.723 L64.0042 607.611 L28.3562 607.611 L28.3562 601.723 L33.8944 601.723 Q30.6479 599.877 29.0883 596.917 Q27.4968 593.957 27.4968 589.724 Q27.4968 589.119 27.5923 588.387 Q27.656 587.655 27.8151 586.764 L33.8307 586.732 Z" fill="#000000" fill-rule="evenodd" fill-opacity="1" /><path clip-path="url(#clip470)" d="M49.9359 581.194 L28.3562 581.194 L28.3562 575.337 L49.7131 575.337 Q54.7739 575.337 57.3202 573.364 Q59.8346 571.391 59.8346 567.444 Q59.8346 562.701 56.8109 559.964 Q53.7872 557.195 48.5673 557.195 L28.3562 557.195 L28.3562 551.339 L64.0042 551.339 L64.0042 557.195 L58.5296 557.195 Q61.7762 559.327 63.3676 562.16 Q64.9272 564.961 64.9272 568.685 Q64.9272 574.828 61.1078 578.011 Q57.2883 581.194 49.9359 581.194 M27.4968 566.457 L27.4968 566.457 Z" fill="#000000" fill-rule="evenodd" fill-opacity="1" /><path clip-path="url(#clip470)" d="M35.1993 511.521 Q31.2526 509.325 29.3747 506.269 Q27.4968 503.214 27.4968 499.076 Q27.4968 493.506 31.4117 490.482 Q35.2948 487.459 42.4881 487.459 L64.0042 487.459 L64.0042 493.347 L42.679 493.347 Q37.5546 493.347 35.072 495.161 Q32.5894 496.975 32.5894 500.699 Q32.5894 505.251 35.6131 507.893 Q38.6368 510.534 43.8567 510.534 L64.0042 510.534 L64.0042 516.423 L42.679 516.423 Q37.5228 516.423 35.072 518.237 Q32.5894 520.051 32.5894 523.839 Q32.5894 528.327 35.6449 530.968 Q38.6686 533.61 43.8567 533.61 L64.0042 533.61 L64.0042 539.498 L28.3562 539.498 L28.3562 533.61 L33.8944 533.61 Q30.616 531.605 29.0564 528.804 Q27.4968 526.003 27.4968 522.152 Q27.4968 518.269 29.4702 515.563 Q31.4436 512.826 35.1993 511.521 Z" fill="#000000" fill-rule="evenodd" fill-opacity="1" /><polyline clip-path="url(#clip472)" style="stroke:#ee7733; stroke-linecap:round; stroke-linejoin:round; stroke-width:4.8; stroke-opacity:1; fill:none" points="
  396.584,1317.34 397.741,1307.63 398.899,1035.89 400.056,1200.74 401.213,1269 402.371,1380.77 403.528,1341.97 404.685,1376.95 405.843,1371.93 407,1354.18 
  408.157,1374.72 409.315,1380.35 410.472,1324.18 411.629,1375.64 412.787,1377.93 413.944,1371.43 415.101,1373.14 416.259,1331.87 417.416,1358.66 418.573,1368.21 
  419.731,1329.57 420.888,1382.46 422.045,1020.03 423.203,1275.24 424.36,86.1857 425.517,757.156 426.675,952.119 427.832,1264.72 428.99,1269.23 430.147,1362.45 
  431.304,1273.07 432.462,1283.37 433.619,1373.61 434.776,1268.56 435.934,1367.07 437.091,1369.78 438.248,1366.07 439.406,1363.64 440.563,1379.83 441.72,1378.61 
  442.878,1377.5 444.035,1383.75 445.192,1381.46 446.35,1383.5 447.507,1377.68 448.664,1377.21 449.822,1365.91 450.979,1355.32 452.136,1382.14 453.294,1329.36 
  454.451,1383.02 455.608,1357.57 456.766,1375.52 457.923,1382.61 459.08,1376.76 460.238,1381.34 461.395,1356.92 462.552,1380.96 463.71,1383.51 464.867,1378.59 
  466.024,1379.22 467.182,1382.63 468.339,1381.54 469.496,1383.09 470.654,1379.92 471.811,1379.74 472.968,1373.47 474.126,1382.78 475.283,1378.47 476.44,1383.44 
  477.598,1382.43 478.755,1383.44 479.913,1381.8 481.07,1382.29 482.227,1380.84 483.385,1382.46 484.542,1384.22 485.699,1379.39 486.857,1382.43 488.014,1382.06 
  489.171,1384.21 490.329,1383.61 491.486,1382.15 492.643,1381.55 493.801,1383.7 494.958,1380.06 496.115,1383.61 497.273,1381.22 498.43,1382.53 499.587,1383.93 
  500.745,1384.05 501.902,1384.09 503.059,1383.45 504.217,1378.17 505.374,1382.4 506.531,1383.02 507.689,1382.49 508.846,1382.19 510.003,1383.53 511.161,1383.03 
  512.318,1382.49 513.475,1384.23 514.633,1383.2 515.79,1383.46 516.947,1383.78 518.105,1384.18 519.262,1384.2 520.419,1383.43 521.577,1383.36 522.734,1382.09 
  523.891,1382.23 525.049,1384.06 526.206,1384.11 527.363,1383.81 528.521,1383.91 529.678,1382.27 530.836,1382.56 531.993,1382.35 533.15,1382.89 534.308,1383.23 
  535.465,1384.2 536.622,1383.2 537.78,1383.84 538.937,1384.07 540.094,1382.28 541.252,1382.57 542.409,1384.06 543.566,1382.08 544.724,1382.58 545.881,1381.45 
  547.038,1383.16 548.196,1383.53 549.353,1383.49 550.51,1383.81 551.668,1383.96 552.825,1383.28 553.982,1381.93 555.14,1384.12 556.297,1381.87 557.454,1383.2 
  558.612,1382.79 559.769,1383.26 560.926,1383.25 562.084,1384.19 563.241,1382.49 564.398,1383.86 565.556,1383.83 566.713,1382.79 567.87,1383.59 569.028,1383.71 
  570.185,1384.18 571.342,1384.19 572.5,1383.31 573.657,1383.96 574.814,1383.55 575.972,1383.15 577.129,1383.76 578.286,1384.1 579.444,1383.36 580.601,1384.06 
  581.758,1383.75 582.916,1384.19 584.073,1383.52 585.231,1384.23 586.388,1382.23 587.545,1384.15 588.703,1383.63 589.86,1383.56 591.017,1383.38 592.175,1383.63 
  593.332,1384.08 594.489,1384.17 595.647,1383.81 596.804,1383.33 597.961,1384.17 599.119,1383.65 600.276,1383.4 601.433,1383.59 602.591,1383.84 603.748,1383.32 
  604.905,1384.09 606.063,1383.73 607.22,1384 608.377,1383.12 609.535,1383.76 610.692,1383.71 611.849,1383.45 613.007,1382.33 614.164,1384.12 615.321,1383.28 
  616.479,1383.19 617.636,1384.23 618.793,1383.52 619.951,1383.48 621.108,1383.66 622.265,1382.72 623.423,1381.81 624.58,1384.21 625.737,1383.82 626.895,1384.14 
  628.052,1384.02 629.209,1383.52 630.367,1383.12 631.524,1383.22 632.681,1383.88 633.839,1382.24 634.996,1383.39 636.154,1384.12 637.311,1383.29 638.468,1383.69 
  639.626,1383.37 640.783,1382.77 641.94,1382.73 643.098,1383.84 644.255,1384.16 645.412,1382.35 646.57,1383.75 647.727,1384.19 648.884,1384.22 650.042,1383.61 
  651.199,1382.7 652.356,1382.99 653.514,1384.15 654.671,1381.85 655.828,1383.93 656.986,1383.5 658.143,1383.16 659.3,1383.57 660.458,1383.77 661.615,1383.87 
  662.772,1383.39 663.93,1382.59 665.087,1382.88 666.244,1383.94 667.402,1381.76 668.559,1384.23 669.716,1383.45 670.874,1382.17 672.031,1381.93 673.188,1383.34 
  674.346,1382.71 675.503,1382.11 676.66,1383.68 677.818,1384.14 678.975,1383.85 680.132,1383.54 681.29,1384.21 682.447,1383.39 683.604,1383.78 684.762,1383.05 
  685.919,1380.73 687.076,1384.18 688.234,1383.04 689.391,1383.45 690.549,1382.6 691.706,1380.96 692.863,1383.31 694.021,1383.58 695.178,1383.14 696.335,1382.85 
  697.493,1383.64 698.65,1384.14 699.807,1384.21 700.965,1380.57 702.122,1383.66 703.279,1384.18 704.437,1383.5 705.594,1383.72 706.751,1382.55 707.909,1383.38 
  709.066,1384.18 710.223,1383.6 711.381,1382.03 712.538,1382.85 713.695,1383.99 714.853,1384.01 716.01,1383.59 717.167,1383.61 718.325,1384.06 719.482,1381.45 
  720.639,1383.32 721.797,1383.76 722.954,1383.64 724.111,1382.29 725.269,1383.95 726.426,1383.37 727.583,1382.59 728.741,1383.21 729.898,1383.77 731.055,1382.44 
  732.213,1383.95 733.37,1383.83 734.527,1384.16 735.685,1383.6 736.842,1383.97 737.999,1383.97 739.157,1383 740.314,1383.14 741.472,1383.48 742.629,1384.11 
  743.786,1382.96 744.944,1384 746.101,1383.32 747.258,1383.7 748.416,1382.21 749.573,1384.23 750.73,1384.06 751.888,1381.95 753.045,1383.75 754.202,1382.95 
  755.36,1383.66 756.517,1383.98 757.674,1379.23 758.832,1383.79 759.989,1383.9 761.146,1381.44 762.304,1384 763.461,1384.07 764.618,1383.68 765.776,1384.06 
  766.933,1383.82 768.09,1383.48 769.248,1384 770.405,1384.06 771.562,1384.14 772.72,1383.72 773.877,1383.75 775.034,1384.23 776.192,1382.98 777.349,1384.19 
  778.506,1383.63 779.664,1383.91 780.821,1384.23 781.978,1384.12 783.136,1384.03 784.293,1383.36 785.45,1384.09 786.608,1384.2 787.765,1383.08 788.922,1384.13 
  790.08,1383.33 791.237,1384.19 792.394,1384.07 793.552,1384.06 794.709,1384.18 795.867,1383.93 797.024,1383.26 798.181,1382.7 799.339,1384.21 800.496,1383.52 
  801.653,1383.72 802.811,1384.22 803.968,1383.86 805.125,1383.61 806.283,1384.16 807.44,1382.86 808.597,1383.78 809.755,1383.38 810.912,1382.72 812.069,1384.06 
  813.227,1384.12 814.384,1381.19 815.541,1384.01 816.699,1383.82 817.856,1384.19 819.013,1384.13 820.171,1383.51 821.328,1383.87 822.485,1383.71 823.643,1383.84 
  824.8,1384.16 825.957,1383.94 827.115,1383.5 828.272,1384 829.429,1383.42 830.587,1383.11 831.744,1383.53 832.901,1383.9 834.059,1382.45 835.216,1384.24 
  836.373,1383.81 837.531,1384.23 838.688,1383.14 839.845,1383.62 841.003,1380.69 842.16,1384.2 843.317,1382.71 844.475,1384.01 845.632,1384.18 846.79,1384.07 
  847.947,1384.16 849.104,1383.61 850.262,1383.36 851.419,1384.01 852.576,1383.37 853.734,1382.96 854.891,1383.22 856.048,1382.95 857.206,1383.93 858.363,1384.12 
  859.52,1383.62 860.678,1384.09 861.835,1384.14 862.992,1384.17 864.15,1381.7 865.307,1383.04 866.464,1383.63 867.622,1383.61 868.779,1383.78 869.936,1384.16 
  871.094,1383.69 872.251,1384.14 873.408,1382.74 874.566,1384.04 875.723,1384.18 876.88,1383.5 878.038,1384.14 879.195,1382.23 880.352,1384.04 881.51,1383.54 
  882.667,1383.67 883.824,1382.19 884.982,1383.01 886.139,1383.38 887.296,1383.16 888.454,1384.18 889.611,1383.19 890.768,1384.03 891.926,1383.49 893.083,1382.38 
  894.24,1383.66 895.398,1384.11 896.555,1383.83 897.712,1383.59 898.87,1383.98 900.027,1384.03 901.185,1384.13 902.342,1383.52 903.499,1384.02 904.657,1383.52 
  905.814,1384.21 906.971,1382.99 908.129,1383.9 909.286,1383.89 910.443,1384.02 911.601,1384.17 912.758,1383.78 913.915,1384.22 915.073,1383.95 916.23,1383.86 
  917.387,1384.12 918.545,1383.11 919.702,1384.15 920.859,1384.1 922.017,1384.15 923.174,1384.19 924.331,1384.12 925.489,1383.81 926.646,1383.87 927.803,1383.81 
  928.961,1383.76 930.118,1383.19 931.275,1384.07 932.433,1384.15 933.59,1383.99 934.747,1384.08 935.905,1383.57 937.062,1383.93 938.219,1384.14 939.377,1384.16 
  940.534,1383.85 941.691,1384.19 942.849,1383.93 944.006,1384.12 945.163,1383.31 946.321,1383 947.478,1384.1 948.635,1383.9 949.793,1384.11 950.95,1384.03 
  952.108,1384.19 953.265,1384.21 954.422,1383.92 955.58,1383.61 956.737,1384.21 957.894,1383.95 959.052,1383.66 960.209,1382.27 961.366,1384.15 962.524,1384.04 
  963.681,1384.05 964.838,1383.77 965.996,1383.83 967.153,1384.13 968.31,1383.81 969.468,1383.61 970.625,1384.02 971.782,1383.97 972.94,1383.97 974.097,1383.37 
  975.254,1383.18 976.412,1384.02 977.569,1382.5 978.726,1383.47 979.884,1383.93 981.041,1384.19 982.198,1383.79 983.356,1383.02 984.513,1383.72 985.67,1384.03 
  986.828,1383.67 987.985,1383.98 989.142,1384.07 990.3,1383.44 991.457,1383.66 992.614,1384.14 993.772,1383.9 994.929,1384.03 996.086,1383.88 997.244,1384.06 
  998.401,1383.2 999.558,1384.1 1000.72,1383.41 1001.87,1383.94 1003.03,1383.98 1004.19,1383.46 1005.35,1383.72 1006.5,1383.24 1007.66,1384.19 1008.82,1383.96 
  1009.97,1383.86 1011.13,1383.83 1012.29,1383.73 1013.45,1383.97 1014.6,1384.09 1015.76,1383.67 1016.92,1383.69 1018.08,1384.18 1019.23,1383.5 1020.39,1383.65 
  1021.55,1384.09 1022.71,1383.85 1023.86,1383.9 1025.02,1383.99 1026.18,1383.82 1027.33,1383.81 1028.49,1383.91 1029.65,1383.79 1030.81,1383.05 1031.96,1384.07 
  1033.12,1383.73 1034.28,1384.03 1035.44,1384.21 1036.59,1384.15 1037.75,1383.54 1038.91,1383.61 1040.07,1383.85 1041.22,1384.08 1042.38,1383.78 1043.54,1384.04 
  1044.69,1384.01 1045.85,1383.85 1047.01,1384.11 1048.17,1384.04 1049.32,1384.11 1050.48,1383.97 1051.64,1383.37 1052.8,1383.9 1053.95,1382.85 1055.11,1384.05 
  1056.27,1383.87 1057.43,1384.03 1058.58,1384.18 1059.74,1384.14 1060.9,1384.24 1062.05,1384.1 1063.21,1384.18 1064.37,1384.13 1065.53,1384.16 1066.68,1383.38 
  1067.84,1383.86 1069,1383.2 1070.16,1383.83 1071.31,1384.1 1072.47,1383.81 1073.63,1383.61 1074.79,1383.46 1075.94,1383.8 1077.1,1383.88 1078.26,1384.08 
  1079.41,1384.22 1080.57,1382.53 1081.73,1383.54 1082.89,1384.08 1084.04,1384.03 1085.2,1384.23 1086.36,1383.9 1087.52,1383.91 1088.67,1384.04 1089.83,1384.22 
  1090.99,1384.15 1092.15,1383.68 1093.3,1384.11 1094.46,1384.12 1095.62,1383.78 1096.78,1384.1 1097.93,1383.21 1099.09,1383.89 1100.25,1384.2 1101.4,1383.8 
  1102.56,1384.1 1103.72,1383.51 1104.88,1383.72 1106.03,1383.46 1107.19,1383.35 1108.35,1383.58 1109.51,1383.64 1110.66,1383.85 1111.82,1383.15 1112.98,1384.22 
  1114.14,1383.1 1115.29,1383.51 1116.45,1383.88 1117.61,1384.11 1118.76,1382.99 1119.92,1384.23 1121.08,1383.95 1122.24,1384.14 1123.39,1383.86 1124.55,1384.14 
  1125.71,1384.16 1126.87,1383.39 1128.02,1383.28 1129.18,1382.98 1130.34,1383.72 1131.5,1384.2 1132.65,1384.13 1133.81,1383.97 1134.97,1382.76 1136.12,1382.87 
  1137.28,1383.52 1138.44,1383.39 1139.6,1383.43 1140.75,1383.75 1141.91,1383.42 1143.07,1381.97 1144.23,1384.19 1145.38,1384.23 1146.54,1383.92 1147.7,1383.82 
  1148.86,1383.91 1150.01,1383.8 1151.17,1383.87 1152.33,1383.99 1153.48,1384.02 1154.64,1383.82 1155.8,1383.93 1156.96,1383.5 1158.11,1383.3 1159.27,1384.15 
  1160.43,1384.04 1161.59,1383.63 1162.74,1383 1163.9,1382.85 1165.06,1383.82 1166.22,1383.49 1167.37,1383.51 1168.53,1384.15 1169.69,1384.19 1170.84,1383.59 
  1172,1383.95 1173.16,1383.84 1174.32,1384.19 1175.47,1383.54 1176.63,1384.2 1177.79,1383.64 1178.95,1383.18 1180.1,1384 1181.26,1383.46 1182.42,1384.08 
  1183.58,1383.78 1184.73,1383.78 1185.89,1384.11 1187.05,1384.15 1188.21,1383.78 1189.36,1383.61 1190.52,1384.07 1191.68,1383.76 1192.83,1384 1193.99,1383.59 
  1195.15,1383.89 1196.31,1384.06 1197.46,1383.22 1198.62,1383.73 1199.78,1384.22 1200.94,1383.45 1202.09,1383.86 1203.25,1383.84 1204.41,1383.25 1205.57,1383.25 
  1206.72,1383.4 1207.88,1383.31 1209.04,1384.16 1210.19,1383.87 1211.35,1384.21 1212.51,1383.02 1213.67,1383.88 1214.82,1384.12 1215.98,1384.23 1217.14,1383.85 
  1218.3,1383.35 1219.45,1383.93 1220.61,1383.56 1221.77,1384.11 1222.93,1384.05 1224.08,1383.9 1225.24,1383.98 1226.4,1384.16 1227.55,1384.21 1228.71,1383.63 
  1229.87,1384.03 1231.03,1383.06 1232.18,1384.16 1233.34,1383.98 1234.5,1384.15 1235.66,1383.72 1236.81,1383.7 1237.97,1382.77 1239.13,1384.04 1240.29,1383.96 
  1241.44,1383.6 1242.6,1384.07 1243.76,1383.74 1244.91,1383.79 1246.07,1383.24 1247.23,1384.19 1248.39,1384.04 1249.54,1384.07 1250.7,1383.7 1251.86,1383.91 
  1253.02,1383.62 1254.17,1384.05 1255.33,1384 1256.49,1383.91 1257.65,1383.47 1258.8,1382.79 1259.96,1384.14 1261.12,1384.19 1262.27,1383.83 1263.43,1384.2 
  1264.59,1383.98 1265.75,1384.24 1266.9,1383.97 1268.06,1384.14 1269.22,1383.99 1270.38,1383.44 1271.53,1383.69 1272.69,1384.07 1273.85,1384.14 1275.01,1383.92 
  1276.16,1383.92 1277.32,1384.21 1278.48,1383.35 1279.63,1384.15 1280.79,1383.74 1281.95,1383.79 1283.11,1382.39 1284.26,1384.15 1285.42,1383.83 1286.58,1383.99 
  1287.74,1384.09 1288.89,1383.98 1290.05,1384.11 1291.21,1383.93 1292.37,1383.65 1293.52,1384.03 1294.68,1384.02 1295.84,1384.12 1297,1384.13 1298.15,1383.8 
  1299.31,1384.11 1300.47,1383.78 1301.62,1383.98 1302.78,1384.23 1303.94,1383.8 1305.1,1383.92 1306.25,1383.62 1307.41,1384 1308.57,1384.23 1309.73,1382.7 
  1310.88,1384.22 1312.04,1384.15 1313.2,1384.21 1314.36,1383.47 1315.51,1383.97 1316.67,1383.94 1317.83,1383.9 1318.98,1384.07 1320.14,1384.2 1321.3,1384.08 
  1322.46,1384.17 1323.61,1383.81 1324.77,1384.23 1325.93,1383.92 1327.09,1383.94 1328.24,1384.01 1329.4,1384.07 1330.56,1384.21 1331.72,1383.8 1332.87,1384.14 
  1334.03,1384.2 1335.19,1383.65 1336.34,1384.15 1337.5,1383.68 1338.66,1383.08 1339.82,1384.11 1340.97,1381.56 1342.13,1384.19 1343.29,1383.9 1344.45,1383.98 
  1345.6,1384.2 1346.76,1384.18 1347.92,1383.87 1349.08,1384.21 1350.23,1383.93 1351.39,1383.79 1352.55,1384.15 1353.7,1383.78 1354.86,1384.07 1356.02,1384.2 
  1357.18,1383.95 1358.33,1384.21 1359.49,1384.2 1360.65,1383.61 1361.81,1384.21 1362.96,1384.17 1364.12,1384.05 1365.28,1384.22 1366.44,1383.97 1367.59,1383.53 
  1368.75,1384.05 1369.91,1384.24 1371.06,1384.05 1372.22,1384.22 1373.38,1384.13 1374.54,1383.76 1375.69,1384.02 1376.85,1384.21 1378.01,1383.52 1379.17,1383.93 
  1380.32,1384.01 1381.48,1384.22 1382.64,1384.13 1383.8,1384.06 1384.95,1384.05 1386.11,1383.43 1387.27,1383.41 1388.42,1384.15 1389.58,1383.56 1390.74,1384.2 
  1391.9,1384.16 1393.05,1384 1394.21,1384.1 1395.37,1384.23 1396.53,1384.02 1397.68,1383.97 1398.84,1384.19 1400,1384.02 1401.16,1383.81 1402.31,1384.11 
  1403.47,1383.33 1404.63,1384.2 1405.79,1383.8 1406.94,1382.67 1408.1,1384.21 1409.26,1383.83 1410.41,1384.12 1411.57,1383.84 1412.73,1384.2 1413.89,1383.45 
  1415.04,1383.4 1416.2,1384.1 1417.36,1384.1 1418.52,1383.88 1419.67,1384.07 1420.83,1383.14 1421.99,1384.06 1423.15,1384.19 1424.3,1384.03 1425.46,1384.18 
  1426.62,1383.95 1427.77,1383.76 1428.93,1383.49 1430.09,1383.96 1431.25,1383.93 1432.4,1383.37 1433.56,1384.08 1434.72,1383.92 1435.88,1383.71 1437.03,1384 
  1438.19,1384.16 1439.35,1383.93 1440.51,1384.24 1441.66,1384.12 1442.82,1384.04 1443.98,1383.94 1445.13,1384.21 1446.29,1383.23 1447.45,1383.94 1448.61,1384 
  1449.76,1384.03 1450.92,1383.16 1452.08,1383.85 1453.24,1383.69 1454.39,1384.16 1455.55,1384.21 1456.71,1384.01 1457.87,1384.13 1459.02,1384.2 1460.18,1383.71 
  1461.34,1384.11 1462.49,1384.14 1463.65,1384.13 1464.81,1384.23 1465.97,1384.16 1467.12,1384.11 1468.28,1383.66 1469.44,1383.67 1470.6,1384.21 1471.75,1383.99 
  1472.91,1384.15 1474.07,1384.04 1475.23,1383.86 1476.38,1384.05 1477.54,1384.14 1478.7,1383.88 1479.85,1384.24 1481.01,1383.99 1482.17,1384.12 1483.33,1384.01 
  1484.48,1384.01 1485.64,1383.75 1486.8,1383.96 1487.96,1384.22 1489.11,1384.22 1490.27,1384.19 1491.43,1384.23 1492.59,1384.12 1493.74,1383.92 1494.9,1384.09 
  1496.06,1384.1 1497.21,1384.14 1498.37,1384.11 1499.53,1383.57 1500.69,1383.91 1501.84,1384.07 1503,1384.15 1504.16,1384.1 1505.32,1384.14 1506.47,1384.09 
  1507.63,1384.11 1508.79,1384.19 1509.95,1383.97 1511.1,1384.08 1512.26,1384.12 1513.42,1383.69 1514.58,1384.07 1515.73,1383.81 1516.89,1383.86 1518.05,1383.66 
  1519.2,1384.06 1520.36,1384.21 1521.52,1384.21 1522.68,1383.96 1523.83,1384.05 1524.99,1383.92 1526.15,1383.82 1527.31,1384.02 1528.46,1384 1529.62,1383.81 
  1530.78,1384.09 1531.94,1384.04 1533.09,1383.93 1534.25,1384.2 1535.41,1383.54 1536.56,1384.08 1537.72,1384.22 1538.88,1384.16 1540.04,1383.96 1541.19,1383.67 
  1542.35,1384.13 1543.51,1383.52 1544.67,1384.16 1545.82,1383.28 1546.98,1383.9 1548.14,1384.19 1549.3,1384.12 1550.45,1383.53 1551.61,1384.2 1552.77,1384.12 
  1553.92,1383.77 1555.08,1384.12 1556.24,1383.57 1557.4,1383.86 1558.55,1384.13 1559.71,1384.2 1560.87,1384.12 1562.03,1383.84 1563.18,1384.23 1564.34,1383.61 
  1565.5,1384.01 1566.66,1383.69 1567.81,1384.19 1568.97,1384 1570.13,1384.12 1571.28,1383.16 1572.44,1384.22 1573.6,1384.09 1574.76,1384.11 1575.91,1384.24 
  1577.07,1384.01 1578.23,1384.04 1579.39,1384.2 1580.54,1384.2 1581.7,1384.12 1582.86,1383.57 1584.02,1384.02 1585.17,1384.02 1586.33,1381.51 1587.49,1382.88 
  1588.64,1384 1589.8,1383.97 1590.96,1383.9 1592.12,1384.07 1593.27,1384.22 1594.43,1384.18 1595.59,1383.76 1596.75,1384.19 1597.9,1383.56 1599.06,1383.94 
  1600.22,1383.38 1601.38,1384.22 1602.53,1383.65 1603.69,1384.04 1604.85,1384.03 1606,1383.81 1607.16,1383.84 1608.32,1384.18 1609.48,1384.17 1610.63,1384.12 
  1611.79,1384.09 1612.95,1384.24 1614.11,1383.95 1615.26,1383.89 1616.42,1384.17 1617.58,1384.08 1618.74,1384.12 1619.89,1383.93 1621.05,1383.55 1622.21,1384.15 
  1623.37,1383.96 1624.52,1384.17 1625.68,1384.11 1626.84,1383.77 1627.99,1383.83 1629.15,1384.22 1630.31,1384.22 1631.47,1384.1 1632.62,1383.89 1633.78,1383.74 
  1634.94,1383.7 1636.1,1384.22 1637.25,1383.62 1638.41,1384.14 1639.57,1384.22 1640.73,1384.01 1641.88,1384.08 1643.04,1383.61 1644.2,1384.13 1645.35,1384.18 
  1646.51,1384.08 1647.67,1383.86 1648.83,1384.04 1649.98,1383.99 1651.14,1383.87 1652.3,1384.18 1653.46,1384.21 1654.61,1384.01 1655.77,1384.21 1656.93,1384.07 
  1658.09,1384.2 1659.24,1384.03 1660.4,1384.16 1661.56,1384.13 1662.71,1383.8 1663.87,1384.2 1665.03,1383.9 1666.19,1383.93 1667.34,1383.85 1668.5,1383.81 
  1669.66,1383.8 1670.82,1384.19 1671.97,1383.98 1673.13,1383.79 1674.29,1384.23 1675.45,1384.13 1676.6,1383.81 1677.76,1384.09 1678.92,1383.85 1680.07,1383.94 
  1681.23,1384.13 1682.39,1384.02 1683.55,1384.04 1684.7,1384.22 1685.86,1383.87 1687.02,1384.19 1688.18,1384.05 1689.33,1383.82 1690.49,1383.65 1691.65,1384.18 
  1692.81,1384.23 1693.96,1383.35 1695.12,1383.74 1696.28,1383.99 1697.43,1382.86 1698.59,1383.69 1699.75,1384.01 1700.91,1384.01 1702.06,1384.21 1703.22,1383.54 
  1704.38,1384.01 1705.54,1383.54 1706.69,1384.13 1707.85,1383.38 1709.01,1384.04 1710.17,1383.89 1711.32,1384.15 1712.48,1384.1 1713.64,1384.2 1714.8,1384.05 
  1715.95,1384.03 1717.11,1384.21 1718.27,1383.75 1719.42,1383.85 1720.58,1384.12 1721.74,1383.8 1722.9,1384.14 1724.05,1384.21 1725.21,1384.07 1726.37,1384 
  1727.53,1384.1 1728.68,1384.19 1729.84,1382.34 1731,1384.17 1732.16,1384.19 1733.31,1384.05 1734.47,1383.65 1735.63,1383.96 1736.78,1384.03 1737.94,1384.05 
  1739.1,1384.04 1740.26,1383.81 1741.41,1384.11 1742.57,1383.98 1743.73,1384.2 1744.89,1383.69 1746.04,1383.47 1747.2,1383.27 1748.36,1384.24 1749.52,1384.1 
  1750.67,1383.93 1751.83,1384.22 1752.99,1383.73 1754.14,1383.96 1755.3,1383.94 1756.46,1384.21 1757.62,1383.93 1758.77,1383.52 1759.93,1383.75 1761.09,1383.97 
  1762.25,1384.04 1763.4,1383.87 1764.56,1384.21 1765.72,1383.67 1766.88,1384.1 1768.03,1383.89 1769.19,1383.99 1770.35,1384.23 1771.5,1383.95 1772.66,1384.23 
  1773.82,1384 1774.98,1384.01 1776.13,1384.17 1777.29,1383.98 1778.45,1384.01 1779.61,1383.7 1780.76,1384.23 1781.92,1384.12 1783.08,1384.11 1784.24,1383.79 
  1785.39,1384.18 1786.55,1384.23 1787.71,1384.12 1788.86,1384.23 1790.02,1384.03 1791.18,1383.84 1792.34,1383.77 1793.49,1384.06 1794.65,1384.12 1795.81,1384.2 
  1796.97,1384.22 1798.12,1383.89 1799.28,1383.94 1800.44,1383.86 1801.6,1384.23 1802.75,1384.07 1803.91,1383.9 1805.07,1384.08 1806.22,1383.84 1807.38,1384.15 
  1808.54,1384.08 1809.7,1384.02 1810.85,1384.22 1812.01,1384.22 1813.17,1383.96 1814.33,1384.11 1815.48,1384.17 1816.64,1384.19 1817.8,1384.06 1818.96,1383.94 
  1820.11,1384.12 1821.27,1384.17 1822.43,1384.2 1823.59,1383.98 1824.74,1384.18 1825.9,1383.86 1827.06,1384.21 1828.21,1384.22 1829.37,1384.2 1830.53,1384.22 
  1831.69,1384.23 1832.84,1384.23 1834,1383.97 1835.16,1383.94 1836.32,1384.02 1837.47,1384.23 1838.63,1384.17 1839.79,1384.11 1840.95,1384.23 1842.1,1384.11 
  1843.26,1383.7 1844.42,1384.13 1845.57,1384.19 1846.73,1384.18 1847.89,1383.99 1849.05,1384.14 1850.2,1384.14 1851.36,1384.22 1852.52,1384.08 1853.68,1384.22 
  1854.83,1384.22 1855.99,1384.15 1857.15,1384.13 1858.31,1384.07 1859.46,1384.1 1860.62,1383.81 1861.78,1383.99 1862.93,1384.19 1864.09,1384.03 1865.25,1384.21 
  1866.41,1384.12 1867.56,1384.12 1868.72,1384.02 1869.88,1384.02 1871.04,1384.23 1872.19,1384.14 1873.35,1384.16 1874.51,1384.21 1875.67,1383.8 1876.82,1384.06 
  1877.98,1383.95 1879.14,1384.15 1880.29,1383.86 1881.45,1384.16 1882.61,1384.2 1883.77,1384.09 1884.92,1384.2 1886.08,1383.24 1887.24,1384.17 1888.4,1384.11 
  1889.55,1384.19 1890.71,1383.83 1891.87,1384.01 1893.03,1384.17 1894.18,1384.15 1895.34,1384.23 1896.5,1384.08 1897.65,1384.23 1898.81,1384.14 1899.97,1383.78 
  1901.13,1384.02 1902.28,1384.04 1903.44,1383.89 1904.6,1383.98 1905.76,1384.08 1906.91,1384.11 1908.07,1384.13 1909.23,1383.7 1910.39,1384.12 1911.54,1384.19 
  1912.7,1383.49 1913.86,1384.08 1915.01,1384.01 1916.17,1384.18 1917.33,1383.79 1918.49,1383.94 1919.64,1383.89 1920.8,1384.01 1921.96,1383.92 1923.12,1383.72 
  1924.27,1384.18 1925.43,1384.05 1926.59,1383.51 1927.75,1384.19 1928.9,1384.05 1930.06,1384.03 1931.22,1384.13 1932.38,1383.68 1933.53,1384.2 1934.69,1384.2 
  1935.85,1383.54 1937,1383.73 1938.16,1384.13 1939.32,1384.22 1940.48,1383.85 1941.63,1384.16 1942.79,1384.23 1943.95,1383.94 1945.11,1384.07 1946.26,1383.94 
  1947.42,1384.11 1948.58,1384.06 1949.74,1384.04 1950.89,1384.23 1952.05,1384.23 1953.21,1384.03 1954.36,1383.98 1955.52,1384.22 1956.68,1383.87 1957.84,1384.1 
  1958.99,1384.03 1960.15,1383.99 1961.31,1384.16 1962.47,1383.72 1963.62,1384.17 1964.78,1384.14 1965.94,1384.22 1967.1,1384.03 1968.25,1384.22 1969.41,1384.17 
  1970.57,1384.19 1971.72,1384.03 1972.88,1384.18 1974.04,1384.2 1975.2,1384.03 1976.35,1384.11 1977.51,1383.7 1978.67,1384.1 1979.83,1383.79 1980.98,1384.21 
  1982.14,1384.14 1983.3,1384.19 1984.46,1384.18 1985.61,1384.18 1986.77,1383.96 1987.93,1384.23 1989.08,1383.8 1990.24,1384.22 1991.4,1384.19 1992.56,1384.07 
  1993.71,1383.87 1994.87,1384.24 1996.03,1384.14 1997.19,1384.17 1998.34,1383.83 1999.5,1384.2 2000.66,1384.13 2001.82,1384.22 2002.97,1384.18 2004.13,1384.24 
  2005.29,1383.68 2006.44,1384.04 2007.6,1383.9 2008.76,1383.99 2009.92,1384.07 2011.07,1384.08 2012.23,1384.16 2013.39,1384.19 2014.55,1383.82 2015.7,1383.64 
  2016.86,1384.1 2018.02,1383.6 2019.18,1384.09 2020.33,1383.78 2021.49,1383.94 2022.65,1384.06 2023.8,1384.01 2024.96,1384.21 2026.12,1384.18 2027.28,1384.09 
  2028.43,1383.92 2029.59,1384.18 2030.75,1384.22 2031.91,1383.6 2033.06,1384.23 2034.22,1384.23 2035.38,1384.11 2036.54,1384.14 2037.69,1383.34 2038.85,1384.05 
  2040.01,1383.81 2041.17,1383.85 2042.32,1383.66 2043.48,1384.02 2044.64,1384.16 2045.79,1384.07 2046.95,1384.21 2048.11,1384.03 2049.27,1384.02 2050.42,1384.03 
  2051.58,1383.7 2052.74,1384.11 2053.9,1384.21 2055.05,1384.04 2056.21,1384.03 2057.37,1384.1 2058.53,1384.09 2059.68,1383.93 2060.84,1384.09 2062,1383.22 
  2063.15,1384.19 2064.31,1384.2 2065.47,1384.06 2066.63,1384.12 2067.78,1384.24 2068.94,1383.35 2070.1,1384.16 2071.26,1384.19 2072.41,1384.23 2073.57,1384.01 
  2074.73,1384.13 2075.89,1383.97 2077.04,1384.15 2078.2,1383.71 2079.36,1384.13 2080.51,1384.13 2081.67,1383.9 2082.83,1384.08 2083.99,1384.15 2085.14,1383.84 
  2086.3,1384.18 2087.46,1384.16 2088.62,1384.18 2089.77,1384.02 2090.93,1384.14 2092.09,1383.86 2093.25,1384.04 2094.4,1383.71 2095.56,1384.18 2096.72,1384.18 
  2097.87,1384.21 2099.03,1383.86 2100.19,1384.22 2101.35,1384.12 2102.5,1383.97 2103.66,1384.02 2104.82,1384.02 2105.98,1384.03 2107.13,1383.78 2108.29,1384.2 
  2109.45,1383.98 2110.61,1383.98 2111.76,1384.18 2112.92,1384.02 2114.08,1384 2115.23,1383.92 2116.39,1384.14 2117.55,1384.14 2118.71,1384.2 2119.86,1383.96 
  2121.02,1384.11 2122.18,1384.13 2123.34,1383.8 2124.49,1384 2125.65,1384.15 2126.81,1384.22 2127.97,1384.22 2129.12,1384.21 2130.28,1384.21 2131.44,1384.2 
  2132.59,1384.14 2133.75,1384.22 2134.91,1384.07 2136.07,1384.08 2137.22,1384.1 2138.38,1384.17 2139.54,1383.8 2140.7,1384.09 2141.85,1384.23 2143.01,1383.81 
  2144.17,1384.05 2145.33,1384.16 2146.48,1383.87 2147.64,1383.73 2148.8,1384.01 2149.96,1384.12 2151.11,1384.19 2152.27,1383.98 2153.43,1384.16 2154.58,1383.81 
  2155.74,1384.18 2156.9,1384.14 2158.06,1384.04 2159.21,1384.01 2160.37,1383.91 2161.53,1383.69 2162.69,1384.19 2163.84,1383.86 2165,1384.14 2166.16,1383.76 
  2167.32,1384.14 2168.47,1383.67 2169.63,1384.12 2170.79,1384.01 2171.94,1384.07 2173.1,1384.13 2174.26,1383.99 2175.42,1383.84 2176.57,1383.78 2177.73,1384.06 
  2178.89,1384.12 2180.05,1383.39 2181.2,1384.22 2182.36,1384.1 2183.52,1383.75 2184.68,1383.62 2185.83,1384.03 2186.99,1384.18 2188.15,1384.12 2189.3,1383.4 
  2190.46,1383.83 2191.62,1384.14 2192.78,1384.12 2193.93,1384.18 2195.09,1383.97 2196.25,1384.13 2197.41,1384.17 2198.56,1384.07 2199.72,1384.11 2200.88,1384.11 
  2202.04,1384.17 2203.19,1384.18 2204.35,1384.05 2205.51,1384.2 2206.66,1384.22 2207.82,1383.66 2208.98,1383.93 2210.14,1382.74 2211.29,1383.71 2212.45,1383.82 
  2213.61,1384.07 2214.77,1383.94 2215.92,1384.2 2217.08,1384.2 2218.24,1383.35 2219.4,1384.05 2220.55,1384.09 2221.71,1384.15 2222.87,1383.78 2224.02,1384 
  2225.18,1384.16 2226.34,1384.19 2227.5,1384.03 2228.65,1384.07 2229.81,1384.18 2230.97,1383.75 2232.13,1384.1 2233.28,1384.22 2234.44,1384.17 2235.6,1384.13 
  2236.76,1383.75 2237.91,1384.15 2239.07,1384.02 2240.23,1383.81 2241.39,1384.23 2242.54,1384.15 2243.7,1384.13 2244.86,1384.18 2246.01,1384.09 2247.17,1384.21 
  2248.33,1384.1 2249.49,1383.57 2250.64,1384.23 2251.8,1384.14 2252.96,1384.24 2254.12,1383.76 2255.27,1384.09 2256.43,1384.2 2257.59,1384.13 2258.75,1384.02 
  2259.9,1383.95 2261.06,1383.97 2262.22,1384.05 2263.37,1384.17 2264.53,1383.94 2265.69,1384.14 2266.85,1384.12 2268,1383.99 2269.16,1383.94 2270.32,1384.19 
  2271.48,1384.16 2272.63,1384.15 2273.79,1383.66 2274.95,1384.2 2276.11,1384.16 2277.26,1384.05 2278.42,1384.22 2279.58,1384.2 2280.73,1383.78 2281.89,1384.17 
  2283.05,1384.14 2284.21,1384.01 2285.36,1384.19 2286.52,1384.13 2287.68,1384.21 2288.84,1384.2 2289.99,1383.63 2291.15,1383.59 2292.31,1384.23 2293.47,1384.1 
  2294.62,1383.47 2295.78,1383.98 
  "/>
<path clip-path="url(#clip470)" d="
M2031.91 196.789 L2285.65 196.789 L2285.65 93.1086 L2031.91 93.1086  Z
  " fill="#ffffff" fill-rule="evenodd" fill-opacity="0.9"/>
<polyline clip-path="url(#clip470)" style="stroke:#222255; stroke-linecap:round; stroke-linejoin:round; stroke-width:4; stroke-opacity:0.1; fill:none" points="
  2031.91,196.789 2285.65,196.789 2285.65,93.1086 2031.91,93.1086 2031.91,196.789 
  "/>
<polyline clip-path="url(#clip470)" style="stroke:#ee7733; stroke-linecap:round; stroke-linejoin:round; stroke-width:4; stroke-opacity:1; fill:none" points="
  2054.27,144.949 2188.48,144.949 
  "/>
<path clip-path="url(#clip470)" d="M2224.69 164.636 Q2222.89 169.266 2221.18 170.678 Q2219.46 172.09 2216.59 172.09 L2213.19 172.09 L2213.19 168.525 L2215.69 168.525 Q2217.45 168.525 2218.42 167.692 Q2219.39 166.858 2220.57 163.756 L2221.34 161.812 L2210.85 136.303 L2215.37 136.303 L2223.47 156.581 L2231.57 136.303 L2236.08 136.303 L2224.69 164.636 Z" fill="#000000" fill-rule="evenodd" fill-opacity="1" /><path clip-path="url(#clip470)" d="M2243.38 158.293 L2251.01 158.293 L2251.01 131.928 L2242.7 133.595 L2242.7 129.335 L2250.97 127.669 L2255.64 127.669 L2255.64 158.293 L2263.28 158.293 L2263.28 162.229 L2243.38 162.229 L2243.38 158.293 Z" fill="#000000" fill-rule="evenodd" fill-opacity="1" /></svg>
