<?xml version="1.0" encoding="utf-8"?>
<svg xmlns="http://www.w3.org/2000/svg" xmlns:xlink="http://www.w3.org/1999/xlink" width="600" height="400" viewBox="0 0 2400 1600">
<defs>
  <clipPath id="clip210">
    <rect x="0" y="0" width="2400" height="1600"/>
  </clipPath>
</defs>
<path clip-path="url(#clip210)" d="
M0 1600 L2400 1600 L2400 0 L0 0  Z
  " fill="#ffffff" fill-rule="evenodd" fill-opacity="1"/>
<defs>
  <clipPath id="clip211">
    <rect x="480" y="0" width="1681" height="1600"/>
  </clipPath>
</defs>
<path clip-path="url(#clip210)" d="
M254.746 1486.45 L2352.76 1486.45 L2352.76 47.2441 L254.746 47.2441  Z
  " fill="#ffffff" fill-rule="evenodd" fill-opacity="1"/>
<defs>
  <clipPath id="clip212">
    <rect x="254" y="47" width="2099" height="1440"/>
  </clipPath>
</defs>
<polyline clip-path="url(#clip212)" style="stroke:#222255; stroke-linecap:round; stroke-linejoin:round; stroke-width:2; stroke-opacity:0.1; fill:none" points="
  377.712,1486.45 377.712,47.2441 
  "/>
<polyline clip-path="url(#clip212)" style="stroke:#222255; stroke-linecap:round; stroke-linejoin:round; stroke-width:2; stroke-opacity:0.1; fill:none" points="
  871.473,1486.45 871.473,47.2441 
  "/>
<polyline clip-path="url(#clip212)" style="stroke:#222255; stroke-linecap:round; stroke-linejoin:round; stroke-width:2; stroke-opacity:0.1; fill:none" points="
  1365.23,1486.45 1365.23,47.2441 
  "/>
<polyline clip-path="url(#clip212)" style="stroke:#222255; stroke-linecap:round; stroke-linejoin:round; stroke-width:2; stroke-opacity:0.1; fill:none" points="
  1858.99,1486.45 1858.99,47.2441 
  "/>
<polyline clip-path="url(#clip212)" style="stroke:#222255; stroke-linecap:round; stroke-linejoin:round; stroke-width:2; stroke-opacity:0.1; fill:none" points="
  2352.76,1486.45 2352.76,47.2441 
  "/>
<polyline clip-path="url(#clip212)" style="stroke:#222255; stroke-linecap:round; stroke-linejoin:round; stroke-width:2; stroke-opacity:0.05; fill:none" points="
  278.959,1486.45 278.959,47.2441 
  "/>
<polyline clip-path="url(#clip212)" style="stroke:#222255; stroke-linecap:round; stroke-linejoin:round; stroke-width:2; stroke-opacity:0.05; fill:none" points="
  476.464,1486.45 476.464,47.2441 
  "/>
<polyline clip-path="url(#clip212)" style="stroke:#222255; stroke-linecap:round; stroke-linejoin:round; stroke-width:2; stroke-opacity:0.05; fill:none" points="
  575.216,1486.45 575.216,47.2441 
  "/>
<polyline clip-path="url(#clip212)" style="stroke:#222255; stroke-linecap:round; stroke-linejoin:round; stroke-width:2; stroke-opacity:0.05; fill:none" points="
  673.968,1486.45 673.968,47.2441 
  "/>
<polyline clip-path="url(#clip212)" style="stroke:#222255; stroke-linecap:round; stroke-linejoin:round; stroke-width:2; stroke-opacity:0.05; fill:none" points="
  772.72,1486.45 772.72,47.2441 
  "/>
<polyline clip-path="url(#clip212)" style="stroke:#222255; stroke-linecap:round; stroke-linejoin:round; stroke-width:2; stroke-opacity:0.05; fill:none" points="
  970.225,1486.45 970.225,47.2441 
  "/>
<polyline clip-path="url(#clip212)" style="stroke:#222255; stroke-linecap:round; stroke-linejoin:round; stroke-width:2; stroke-opacity:0.05; fill:none" points="
  1068.98,1486.45 1068.98,47.2441 
  "/>
<polyline clip-path="url(#clip212)" style="stroke:#222255; stroke-linecap:round; stroke-linejoin:round; stroke-width:2; stroke-opacity:0.05; fill:none" points="
  1167.73,1486.45 1167.73,47.2441 
  "/>
<polyline clip-path="url(#clip212)" style="stroke:#222255; stroke-linecap:round; stroke-linejoin:round; stroke-width:2; stroke-opacity:0.05; fill:none" points="
  1266.48,1486.45 1266.48,47.2441 
  "/>
<polyline clip-path="url(#clip212)" style="stroke:#222255; stroke-linecap:round; stroke-linejoin:round; stroke-width:2; stroke-opacity:0.05; fill:none" points="
  1463.99,1486.45 1463.99,47.2441 
  "/>
<polyline clip-path="url(#clip212)" style="stroke:#222255; stroke-linecap:round; stroke-linejoin:round; stroke-width:2; stroke-opacity:0.05; fill:none" points="
  1562.74,1486.45 1562.74,47.2441 
  "/>
<polyline clip-path="url(#clip212)" style="stroke:#222255; stroke-linecap:round; stroke-linejoin:round; stroke-width:2; stroke-opacity:0.05; fill:none" points="
  1661.49,1486.45 1661.49,47.2441 
  "/>
<polyline clip-path="url(#clip212)" style="stroke:#222255; stroke-linecap:round; stroke-linejoin:round; stroke-width:2; stroke-opacity:0.05; fill:none" points="
  1760.24,1486.45 1760.24,47.2441 
  "/>
<polyline clip-path="url(#clip212)" style="stroke:#222255; stroke-linecap:round; stroke-linejoin:round; stroke-width:2; stroke-opacity:0.05; fill:none" points="
  1957.75,1486.45 1957.75,47.2441 
  "/>
<polyline clip-path="url(#clip212)" style="stroke:#222255; stroke-linecap:round; stroke-linejoin:round; stroke-width:2; stroke-opacity:0.05; fill:none" points="
  2056.5,1486.45 2056.5,47.2441 
  "/>
<polyline clip-path="url(#clip212)" style="stroke:#222255; stroke-linecap:round; stroke-linejoin:round; stroke-width:2; stroke-opacity:0.05; fill:none" points="
  2155.25,1486.45 2155.25,47.2441 
  "/>
<polyline clip-path="url(#clip212)" style="stroke:#222255; stroke-linecap:round; stroke-linejoin:round; stroke-width:2; stroke-opacity:0.05; fill:none" points="
  2254,1486.45 2254,47.2441 
  "/>
<polyline clip-path="url(#clip210)" style="stroke:#222255; stroke-linecap:round; stroke-linejoin:round; stroke-width:4; stroke-opacity:0; fill:none" points="
  377.712,1486.45 377.712,1467.55 
  "/>
<polyline clip-path="url(#clip210)" style="stroke:#222255; stroke-linecap:round; stroke-linejoin:round; stroke-width:4; stroke-opacity:0; fill:none" points="
  871.473,1486.45 871.473,1467.55 
  "/>
<polyline clip-path="url(#clip210)" style="stroke:#222255; stroke-linecap:round; stroke-linejoin:round; stroke-width:4; stroke-opacity:0; fill:none" points="
  1365.23,1486.45 1365.23,1467.55 
  "/>
<polyline clip-path="url(#clip210)" style="stroke:#222255; stroke-linecap:round; stroke-linejoin:round; stroke-width:4; stroke-opacity:0; fill:none" points="
  1858.99,1486.45 1858.99,1467.55 
  "/>
<polyline clip-path="url(#clip210)" style="stroke:#222255; stroke-linecap:round; stroke-linejoin:round; stroke-width:4; stroke-opacity:0; fill:none" points="
  2352.76,1486.45 2352.76,1467.55 
  "/>
<polyline clip-path="url(#clip210)" style="stroke:#222255; stroke-linecap:round; stroke-linejoin:round; stroke-width:4; stroke-opacity:0; fill:none" points="
  278.959,1486.45 278.959,1477 
  "/>
<polyline clip-path="url(#clip210)" style="stroke:#222255; stroke-linecap:round; stroke-linejoin:round; stroke-width:4; stroke-opacity:0; fill:none" points="
  476.464,1486.45 476.464,1477 
  "/>
<polyline clip-path="url(#clip210)" style="stroke:#222255; stroke-linecap:round; stroke-linejoin:round; stroke-width:4; stroke-opacity:0; fill:none" points="
  575.216,1486.45 575.216,1477 
  "/>
<polyline clip-path="url(#clip210)" style="stroke:#222255; stroke-linecap:round; stroke-linejoin:round; stroke-width:4; stroke-opacity:0; fill:none" points="
  673.968,1486.45 673.968,1477 
  "/>
<polyline clip-path="url(#clip210)" style="stroke:#222255; stroke-linecap:round; stroke-linejoin:round; stroke-width:4; stroke-opacity:0; fill:none" points="
  772.72,1486.45 772.72,1477 
  "/>
<polyline clip-path="url(#clip210)" style="stroke:#222255; stroke-linecap:round; stroke-linejoin:round; stroke-width:4; stroke-opacity:0; fill:none" points="
  970.225,1486.45 970.225,1477 
  "/>
<polyline clip-path="url(#clip210)" style="stroke:#222255; stroke-linecap:round; stroke-linejoin:round; stroke-width:4; stroke-opacity:0; fill:none" points="
  1068.98,1486.45 1068.98,1477 
  "/>
<polyline clip-path="url(#clip210)" style="stroke:#222255; stroke-linecap:round; stroke-linejoin:round; stroke-width:4; stroke-opacity:0; fill:none" points="
  1167.73,1486.45 1167.73,1477 
  "/>
<polyline clip-path="url(#clip210)" style="stroke:#222255; stroke-linecap:round; stroke-linejoin:round; stroke-width:4; stroke-opacity:0; fill:none" points="
  1266.48,1486.45 1266.48,1477 
  "/>
<polyline clip-path="url(#clip210)" style="stroke:#222255; stroke-linecap:round; stroke-linejoin:round; stroke-width:4; stroke-opacity:0; fill:none" points="
  1463.99,1486.45 1463.99,1477 
  "/>
<polyline clip-path="url(#clip210)" style="stroke:#222255; stroke-linecap:round; stroke-linejoin:round; stroke-width:4; stroke-opacity:0; fill:none" points="
  1562.74,1486.45 1562.74,1477 
  "/>
<polyline clip-path="url(#clip210)" style="stroke:#222255; stroke-linecap:round; stroke-linejoin:round; stroke-width:4; stroke-opacity:0; fill:none" points="
  1661.49,1486.45 1661.49,1477 
  "/>
<polyline clip-path="url(#clip210)" style="stroke:#222255; stroke-linecap:round; stroke-linejoin:round; stroke-width:4; stroke-opacity:0; fill:none" points="
  1760.24,1486.45 1760.24,1477 
  "/>
<polyline clip-path="url(#clip210)" style="stroke:#222255; stroke-linecap:round; stroke-linejoin:round; stroke-width:4; stroke-opacity:0; fill:none" points="
  1957.75,1486.45 1957.75,1477 
  "/>
<polyline clip-path="url(#clip210)" style="stroke:#222255; stroke-linecap:round; stroke-linejoin:round; stroke-width:4; stroke-opacity:0; fill:none" points="
  2056.5,1486.45 2056.5,1477 
  "/>
<polyline clip-path="url(#clip210)" style="stroke:#222255; stroke-linecap:round; stroke-linejoin:round; stroke-width:4; stroke-opacity:0; fill:none" points="
  2155.25,1486.45 2155.25,1477 
  "/>
<polyline clip-path="url(#clip210)" style="stroke:#222255; stroke-linecap:round; stroke-linejoin:round; stroke-width:4; stroke-opacity:0; fill:none" points="
  2254,1486.45 2254,1477 
  "/>
<path clip-path="url(#clip210)" d="M309.159 1532.02 L338.834 1532.02 L338.834 1535.95 L309.159 1535.95 L309.159 1532.02 Z" fill="#000000" fill-rule="evenodd" fill-opacity="1" /><path clip-path="url(#clip210)" d="M349.737 1544.91 L357.376 1544.91 L357.376 1518.55 L349.066 1520.21 L349.066 1515.95 L357.33 1514.29 L362.006 1514.29 L362.006 1544.91 L369.644 1544.91 L369.644 1548.85 L349.737 1548.85 L349.737 1544.91 Z" fill="#000000" fill-rule="evenodd" fill-opacity="1" /><path clip-path="url(#clip210)" d="M379.089 1542.97 L383.973 1542.97 L383.973 1548.85 L379.089 1548.85 L379.089 1542.97 Z" fill="#000000" fill-rule="evenodd" fill-opacity="1" /><path clip-path="url(#clip210)" d="M394.968 1544.91 L402.607 1544.91 L402.607 1518.55 L394.297 1520.21 L394.297 1515.95 L402.561 1514.29 L407.237 1514.29 L407.237 1544.91 L414.876 1544.91 L414.876 1548.85 L394.968 1548.85 L394.968 1544.91 Z" fill="#000000" fill-rule="evenodd" fill-opacity="1" /><path clip-path="url(#clip210)" d="M434.32 1517.37 Q430.709 1517.37 428.88 1520.93 Q427.075 1524.47 427.075 1531.6 Q427.075 1538.71 428.88 1542.27 Q430.709 1545.82 434.32 1545.82 Q437.954 1545.82 439.76 1542.27 Q441.589 1538.71 441.589 1531.6 Q441.589 1524.47 439.76 1520.93 Q437.954 1517.37 434.32 1517.37 M434.32 1513.66 Q440.13 1513.66 443.186 1518.27 Q446.264 1522.85 446.264 1531.6 Q446.264 1540.33 443.186 1544.94 Q440.13 1549.52 434.32 1549.52 Q428.51 1549.52 425.431 1544.94 Q422.376 1540.33 422.376 1531.6 Q422.376 1522.85 425.431 1518.27 Q428.51 1513.66 434.32 1513.66 Z" fill="#000000" fill-rule="evenodd" fill-opacity="1" /><path clip-path="url(#clip210)" d="M803.417 1532.02 L833.093 1532.02 L833.093 1535.95 L803.417 1535.95 L803.417 1532.02 Z" fill="#000000" fill-rule="evenodd" fill-opacity="1" /><path clip-path="url(#clip210)" d="M843.996 1544.91 L851.635 1544.91 L851.635 1518.55 L843.325 1520.21 L843.325 1515.95 L851.588 1514.29 L856.264 1514.29 L856.264 1544.91 L863.903 1544.91 L863.903 1548.85 L843.996 1548.85 L843.996 1544.91 Z" fill="#000000" fill-rule="evenodd" fill-opacity="1" /><path clip-path="url(#clip210)" d="M873.348 1542.97 L878.232 1542.97 L878.232 1548.85 L873.348 1548.85 L873.348 1542.97 Z" fill="#000000" fill-rule="evenodd" fill-opacity="1" /><path clip-path="url(#clip210)" d="M898.417 1517.37 Q894.806 1517.37 892.977 1520.93 Q891.172 1524.47 891.172 1531.6 Q891.172 1538.71 892.977 1542.27 Q894.806 1545.82 898.417 1545.82 Q902.051 1545.82 903.857 1542.27 Q905.685 1538.71 905.685 1531.6 Q905.685 1524.47 903.857 1520.93 Q902.051 1517.37 898.417 1517.37 M898.417 1513.66 Q904.227 1513.66 907.283 1518.27 Q910.361 1522.85 910.361 1531.6 Q910.361 1540.33 907.283 1544.94 Q904.227 1549.52 898.417 1549.52 Q892.607 1549.52 889.528 1544.94 Q886.473 1540.33 886.473 1531.6 Q886.473 1522.85 889.528 1518.27 Q892.607 1513.66 898.417 1513.66 Z" fill="#000000" fill-rule="evenodd" fill-opacity="1" /><path clip-path="url(#clip210)" d="M918.625 1514.29 L936.982 1514.29 L936.982 1518.22 L922.908 1518.22 L922.908 1526.7 Q923.926 1526.35 924.945 1526.19 Q925.963 1526 926.982 1526 Q932.769 1526 936.148 1529.17 Q939.528 1532.34 939.528 1537.76 Q939.528 1543.34 936.056 1546.44 Q932.583 1549.52 926.264 1549.52 Q924.088 1549.52 921.82 1549.15 Q919.574 1548.78 917.167 1548.04 L917.167 1543.34 Q919.25 1544.47 921.472 1545.03 Q923.695 1545.58 926.171 1545.58 Q930.176 1545.58 932.514 1543.48 Q934.852 1541.37 934.852 1537.76 Q934.852 1534.15 932.514 1532.04 Q930.176 1529.94 926.171 1529.94 Q924.296 1529.94 922.421 1530.35 Q920.57 1530.77 918.625 1531.65 L918.625 1514.29 Z" fill="#000000" fill-rule="evenodd" fill-opacity="1" /><path clip-path="url(#clip210)" d="M1296.68 1532.02 L1326.36 1532.02 L1326.36 1535.95 L1296.68 1535.95 L1296.68 1532.02 Z" fill="#000000" fill-rule="evenodd" fill-opacity="1" /><path clip-path="url(#clip210)" d="M1337.26 1544.91 L1344.9 1544.91 L1344.9 1518.55 L1336.59 1520.21 L1336.59 1515.95 L1344.85 1514.29 L1349.53 1514.29 L1349.53 1544.91 L1357.17 1544.91 L1357.17 1548.85 L1337.26 1548.85 L1337.26 1544.91 Z" fill="#000000" fill-rule="evenodd" fill-opacity="1" /><path clip-path="url(#clip210)" d="M1366.61 1542.97 L1371.5 1542.97 L1371.5 1548.85 L1366.61 1548.85 L1366.61 1542.97 Z" fill="#000000" fill-rule="evenodd" fill-opacity="1" /><path clip-path="url(#clip210)" d="M1391.68 1517.37 Q1388.07 1517.37 1386.24 1520.93 Q1384.44 1524.47 1384.44 1531.6 Q1384.44 1538.71 1386.24 1542.27 Q1388.07 1545.82 1391.68 1545.82 Q1395.31 1545.82 1397.12 1542.27 Q1398.95 1538.71 1398.95 1531.6 Q1398.95 1524.47 1397.12 1520.93 Q1395.31 1517.37 1391.68 1517.37 M1391.68 1513.66 Q1397.49 1513.66 1400.55 1518.27 Q1403.62 1522.85 1403.62 1531.6 Q1403.62 1540.33 1400.55 1544.94 Q1397.49 1549.52 1391.68 1549.52 Q1385.87 1549.52 1382.79 1544.94 Q1379.74 1540.33 1379.74 1531.6 Q1379.74 1522.85 1382.79 1518.27 Q1385.87 1513.66 1391.68 1513.66 Z" fill="#000000" fill-rule="evenodd" fill-opacity="1" /><path clip-path="url(#clip210)" d="M1421.84 1517.37 Q1418.23 1517.37 1416.4 1520.93 Q1414.6 1524.47 1414.6 1531.6 Q1414.6 1538.71 1416.4 1542.27 Q1418.23 1545.82 1421.84 1545.82 Q1425.48 1545.82 1427.28 1542.27 Q1429.11 1538.71 1429.11 1531.6 Q1429.11 1524.47 1427.28 1520.93 Q1425.48 1517.37 1421.84 1517.37 M1421.84 1513.66 Q1427.65 1513.66 1430.71 1518.27 Q1433.79 1522.85 1433.79 1531.6 Q1433.79 1540.33 1430.71 1544.94 Q1427.65 1549.52 1421.84 1549.52 Q1416.03 1549.52 1412.95 1544.94 Q1409.9 1540.33 1409.9 1531.6 Q1409.9 1522.85 1412.95 1518.27 Q1416.03 1513.66 1421.84 1513.66 Z" fill="#000000" fill-rule="evenodd" fill-opacity="1" /><path clip-path="url(#clip210)" d="M1790.94 1532.02 L1820.62 1532.02 L1820.62 1535.95 L1790.94 1535.95 L1790.94 1532.02 Z" fill="#000000" fill-rule="evenodd" fill-opacity="1" /><path clip-path="url(#clip210)" d="M1840.71 1517.37 Q1837.1 1517.37 1835.27 1520.93 Q1833.46 1524.47 1833.46 1531.6 Q1833.46 1538.71 1835.27 1542.27 Q1837.1 1545.82 1840.71 1545.82 Q1844.34 1545.82 1846.15 1542.27 Q1847.98 1538.71 1847.98 1531.6 Q1847.98 1524.47 1846.15 1520.93 Q1844.34 1517.37 1840.71 1517.37 M1840.71 1513.66 Q1846.52 1513.66 1849.57 1518.27 Q1852.65 1522.85 1852.65 1531.6 Q1852.65 1540.33 1849.57 1544.94 Q1846.52 1549.52 1840.71 1549.52 Q1834.9 1549.52 1831.82 1544.94 Q1828.76 1540.33 1828.76 1531.6 Q1828.76 1522.85 1831.82 1518.27 Q1834.9 1513.66 1840.71 1513.66 Z" fill="#000000" fill-rule="evenodd" fill-opacity="1" /><path clip-path="url(#clip210)" d="M1860.87 1542.97 L1865.75 1542.97 L1865.75 1548.85 L1860.87 1548.85 L1860.87 1542.97 Z" fill="#000000" fill-rule="evenodd" fill-opacity="1" /><path clip-path="url(#clip210)" d="M1876.08 1548.13 L1876.08 1543.87 Q1877.84 1544.7 1879.64 1545.14 Q1881.45 1545.58 1883.18 1545.58 Q1887.81 1545.58 1890.24 1542.48 Q1892.7 1539.36 1893.05 1533.01 Q1891.7 1535.01 1889.64 1536.07 Q1887.58 1537.13 1885.08 1537.13 Q1879.9 1537.13 1876.87 1534.01 Q1873.86 1530.86 1873.86 1525.42 Q1873.86 1520.1 1877 1516.88 Q1880.15 1513.66 1885.38 1513.66 Q1891.38 1513.66 1894.53 1518.27 Q1897.7 1522.85 1897.7 1531.6 Q1897.7 1539.77 1893.81 1544.66 Q1889.94 1549.52 1883.39 1549.52 Q1881.63 1549.52 1879.83 1549.17 Q1878.02 1548.82 1876.08 1548.13 M1885.38 1533.48 Q1888.53 1533.48 1890.36 1531.32 Q1892.21 1529.17 1892.21 1525.42 Q1892.21 1521.7 1890.36 1519.54 Q1888.53 1517.37 1885.38 1517.37 Q1882.24 1517.37 1880.38 1519.54 Q1878.55 1521.7 1878.55 1525.42 Q1878.55 1529.17 1880.38 1531.32 Q1882.24 1533.48 1885.38 1533.48 Z" fill="#000000" fill-rule="evenodd" fill-opacity="1" /><path clip-path="url(#clip210)" d="M1906.15 1514.29 L1924.5 1514.29 L1924.5 1518.22 L1910.43 1518.22 L1910.43 1526.7 Q1911.45 1526.35 1912.47 1526.19 Q1913.49 1526 1914.5 1526 Q1920.29 1526 1923.67 1529.17 Q1927.05 1532.34 1927.05 1537.76 Q1927.05 1543.34 1923.58 1546.44 Q1920.11 1549.52 1913.79 1549.52 Q1911.61 1549.52 1909.34 1549.15 Q1907.1 1548.78 1904.69 1548.04 L1904.69 1543.34 Q1906.77 1544.47 1908.99 1545.03 Q1911.22 1545.58 1913.69 1545.58 Q1917.7 1545.58 1920.04 1543.48 Q1922.37 1541.37 1922.37 1537.76 Q1922.37 1534.15 1920.04 1532.04 Q1917.7 1529.94 1913.69 1529.94 Q1911.82 1529.94 1909.94 1530.35 Q1908.09 1530.77 1906.15 1531.65 L1906.15 1514.29 Z" fill="#000000" fill-rule="evenodd" fill-opacity="1" /><path clip-path="url(#clip210)" d="M2284.2 1532.02 L2313.88 1532.02 L2313.88 1535.95 L2284.2 1535.95 L2284.2 1532.02 Z" fill="#000000" fill-rule="evenodd" fill-opacity="1" /><path clip-path="url(#clip210)" d="M2333.97 1517.37 Q2330.36 1517.37 2328.53 1520.93 Q2326.73 1524.47 2326.73 1531.6 Q2326.73 1538.71 2328.53 1542.27 Q2330.36 1545.82 2333.97 1545.82 Q2337.61 1545.82 2339.41 1542.27 Q2341.24 1538.71 2341.24 1531.6 Q2341.24 1524.47 2339.41 1520.93 Q2337.61 1517.37 2333.97 1517.37 M2333.97 1513.66 Q2339.78 1513.66 2342.84 1518.27 Q2345.92 1522.85 2345.92 1531.6 Q2345.92 1540.33 2342.84 1544.94 Q2339.78 1549.52 2333.97 1549.52 Q2328.16 1549.52 2325.08 1544.94 Q2322.03 1540.33 2322.03 1531.6 Q2322.03 1522.85 2325.08 1518.27 Q2328.16 1513.66 2333.97 1513.66 Z" fill="#000000" fill-rule="evenodd" fill-opacity="1" /><path clip-path="url(#clip210)" d="M2354.13 1542.97 L2359.02 1542.97 L2359.02 1548.85 L2354.13 1548.85 L2354.13 1542.97 Z" fill="#000000" fill-rule="evenodd" fill-opacity="1" /><path clip-path="url(#clip210)" d="M2369.34 1548.13 L2369.34 1543.87 Q2371.1 1544.7 2372.91 1545.14 Q2374.71 1545.58 2376.45 1545.58 Q2381.08 1545.58 2383.51 1542.48 Q2385.96 1539.36 2386.31 1533.01 Q2384.97 1535.01 2382.91 1536.07 Q2380.85 1537.13 2378.35 1537.13 Q2373.16 1537.13 2370.13 1534.01 Q2367.12 1530.86 2367.12 1525.42 Q2367.12 1520.1 2370.27 1516.88 Q2373.42 1513.66 2378.65 1513.66 Q2384.64 1513.66 2387.79 1518.27 Q2390.96 1522.85 2390.96 1531.6 Q2390.96 1539.77 2387.07 1544.66 Q2383.21 1549.52 2376.66 1549.52 Q2374.9 1549.52 2373.09 1549.17 Q2371.29 1548.82 2369.34 1548.13 M2378.65 1533.48 Q2381.8 1533.48 2383.62 1531.32 Q2385.48 1529.17 2385.48 1525.42 Q2385.48 1521.7 2383.62 1519.54 Q2381.8 1517.37 2378.65 1517.37 Q2375.5 1517.37 2373.65 1519.54 Q2371.82 1521.7 2371.82 1525.42 Q2371.82 1529.17 2373.65 1531.32 Q2375.5 1533.48 2378.65 1533.48 Z" fill="#000000" fill-rule="evenodd" fill-opacity="1" /><path clip-path="url(#clip210)" d="M2409.36 1517.37 Q2405.75 1517.37 2403.92 1520.93 Q2402.12 1524.47 2402.12 1531.6 Q2402.12 1538.71 2403.92 1542.27 Q2405.75 1545.82 2409.36 1545.82 Q2413 1545.82 2414.8 1542.27 Q2416.63 1538.71 2416.63 1531.6 Q2416.63 1524.47 2414.8 1520.93 Q2413 1517.37 2409.36 1517.37 M2409.36 1513.66 Q2415.17 1513.66 2418.23 1518.27 Q2421.31 1522.85 2421.31 1531.6 Q2421.31 1540.33 2418.23 1544.94 Q2415.17 1549.52 2409.36 1549.52 Q2403.55 1549.52 2400.48 1544.94 Q2397.42 1540.33 2397.42 1531.6 Q2397.42 1522.85 2400.48 1518.27 Q2403.55 1513.66 2409.36 1513.66 Z" fill="#000000" fill-rule="evenodd" fill-opacity="1" /><polyline clip-path="url(#clip212)" style="stroke:#222255; stroke-linecap:round; stroke-linejoin:round; stroke-width:2; stroke-opacity:0.1; fill:none" points="
  254.746,1260.61 2352.76,1260.61 
  "/>
<polyline clip-path="url(#clip212)" style="stroke:#222255; stroke-linecap:round; stroke-linejoin:round; stroke-width:2; stroke-opacity:0.1; fill:none" points="
  254.746,1013.73 2352.76,1013.73 
  "/>
<polyline clip-path="url(#clip212)" style="stroke:#222255; stroke-linecap:round; stroke-linejoin:round; stroke-width:2; stroke-opacity:0.1; fill:none" points="
  254.746,766.845 2352.76,766.845 
  "/>
<polyline clip-path="url(#clip212)" style="stroke:#222255; stroke-linecap:round; stroke-linejoin:round; stroke-width:2; stroke-opacity:0.1; fill:none" points="
  254.746,519.965 2352.76,519.965 
  "/>
<polyline clip-path="url(#clip212)" style="stroke:#222255; stroke-linecap:round; stroke-linejoin:round; stroke-width:2; stroke-opacity:0.1; fill:none" points="
  254.746,273.084 2352.76,273.084 
  "/>
<polyline clip-path="url(#clip212)" style="stroke:#222255; stroke-linecap:round; stroke-linejoin:round; stroke-width:2; stroke-opacity:0.05; fill:none" points="
  254.746,1458.11 2352.76,1458.11 
  "/>
<polyline clip-path="url(#clip212)" style="stroke:#222255; stroke-linecap:round; stroke-linejoin:round; stroke-width:2; stroke-opacity:0.05; fill:none" points="
  254.746,1408.73 2352.76,1408.73 
  "/>
<polyline clip-path="url(#clip212)" style="stroke:#222255; stroke-linecap:round; stroke-linejoin:round; stroke-width:2; stroke-opacity:0.05; fill:none" points="
  254.746,1359.36 2352.76,1359.36 
  "/>
<polyline clip-path="url(#clip212)" style="stroke:#222255; stroke-linecap:round; stroke-linejoin:round; stroke-width:2; stroke-opacity:0.05; fill:none" points="
  254.746,1309.98 2352.76,1309.98 
  "/>
<polyline clip-path="url(#clip212)" style="stroke:#222255; stroke-linecap:round; stroke-linejoin:round; stroke-width:2; stroke-opacity:0.05; fill:none" points="
  254.746,1211.23 2352.76,1211.23 
  "/>
<polyline clip-path="url(#clip212)" style="stroke:#222255; stroke-linecap:round; stroke-linejoin:round; stroke-width:2; stroke-opacity:0.05; fill:none" points="
  254.746,1161.85 2352.76,1161.85 
  "/>
<polyline clip-path="url(#clip212)" style="stroke:#222255; stroke-linecap:round; stroke-linejoin:round; stroke-width:2; stroke-opacity:0.05; fill:none" points="
  254.746,1112.48 2352.76,1112.48 
  "/>
<polyline clip-path="url(#clip212)" style="stroke:#222255; stroke-linecap:round; stroke-linejoin:round; stroke-width:2; stroke-opacity:0.05; fill:none" points="
  254.746,1063.1 2352.76,1063.1 
  "/>
<polyline clip-path="url(#clip212)" style="stroke:#222255; stroke-linecap:round; stroke-linejoin:round; stroke-width:2; stroke-opacity:0.05; fill:none" points="
  254.746,964.35 2352.76,964.35 
  "/>
<polyline clip-path="url(#clip212)" style="stroke:#222255; stroke-linecap:round; stroke-linejoin:round; stroke-width:2; stroke-opacity:0.05; fill:none" points="
  254.746,914.974 2352.76,914.974 
  "/>
<polyline clip-path="url(#clip212)" style="stroke:#222255; stroke-linecap:round; stroke-linejoin:round; stroke-width:2; stroke-opacity:0.05; fill:none" points="
  254.746,865.597 2352.76,865.597 
  "/>
<polyline clip-path="url(#clip212)" style="stroke:#222255; stroke-linecap:round; stroke-linejoin:round; stroke-width:2; stroke-opacity:0.05; fill:none" points="
  254.746,816.221 2352.76,816.221 
  "/>
<polyline clip-path="url(#clip212)" style="stroke:#222255; stroke-linecap:round; stroke-linejoin:round; stroke-width:2; stroke-opacity:0.05; fill:none" points="
  254.746,717.469 2352.76,717.469 
  "/>
<polyline clip-path="url(#clip212)" style="stroke:#222255; stroke-linecap:round; stroke-linejoin:round; stroke-width:2; stroke-opacity:0.05; fill:none" points="
  254.746,668.093 2352.76,668.093 
  "/>
<polyline clip-path="url(#clip212)" style="stroke:#222255; stroke-linecap:round; stroke-linejoin:round; stroke-width:2; stroke-opacity:0.05; fill:none" points="
  254.746,618.717 2352.76,618.717 
  "/>
<polyline clip-path="url(#clip212)" style="stroke:#222255; stroke-linecap:round; stroke-linejoin:round; stroke-width:2; stroke-opacity:0.05; fill:none" points="
  254.746,569.341 2352.76,569.341 
  "/>
<polyline clip-path="url(#clip212)" style="stroke:#222255; stroke-linecap:round; stroke-linejoin:round; stroke-width:2; stroke-opacity:0.05; fill:none" points="
  254.746,470.589 2352.76,470.589 
  "/>
<polyline clip-path="url(#clip212)" style="stroke:#222255; stroke-linecap:round; stroke-linejoin:round; stroke-width:2; stroke-opacity:0.05; fill:none" points="
  254.746,421.212 2352.76,421.212 
  "/>
<polyline clip-path="url(#clip212)" style="stroke:#222255; stroke-linecap:round; stroke-linejoin:round; stroke-width:2; stroke-opacity:0.05; fill:none" points="
  254.746,371.836 2352.76,371.836 
  "/>
<polyline clip-path="url(#clip212)" style="stroke:#222255; stroke-linecap:round; stroke-linejoin:round; stroke-width:2; stroke-opacity:0.05; fill:none" points="
  254.746,322.46 2352.76,322.46 
  "/>
<polyline clip-path="url(#clip212)" style="stroke:#222255; stroke-linecap:round; stroke-linejoin:round; stroke-width:2; stroke-opacity:0.05; fill:none" points="
  254.746,223.708 2352.76,223.708 
  "/>
<polyline clip-path="url(#clip212)" style="stroke:#222255; stroke-linecap:round; stroke-linejoin:round; stroke-width:2; stroke-opacity:0.05; fill:none" points="
  254.746,174.332 2352.76,174.332 
  "/>
<polyline clip-path="url(#clip212)" style="stroke:#222255; stroke-linecap:round; stroke-linejoin:round; stroke-width:2; stroke-opacity:0.05; fill:none" points="
  254.746,124.956 2352.76,124.956 
  "/>
<polyline clip-path="url(#clip212)" style="stroke:#222255; stroke-linecap:round; stroke-linejoin:round; stroke-width:2; stroke-opacity:0.05; fill:none" points="
  254.746,75.5797 2352.76,75.5797 
  "/>
<polyline clip-path="url(#clip210)" style="stroke:#222255; stroke-linecap:round; stroke-linejoin:round; stroke-width:4; stroke-opacity:0; fill:none" points="
  254.746,1260.61 273.643,1260.61 
  "/>
<polyline clip-path="url(#clip210)" style="stroke:#222255; stroke-linecap:round; stroke-linejoin:round; stroke-width:4; stroke-opacity:0; fill:none" points="
  254.746,1013.73 273.643,1013.73 
  "/>
<polyline clip-path="url(#clip210)" style="stroke:#222255; stroke-linecap:round; stroke-linejoin:round; stroke-width:4; stroke-opacity:0; fill:none" points="
  254.746,766.845 273.643,766.845 
  "/>
<polyline clip-path="url(#clip210)" style="stroke:#222255; stroke-linecap:round; stroke-linejoin:round; stroke-width:4; stroke-opacity:0; fill:none" points="
  254.746,519.965 273.643,519.965 
  "/>
<polyline clip-path="url(#clip210)" style="stroke:#222255; stroke-linecap:round; stroke-linejoin:round; stroke-width:4; stroke-opacity:0; fill:none" points="
  254.746,273.084 273.643,273.084 
  "/>
<polyline clip-path="url(#clip210)" style="stroke:#222255; stroke-linecap:round; stroke-linejoin:round; stroke-width:4; stroke-opacity:0; fill:none" points="
  254.746,1458.11 264.195,1458.11 
  "/>
<polyline clip-path="url(#clip210)" style="stroke:#222255; stroke-linecap:round; stroke-linejoin:round; stroke-width:4; stroke-opacity:0; fill:none" points="
  254.746,1408.73 264.195,1408.73 
  "/>
<polyline clip-path="url(#clip210)" style="stroke:#222255; stroke-linecap:round; stroke-linejoin:round; stroke-width:4; stroke-opacity:0; fill:none" points="
  254.746,1359.36 264.195,1359.36 
  "/>
<polyline clip-path="url(#clip210)" style="stroke:#222255; stroke-linecap:round; stroke-linejoin:round; stroke-width:4; stroke-opacity:0; fill:none" points="
  254.746,1309.98 264.195,1309.98 
  "/>
<polyline clip-path="url(#clip210)" style="stroke:#222255; stroke-linecap:round; stroke-linejoin:round; stroke-width:4; stroke-opacity:0; fill:none" points="
  254.746,1211.23 264.195,1211.23 
  "/>
<polyline clip-path="url(#clip210)" style="stroke:#222255; stroke-linecap:round; stroke-linejoin:round; stroke-width:4; stroke-opacity:0; fill:none" points="
  254.746,1161.85 264.195,1161.85 
  "/>
<polyline clip-path="url(#clip210)" style="stroke:#222255; stroke-linecap:round; stroke-linejoin:round; stroke-width:4; stroke-opacity:0; fill:none" points="
  254.746,1112.48 264.195,1112.48 
  "/>
<polyline clip-path="url(#clip210)" style="stroke:#222255; stroke-linecap:round; stroke-linejoin:round; stroke-width:4; stroke-opacity:0; fill:none" points="
  254.746,1063.1 264.195,1063.1 
  "/>
<polyline clip-path="url(#clip210)" style="stroke:#222255; stroke-linecap:round; stroke-linejoin:round; stroke-width:4; stroke-opacity:0; fill:none" points="
  254.746,964.35 264.195,964.35 
  "/>
<polyline clip-path="url(#clip210)" style="stroke:#222255; stroke-linecap:round; stroke-linejoin:round; stroke-width:4; stroke-opacity:0; fill:none" points="
  254.746,914.974 264.195,914.974 
  "/>
<polyline clip-path="url(#clip210)" style="stroke:#222255; stroke-linecap:round; stroke-linejoin:round; stroke-width:4; stroke-opacity:0; fill:none" points="
  254.746,865.597 264.195,865.597 
  "/>
<polyline clip-path="url(#clip210)" style="stroke:#222255; stroke-linecap:round; stroke-linejoin:round; stroke-width:4; stroke-opacity:0; fill:none" points="
  254.746,816.221 264.195,816.221 
  "/>
<polyline clip-path="url(#clip210)" style="stroke:#222255; stroke-linecap:round; stroke-linejoin:round; stroke-width:4; stroke-opacity:0; fill:none" points="
  254.746,717.469 264.195,717.469 
  "/>
<polyline clip-path="url(#clip210)" style="stroke:#222255; stroke-linecap:round; stroke-linejoin:round; stroke-width:4; stroke-opacity:0; fill:none" points="
  254.746,668.093 264.195,668.093 
  "/>
<polyline clip-path="url(#clip210)" style="stroke:#222255; stroke-linecap:round; stroke-linejoin:round; stroke-width:4; stroke-opacity:0; fill:none" points="
  254.746,618.717 264.195,618.717 
  "/>
<polyline clip-path="url(#clip210)" style="stroke:#222255; stroke-linecap:round; stroke-linejoin:round; stroke-width:4; stroke-opacity:0; fill:none" points="
  254.746,569.341 264.195,569.341 
  "/>
<polyline clip-path="url(#clip210)" style="stroke:#222255; stroke-linecap:round; stroke-linejoin:round; stroke-width:4; stroke-opacity:0; fill:none" points="
  254.746,470.589 264.195,470.589 
  "/>
<polyline clip-path="url(#clip210)" style="stroke:#222255; stroke-linecap:round; stroke-linejoin:round; stroke-width:4; stroke-opacity:0; fill:none" points="
  254.746,421.212 264.195,421.212 
  "/>
<polyline clip-path="url(#clip210)" style="stroke:#222255; stroke-linecap:round; stroke-linejoin:round; stroke-width:4; stroke-opacity:0; fill:none" points="
  254.746,371.836 264.195,371.836 
  "/>
<polyline clip-path="url(#clip210)" style="stroke:#222255; stroke-linecap:round; stroke-linejoin:round; stroke-width:4; stroke-opacity:0; fill:none" points="
  254.746,322.46 264.195,322.46 
  "/>
<polyline clip-path="url(#clip210)" style="stroke:#222255; stroke-linecap:round; stroke-linejoin:round; stroke-width:4; stroke-opacity:0; fill:none" points="
  254.746,223.708 264.195,223.708 
  "/>
<polyline clip-path="url(#clip210)" style="stroke:#222255; stroke-linecap:round; stroke-linejoin:round; stroke-width:4; stroke-opacity:0; fill:none" points="
  254.746,174.332 264.195,174.332 
  "/>
<polyline clip-path="url(#clip210)" style="stroke:#222255; stroke-linecap:round; stroke-linejoin:round; stroke-width:4; stroke-opacity:0; fill:none" points="
  254.746,124.956 264.195,124.956 
  "/>
<polyline clip-path="url(#clip210)" style="stroke:#222255; stroke-linecap:round; stroke-linejoin:round; stroke-width:4; stroke-opacity:0; fill:none" points="
  254.746,75.5797 264.195,75.5797 
  "/>
<path clip-path="url(#clip210)" d="M51.4782 1261.06 L81.154 1261.06 L81.154 1264.99 L51.4782 1264.99 L51.4782 1261.06 Z" fill="#000000" fill-rule="evenodd" fill-opacity="1" /><path clip-path="url(#clip210)" d="M101.246 1246.4 Q97.6354 1246.4 95.8067 1249.97 Q94.0012 1253.51 94.0012 1260.64 Q94.0012 1267.75 95.8067 1271.31 Q97.6354 1274.85 101.246 1274.85 Q104.881 1274.85 106.686 1271.31 Q108.515 1267.75 108.515 1260.64 Q108.515 1253.51 106.686 1249.97 Q104.881 1246.4 101.246 1246.4 M101.246 1242.7 Q107.057 1242.7 110.112 1247.31 Q113.191 1251.89 113.191 1260.64 Q113.191 1269.37 110.112 1273.97 Q107.057 1278.56 101.246 1278.56 Q95.4363 1278.56 92.3576 1273.97 Q89.3021 1269.37 89.3021 1260.64 Q89.3021 1251.89 92.3576 1247.31 Q95.4363 1242.7 101.246 1242.7 Z" fill="#000000" fill-rule="evenodd" fill-opacity="1" /><path clip-path="url(#clip210)" d="M121.408 1272.01 L126.293 1272.01 L126.293 1277.89 L121.408 1277.89 L121.408 1272.01 Z" fill="#000000" fill-rule="evenodd" fill-opacity="1" /><path clip-path="url(#clip210)" d="M146.478 1246.4 Q142.867 1246.4 141.038 1249.97 Q139.232 1253.51 139.232 1260.64 Q139.232 1267.75 141.038 1271.31 Q142.867 1274.85 146.478 1274.85 Q150.112 1274.85 151.918 1271.31 Q153.746 1267.75 153.746 1260.64 Q153.746 1253.51 151.918 1249.97 Q150.112 1246.4 146.478 1246.4 M146.478 1242.7 Q152.288 1242.7 155.343 1247.31 Q158.422 1251.89 158.422 1260.64 Q158.422 1269.37 155.343 1273.97 Q152.288 1278.56 146.478 1278.56 Q140.668 1278.56 137.589 1273.97 Q134.533 1269.37 134.533 1260.64 Q134.533 1251.89 137.589 1247.31 Q140.668 1242.7 146.478 1242.7 Z" fill="#000000" fill-rule="evenodd" fill-opacity="1" /><path clip-path="url(#clip210)" d="M166.686 1243.33 L185.042 1243.33 L185.042 1247.26 L170.968 1247.26 L170.968 1255.73 Q171.987 1255.39 173.005 1255.22 Q174.024 1255.04 175.042 1255.04 Q180.829 1255.04 184.209 1258.21 Q187.589 1261.38 187.589 1266.8 Q187.589 1272.38 184.116 1275.48 Q180.644 1278.56 174.325 1278.56 Q172.149 1278.56 169.88 1278.19 Q167.635 1277.82 165.228 1277.08 L165.228 1272.38 Q167.311 1273.51 169.533 1274.07 Q171.755 1274.62 174.232 1274.62 Q178.237 1274.62 180.575 1272.52 Q182.913 1270.41 182.913 1266.8 Q182.913 1263.19 180.575 1261.08 Q178.237 1258.97 174.232 1258.97 Q172.357 1258.97 170.482 1259.39 Q168.63 1259.81 166.686 1260.69 L166.686 1243.33 Z" fill="#000000" fill-rule="evenodd" fill-opacity="1" /><path clip-path="url(#clip210)" d="M206.801 1246.4 Q203.19 1246.4 201.362 1249.97 Q199.556 1253.51 199.556 1260.64 Q199.556 1267.75 201.362 1271.31 Q203.19 1274.85 206.801 1274.85 Q210.436 1274.85 212.241 1271.31 Q214.07 1267.75 214.07 1260.64 Q214.07 1253.51 212.241 1249.97 Q210.436 1246.4 206.801 1246.4 M206.801 1242.7 Q212.612 1242.7 215.667 1247.31 Q218.746 1251.89 218.746 1260.64 Q218.746 1269.37 215.667 1273.97 Q212.612 1278.56 206.801 1278.56 Q200.991 1278.56 197.913 1273.97 Q194.857 1269.37 194.857 1260.64 Q194.857 1251.89 197.913 1247.31 Q200.991 1242.7 206.801 1242.7 Z" fill="#000000" fill-rule="evenodd" fill-opacity="1" /><path clip-path="url(#clip210)" d="M52.4736 1014.18 L82.1494 1014.18 L82.1494 1018.11 L52.4736 1018.11 L52.4736 1014.18 Z" fill="#000000" fill-rule="evenodd" fill-opacity="1" /><path clip-path="url(#clip210)" d="M102.242 999.524 Q98.6308 999.524 96.8021 1003.09 Q94.9965 1006.63 94.9965 1013.76 Q94.9965 1020.87 96.8021 1024.43 Q98.6308 1027.97 102.242 1027.97 Q105.876 1027.97 107.682 1024.43 Q109.51 1020.87 109.51 1013.76 Q109.51 1006.63 107.682 1003.09 Q105.876 999.524 102.242 999.524 M102.242 995.821 Q108.052 995.821 111.108 1000.43 Q114.186 1005.01 114.186 1013.76 Q114.186 1022.49 111.108 1027.09 Q108.052 1031.68 102.242 1031.68 Q96.4317 1031.68 93.353 1027.09 Q90.2975 1022.49 90.2975 1013.76 Q90.2975 1005.01 93.353 1000.43 Q96.4317 995.821 102.242 995.821 Z" fill="#000000" fill-rule="evenodd" fill-opacity="1" /><path clip-path="url(#clip210)" d="M122.404 1025.13 L127.288 1025.13 L127.288 1031.01 L122.404 1031.01 L122.404 1025.13 Z" fill="#000000" fill-rule="evenodd" fill-opacity="1" /><path clip-path="url(#clip210)" d="M147.473 999.524 Q143.862 999.524 142.033 1003.09 Q140.228 1006.63 140.228 1013.76 Q140.228 1020.87 142.033 1024.43 Q143.862 1027.97 147.473 1027.97 Q151.107 1027.97 152.913 1024.43 Q154.742 1020.87 154.742 1013.76 Q154.742 1006.63 152.913 1003.09 Q151.107 999.524 147.473 999.524 M147.473 995.821 Q153.283 995.821 156.339 1000.43 Q159.417 1005.01 159.417 1013.76 Q159.417 1022.49 156.339 1027.09 Q153.283 1031.68 147.473 1031.68 Q141.663 1031.68 138.584 1027.09 Q135.529 1022.49 135.529 1013.76 Q135.529 1005.01 138.584 1000.43 Q141.663 995.821 147.473 995.821 Z" fill="#000000" fill-rule="evenodd" fill-opacity="1" /><path clip-path="url(#clip210)" d="M171.663 1027.07 L187.982 1027.07 L187.982 1031.01 L166.038 1031.01 L166.038 1027.07 Q168.7 1024.32 173.283 1019.69 Q177.89 1015.03 179.07 1013.69 Q181.316 1011.17 182.195 1009.43 Q183.098 1007.67 183.098 1005.98 Q183.098 1003.23 181.153 1001.49 Q179.232 999.756 176.13 999.756 Q173.931 999.756 171.478 1000.52 Q169.047 1001.28 166.269 1002.83 L166.269 998.112 Q169.093 996.978 171.547 996.399 Q174.001 995.821 176.038 995.821 Q181.408 995.821 184.603 998.506 Q187.797 1001.19 187.797 1005.68 Q187.797 1007.81 186.987 1009.73 Q186.2 1011.63 184.093 1014.22 Q183.515 1014.89 180.413 1018.11 Q177.311 1021.31 171.663 1027.07 Z" fill="#000000" fill-rule="evenodd" fill-opacity="1" /><path clip-path="url(#clip210)" d="M197.843 996.446 L216.2 996.446 L216.2 1000.38 L202.126 1000.38 L202.126 1008.85 Q203.144 1008.51 204.163 1008.34 Q205.181 1008.16 206.2 1008.16 Q211.987 1008.16 215.366 1011.33 Q218.746 1014.5 218.746 1019.92 Q218.746 1025.5 215.274 1028.6 Q211.801 1031.68 205.482 1031.68 Q203.306 1031.68 201.038 1031.31 Q198.792 1030.94 196.385 1030.2 L196.385 1025.5 Q198.468 1026.63 200.69 1027.19 Q202.913 1027.74 205.389 1027.74 Q209.394 1027.74 211.732 1025.64 Q214.07 1023.53 214.07 1019.92 Q214.07 1016.31 211.732 1014.2 Q209.394 1012.09 205.389 1012.09 Q203.514 1012.09 201.639 1012.51 Q199.788 1012.93 197.843 1013.81 L197.843 996.446 Z" fill="#000000" fill-rule="evenodd" fill-opacity="1" /><path clip-path="url(#clip210)" d="M101.246 752.644 Q97.6354 752.644 95.8067 756.209 Q94.0012 759.75 94.0012 766.88 Q94.0012 773.986 95.8067 777.551 Q97.6354 781.093 101.246 781.093 Q104.881 781.093 106.686 777.551 Q108.515 773.986 108.515 766.88 Q108.515 759.75 106.686 756.209 Q104.881 752.644 101.246 752.644 M101.246 748.94 Q107.057 748.94 110.112 753.547 Q113.191 758.13 113.191 766.88 Q113.191 775.607 110.112 780.213 Q107.057 784.796 101.246 784.796 Q95.4363 784.796 92.3576 780.213 Q89.3021 775.607 89.3021 766.88 Q89.3021 758.13 92.3576 753.547 Q95.4363 748.94 101.246 748.94 Z" fill="#000000" fill-rule="evenodd" fill-opacity="1" /><path clip-path="url(#clip210)" d="M121.408 778.246 L126.293 778.246 L126.293 784.125 L121.408 784.125 L121.408 778.246 Z" fill="#000000" fill-rule="evenodd" fill-opacity="1" /><path clip-path="url(#clip210)" d="M146.478 752.644 Q142.867 752.644 141.038 756.209 Q139.232 759.75 139.232 766.88 Q139.232 773.986 141.038 777.551 Q142.867 781.093 146.478 781.093 Q150.112 781.093 151.918 777.551 Q153.746 773.986 153.746 766.88 Q153.746 759.75 151.918 756.209 Q150.112 752.644 146.478 752.644 M146.478 748.94 Q152.288 748.94 155.343 753.547 Q158.422 758.13 158.422 766.88 Q158.422 775.607 155.343 780.213 Q152.288 784.796 146.478 784.796 Q140.668 784.796 137.589 780.213 Q134.533 775.607 134.533 766.88 Q134.533 758.13 137.589 753.547 Q140.668 748.94 146.478 748.94 Z" fill="#000000" fill-rule="evenodd" fill-opacity="1" /><path clip-path="url(#clip210)" d="M176.64 752.644 Q173.029 752.644 171.2 756.209 Q169.394 759.75 169.394 766.88 Q169.394 773.986 171.2 777.551 Q173.029 781.093 176.64 781.093 Q180.274 781.093 182.079 777.551 Q183.908 773.986 183.908 766.88 Q183.908 759.75 182.079 756.209 Q180.274 752.644 176.64 752.644 M176.64 748.94 Q182.45 748.94 185.505 753.547 Q188.584 758.13 188.584 766.88 Q188.584 775.607 185.505 780.213 Q182.45 784.796 176.64 784.796 Q170.829 784.796 167.751 780.213 Q164.695 775.607 164.695 766.88 Q164.695 758.13 167.751 753.547 Q170.829 748.94 176.64 748.94 Z" fill="#000000" fill-rule="evenodd" fill-opacity="1" /><path clip-path="url(#clip210)" d="M206.801 752.644 Q203.19 752.644 201.362 756.209 Q199.556 759.75 199.556 766.88 Q199.556 773.986 201.362 777.551 Q203.19 781.093 206.801 781.093 Q210.436 781.093 212.241 777.551 Q214.07 773.986 214.07 766.88 Q214.07 759.75 212.241 756.209 Q210.436 752.644 206.801 752.644 M206.801 748.94 Q212.612 748.94 215.667 753.547 Q218.746 758.13 218.746 766.88 Q218.746 775.607 215.667 780.213 Q212.612 784.796 206.801 784.796 Q200.991 784.796 197.913 780.213 Q194.857 775.607 194.857 766.88 Q194.857 758.13 197.913 753.547 Q200.991 748.94 206.801 748.94 Z" fill="#000000" fill-rule="evenodd" fill-opacity="1" /><path clip-path="url(#clip210)" d="M102.242 505.763 Q98.6308 505.763 96.8021 509.328 Q94.9965 512.87 94.9965 519.999 Q94.9965 527.106 96.8021 530.671 Q98.6308 534.212 102.242 534.212 Q105.876 534.212 107.682 530.671 Q109.51 527.106 109.51 519.999 Q109.51 512.87 107.682 509.328 Q105.876 505.763 102.242 505.763 M102.242 502.06 Q108.052 502.06 111.108 506.666 Q114.186 511.249 114.186 519.999 Q114.186 528.726 111.108 533.333 Q108.052 537.916 102.242 537.916 Q96.4317 537.916 93.353 533.333 Q90.2975 528.726 90.2975 519.999 Q90.2975 511.249 93.353 506.666 Q96.4317 502.06 102.242 502.06 Z" fill="#000000" fill-rule="evenodd" fill-opacity="1" /><path clip-path="url(#clip210)" d="M122.404 531.365 L127.288 531.365 L127.288 537.245 L122.404 537.245 L122.404 531.365 Z" fill="#000000" fill-rule="evenodd" fill-opacity="1" /><path clip-path="url(#clip210)" d="M147.473 505.763 Q143.862 505.763 142.033 509.328 Q140.228 512.87 140.228 519.999 Q140.228 527.106 142.033 530.671 Q143.862 534.212 147.473 534.212 Q151.107 534.212 152.913 530.671 Q154.742 527.106 154.742 519.999 Q154.742 512.87 152.913 509.328 Q151.107 505.763 147.473 505.763 M147.473 502.06 Q153.283 502.06 156.339 506.666 Q159.417 511.249 159.417 519.999 Q159.417 528.726 156.339 533.333 Q153.283 537.916 147.473 537.916 Q141.663 537.916 138.584 533.333 Q135.529 528.726 135.529 519.999 Q135.529 511.249 138.584 506.666 Q141.663 502.06 147.473 502.06 Z" fill="#000000" fill-rule="evenodd" fill-opacity="1" /><path clip-path="url(#clip210)" d="M171.663 533.309 L187.982 533.309 L187.982 537.245 L166.038 537.245 L166.038 533.309 Q168.7 530.555 173.283 525.925 Q177.89 521.273 179.07 519.93 Q181.316 517.407 182.195 515.671 Q183.098 513.911 183.098 512.222 Q183.098 509.467 181.153 507.731 Q179.232 505.995 176.13 505.995 Q173.931 505.995 171.478 506.759 Q169.047 507.523 166.269 509.074 L166.269 504.351 Q169.093 503.217 171.547 502.638 Q174.001 502.06 176.038 502.06 Q181.408 502.06 184.603 504.745 Q187.797 507.43 187.797 511.921 Q187.797 514.05 186.987 515.972 Q186.2 517.87 184.093 520.462 Q183.515 521.134 180.413 524.351 Q177.311 527.546 171.663 533.309 Z" fill="#000000" fill-rule="evenodd" fill-opacity="1" /><path clip-path="url(#clip210)" d="M197.843 502.685 L216.2 502.685 L216.2 506.62 L202.126 506.62 L202.126 515.092 Q203.144 514.745 204.163 514.583 Q205.181 514.398 206.2 514.398 Q211.987 514.398 215.366 517.569 Q218.746 520.74 218.746 526.157 Q218.746 531.735 215.274 534.837 Q211.801 537.916 205.482 537.916 Q203.306 537.916 201.038 537.546 Q198.792 537.175 196.385 536.434 L196.385 531.735 Q198.468 532.87 200.69 533.425 Q202.913 533.981 205.389 533.981 Q209.394 533.981 211.732 531.874 Q214.07 529.768 214.07 526.157 Q214.07 522.546 211.732 520.439 Q209.394 518.333 205.389 518.333 Q203.514 518.333 201.639 518.749 Q199.788 519.166 197.843 520.046 L197.843 502.685 Z" fill="#000000" fill-rule="evenodd" fill-opacity="1" /><path clip-path="url(#clip210)" d="M101.246 258.883 Q97.6354 258.883 95.8067 262.448 Q94.0012 265.989 94.0012 273.119 Q94.0012 280.225 95.8067 283.79 Q97.6354 287.332 101.246 287.332 Q104.881 287.332 106.686 283.79 Q108.515 280.225 108.515 273.119 Q108.515 265.989 106.686 262.448 Q104.881 258.883 101.246 258.883 M101.246 255.179 Q107.057 255.179 110.112 259.786 Q113.191 264.369 113.191 273.119 Q113.191 281.846 110.112 286.452 Q107.057 291.035 101.246 291.035 Q95.4363 291.035 92.3576 286.452 Q89.3021 281.846 89.3021 273.119 Q89.3021 264.369 92.3576 259.786 Q95.4363 255.179 101.246 255.179 Z" fill="#000000" fill-rule="evenodd" fill-opacity="1" /><path clip-path="url(#clip210)" d="M121.408 284.485 L126.293 284.485 L126.293 290.364 L121.408 290.364 L121.408 284.485 Z" fill="#000000" fill-rule="evenodd" fill-opacity="1" /><path clip-path="url(#clip210)" d="M146.478 258.883 Q142.867 258.883 141.038 262.448 Q139.232 265.989 139.232 273.119 Q139.232 280.225 141.038 283.79 Q142.867 287.332 146.478 287.332 Q150.112 287.332 151.918 283.79 Q153.746 280.225 153.746 273.119 Q153.746 265.989 151.918 262.448 Q150.112 258.883 146.478 258.883 M146.478 255.179 Q152.288 255.179 155.343 259.786 Q158.422 264.369 158.422 273.119 Q158.422 281.846 155.343 286.452 Q152.288 291.035 146.478 291.035 Q140.668 291.035 137.589 286.452 Q134.533 281.846 134.533 273.119 Q134.533 264.369 137.589 259.786 Q140.668 255.179 146.478 255.179 Z" fill="#000000" fill-rule="evenodd" fill-opacity="1" /><path clip-path="url(#clip210)" d="M166.686 255.804 L185.042 255.804 L185.042 259.739 L170.968 259.739 L170.968 268.211 Q171.987 267.864 173.005 267.702 Q174.024 267.517 175.042 267.517 Q180.829 267.517 184.209 270.688 Q187.589 273.86 187.589 279.276 Q187.589 284.855 184.116 287.957 Q180.644 291.035 174.325 291.035 Q172.149 291.035 169.88 290.665 Q167.635 290.295 165.228 289.554 L165.228 284.855 Q167.311 285.989 169.533 286.545 Q171.755 287.1 174.232 287.1 Q178.237 287.1 180.575 284.994 Q182.913 282.887 182.913 279.276 Q182.913 275.665 180.575 273.559 Q178.237 271.452 174.232 271.452 Q172.357 271.452 170.482 271.869 Q168.63 272.286 166.686 273.165 L166.686 255.804 Z" fill="#000000" fill-rule="evenodd" fill-opacity="1" /><path clip-path="url(#clip210)" d="M206.801 258.883 Q203.19 258.883 201.362 262.448 Q199.556 265.989 199.556 273.119 Q199.556 280.225 201.362 283.79 Q203.19 287.332 206.801 287.332 Q210.436 287.332 212.241 283.79 Q214.07 280.225 214.07 273.119 Q214.07 265.989 212.241 262.448 Q210.436 258.883 206.801 258.883 M206.801 255.179 Q212.612 255.179 215.667 259.786 Q218.746 264.369 218.746 273.119 Q218.746 281.846 215.667 286.452 Q212.612 291.035 206.801 291.035 Q200.991 291.035 197.913 286.452 Q194.857 281.846 194.857 273.119 Q194.857 264.369 197.913 259.786 Q200.991 255.179 206.801 255.179 Z" fill="#000000" fill-rule="evenodd" fill-opacity="1" /><polyline clip-path="url(#clip212)" style="stroke:#ee7733; stroke-linecap:round; stroke-linejoin:round; stroke-width:12; stroke-opacity:1; fill:none" points="
  1365.23,766.845 1365.23,765.857 1365.2,764.869 1365.16,763.881 1365.09,762.894 1365.02,761.909 1364.92,760.925 1364.81,759.943 1364.68,758.963 1364.53,757.986 
  1364.37,757.011 1364.18,756.039 1363.99,755.071 1363.77,754.106 1363.54,753.146 1363.29,752.189 1363.02,751.237 1362.74,750.29 1362.44,749.348 1362.12,748.412 
  1361.79,747.481 1361.44,746.556 1361.07,745.638 1360.69,744.726 1360.3,743.821 1359.88,742.923 1359.45,742.032 1359.01,741.149 1358.55,740.274 1358.07,739.408 
  1357.58,738.55 1357.08,737.7 1356.56,736.86 1356.02,736.029 1355.47,735.207 1354.91,734.396 1354.33,733.594 1353.74,732.803 1353.13,732.022 1352.51,731.252 
  1351.88,730.493 1351.23,729.745 1350.57,729.009 1349.9,728.285 1349.21,727.572 1348.52,726.872 1347.81,726.184 1347.08,725.509 1346.35,724.846 1345.6,724.197 
  1344.85,723.56 1344.08,722.937 1343.3,722.328 1342.51,721.733 1341.71,721.151 1340.9,720.584 1340.09,720.031 1339.26,719.492 1338.42,718.969 1337.57,718.46 
  1336.71,717.966 1335.85,717.487 1334.98,717.023 1334.1,716.575 1333.21,716.143 1332.31,715.726 1331.41,715.325 1330.5,714.94 1329.58,714.571 1328.66,714.219 
  1327.73,713.882 1326.79,713.562 1325.85,713.259 1324.9,712.972 1323.95,712.702 1323,712.449 1322.04,712.212 1321.07,711.993 1320.11,711.79 1319.14,711.605 
  1318.16,711.436 1317.18,711.285 1316.2,711.151 1315.22,711.035 1314.24,710.935 1313.25,710.853 1312.27,710.788 1311.28,710.741 1310.29,710.711 1309.3,710.698 
  1308.32,710.703 1307.33,710.726 1306.34,710.765 1305.35,710.822 1304.37,710.897 1303.38,710.988 1302.4,711.098 1301.42,711.224 1300.44,711.368 1299.47,711.528 
  1298.49,711.706 1297.53,711.901 1296.56,712.114 1295.6,712.343 1294.64,712.588 1293.69,712.851 1292.74,713.131 1291.8,713.427 1290.86,713.739 1289.93,714.069 
  1289,714.414 1288.08,714.776 1287.17,715.154 1286.26,715.547 1285.36,715.957 1284.47,716.383 1283.58,716.824 1282.71,717.281 1281.84,717.753 1280.98,718.24 
  1280.13,718.742 1279.29,719.26 1278.45,719.792 1277.63,720.338 1276.82,720.899 1276.01,721.474 1275.22,722.064 1274.43,722.667 1273.66,723.284 1272.9,723.914 
  1272.15,724.558 1271.41,725.215 1270.68,725.885 1269.97,726.567 1269.27,727.262 1268.58,727.969 1267.9,728.689 1267.23,729.42 1266.58,730.162 1265.94,730.916 
  1265.31,731.681 1264.7,732.457 1264.1,733.244 1263.52,734.041 1262.95,734.848 1262.39,735.666 1261.85,736.492 1261.32,737.329 1260.81,738.174 1260.31,739.028 
  1259.83,739.891 1259.36,740.762 1258.91,741.641 1258.48,742.529 1258.06,743.423 1257.65,744.325 1257.26,745.234 1256.89,746.15 1256.54,747.072 1256.2,748 
  1255.87,748.934 1255.57,749.874 1255.27,750.819 1255,751.769 1254.74,752.724 1254.5,753.683 1254.28,754.646 1254.07,755.613 1253.89,756.583 1253.71,757.557 
  1253.56,758.533 1253.42,759.512 1253.3,760.493 1253.2,761.476 1253.11,762.461 1253.04,763.447 1252.99,764.434 1252.96,765.422 1252.94,766.411 1252.94,767.399 
  1252.96,768.388 1253,769.376 1253.05,770.363 1253.12,771.349 1253.21,772.333 1253.31,773.316 1253.43,774.297 1253.57,775.275 1253.73,776.251 1253.91,777.224 
  1254.1,778.194 1254.31,779.16 1254.53,780.123 1254.77,781.081 1255.03,782.035 1255.31,782.984 1255.6,783.928 1255.91,784.867 1256.24,785.801 1256.58,786.728 
  1256.94,787.65 1257.31,788.565 1257.7,789.473 1258.11,790.374 1258.53,791.268 1258.97,792.154 1259.42,793.033 1259.89,793.903 1260.37,794.765 1260.87,795.618 
  1261.39,796.463 1261.92,797.298 1262.46,798.124 1263.02,798.94 1263.59,799.746 1264.17,800.542 1264.78,801.328 1265.39,802.103 1266.02,802.867 1266.66,803.62 
  1267.31,804.361 1267.98,805.091 1268.66,805.808 1269.35,806.514 1270.05,807.208 1270.77,807.889 1271.5,808.557 1272.24,809.212 1272.99,809.854 1273.75,810.483 
  1274.53,811.098 1275.31,811.699 1276.11,812.287 1276.91,812.86 1277.73,813.42 1278.55,813.964 1279.39,814.495 1280.23,815.01 1281.08,815.511 1281.94,815.996 
  1282.81,816.466 1283.69,816.921 1284.58,817.36 1285.47,817.784 1286.37,818.192 1287.28,818.584 1288.19,818.96 1289.11,819.32 1290.04,819.663 1290.97,819.99 
  1291.91,820.301 1292.85,820.596 1293.8,820.873 1294.76,821.134 1295.71,821.378 1296.68,821.606 1297.64,821.816 1298.61,822.009 1299.59,822.185 1300.56,822.344 
  1301.54,822.486 1302.52,822.611 1303.5,822.718 1304.49,822.808 1305.47,822.88 1306.46,822.935 1307.45,822.973 1308.43,822.993 1309.42,822.996 1310.41,822.982 
  1311.4,822.949 1312.39,822.9 1313.37,822.833 1314.36,822.749 1315.34,822.647 1316.32,822.528 1317.3,822.392 1318.28,822.238 1319.25,822.068 1320.22,821.88 
  1321.19,821.675 1322.15,821.453 1323.11,821.214 1324.07,820.959 1325.02,820.686 1325.96,820.397 1326.91,820.091 1327.84,819.769 1328.77,819.431 1329.69,819.076 
  1330.61,818.705 1331.52,818.318 1332.42,817.915 1333.32,817.497 1334.2,817.062 1335.08,816.612 1335.96,816.147 1336.82,815.666 1337.68,815.171 1338.52,814.66 
  1339.36,814.135 1340.19,813.595 1341.01,813.04 1341.82,812.471 1342.61,811.888 1343.4,811.291 1344.18,810.68 1344.94,810.056 1345.7,809.418 1346.44,808.767 
  1347.18,808.103 1347.9,807.426 1348.6,806.737 1349.3,806.035 1349.98,805.321 1350.65,804.595 1351.31,803.858 1351.96,803.108 1352.59,802.348 1353.21,801.576 
  1353.81,800.794 1354.4,800.001 1354.98,799.198 1355.54,798.385 1356.09,797.562 1356.62,796.729 1357.14,795.888 1357.65,795.037 1358.13,794.177 1358.61,793.309 
  1359.07,792.433 1359.51,791.549 1359.94,790.658 1360.35,789.759 1360.74,788.853 1361.12,787.94 1361.49,787.021 1361.83,786.095 1362.16,785.163 1362.48,784.226 
  1362.78,783.283 1363.06,782.336 1363.32,781.383 1363.57,780.426 1363.8,779.465 1364.02,778.5 1364.21,777.532 1364.39,776.56 1364.56,775.585 1364.7,774.607 
  1364.83,773.627 1364.94,772.645 1365.04,771.661 1365.11,770.676 1365.17,769.689 1365.21,768.702 1365.24,767.714 1365.24,766.726 1365.23,765.737 1365.2,764.749 
  1365.16,763.762 1365.1,762.775 1365.01,761.79 1364.92,760.806 1364.8,759.824 1364.67,758.844 1364.52,757.867 1364.35,756.892 1364.17,755.92 1363.97,754.952 
  1363.75,753.987 1363.51,753.027 1363.26,752.07 1362.99,751.118 1362.71,750.171 1362.4,749.229 1362.08,748.293 1361.75,747.362 1361.4,746.438 1361.03,745.52 
  1360.65,744.609 1360.25,743.704 1359.83,742.807 1359.4,741.917 1358.95,741.035 1358.49,740.161 1358.02,739.295 1357.52,738.438 1357.02,737.59 1356.49,736.75 
  1355.96,735.92 1355.4,735.1 1354.84,734.289 1354.26,733.488 1353.66,732.698 1353.06,731.919 1352.44,731.15 1351.8,730.392 1351.15,729.646 1350.49,728.911 
  1349.82,728.188 1349.13,727.477 1348.43,726.779 1347.72,726.092 1347,725.419 1346.26,724.758 1345.51,724.11 1344.76,723.475 1343.99,722.854 1343.21,722.247 
  1342.42,721.653 1341.62,721.074 1340.81,720.508 1339.98,719.957 1339.15,719.421 1338.31,718.899 1337.46,718.392 1336.61,717.9 1335.74,717.423 1334.87,716.961 
  1333.98,716.515 1333.09,716.084 1332.2,715.67 1331.29,715.271 1330.38,714.888 1329.46,714.521 1328.54,714.17 1327.61,713.836 1326.67,713.517 1325.73,713.216 
  1324.78,712.93 1323.83,712.662 1322.87,712.41 1321.91,712.175 1320.95,711.957 1319.98,711.756 1319.01,711.573 1318.04,711.406 1317.06,711.256 1316.08,711.124 
  1315.1,711.009 1314.11,710.912 1313.13,710.831 1312.14,710.769 1311.16,710.723 1310.17,710.695 1309.18,710.685 1308.19,710.692 1307.2,710.716 1306.22,710.758 
  1305.23,710.817 1304.24,710.894 1303.26,710.988 1302.28,711.1 1301.3,711.228 1300.32,711.375 1299.34,711.538 1298.37,711.718 1297.4,711.916 1296.44,712.131 
  1295.48,712.363 1294.52,712.611 1293.57,712.877 1292.62,713.159 1291.67,713.458 1290.74,713.773 1289.8,714.105 1288.88,714.453 1287.96,714.818 1287.05,715.198 
  1286.14,715.594 1285.24,716.007 1284.35,716.435 1283.46,716.878 1282.59,717.337 1281.72,717.811 1280.86,718.3 1280.01,718.804 1279.17,719.324 1278.34,719.858 
  1277.52,720.406 1276.7,720.969 1275.9,721.546 1275.11,722.137 1274.32,722.741 1273.55,723.36 1272.79,723.992 1272.04,724.637 1271.31,725.295 1270.58,725.967 
  1269.87,726.65 1269.17,727.347 1268.48,728.055 1267.8,728.776 1267.14,729.508 1266.49,730.253 1265.85,731.008 1265.22,731.775 1264.61,732.552 1264.02,733.34 
  1263.43,734.139 1262.87,734.948 1262.31,735.767 1261.77,736.595 1261.25,737.433 1260.74,738.28 1260.24,739.136 1259.76,740 1259.3,740.873 1258.85,741.754 
  1258.41,742.643 1258,743.54 1257.59,744.443 1257.21,745.354 1256.84,746.271 1256.48,747.194 1256.14,748.124 1255.82,749.059 1255.52,750 1255.23,750.945 
  1254.96,751.896 1254.7,752.851 1254.47,753.811 1254.24,754.775 1254.04,755.742 1253.85,756.713 1253.68,757.687 1253.53,758.664 1253.39,759.643 1253.27,760.625 
  1253.17,761.609 1253.09,762.594 1253.02,763.58 1252.97,764.567 1252.94,765.555 1252.92,766.544 1252.93,767.532 1252.95,768.52 1252.98,769.508 1253.04,770.495 
  1253.11,771.48 1253.2,772.465 1253.31,773.447 1253.43,774.428 1253.58,775.406 1253.73,776.381 1253.91,777.354 1254.1,778.323 1254.32,779.289 1254.54,780.251 
  1254.79,781.209 1255.05,782.162 1255.33,783.111 1255.62,784.055 1255.93,784.994 1256.26,785.927 1256.61,786.854 1256.97,787.775 1257.35,788.69 1257.74,789.597 
  1258.15,790.498 1258.57,791.392 1259.01,792.278 1259.47,793.156 1259.94,794.026 1260.43,794.888 1260.93,795.74 1261.45,796.584 1261.98,797.419 1262.53,798.244 
  1263.09,799.059 1263.66,799.864 1264.25,800.659 1264.85,801.443 1265.47,802.217 1266.1,802.979 1266.74,803.731 1267.4,804.471 1268.06,805.199 1268.75,805.916 
  1269.44,806.621 1270.15,807.313 1270.86,807.992 1271.59,808.659 1272.34,809.313 1273.09,809.954 1273.85,810.581 1274.63,811.195 1275.41,811.795 1276.21,812.381 
  1277.02,812.953 1277.83,813.51 1278.66,814.053 1279.49,814.582 1280.34,815.095 1281.19,815.594 1282.05,816.077 1282.92,816.545 1283.8,816.998 1284.69,817.435 
  1285.58,817.856 1286.49,818.262 1287.4,818.652 1288.31,819.025 1289.23,819.383 1290.16,819.724 1291.1,820.048 1292.04,820.357 1292.98,820.648 1293.93,820.923 
  1294.89,821.182 1295.84,821.423 1296.81,821.647 1297.78,821.855 1298.75,822.045 1299.72,822.219 1300.7,822.375 1301.68,822.514 1302.66,822.636 1303.64,822.74 
  1304.63,822.828 1305.61,822.898 1306.6,822.951 1307.59,822.986 1308.58,823.004 1309.57,823.005 1310.55,822.989 1311.54,822.955 1312.53,822.903 1313.52,822.835 
  1314.5,822.749 1315.48,822.646 1316.47,822.525 1317.45,822.388 1318.42,822.233 1319.39,822.06 1320.37,821.871 1321.33,821.665 1322.29,821.441 1323.25,821.201 
  1324.21,820.944 1325.16,820.67 1326.1,820.379 1327.04,820.071 1327.98,819.747 1328.9,819.407 1329.83,819.05 1330.74,818.677 1331.65,818.287 1332.55,817.882 
  1333.45,817.461 1334.33,817.024 1335.21,816.571 1336.08,816.103 1336.95,815.619 1337.8,815.121 1338.65,814.607 1339.48,814.079 1340.31,813.535 1341.13,812.978 
  1341.93,812.405 1342.73,811.819 1343.52,811.219 1344.3,810.605 1345.06,809.978 1345.81,809.337 1346.56,808.683 1347.29,808.016 1348.01,807.336 1348.72,806.644 
  1349.41,805.94 1350.09,805.224 1350.76,804.496 1351.42,803.757 1352.06,803.006 1352.69,802.244 1353.31,801.471 1353.91,800.687 1354.5,799.893 1355.08,799.088 
  1355.64,798.274 1356.18,797.45 1356.72,796.616 1357.23,795.773 1357.74,794.922 1358.22,794.061 1358.69,793.192 1359.15,792.316 1359.59,791.431 1360.02,790.538 
  1360.43,789.639 1360.82,788.732 1361.2,787.818 1361.56,786.898 1361.9,785.971 1362.23,785.039 1362.54,784.101 1362.84,783.157 1363.12,782.209 1363.38,781.256 
  1363.63,780.298 1363.85,779.335 1364.06,778.369 1364.26,777.4 1364.44,776.427 1364.6,775.451 1364.74,774.472 1364.86,773.49 1364.97,772.507 1365.06,771.522 
  1365.13,770.535 1365.19,769.547 1365.23,768.558 1365.25,767.569 1365.25,766.579 1365.24,765.59 1365.21,764.601 1365.16,763.613 1365.09,762.625 1365.01,761.639 
  1364.91,760.655 1364.79,759.673 1364.66,758.694 1364.51,757.716 1364.34,756.742 1364.15,755.771 1363.95,754.803 1363.73,753.838 1363.49,752.878 1363.24,751.922 
  1362.97,750.971 1362.68,750.025 1362.38,749.083 1362.06,748.148 1361.72,747.218 1361.37,746.294 1361,745.377 1360.61,744.467 1360.21,743.563 1359.79,742.667 
  1359.36,741.778 1358.91,740.897 1358.45,740.024 1357.97,739.159 1357.47,738.303 1356.97,737.456 1356.44,736.618 1355.9,735.789 1355.35,734.97 1354.78,734.161 
  1354.2,733.362 1353.6,732.573 1352.99,731.795 1352.37,731.028 1351.73,730.272 1351.08,729.527 1350.41,728.794 1349.74,728.073 1349.05,727.363 1348.35,726.666 
  1347.63,725.981 1346.91,725.309 1346.17,724.649 1345.42,724.003 1344.66,723.37 1343.89,722.75 1343.1,722.144 1342.31,721.552 1341.51,720.974 1340.69,720.41 
  1339.87,719.861 1339.04,719.326 1338.2,718.806 1337.34,718.301 1336.49,717.811 1335.62,717.336 1334.74,716.876 1333.86,716.432 1332.97,716.004 1332.07,715.591 
  1331.16,715.193 1330.25,714.812 1329.33,714.447 1328.41,714.098 1327.47,713.766 1326.54,713.45 1325.59,713.15 1324.65,712.867 1323.69,712.601 1322.74,712.352 
  1321.78,712.119 1320.81,711.904 1319.84,711.705 1318.87,711.524 1317.9,711.36 1316.92,711.213 1315.94,711.084 1314.96,710.972 1313.97,710.877 1312.99,710.8 
  1312,710.74 1311.01,710.697 1310.02,710.672 1309.03,710.665 1308.05,710.674 1307.06,710.702 1306.07,710.747 1305.08,710.809 1304.1,710.889 1303.11,710.986 
  1302.13,711.1 1301.15,711.232 1300.17,711.381 1299.19,711.547 1298.22,711.73 1297.25,711.931 1296.29,712.148 1295.32,712.382 1294.37,712.634 1293.41,712.902 
  1292.47,713.187 1291.52,713.488 1290.59,713.806 1289.66,714.14 1288.73,714.49 1287.81,714.857 1286.9,715.24 1285.99,715.638 1285.1,716.052 1284.21,716.482 
  1283.32,716.928 1282.45,717.389 1281.58,717.865 1280.72,718.357 1279.87,718.863 1279.03,719.384 1278.2,719.92 1277.38,720.471 1276.57,721.036 1275.77,721.615 
  1274.97,722.208 1274.19,722.814 1273.42,723.435 1272.66,724.069 1271.92,724.716 1271.18,725.376 1270.46,726.05 1269.75,726.735 1269.05,727.434 1268.36,728.144 
  1267.68,728.867 1267.02,729.602 1266.37,730.348 1265.74,731.105 1265.11,731.874 1264.51,732.653 1263.91,733.444 1263.33,734.244 1262.76,735.055 1262.21,735.876 
  1261.67,736.706 1261.15,737.546 1260.64,738.395 1260.15,739.253 1259.67,740.12 1259.21,740.995 1258.76,741.878 1258.33,742.768 1257.91,743.666 1257.51,744.572 
  1257.13,745.484 1256.76,746.403 1256.41,747.328 1256.07,748.259 1255.76,749.195 1255.45,750.137 1255.17,751.084 1254.9,752.036 1254.65,752.992 1254.41,753.953 
  1254.19,754.918 1253.99,755.886 1253.8,756.858 1253.64,757.833 1253.49,758.81 1253.35,759.79 1253.23,760.773 1253.14,761.757 1253.05,762.742 1252.99,763.729 
  1252.94,764.717 1252.91,765.705 1252.9,766.694 1252.91,767.683 1252.93,768.671 1252.97,769.659 1253.03,770.646 1253.1,771.632 1253.19,772.616 1253.3,773.599 
  1253.43,774.579 1253.57,775.557 1253.74,776.533 1253.92,777.505 1254.11,778.474 1254.32,779.44 1254.56,780.402 1254.8,781.359 1255.07,782.313 1255.35,783.261 
  1255.65,784.204 1255.96,785.142 1256.29,786.075 1256.64,787.001 1257,787.922 1257.38,788.836 1257.78,789.743 1258.19,790.643 1258.62,791.536 1259.06,792.421 
  1259.52,793.299 1259.99,794.168 1260.48,795.028 1260.99,795.88 1261.51,796.723 1262.04,797.557 1262.59,798.381 1263.15,799.196 1263.73,800 1264.32,800.793 
  1264.93,801.576 1265.55,802.349 1266.18,803.11 1266.82,803.86 1267.48,804.598 1268.15,805.325 1268.84,806.04 1269.53,806.743 1270.24,807.434 1270.96,808.112 
  1271.69,808.777 1272.44,809.43 1273.19,810.069 1273.96,810.694 1274.73,811.306 1275.52,811.905 1276.32,812.489 1277.13,813.059 1277.95,813.615 1278.77,814.156 
  1279.61,814.682 1280.46,815.194 1281.31,815.691 1282.18,816.172 1283.05,816.638 1283.93,817.089 1284.82,817.524 1285.71,817.943 1286.61,818.346 1287.52,818.734 
  1288.44,819.105 1289.36,819.46 1290.29,819.799 1291.23,820.121 1292.17,820.427 1293.12,820.716 1294.07,820.988 1295.02,821.244 1295.98,821.483 1296.95,821.705 
  1297.92,821.91 1298.89,822.097 1299.86,822.268 1300.84,822.422 1301.82,822.558 1302.8,822.677 1303.79,822.779 1304.78,822.863 1305.76,822.93 1306.75,822.98 
  1307.74,823.012 1308.73,823.027 1309.72,823.025 1310.71,823.005 1311.7,822.968 1312.68,822.913 1313.67,822.841 1314.65,822.752 1315.64,822.645 1316.62,822.521 
  1317.6,822.38 1318.57,822.222 1319.55,822.046 1320.52,821.853 1321.48,821.644 1322.45,821.417 1323.41,821.173 1324.36,820.913 1325.31,820.635 1326.25,820.341 
  
  "/>
<polyline clip-path="url(#clip212)" style="stroke:#0077bb; stroke-linecap:round; stroke-linejoin:round; stroke-width:2; stroke-opacity:1; fill:none" points="
  1365.23,766.845 1364.08,755.543 1360.68,744.703 1355.17,734.77 1347.77,726.15 1338.79,719.196 1328.59,714.193 1317.59,711.346 1306.24,710.77 1295.01,712.491 
  1284.36,716.436 1274.72,722.446 1266.48,730.273 1260,739.597 1255.51,750.037 1253.23,761.165 1253.23,772.525 1255.51,783.654 1260,794.093 1266.48,803.418 
  1274.72,811.245 1284.36,817.254 1295.01,821.2 1306.24,822.92 1317.59,822.345 1328.59,819.497 1338.79,814.494 1347.77,807.54 1355.17,798.92 1360.68,788.987 
  1364.08,778.147 1365.23,766.845 
  "/>
<path clip-path="url(#clip210)" d="
M1837.95 250.738 L2282.82 250.738 L2282.82 95.2176 L1837.95 95.2176  Z
  " fill="#ffffff" fill-rule="evenodd" fill-opacity="0.9"/>
<polyline clip-path="url(#clip210)" style="stroke:#222255; stroke-linecap:round; stroke-linejoin:round; stroke-width:4; stroke-opacity:0.1; fill:none" points="
  1837.95,250.738 2282.82,250.738 2282.82,95.2176 1837.95,95.2176 1837.95,250.738 
  "/>
<polyline clip-path="url(#clip210)" style="stroke:#ee7733; stroke-linecap:round; stroke-linejoin:round; stroke-width:4; stroke-opacity:1; fill:none" points="
  1861.26,147.058 2001.13,147.058 
  "/>
<path clip-path="url(#clip210)" d="M2024.44 129.778 L2046.29 129.778 L2046.29 133.713 L2029.12 133.713 L2029.12 143.944 L2045.58 143.944 L2045.58 147.879 L2029.12 147.879 L2029.12 160.402 L2046.71 160.402 L2046.71 164.338 L2024.44 164.338 L2024.44 129.778 Z" fill="#000000" fill-rule="evenodd" fill-opacity="1" /><path clip-path="url(#clip210)" d="M2054.21 128.319 L2058.47 128.319 L2058.47 164.338 L2054.21 164.338 L2054.21 128.319 Z" fill="#000000" fill-rule="evenodd" fill-opacity="1" /><path clip-path="url(#clip210)" d="M2089.56 150.31 L2089.56 152.393 L2069.97 152.393 Q2070.25 156.791 2072.61 159.106 Q2075 161.398 2079.23 161.398 Q2081.69 161.398 2083.98 160.796 Q2086.29 160.194 2088.56 158.99 L2088.56 163.018 Q2086.27 163.99 2083.86 164.5 Q2081.46 165.009 2078.98 165.009 Q2072.78 165.009 2069.14 161.398 Q2065.53 157.787 2065.53 151.629 Q2065.53 145.264 2068.96 141.537 Q2072.41 137.787 2078.24 137.787 Q2083.47 137.787 2086.5 141.166 Q2089.56 144.523 2089.56 150.31 M2085.3 149.06 Q2085.25 145.565 2083.33 143.481 Q2081.43 141.398 2078.29 141.398 Q2074.72 141.398 2072.57 143.412 Q2070.44 145.426 2070.11 149.083 L2085.3 149.06 Z" fill="#000000" fill-rule="evenodd" fill-opacity="1" /><path clip-path="url(#clip210)" d="M2096.39 128.319 L2100.67 128.319 L2100.67 149.592 L2113.38 138.412 L2118.82 138.412 L2105.07 150.541 L2119.4 164.338 L2113.84 164.338 L2100.67 151.676 L2100.67 164.338 L2096.39 164.338 L2096.39 128.319 Z" fill="#000000" fill-rule="evenodd" fill-opacity="1" /><path clip-path="url(#clip210)" d="M2128.22 131.051 L2128.22 138.412 L2136.99 138.412 L2136.99 141.722 L2128.22 141.722 L2128.22 155.796 Q2128.22 158.967 2129.07 159.87 Q2129.95 160.773 2132.61 160.773 L2136.99 160.773 L2136.99 164.338 L2132.61 164.338 Q2127.68 164.338 2125.81 162.509 Q2123.93 160.657 2123.93 155.796 L2123.93 141.722 L2120.81 141.722 L2120.81 138.412 L2123.93 138.412 L2123.93 131.051 L2128.22 131.051 Z" fill="#000000" fill-rule="evenodd" fill-opacity="1" /><path clip-path="url(#clip210)" d="M2157.61 142.393 Q2156.9 141.977 2156.04 141.791 Q2155.21 141.583 2154.19 141.583 Q2150.58 141.583 2148.63 143.944 Q2146.71 146.282 2146.71 150.68 L2146.71 164.338 L2142.43 164.338 L2142.43 138.412 L2146.71 138.412 L2146.71 142.44 Q2148.05 140.078 2150.21 138.944 Q2152.36 137.787 2155.44 137.787 Q2155.88 137.787 2156.41 137.856 Q2156.94 137.903 2157.59 138.018 L2157.61 142.393 Z" fill="#000000" fill-rule="evenodd" fill-opacity="1" /><path clip-path="url(#clip210)" d="M2171.09 141.398 Q2167.66 141.398 2165.67 144.083 Q2163.68 146.745 2163.68 151.398 Q2163.68 156.051 2165.65 158.736 Q2167.64 161.398 2171.09 161.398 Q2174.49 161.398 2176.48 158.713 Q2178.47 156.027 2178.47 151.398 Q2178.47 146.791 2176.48 144.106 Q2174.49 141.398 2171.09 141.398 M2171.09 137.787 Q2176.64 137.787 2179.81 141.398 Q2182.98 145.009 2182.98 151.398 Q2182.98 157.764 2179.81 161.398 Q2176.64 165.009 2171.09 165.009 Q2165.51 165.009 2162.34 161.398 Q2159.19 157.764 2159.19 151.398 Q2159.19 145.009 2162.34 141.398 Q2165.51 137.787 2171.09 137.787 Z" fill="#000000" fill-rule="evenodd" fill-opacity="1" /><path clip-path="url(#clip210)" d="M2211.59 148.689 L2211.59 164.338 L2207.34 164.338 L2207.34 148.828 Q2207.34 145.148 2205.9 143.319 Q2204.47 141.49 2201.59 141.49 Q2198.15 141.49 2196.15 143.69 Q2194.16 145.889 2194.16 149.685 L2194.16 164.338 L2189.88 164.338 L2189.88 138.412 L2194.16 138.412 L2194.16 142.44 Q2195.69 140.102 2197.75 138.944 Q2199.84 137.787 2202.54 137.787 Q2207.01 137.787 2209.3 140.565 Q2211.59 143.319 2211.59 148.689 Z" fill="#000000" fill-rule="evenodd" fill-opacity="1" /><polyline clip-path="url(#clip210)" style="stroke:#0077bb; stroke-linecap:round; stroke-linejoin:round; stroke-width:4; stroke-opacity:1; fill:none" points="
  1861.26,198.898 2001.13,198.898 
  "/>
<path clip-path="url(#clip210)" d="M2037.85 203.145 Q2032.68 203.145 2030.69 204.326 Q2028.7 205.506 2028.7 208.354 Q2028.7 210.622 2030.18 211.965 Q2031.69 213.284 2034.26 213.284 Q2037.8 213.284 2039.93 210.784 Q2042.08 208.261 2042.08 204.094 L2042.08 203.145 L2037.85 203.145 M2046.34 201.386 L2046.34 216.178 L2042.08 216.178 L2042.08 212.242 Q2040.62 214.603 2038.45 215.738 Q2036.27 216.849 2033.12 216.849 Q2029.14 216.849 2026.78 214.627 Q2024.44 212.381 2024.44 208.631 Q2024.44 204.256 2027.36 202.034 Q2030.3 199.812 2036.11 199.812 L2042.08 199.812 L2042.08 199.395 Q2042.08 196.455 2040.14 194.858 Q2038.22 193.238 2034.72 193.238 Q2032.5 193.238 2030.39 193.77 Q2028.29 194.303 2026.34 195.367 L2026.34 191.432 Q2028.68 190.53 2030.88 190.09 Q2033.08 189.627 2035.16 189.627 Q2040.79 189.627 2043.56 192.543 Q2046.34 195.46 2046.34 201.386 Z" fill="#000000" fill-rule="evenodd" fill-opacity="1" /><path clip-path="url(#clip210)" d="M2076.66 200.529 L2076.66 216.178 L2072.41 216.178 L2072.41 200.668 Q2072.41 196.988 2070.97 195.159 Q2069.54 193.33 2066.66 193.33 Q2063.22 193.33 2061.23 195.53 Q2059.23 197.729 2059.23 201.525 L2059.23 216.178 L2054.95 216.178 L2054.95 190.252 L2059.23 190.252 L2059.23 194.28 Q2060.76 191.942 2062.82 190.784 Q2064.91 189.627 2067.61 189.627 Q2072.08 189.627 2074.37 192.405 Q2076.66 195.159 2076.66 200.529 Z" fill="#000000" fill-rule="evenodd" fill-opacity="1" /><path clip-path="url(#clip210)" d="M2096.94 203.145 Q2091.78 203.145 2089.79 204.326 Q2087.8 205.506 2087.8 208.354 Q2087.8 210.622 2089.28 211.965 Q2090.79 213.284 2093.35 213.284 Q2096.9 213.284 2099.03 210.784 Q2101.18 208.261 2101.18 204.094 L2101.18 203.145 L2096.94 203.145 M2105.44 201.386 L2105.44 216.178 L2101.18 216.178 L2101.18 212.242 Q2099.72 214.603 2097.54 215.738 Q2095.37 216.849 2092.22 216.849 Q2088.24 216.849 2085.88 214.627 Q2083.54 212.381 2083.54 208.631 Q2083.54 204.256 2086.46 202.034 Q2089.4 199.812 2095.21 199.812 L2101.18 199.812 L2101.18 199.395 Q2101.18 196.455 2099.23 194.858 Q2097.31 193.238 2093.82 193.238 Q2091.6 193.238 2089.49 193.77 Q2087.38 194.303 2085.44 195.367 L2085.44 191.432 Q2087.78 190.53 2089.97 190.09 Q2092.17 189.627 2094.26 189.627 Q2099.88 189.627 2102.66 192.543 Q2105.44 195.46 2105.44 201.386 Z" fill="#000000" fill-rule="evenodd" fill-opacity="1" /><path clip-path="url(#clip210)" d="M2114.21 180.159 L2118.47 180.159 L2118.47 216.178 L2114.21 216.178 L2114.21 180.159 Z" fill="#000000" fill-rule="evenodd" fill-opacity="1" /><path clip-path="url(#clip210)" d="M2138.17 218.585 Q2136.36 223.215 2134.65 224.627 Q2132.94 226.039 2130.07 226.039 L2126.66 226.039 L2126.66 222.474 L2129.16 222.474 Q2130.92 222.474 2131.9 221.64 Q2132.87 220.807 2134.05 217.705 L2134.81 215.761 L2124.33 190.252 L2128.84 190.252 L2136.94 210.529 L2145.04 190.252 L2149.56 190.252 L2138.17 218.585 Z" fill="#000000" fill-rule="evenodd" fill-opacity="1" /><path clip-path="url(#clip210)" d="M2159.65 182.891 L2159.65 190.252 L2168.42 190.252 L2168.42 193.562 L2159.65 193.562 L2159.65 207.636 Q2159.65 210.807 2160.51 211.71 Q2161.39 212.613 2164.05 212.613 L2168.42 212.613 L2168.42 216.178 L2164.05 216.178 Q2159.12 216.178 2157.24 214.349 Q2155.37 212.497 2155.37 207.636 L2155.37 193.562 L2152.24 193.562 L2152.24 190.252 L2155.37 190.252 L2155.37 182.891 L2159.65 182.891 Z" fill="#000000" fill-rule="evenodd" fill-opacity="1" /><path clip-path="url(#clip210)" d="M2174.03 190.252 L2178.28 190.252 L2178.28 216.178 L2174.03 216.178 L2174.03 190.252 M2174.03 180.159 L2178.28 180.159 L2178.28 185.553 L2174.03 185.553 L2174.03 180.159 Z" fill="#000000" fill-rule="evenodd" fill-opacity="1" /><path clip-path="url(#clip210)" d="M2203.72 191.016 L2203.72 195.043 Q2201.92 194.117 2199.97 193.655 Q2198.03 193.192 2195.95 193.192 Q2192.78 193.192 2191.18 194.164 Q2189.6 195.136 2189.6 197.08 Q2189.6 198.562 2190.74 199.418 Q2191.87 200.252 2195.3 201.016 L2196.76 201.34 Q2201.29 202.312 2203.19 204.094 Q2205.11 205.854 2205.11 209.025 Q2205.11 212.636 2202.24 214.742 Q2199.4 216.849 2194.4 216.849 Q2192.31 216.849 2190.04 216.432 Q2187.8 216.039 2185.3 215.228 L2185.3 210.83 Q2187.66 212.057 2189.95 212.682 Q2192.24 213.284 2194.49 213.284 Q2197.5 213.284 2199.12 212.266 Q2200.74 211.224 2200.74 209.349 Q2200.74 207.613 2199.56 206.687 Q2198.4 205.761 2194.44 204.904 L2192.96 204.557 Q2189 203.724 2187.24 202.011 Q2185.48 200.275 2185.48 197.266 Q2185.48 193.608 2188.08 191.618 Q2190.67 189.627 2195.44 189.627 Q2197.8 189.627 2199.88 189.974 Q2201.97 190.321 2203.72 191.016 Z" fill="#000000" fill-rule="evenodd" fill-opacity="1" /><path clip-path="url(#clip210)" d="M2230.55 191.247 L2230.55 195.229 Q2228.75 194.233 2226.92 193.747 Q2225.11 193.238 2223.26 193.238 Q2219.12 193.238 2216.83 195.877 Q2214.53 198.492 2214.53 203.238 Q2214.53 207.983 2216.83 210.622 Q2219.12 213.238 2223.26 213.238 Q2225.11 213.238 2226.92 212.752 Q2228.75 212.242 2230.55 211.247 L2230.55 215.182 Q2228.77 216.016 2226.85 216.432 Q2224.95 216.849 2222.8 216.849 Q2216.94 216.849 2213.49 213.168 Q2210.04 209.488 2210.04 203.238 Q2210.04 196.895 2213.52 193.261 Q2217.01 189.627 2223.08 189.627 Q2225.04 189.627 2226.92 190.043 Q2228.79 190.437 2230.55 191.247 Z" fill="#000000" fill-rule="evenodd" fill-opacity="1" /><path clip-path="url(#clip210)" d="M2259.51 200.529 L2259.51 216.178 L2255.25 216.178 L2255.25 200.668 Q2255.25 196.988 2253.82 195.159 Q2252.38 193.33 2249.51 193.33 Q2246.06 193.33 2244.07 195.53 Q2242.08 197.729 2242.08 201.525 L2242.08 216.178 L2237.8 216.178 L2237.8 180.159 L2242.08 180.159 L2242.08 194.28 Q2243.61 191.942 2245.67 190.784 Q2247.75 189.627 2250.46 189.627 Q2254.93 189.627 2257.22 192.405 Q2259.51 195.159 2259.51 200.529 Z" fill="#000000" fill-rule="evenodd" fill-opacity="1" /></svg>
