<?xml version="1.0" encoding="utf-8"?>
<svg xmlns="http://www.w3.org/2000/svg" xmlns:xlink="http://www.w3.org/1999/xlink" width="600" height="400" viewBox="0 0 2400 1600">
<defs>
  <clipPath id="clip250">
    <rect x="0" y="0" width="2400" height="1600"/>
  </clipPath>
</defs>
<path clip-path="url(#clip250)" d="
M0 1600 L2400 1600 L2400 0 L0 0  Z
  " fill="#ffffff" fill-rule="evenodd" fill-opacity="1"/>
<defs>
  <clipPath id="clip251">
    <rect x="480" y="0" width="1681" height="1600"/>
  </clipPath>
</defs>
<path clip-path="url(#clip250)" d="
M475.927 1486.45 L2055.7 1486.45 L2055.7 47.2441 L475.927 47.2441  Z
  " fill="#ffffff" fill-rule="evenodd" fill-opacity="1"/>
<defs>
  <clipPath id="clip252">
    <rect x="475" y="47" width="1581" height="1440"/>
  </clipPath>
</defs>
<polyline clip-path="url(#clip252)" style="stroke:#222255; stroke-linecap:round; stroke-linejoin:round; stroke-width:2; stroke-opacity:0.1; fill:none" points="
  551.684,1486.45 551.684,47.2441 
  "/>
<polyline clip-path="url(#clip252)" style="stroke:#222255; stroke-linecap:round; stroke-linejoin:round; stroke-width:2; stroke-opacity:0.1; fill:none" points="
  896.03,1486.45 896.03,47.2441 
  "/>
<polyline clip-path="url(#clip252)" style="stroke:#222255; stroke-linecap:round; stroke-linejoin:round; stroke-width:2; stroke-opacity:0.1; fill:none" points="
  1240.38,1486.45 1240.38,47.2441 
  "/>
<polyline clip-path="url(#clip252)" style="stroke:#222255; stroke-linecap:round; stroke-linejoin:round; stroke-width:2; stroke-opacity:0.1; fill:none" points="
  1584.72,1486.45 1584.72,47.2441 
  "/>
<polyline clip-path="url(#clip252)" style="stroke:#222255; stroke-linecap:round; stroke-linejoin:round; stroke-width:2; stroke-opacity:0.1; fill:none" points="
  1929.07,1486.45 1929.07,47.2441 
  "/>
<polyline clip-path="url(#clip252)" style="stroke:#222255; stroke-linecap:round; stroke-linejoin:round; stroke-width:2; stroke-opacity:0.05; fill:none" points="
  482.814,1486.45 482.814,47.2441 
  "/>
<polyline clip-path="url(#clip252)" style="stroke:#222255; stroke-linecap:round; stroke-linejoin:round; stroke-width:2; stroke-opacity:0.05; fill:none" points="
  620.553,1486.45 620.553,47.2441 
  "/>
<polyline clip-path="url(#clip252)" style="stroke:#222255; stroke-linecap:round; stroke-linejoin:round; stroke-width:2; stroke-opacity:0.05; fill:none" points="
  689.422,1486.45 689.422,47.2441 
  "/>
<polyline clip-path="url(#clip252)" style="stroke:#222255; stroke-linecap:round; stroke-linejoin:round; stroke-width:2; stroke-opacity:0.05; fill:none" points="
  758.291,1486.45 758.291,47.2441 
  "/>
<polyline clip-path="url(#clip252)" style="stroke:#222255; stroke-linecap:round; stroke-linejoin:round; stroke-width:2; stroke-opacity:0.05; fill:none" points="
  827.161,1486.45 827.161,47.2441 
  "/>
<polyline clip-path="url(#clip252)" style="stroke:#222255; stroke-linecap:round; stroke-linejoin:round; stroke-width:2; stroke-opacity:0.05; fill:none" points="
  964.899,1486.45 964.899,47.2441 
  "/>
<polyline clip-path="url(#clip252)" style="stroke:#222255; stroke-linecap:round; stroke-linejoin:round; stroke-width:2; stroke-opacity:0.05; fill:none" points="
  1033.77,1486.45 1033.77,47.2441 
  "/>
<polyline clip-path="url(#clip252)" style="stroke:#222255; stroke-linecap:round; stroke-linejoin:round; stroke-width:2; stroke-opacity:0.05; fill:none" points="
  1102.64,1486.45 1102.64,47.2441 
  "/>
<polyline clip-path="url(#clip252)" style="stroke:#222255; stroke-linecap:round; stroke-linejoin:round; stroke-width:2; stroke-opacity:0.05; fill:none" points="
  1171.51,1486.45 1171.51,47.2441 
  "/>
<polyline clip-path="url(#clip252)" style="stroke:#222255; stroke-linecap:round; stroke-linejoin:round; stroke-width:2; stroke-opacity:0.05; fill:none" points="
  1309.25,1486.45 1309.25,47.2441 
  "/>
<polyline clip-path="url(#clip252)" style="stroke:#222255; stroke-linecap:round; stroke-linejoin:round; stroke-width:2; stroke-opacity:0.05; fill:none" points="
  1378.11,1486.45 1378.11,47.2441 
  "/>
<polyline clip-path="url(#clip252)" style="stroke:#222255; stroke-linecap:round; stroke-linejoin:round; stroke-width:2; stroke-opacity:0.05; fill:none" points="
  1446.98,1486.45 1446.98,47.2441 
  "/>
<polyline clip-path="url(#clip252)" style="stroke:#222255; stroke-linecap:round; stroke-linejoin:round; stroke-width:2; stroke-opacity:0.05; fill:none" points="
  1515.85,1486.45 1515.85,47.2441 
  "/>
<polyline clip-path="url(#clip252)" style="stroke:#222255; stroke-linecap:round; stroke-linejoin:round; stroke-width:2; stroke-opacity:0.05; fill:none" points="
  1653.59,1486.45 1653.59,47.2441 
  "/>
<polyline clip-path="url(#clip252)" style="stroke:#222255; stroke-linecap:round; stroke-linejoin:round; stroke-width:2; stroke-opacity:0.05; fill:none" points="
  1722.46,1486.45 1722.46,47.2441 
  "/>
<polyline clip-path="url(#clip252)" style="stroke:#222255; stroke-linecap:round; stroke-linejoin:round; stroke-width:2; stroke-opacity:0.05; fill:none" points="
  1791.33,1486.45 1791.33,47.2441 
  "/>
<polyline clip-path="url(#clip252)" style="stroke:#222255; stroke-linecap:round; stroke-linejoin:round; stroke-width:2; stroke-opacity:0.05; fill:none" points="
  1860.2,1486.45 1860.2,47.2441 
  "/>
<polyline clip-path="url(#clip252)" style="stroke:#222255; stroke-linecap:round; stroke-linejoin:round; stroke-width:2; stroke-opacity:0.05; fill:none" points="
  1997.94,1486.45 1997.94,47.2441 
  "/>
<polyline clip-path="url(#clip250)" style="stroke:#222255; stroke-linecap:round; stroke-linejoin:round; stroke-width:4; stroke-opacity:0; fill:none" points="
  551.684,1486.45 551.684,1467.55 
  "/>
<polyline clip-path="url(#clip250)" style="stroke:#222255; stroke-linecap:round; stroke-linejoin:round; stroke-width:4; stroke-opacity:0; fill:none" points="
  896.03,1486.45 896.03,1467.55 
  "/>
<polyline clip-path="url(#clip250)" style="stroke:#222255; stroke-linecap:round; stroke-linejoin:round; stroke-width:4; stroke-opacity:0; fill:none" points="
  1240.38,1486.45 1240.38,1467.55 
  "/>
<polyline clip-path="url(#clip250)" style="stroke:#222255; stroke-linecap:round; stroke-linejoin:round; stroke-width:4; stroke-opacity:0; fill:none" points="
  1584.72,1486.45 1584.72,1467.55 
  "/>
<polyline clip-path="url(#clip250)" style="stroke:#222255; stroke-linecap:round; stroke-linejoin:round; stroke-width:4; stroke-opacity:0; fill:none" points="
  1929.07,1486.45 1929.07,1467.55 
  "/>
<polyline clip-path="url(#clip250)" style="stroke:#222255; stroke-linecap:round; stroke-linejoin:round; stroke-width:4; stroke-opacity:0; fill:none" points="
  482.814,1486.45 482.814,1477 
  "/>
<polyline clip-path="url(#clip250)" style="stroke:#222255; stroke-linecap:round; stroke-linejoin:round; stroke-width:4; stroke-opacity:0; fill:none" points="
  620.553,1486.45 620.553,1477 
  "/>
<polyline clip-path="url(#clip250)" style="stroke:#222255; stroke-linecap:round; stroke-linejoin:round; stroke-width:4; stroke-opacity:0; fill:none" points="
  689.422,1486.45 689.422,1477 
  "/>
<polyline clip-path="url(#clip250)" style="stroke:#222255; stroke-linecap:round; stroke-linejoin:round; stroke-width:4; stroke-opacity:0; fill:none" points="
  758.291,1486.45 758.291,1477 
  "/>
<polyline clip-path="url(#clip250)" style="stroke:#222255; stroke-linecap:round; stroke-linejoin:round; stroke-width:4; stroke-opacity:0; fill:none" points="
  827.161,1486.45 827.161,1477 
  "/>
<polyline clip-path="url(#clip250)" style="stroke:#222255; stroke-linecap:round; stroke-linejoin:round; stroke-width:4; stroke-opacity:0; fill:none" points="
  964.899,1486.45 964.899,1477 
  "/>
<polyline clip-path="url(#clip250)" style="stroke:#222255; stroke-linecap:round; stroke-linejoin:round; stroke-width:4; stroke-opacity:0; fill:none" points="
  1033.77,1486.45 1033.77,1477 
  "/>
<polyline clip-path="url(#clip250)" style="stroke:#222255; stroke-linecap:round; stroke-linejoin:round; stroke-width:4; stroke-opacity:0; fill:none" points="
  1102.64,1486.45 1102.64,1477 
  "/>
<polyline clip-path="url(#clip250)" style="stroke:#222255; stroke-linecap:round; stroke-linejoin:round; stroke-width:4; stroke-opacity:0; fill:none" points="
  1171.51,1486.45 1171.51,1477 
  "/>
<polyline clip-path="url(#clip250)" style="stroke:#222255; stroke-linecap:round; stroke-linejoin:round; stroke-width:4; stroke-opacity:0; fill:none" points="
  1309.25,1486.45 1309.25,1477 
  "/>
<polyline clip-path="url(#clip250)" style="stroke:#222255; stroke-linecap:round; stroke-linejoin:round; stroke-width:4; stroke-opacity:0; fill:none" points="
  1378.11,1486.45 1378.11,1477 
  "/>
<polyline clip-path="url(#clip250)" style="stroke:#222255; stroke-linecap:round; stroke-linejoin:round; stroke-width:4; stroke-opacity:0; fill:none" points="
  1446.98,1486.45 1446.98,1477 
  "/>
<polyline clip-path="url(#clip250)" style="stroke:#222255; stroke-linecap:round; stroke-linejoin:round; stroke-width:4; stroke-opacity:0; fill:none" points="
  1515.85,1486.45 1515.85,1477 
  "/>
<polyline clip-path="url(#clip250)" style="stroke:#222255; stroke-linecap:round; stroke-linejoin:round; stroke-width:4; stroke-opacity:0; fill:none" points="
  1653.59,1486.45 1653.59,1477 
  "/>
<polyline clip-path="url(#clip250)" style="stroke:#222255; stroke-linecap:round; stroke-linejoin:round; stroke-width:4; stroke-opacity:0; fill:none" points="
  1722.46,1486.45 1722.46,1477 
  "/>
<polyline clip-path="url(#clip250)" style="stroke:#222255; stroke-linecap:round; stroke-linejoin:round; stroke-width:4; stroke-opacity:0; fill:none" points="
  1791.33,1486.45 1791.33,1477 
  "/>
<polyline clip-path="url(#clip250)" style="stroke:#222255; stroke-linecap:round; stroke-linejoin:round; stroke-width:4; stroke-opacity:0; fill:none" points="
  1860.2,1486.45 1860.2,1477 
  "/>
<polyline clip-path="url(#clip250)" style="stroke:#222255; stroke-linecap:round; stroke-linejoin:round; stroke-width:4; stroke-opacity:0; fill:none" points="
  1997.94,1486.45 1997.94,1477 
  "/>
<path clip-path="url(#clip250)" d="M551.684 1517.37 Q548.073 1517.37 546.244 1520.93 Q544.438 1524.47 544.438 1531.6 Q544.438 1538.71 546.244 1542.27 Q548.073 1545.82 551.684 1545.82 Q555.318 1545.82 557.123 1542.27 Q558.952 1538.71 558.952 1531.6 Q558.952 1524.47 557.123 1520.93 Q555.318 1517.37 551.684 1517.37 M551.684 1513.66 Q557.494 1513.66 560.549 1518.27 Q563.628 1522.85 563.628 1531.6 Q563.628 1540.33 560.549 1544.94 Q557.494 1549.52 551.684 1549.52 Q545.874 1549.52 542.795 1544.94 Q539.739 1540.33 539.739 1531.6 Q539.739 1522.85 542.795 1518.27 Q545.874 1513.66 551.684 1513.66 Z" fill="#000000" fill-rule="evenodd" fill-opacity="1" /><path clip-path="url(#clip250)" d="M886.308 1514.29 L904.664 1514.29 L904.664 1518.22 L890.59 1518.22 L890.59 1526.7 Q891.609 1526.35 892.627 1526.19 Q893.646 1526 894.664 1526 Q900.451 1526 903.831 1529.17 Q907.211 1532.34 907.211 1537.76 Q907.211 1543.34 903.738 1546.44 Q900.266 1549.52 893.947 1549.52 Q891.771 1549.52 889.502 1549.15 Q887.257 1548.78 884.85 1548.04 L884.85 1543.34 Q886.933 1544.47 889.155 1545.03 Q891.377 1545.58 893.854 1545.58 Q897.859 1545.58 900.197 1543.48 Q902.535 1541.37 902.535 1537.76 Q902.535 1534.15 900.197 1532.04 Q897.859 1529.94 893.854 1529.94 Q891.979 1529.94 890.104 1530.35 Q888.252 1530.77 886.308 1531.65 L886.308 1514.29 Z" fill="#000000" fill-rule="evenodd" fill-opacity="1" /><path clip-path="url(#clip250)" d="M1215.06 1544.91 L1222.7 1544.91 L1222.7 1518.55 L1214.39 1520.21 L1214.39 1515.95 L1222.66 1514.29 L1227.33 1514.29 L1227.33 1544.91 L1234.97 1544.91 L1234.97 1548.85 L1215.06 1548.85 L1215.06 1544.91 Z" fill="#000000" fill-rule="evenodd" fill-opacity="1" /><path clip-path="url(#clip250)" d="M1254.42 1517.37 Q1250.8 1517.37 1248.98 1520.93 Q1247.17 1524.47 1247.17 1531.6 Q1247.17 1538.71 1248.98 1542.27 Q1250.8 1545.82 1254.42 1545.82 Q1258.05 1545.82 1259.86 1542.27 Q1261.68 1538.71 1261.68 1531.6 Q1261.68 1524.47 1259.86 1520.93 Q1258.05 1517.37 1254.42 1517.37 M1254.42 1513.66 Q1260.23 1513.66 1263.28 1518.27 Q1266.36 1522.85 1266.36 1531.6 Q1266.36 1540.33 1263.28 1544.94 Q1260.23 1549.52 1254.42 1549.52 Q1248.61 1549.52 1245.53 1544.94 Q1242.47 1540.33 1242.47 1531.6 Q1242.47 1522.85 1245.53 1518.27 Q1248.61 1513.66 1254.42 1513.66 Z" fill="#000000" fill-rule="evenodd" fill-opacity="1" /><path clip-path="url(#clip250)" d="M1559.91 1544.91 L1567.55 1544.91 L1567.55 1518.55 L1559.24 1520.21 L1559.24 1515.95 L1567.5 1514.29 L1572.18 1514.29 L1572.18 1544.91 L1579.82 1544.91 L1579.82 1548.85 L1559.91 1548.85 L1559.91 1544.91 Z" fill="#000000" fill-rule="evenodd" fill-opacity="1" /><path clip-path="url(#clip250)" d="M1589.31 1514.29 L1607.66 1514.29 L1607.66 1518.22 L1593.59 1518.22 L1593.59 1526.7 Q1594.61 1526.35 1595.63 1526.19 Q1596.64 1526 1597.66 1526 Q1603.45 1526 1606.83 1529.17 Q1610.21 1532.34 1610.21 1537.76 Q1610.21 1543.34 1606.74 1546.44 Q1603.26 1549.52 1596.94 1549.52 Q1594.77 1549.52 1592.5 1549.15 Q1590.26 1548.78 1587.85 1548.04 L1587.85 1543.34 Q1589.93 1544.47 1592.15 1545.03 Q1594.38 1545.58 1596.85 1545.58 Q1600.86 1545.58 1603.19 1543.48 Q1605.53 1541.37 1605.53 1537.76 Q1605.53 1534.15 1603.19 1532.04 Q1600.86 1529.94 1596.85 1529.94 Q1594.98 1529.94 1593.1 1530.35 Q1591.25 1530.77 1589.31 1531.65 L1589.31 1514.29 Z" fill="#000000" fill-rule="evenodd" fill-opacity="1" /><path clip-path="url(#clip250)" d="M1907.84 1544.91 L1924.16 1544.91 L1924.16 1548.85 L1902.22 1548.85 L1902.22 1544.91 Q1904.88 1542.16 1909.46 1537.53 Q1914.07 1532.88 1915.25 1531.53 Q1917.5 1529.01 1918.37 1527.27 Q1919.28 1525.51 1919.28 1523.82 Q1919.28 1521.07 1917.33 1519.33 Q1915.41 1517.6 1912.31 1517.6 Q1910.11 1517.6 1907.66 1518.36 Q1905.23 1519.13 1902.45 1520.68 L1902.45 1515.95 Q1905.27 1514.82 1907.73 1514.24 Q1910.18 1513.66 1912.22 1513.66 Q1917.59 1513.66 1920.78 1516.35 Q1923.98 1519.03 1923.98 1523.52 Q1923.98 1525.65 1923.17 1527.57 Q1922.38 1529.47 1920.27 1532.07 Q1919.69 1532.74 1916.59 1535.95 Q1913.49 1539.15 1907.84 1544.91 Z" fill="#000000" fill-rule="evenodd" fill-opacity="1" /><path clip-path="url(#clip250)" d="M1943.98 1517.37 Q1940.37 1517.37 1938.54 1520.93 Q1936.73 1524.47 1936.73 1531.6 Q1936.73 1538.71 1938.54 1542.27 Q1940.37 1545.82 1943.98 1545.82 Q1947.61 1545.82 1949.42 1542.27 Q1951.24 1538.71 1951.24 1531.6 Q1951.24 1524.47 1949.42 1520.93 Q1947.61 1517.37 1943.98 1517.37 M1943.98 1513.66 Q1949.79 1513.66 1952.84 1518.27 Q1955.92 1522.85 1955.92 1531.6 Q1955.92 1540.33 1952.84 1544.94 Q1949.79 1549.52 1943.98 1549.52 Q1938.17 1549.52 1935.09 1544.94 Q1932.03 1540.33 1932.03 1531.6 Q1932.03 1522.85 1935.09 1518.27 Q1938.17 1513.66 1943.98 1513.66 Z" fill="#000000" fill-rule="evenodd" fill-opacity="1" /><polyline clip-path="url(#clip252)" style="stroke:#222255; stroke-linecap:round; stroke-linejoin:round; stroke-width:2; stroke-opacity:0.1; fill:none" points="
  475.927,1455.48 2055.7,1455.48 
  "/>
<polyline clip-path="url(#clip252)" style="stroke:#222255; stroke-linecap:round; stroke-linejoin:round; stroke-width:2; stroke-opacity:0.1; fill:none" points="
  475.927,1111.14 2055.7,1111.14 
  "/>
<polyline clip-path="url(#clip252)" style="stroke:#222255; stroke-linecap:round; stroke-linejoin:round; stroke-width:2; stroke-opacity:0.1; fill:none" points="
  475.927,766.789 2055.7,766.789 
  "/>
<polyline clip-path="url(#clip252)" style="stroke:#222255; stroke-linecap:round; stroke-linejoin:round; stroke-width:2; stroke-opacity:0.1; fill:none" points="
  475.927,422.442 2055.7,422.442 
  "/>
<polyline clip-path="url(#clip252)" style="stroke:#222255; stroke-linecap:round; stroke-linejoin:round; stroke-width:2; stroke-opacity:0.1; fill:none" points="
  475.927,78.096 2055.7,78.096 
  "/>
<polyline clip-path="url(#clip252)" style="stroke:#222255; stroke-linecap:round; stroke-linejoin:round; stroke-width:2; stroke-opacity:0.05; fill:none" points="
  475.927,1386.61 2055.7,1386.61 
  "/>
<polyline clip-path="url(#clip252)" style="stroke:#222255; stroke-linecap:round; stroke-linejoin:round; stroke-width:2; stroke-opacity:0.05; fill:none" points="
  475.927,1317.74 2055.7,1317.74 
  "/>
<polyline clip-path="url(#clip252)" style="stroke:#222255; stroke-linecap:round; stroke-linejoin:round; stroke-width:2; stroke-opacity:0.05; fill:none" points="
  475.927,1248.87 2055.7,1248.87 
  "/>
<polyline clip-path="url(#clip252)" style="stroke:#222255; stroke-linecap:round; stroke-linejoin:round; stroke-width:2; stroke-opacity:0.05; fill:none" points="
  475.927,1180 2055.7,1180 
  "/>
<polyline clip-path="url(#clip252)" style="stroke:#222255; stroke-linecap:round; stroke-linejoin:round; stroke-width:2; stroke-opacity:0.05; fill:none" points="
  475.927,1042.27 2055.7,1042.27 
  "/>
<polyline clip-path="url(#clip252)" style="stroke:#222255; stroke-linecap:round; stroke-linejoin:round; stroke-width:2; stroke-opacity:0.05; fill:none" points="
  475.927,973.397 2055.7,973.397 
  "/>
<polyline clip-path="url(#clip252)" style="stroke:#222255; stroke-linecap:round; stroke-linejoin:round; stroke-width:2; stroke-opacity:0.05; fill:none" points="
  475.927,904.527 2055.7,904.527 
  "/>
<polyline clip-path="url(#clip252)" style="stroke:#222255; stroke-linecap:round; stroke-linejoin:round; stroke-width:2; stroke-opacity:0.05; fill:none" points="
  475.927,835.658 2055.7,835.658 
  "/>
<polyline clip-path="url(#clip252)" style="stroke:#222255; stroke-linecap:round; stroke-linejoin:round; stroke-width:2; stroke-opacity:0.05; fill:none" points="
  475.927,697.919 2055.7,697.919 
  "/>
<polyline clip-path="url(#clip252)" style="stroke:#222255; stroke-linecap:round; stroke-linejoin:round; stroke-width:2; stroke-opacity:0.05; fill:none" points="
  475.927,629.05 2055.7,629.05 
  "/>
<polyline clip-path="url(#clip252)" style="stroke:#222255; stroke-linecap:round; stroke-linejoin:round; stroke-width:2; stroke-opacity:0.05; fill:none" points="
  475.927,560.181 2055.7,560.181 
  "/>
<polyline clip-path="url(#clip252)" style="stroke:#222255; stroke-linecap:round; stroke-linejoin:round; stroke-width:2; stroke-opacity:0.05; fill:none" points="
  475.927,491.312 2055.7,491.312 
  "/>
<polyline clip-path="url(#clip252)" style="stroke:#222255; stroke-linecap:round; stroke-linejoin:round; stroke-width:2; stroke-opacity:0.05; fill:none" points="
  475.927,353.573 2055.7,353.573 
  "/>
<polyline clip-path="url(#clip252)" style="stroke:#222255; stroke-linecap:round; stroke-linejoin:round; stroke-width:2; stroke-opacity:0.05; fill:none" points="
  475.927,284.704 2055.7,284.704 
  "/>
<polyline clip-path="url(#clip252)" style="stroke:#222255; stroke-linecap:round; stroke-linejoin:round; stroke-width:2; stroke-opacity:0.05; fill:none" points="
  475.927,215.835 2055.7,215.835 
  "/>
<polyline clip-path="url(#clip252)" style="stroke:#222255; stroke-linecap:round; stroke-linejoin:round; stroke-width:2; stroke-opacity:0.05; fill:none" points="
  475.927,146.965 2055.7,146.965 
  "/>
<polyline clip-path="url(#clip250)" style="stroke:#222255; stroke-linecap:round; stroke-linejoin:round; stroke-width:4; stroke-opacity:0; fill:none" points="
  475.927,1455.48 489.66,1455.48 
  "/>
<polyline clip-path="url(#clip250)" style="stroke:#222255; stroke-linecap:round; stroke-linejoin:round; stroke-width:4; stroke-opacity:0; fill:none" points="
  475.927,1111.14 489.66,1111.14 
  "/>
<polyline clip-path="url(#clip250)" style="stroke:#222255; stroke-linecap:round; stroke-linejoin:round; stroke-width:4; stroke-opacity:0; fill:none" points="
  475.927,766.789 489.66,766.789 
  "/>
<polyline clip-path="url(#clip250)" style="stroke:#222255; stroke-linecap:round; stroke-linejoin:round; stroke-width:4; stroke-opacity:0; fill:none" points="
  475.927,422.442 489.66,422.442 
  "/>
<polyline clip-path="url(#clip250)" style="stroke:#222255; stroke-linecap:round; stroke-linejoin:round; stroke-width:4; stroke-opacity:0; fill:none" points="
  475.927,78.096 489.66,78.096 
  "/>
<polyline clip-path="url(#clip250)" style="stroke:#222255; stroke-linecap:round; stroke-linejoin:round; stroke-width:4; stroke-opacity:0; fill:none" points="
  475.927,1386.61 482.794,1386.61 
  "/>
<polyline clip-path="url(#clip250)" style="stroke:#222255; stroke-linecap:round; stroke-linejoin:round; stroke-width:4; stroke-opacity:0; fill:none" points="
  475.927,1317.74 482.794,1317.74 
  "/>
<polyline clip-path="url(#clip250)" style="stroke:#222255; stroke-linecap:round; stroke-linejoin:round; stroke-width:4; stroke-opacity:0; fill:none" points="
  475.927,1248.87 482.794,1248.87 
  "/>
<polyline clip-path="url(#clip250)" style="stroke:#222255; stroke-linecap:round; stroke-linejoin:round; stroke-width:4; stroke-opacity:0; fill:none" points="
  475.927,1180 482.794,1180 
  "/>
<polyline clip-path="url(#clip250)" style="stroke:#222255; stroke-linecap:round; stroke-linejoin:round; stroke-width:4; stroke-opacity:0; fill:none" points="
  475.927,1042.27 482.794,1042.27 
  "/>
<polyline clip-path="url(#clip250)" style="stroke:#222255; stroke-linecap:round; stroke-linejoin:round; stroke-width:4; stroke-opacity:0; fill:none" points="
  475.927,973.397 482.794,973.397 
  "/>
<polyline clip-path="url(#clip250)" style="stroke:#222255; stroke-linecap:round; stroke-linejoin:round; stroke-width:4; stroke-opacity:0; fill:none" points="
  475.927,904.527 482.794,904.527 
  "/>
<polyline clip-path="url(#clip250)" style="stroke:#222255; stroke-linecap:round; stroke-linejoin:round; stroke-width:4; stroke-opacity:0; fill:none" points="
  475.927,835.658 482.794,835.658 
  "/>
<polyline clip-path="url(#clip250)" style="stroke:#222255; stroke-linecap:round; stroke-linejoin:round; stroke-width:4; stroke-opacity:0; fill:none" points="
  475.927,697.919 482.794,697.919 
  "/>
<polyline clip-path="url(#clip250)" style="stroke:#222255; stroke-linecap:round; stroke-linejoin:round; stroke-width:4; stroke-opacity:0; fill:none" points="
  475.927,629.05 482.794,629.05 
  "/>
<polyline clip-path="url(#clip250)" style="stroke:#222255; stroke-linecap:round; stroke-linejoin:round; stroke-width:4; stroke-opacity:0; fill:none" points="
  475.927,560.181 482.794,560.181 
  "/>
<polyline clip-path="url(#clip250)" style="stroke:#222255; stroke-linecap:round; stroke-linejoin:round; stroke-width:4; stroke-opacity:0; fill:none" points="
  475.927,491.312 482.794,491.312 
  "/>
<polyline clip-path="url(#clip250)" style="stroke:#222255; stroke-linecap:round; stroke-linejoin:round; stroke-width:4; stroke-opacity:0; fill:none" points="
  475.927,353.573 482.794,353.573 
  "/>
<polyline clip-path="url(#clip250)" style="stroke:#222255; stroke-linecap:round; stroke-linejoin:round; stroke-width:4; stroke-opacity:0; fill:none" points="
  475.927,284.704 482.794,284.704 
  "/>
<polyline clip-path="url(#clip250)" style="stroke:#222255; stroke-linecap:round; stroke-linejoin:round; stroke-width:4; stroke-opacity:0; fill:none" points="
  475.927,215.835 482.794,215.835 
  "/>
<polyline clip-path="url(#clip250)" style="stroke:#222255; stroke-linecap:round; stroke-linejoin:round; stroke-width:4; stroke-opacity:0; fill:none" points="
  475.927,146.965 482.794,146.965 
  "/>
<path clip-path="url(#clip250)" d="M348.053 1455.93 L377.729 1455.93 L377.729 1459.87 L348.053 1459.87 L348.053 1455.93 Z" fill="#000000" fill-rule="evenodd" fill-opacity="1" /><path clip-path="url(#clip250)" d="M388.631 1468.83 L396.27 1468.83 L396.27 1442.46 L387.96 1444.13 L387.96 1439.87 L396.224 1438.2 L400.9 1438.2 L400.9 1468.83 L408.539 1468.83 L408.539 1472.76 L388.631 1472.76 L388.631 1468.83 Z" fill="#000000" fill-rule="evenodd" fill-opacity="1" /><path clip-path="url(#clip250)" d="M427.983 1441.28 Q424.372 1441.28 422.543 1444.84 Q420.738 1448.39 420.738 1455.52 Q420.738 1462.62 422.543 1466.19 Q424.372 1469.73 427.983 1469.73 Q431.617 1469.73 433.423 1466.19 Q435.252 1462.62 435.252 1455.52 Q435.252 1448.39 433.423 1444.84 Q431.617 1441.28 427.983 1441.28 M427.983 1437.58 Q433.793 1437.58 436.849 1442.18 Q439.927 1446.77 439.927 1455.52 Q439.927 1464.24 436.849 1468.85 Q433.793 1473.43 427.983 1473.43 Q422.173 1473.43 419.094 1468.85 Q416.039 1464.24 416.039 1455.52 Q416.039 1446.77 419.094 1442.18 Q422.173 1437.58 427.983 1437.58 Z" fill="#000000" fill-rule="evenodd" fill-opacity="1" /><path clip-path="url(#clip250)" d="M379.21 1111.59 L408.886 1111.59 L408.886 1115.52 L379.21 1115.52 L379.21 1111.59 Z" fill="#000000" fill-rule="evenodd" fill-opacity="1" /><path clip-path="url(#clip250)" d="M419.025 1093.86 L437.381 1093.86 L437.381 1097.79 L423.307 1097.79 L423.307 1106.26 Q424.326 1105.92 425.344 1105.75 Q426.363 1105.57 427.381 1105.57 Q433.168 1105.57 436.548 1108.74 Q439.927 1111.91 439.927 1117.33 Q439.927 1122.91 436.455 1126.01 Q432.983 1129.09 426.664 1129.09 Q424.488 1129.09 422.219 1128.72 Q419.974 1128.35 417.566 1127.6 L417.566 1122.91 Q419.65 1124.04 421.872 1124.6 Q424.094 1125.15 426.571 1125.15 Q430.576 1125.15 432.914 1123.04 Q435.252 1120.94 435.252 1117.33 Q435.252 1113.72 432.914 1111.61 Q430.576 1109.5 426.571 1109.5 Q424.696 1109.5 422.821 1109.92 Q420.969 1110.34 419.025 1111.22 L419.025 1093.86 Z" fill="#000000" fill-rule="evenodd" fill-opacity="1" /><path clip-path="url(#clip250)" d="M427.983 752.587 Q424.372 752.587 422.543 756.152 Q420.738 759.694 420.738 766.823 Q420.738 773.93 422.543 777.495 Q424.372 781.036 427.983 781.036 Q431.617 781.036 433.423 777.495 Q435.252 773.93 435.252 766.823 Q435.252 759.694 433.423 756.152 Q431.617 752.587 427.983 752.587 M427.983 748.884 Q433.793 748.884 436.849 753.49 Q439.927 758.073 439.927 766.823 Q439.927 775.55 436.849 780.157 Q433.793 784.74 427.983 784.74 Q422.173 784.74 419.094 780.157 Q416.039 775.55 416.039 766.823 Q416.039 758.073 419.094 753.49 Q422.173 748.884 427.983 748.884 Z" fill="#000000" fill-rule="evenodd" fill-opacity="1" /><path clip-path="url(#clip250)" d="M419.025 405.162 L437.381 405.162 L437.381 409.097 L423.307 409.097 L423.307 417.57 Q424.326 417.222 425.344 417.06 Q426.363 416.875 427.381 416.875 Q433.168 416.875 436.548 420.047 Q439.927 423.218 439.927 428.634 Q439.927 434.213 436.455 437.315 Q432.983 440.394 426.664 440.394 Q424.488 440.394 422.219 440.023 Q419.974 439.653 417.566 438.912 L417.566 434.213 Q419.65 435.347 421.872 435.903 Q424.094 436.458 426.571 436.458 Q430.576 436.458 432.914 434.352 Q435.252 432.246 435.252 428.634 Q435.252 425.023 432.914 422.917 Q430.576 420.81 426.571 420.81 Q424.696 420.81 422.821 421.227 Q420.969 421.644 419.025 422.523 L419.025 405.162 Z" fill="#000000" fill-rule="evenodd" fill-opacity="1" /><path clip-path="url(#clip250)" d="M388.631 91.4408 L396.27 91.4408 L396.27 65.0752 L387.96 66.7419 L387.96 62.4826 L396.224 60.816 L400.9 60.816 L400.9 91.4408 L408.539 91.4408 L408.539 95.376 L388.631 95.376 L388.631 91.4408 Z" fill="#000000" fill-rule="evenodd" fill-opacity="1" /><path clip-path="url(#clip250)" d="M427.983 63.8947 Q424.372 63.8947 422.543 67.4594 Q420.738 71.0011 420.738 78.1307 Q420.738 85.2371 422.543 88.8019 Q424.372 92.3436 427.983 92.3436 Q431.617 92.3436 433.423 88.8019 Q435.252 85.2371 435.252 78.1307 Q435.252 71.0011 433.423 67.4594 Q431.617 63.8947 427.983 63.8947 M427.983 60.191 Q433.793 60.191 436.849 64.7974 Q439.927 69.3807 439.927 78.1307 Q439.927 86.8575 436.849 91.4639 Q433.793 96.0473 427.983 96.0473 Q422.173 96.0473 419.094 91.4639 Q416.039 86.8575 416.039 78.1307 Q416.039 69.3807 419.094 64.7974 Q422.173 60.191 427.983 60.191 Z" fill="#000000" fill-rule="evenodd" fill-opacity="1" /><polyline clip-path="url(#clip252)" style="stroke:#ee7733; stroke-linecap:round; stroke-linejoin:round; stroke-width:12; stroke-opacity:1; fill:none" points="
  482.814,766.789 482.947,753.002 483.343,739.22 484.003,725.449 484.927,711.692 486.115,697.956 487.566,684.245 489.279,670.564 491.254,656.919 493.49,643.314 
  495.987,629.755 498.743,616.246 501.757,602.792 505.029,589.398 508.556,576.07 512.339,562.811 516.375,549.628 520.663,536.524 525.201,523.505 529.988,510.575 
  535.021,497.739 540.3,485.002 545.822,472.369 551.585,459.844 557.587,447.432 563.826,435.137 570.3,422.963 577.005,410.916 583.94,399 591.103,387.219 
  598.489,375.577 606.098,364.079 613.925,352.729 621.968,341.531 630.225,330.489 638.692,319.607 647.365,308.89 656.243,298.341 665.321,287.964 674.596,277.763 
  684.065,267.741 693.725,257.903 703.571,248.252 713.6,238.791 723.809,229.524 734.194,220.455 744.75,211.586 755.475,202.921 766.363,194.463 777.412,186.215 
  788.616,178.181 799.973,170.363 811.477,162.764 823.125,155.386 834.912,148.234 846.834,141.309 858.886,134.613 871.065,128.15 883.365,121.922 895.782,115.93 
  908.312,110.178 920.95,104.666 933.692,99.398 946.532,94.3749 959.466,89.5988 972.489,85.0714 985.596,80.7943 998.783,76.7691 1012.04,72.9972 1025.38,69.4801 
  1038.77,66.2191 1052.23,63.2154 1065.74,60.4702 1079.3,57.9845 1092.91,55.7593 1106.56,53.7952 1120.24,52.0932 1133.95,50.6538 1147.69,49.4775 1161.44,48.5648 
  1175.21,47.916 1189,47.5313 1202.78,47.4109 1216.57,47.5548 1230.35,47.9629 1244.12,48.6351 1257.88,49.571 1271.61,50.7704 1285.32,52.2327 1299,53.9574 
  1312.65,55.9438 1326.25,58.1912 1339.81,60.6988 1353.32,63.4657 1366.77,66.4909 1380.16,69.7732 1393.49,73.3115 1406.74,77.1046 1419.92,81.151 1433.02,85.4492 
  1446.04,89.9978 1458.96,94.795 1471.79,99.8391 1484.53,105.128 1497.15,110.661 1509.67,116.434 1522.08,122.447 1534.37,128.696 1546.54,135.18 1558.58,141.896 
  1570.49,148.841 1582.27,156.014 1593.9,163.411 1605.39,171.029 1616.74,178.867 1627.93,186.92 1638.96,195.186 1649.84,203.661 1660.55,212.344 1671.09,221.23 
  1681.46,230.317 1691.66,239.6 1701.67,249.077 1711.5,258.744 1721.15,268.598 1730.6,278.634 1739.86,288.85 1748.92,299.241 1757.78,309.803 1766.44,320.534 
  1774.89,331.429 1783.13,342.483 1791.15,353.694 1798.96,365.057 1806.55,376.567 1813.91,388.221 1821.06,400.014 1827.97,411.942 1834.66,424.001 1841.11,436.186 
  1847.33,448.493 1853.31,460.917 1859.05,473.453 1864.55,486.097 1869.81,498.844 1874.82,511.69 1879.58,524.629 1884.1,537.656 1888.37,550.767 1892.38,563.958 
  1896.14,577.223 1899.65,590.558 1902.9,603.958 1905.89,617.418 1908.63,630.932 1911.11,644.496 1913.32,658.105 1915.28,671.753 1916.97,685.436 1918.4,699.149 
  1919.56,712.887 1920.47,726.644 1921.1,740.415 1921.48,754.197 1921.59,767.983 1921.43,781.768 1921.01,795.549 1920.33,809.318 1919.38,823.073 1918.17,836.806 
  1916.7,850.515 1914.96,864.193 1912.96,877.835 1910.7,891.437 1908.18,904.994 1905.4,918.499 1902.36,931.95 1899.06,945.34 1895.51,958.664 1891.7,971.918 
  1887.65,985.096 1883.33,998.193 1878.77,1011.21 1873.97,1024.13 1868.91,1036.96 1863.61,1049.68 1858.07,1062.31 1852.29,1074.83 1846.26,1087.23 1840,1099.52 
  1833.51,1111.68 1826.79,1123.72 1819.83,1135.62 1812.65,1147.39 1805.25,1159.02 1797.62,1170.51 1789.78,1181.84 1781.71,1193.03 1773.44,1204.06 1764.96,1214.92 
  1756.26,1225.62 1747.37,1236.16 1738.27,1246.52 1728.98,1256.7 1719.49,1266.71 1709.82,1276.53 1699.95,1286.16 1689.91,1295.61 1679.68,1304.86 1669.28,1313.91 
  1658.7,1322.76 1647.96,1331.41 1637.06,1339.85 1626,1348.08 1614.78,1356.09 1603.41,1363.89 1591.89,1371.47 1580.23,1378.83 1568.43,1385.97 1556.5,1392.88 
  1544.43,1399.56 1532.24,1406 1519.93,1412.21 1507.51,1418.19 1494.97,1423.92 1482.32,1429.42 1469.57,1434.67 1456.73,1439.67 1443.79,1444.43 1430.76,1448.94 
  1417.65,1453.19 1404.46,1457.2 1391.19,1460.95 1377.85,1464.44 1364.45,1467.68 1350.99,1470.66 1337.48,1473.38 1323.91,1475.84 1310.3,1478.04 1296.65,1479.98 
  1282.97,1481.66 1269.25,1483.07 1255.51,1484.22 1241.75,1485.11 1227.97,1485.73 1214.18,1486.09 1200.39,1486.19 1186.6,1486.02 1172.82,1485.58 1159.04,1484.89 
  1145.28,1483.92 1131.55,1482.7 1117.84,1481.21 1104.16,1479.47 1090.52,1477.46 1076.92,1475.19 1063.36,1472.66 1049.86,1469.87 1036.41,1466.82 1023.02,1463.52 
  1009.7,1459.96 996.45,1456.15 983.275,1452.08 970.181,1447.76 957.172,1443.19 944.253,1438.38 931.429,1433.31 918.706,1428.01 906.086,1422.45 893.576,1416.66 
  881.179,1410.63 868.901,1404.36 856.745,1397.86 844.716,1391.12 832.818,1384.16 821.056,1376.97 809.434,1369.55 797.956,1361.91 786.627,1354.05 775.45,1345.98 
  764.429,1337.69 753.569,1329.19 742.873,1320.49 732.346,1311.58 721.991,1302.47 711.813,1293.16 701.814,1283.67 691.999,1273.98 682.371,1264.1 672.935,1254.04 
  663.693,1243.81 654.649,1233.4 645.807,1222.82 637.168,1212.07 628.736,1201.16 620.514,1190.09 612.505,1178.87 604.712,1167.49 597.138,1155.97 589.786,1144.3 
  582.659,1132.5 575.76,1120.56 569.091,1108.49 562.655,1096.3 556.454,1083.98 550.491,1071.55 544.767,1059.01 539.285,1046.36 534.048,1033.61 529.056,1020.76 
  524.312,1007.82 519.817,994.783 515.574,981.666 511.583,968.47 507.846,955.199 504.365,941.859 501.14,928.454 498.173,914.989 495.466,901.469 493.018,887.898 
  490.83,874.283 488.904,860.627 487.24,846.937 485.839,833.216 484.701,819.471 483.827,805.706 483.216,791.926 482.869,778.138 482.786,764.345 482.967,750.554 
  483.412,736.77 484.12,722.997 485.091,709.242 486.326,695.51 487.823,681.802 489.582,668.126 491.603,654.486 493.884,640.887 496.425,627.334 499.226,613.832 
  502.284,600.387 505.6,587.003 509.171,573.686 512.997,560.439 517.076,547.269 521.407,534.18 525.988,521.176 530.818,508.263 535.895,495.444 541.217,482.726 
  546.782,470.112 552.588,457.607 558.633,445.216 564.914,432.942 571.43,420.791 578.178,408.767 585.156,396.875 592.361,385.118 599.79,373.501 607.44,362.028 
  615.309,350.704 623.394,339.532 631.691,328.518 640.197,317.664 648.91,306.975 657.826,296.455 666.941,286.108 676.252,275.938 685.755,265.948 695.448,256.14 
  705.328,246.519 715.389,237.088 725.628,227.851 736.043,218.811 746.628,209.973 757.38,201.339 768.295,192.913 779.369,184.698 790.598,176.697 801.978,168.913 
  813.505,161.349 825.175,154.007 836.982,146.892 848.925,140.005 860.997,133.348 873.194,126.925 885.513,120.737 897.948,114.787 910.496,109.077 923.152,103.609 
  935.91,98.3852 948.767,93.4074 961.718,88.6772 974.758,84.1965 987.882,79.9668 1001.09,75.9896 1014.37,72.2664 1027.71,68.7985 1041.13,65.587 1054.6,62.6331 
  1068.13,59.9379 1081.71,57.5023 1095.33,55.3271 1108.99,53.413 1122.69,51.7609 1136.41,50.3711 1150.16,49.2441 1163.93,48.3805 1177.71,47.7803 1191.49,47.4438 
  1205.28,47.3712 1219.07,47.5619 1232.85,48.016 1246.62,48.7332 1260.38,49.7135 1274.11,50.9566 1287.82,52.462 1301.5,54.2295 1315.14,56.2584 1328.74,58.548 
  1342.29,61.0977 1355.79,63.9065 1369.23,66.9736 1382.61,70.2979 1395.92,73.8782 1409.17,77.7134 1422.33,81.802 1435.42,86.1427 1448.42,90.734 1461.33,95.5741 
  1474.14,100.661 1486.85,105.994 1499.46,111.57 1511.96,117.388 1524.35,123.444 1536.61,129.738 1548.76,136.267 1560.78,143.028 1572.66,150.018 1584.42,157.236 
  1596.03,164.679 1607.49,172.343 1618.81,180.226 1629.98,188.325 1640.99,196.636 1651.84,205.157 1662.52,213.884 1673.04,222.815 1683.38,231.944 1693.54,241.269 
  1703.52,250.786 1713.32,260.492 1722.93,270.382 1732.35,280.453 1741.58,290.703 1750.61,301.127 1759.43,311.722 1768.06,322.484 1776.47,333.409 1784.68,344.492 
  1792.67,355.73 1800.45,367.119 1808,378.654 1815.34,390.332 1822.44,402.147 1829.32,414.096 1835.97,426.174 1842.39,438.377 1848.57,450.701 1854.51,463.141 
  1860.21,475.693 1865.67,488.352 1870.88,501.114 1875.85,513.973 1880.57,526.926 1885.04,539.968 1889.26,553.094 1893.23,566.299 1896.94,579.578 1900.4,592.927 
  1903.6,606.341 1906.54,619.815 1909.22,633.343 1911.64,646.922 1913.81,660.545 1915.71,674.208 1917.35,687.906 1918.72,701.633 1919.83,715.385 1920.68,729.156 
  1921.27,742.94 1921.59,756.733 1921.65,770.53 1921.44,784.324 1920.97,798.11 1920.24,811.884 1919.24,825.639 1917.98,839.371 1916.46,853.077 1914.68,866.752 
  1912.63,880.392 1910.33,893.99 1907.77,907.541 1904.95,921.041 1901.87,934.484 1898.53,947.865 1894.94,961.179 1891.1,974.421 1887,987.587 1882.65,1000.67 
  1878.05,1013.67 1873.2,1026.58 1868.11,1039.39 1862.77,1052.1 1857.18,1064.7 1851.36,1077.2 1845.3,1089.58 1839,1101.84 1832.46,1113.98 1825.69,1125.99 
  1818.7,1137.87 1811.47,1149.61 1804.02,1161.22 1796.35,1172.68 1788.46,1183.98 1780.35,1195.14 1772.03,1206.14 1763.5,1216.98 1754.76,1227.65 1745.82,1238.16 
  1736.68,1248.49 1727.34,1258.65 1717.81,1268.62 1708.09,1278.41 1698.18,1288.02 1688.09,1297.43 1677.82,1306.65 1667.38,1315.67 1656.77,1324.48 1645.99,1333.1 
  1635.05,1341.5 1623.96,1349.69 1612.71,1357.67 1601.31,1365.43 1589.76,1372.97 1578.07,1380.29 1566.25,1387.39 1554.29,1394.26 1542.2,1400.9 1529.99,1407.3 
  1517.65,1413.47 1505.21,1419.41 1492.65,1425.1 1479.98,1430.55 1467.21,1435.76 1454.35,1440.72 1441.39,1445.43 1428.35,1449.9 1415.22,1454.11 1402.01,1458.07 
  1388.73,1461.77 1375.38,1465.22 1361.97,1468.41 1348.5,1471.35 1334.97,1474.02 1321.4,1476.43 1307.78,1478.59 1294.12,1480.48 1280.43,1482.1 1266.7,1483.47 
  1252.96,1484.57 1239.19,1485.4 1225.41,1485.97 1211.61,1486.28 1197.82,1486.32 1184.02,1486.1 1170.24,1485.62 1156.46,1484.87 1142.7,1483.85 1128.96,1482.58 
  1115.25,1481.04 1101.57,1479.23 1087.93,1477.17 1074.33,1474.85 1060.78,1472.27 1047.28,1469.42 1033.84,1466.33 1020.46,1462.97 1007.15,1459.36 993.912,1455.5 
  980.747,1451.39 967.663,1447.02 954.665,1442.41 941.758,1437.55 928.947,1432.44 916.237,1427.09 903.631,1421.5 891.136,1415.66 878.756,1409.59 866.495,1403.28 
  854.358,1396.74 842.349,1389.97 830.473,1382.96 818.734,1375.73 807.136,1368.28 795.683,1360.6 784.38,1352.71 773.231,1344.6 762.24,1336.27 751.41,1327.74 
  740.746,1319 730.252,1310.06 719.931,1300.91 709.787,1291.57 699.823,1282.03 690.044,1272.3 680.453,1262.39 671.053,1252.29 661.848,1242.02 652.841,1231.57 
  644.035,1220.94 635.434,1210.15 627.041,1199.2 618.859,1188.09 610.891,1176.82 603.14,1165.4 595.608,1153.84 588.3,1142.13 581.218,1130.29 574.363,1118.32 
  567.741,1106.22 561.351,1093.99 555.198,1081.65 549.281,1069.19 543.604,1056.63 538.169,1043.95 532.977,1031.17 528.031,1018.3 523.332,1005.33 518.883,992.278 
  514.684,979.142 510.739,965.928 507.047,952.64 503.611,939.285 500.432,925.867 497.511,912.39 494.849,898.86 492.448,885.281 490.307,871.659 488.428,857.998 
  486.811,844.303 485.458,830.58 484.368,816.833 483.542,803.067 482.981,789.288 482.683,775.5 482.651,761.709 482.882,747.919 483.378,734.136 484.138,720.364 
  485.162,706.61 486.449,692.877 487.999,679.171 489.811,665.498 491.884,651.862 494.218,638.269 496.811,624.724 499.663,611.231 502.773,597.795 506.14,584.421 
  509.762,571.113 513.638,557.877 517.767,544.718 522.147,531.641 526.777,518.65 531.655,505.75 536.779,492.947 542.147,480.244 547.758,467.647 553.61,455.16 
  559.7,442.788 566.026,430.535 572.586,418.406 579.377,406.404 586.398,394.536 593.645,382.804 601.116,371.213 608.808,359.767 616.718,348.471 624.844,337.328 
  633.182,326.343 641.73,315.519 650.483,304.861 659.439,294.373 668.595,284.058 677.947,273.92 687.491,263.963 697.225,254.191 707.143,244.607 717.243,235.215 
  727.52,226.018 737.971,217.02 748.593,208.222 759.381,199.629 770.331,191.242 781.44,183.067 792.703,175.106 804.117,167.361 815.676,159.837 827.376,152.536 
  839.214,145.46 851.185,138.613 863.284,131.996 875.508,125.614 887.852,119.467 900.311,113.559 912.881,107.891 925.557,102.465 938.335,97.2841 951.21,92.3497 
  964.177,87.6635 977.233,83.2274 990.371,79.0428 1003.59,75.1114 1016.88,71.4345 1030.24,68.0135 1043.66,64.8496 1057.14,61.9438 1070.68,59.2973 1084.26,56.911 
  1097.89,54.7856 1111.56,52.9219 1125.26,51.3205 1139,49.9821 1152.75,48.9068 1166.52,48.0953 1180.31,47.5475 1194.1,47.2638 1207.9,47.2441 1221.7,47.4883 
  1235.48,47.9964 1249.26,48.768 1263.01,49.8028 1276.74,51.1003 1290.45,52.6599 1304.12,54.4812 1317.75,56.5634 1331.34,58.9059 1344.89,61.508 1358.38,64.3686 
  1371.82,67.487 1385.19,70.8619 1398.5,74.4923 1411.73,78.3769 1424.89,82.5143 1437.96,86.9031 1450.94,91.5418 1463.84,96.4287 1476.64,101.562 1489.33,106.94 
  1501.93,112.561 1514.41,118.423 1526.77,124.523 1539.02,130.86 1551.14,137.431 1563.14,144.234 1575,151.266 1586.73,158.525 1598.31,166.008 1609.75,173.713 
  1621.04,181.636 1632.18,189.774 1643.15,198.125 1653.97,206.686 1664.62,215.452 1675.11,224.422 1685.41,233.591 1695.54,242.955 1705.49,252.512 1715.26,262.258 
  1724.84,272.189 1734.22,282.3 1743.41,292.589 1752.4,303.05 1761.19,313.68 1769.77,324.477 1778.14,335.435 1786.31,346.553 1794.26,357.824 1802,369.245 
  1809.51,380.812 1816.8,392.52 1823.87,404.365 1830.71,416.343 1837.31,428.449 1843.69,440.679 1849.82,453.029 1855.72,465.493 1861.38,478.068 1866.8,490.749 
  1871.97,503.532 1876.89,516.411 1881.57,529.382 1886,542.441 1890.17,555.582 1894.09,568.802 1897.76,582.095 1901.17,595.456 1904.32,608.881 1907.21,622.364 
  1909.85,635.902 1912.22,649.488 1914.34,663.118 1916.19,676.788 1917.78,690.491 1919.1,704.223 1920.16,717.979 1920.96,731.753 1921.5,745.541 1921.77,759.337 
  1921.77,773.136 1921.51,786.933 1920.99,800.723 1920.21,814.5 1919.16,828.258 1917.85,841.993 1916.27,855.699 1914.43,869.37 1912.34,883.002 1909.98,896.592 
  1907.36,910.135 1904.49,923.626 1901.36,937.06 1897.97,950.431 1894.33,963.735 1890.43,976.967 1886.28,990.122 1881.88,1003.19 1877.24,1016.18 1872.34,1029.07 
  1867.2,1041.87 1861.81,1054.56 1856.18,1067.15 1850.31,1079.63 1844.2,1091.99 1837.85,1104.23 1831.27,1116.35 1824.46,1128.34 1817.42,1140.2 1810.16,1151.92 
  1802.67,1163.49 1794.95,1174.93 1787.02,1186.21 1778.88,1197.34 1770.52,1208.31 1761.95,1219.11 1753.17,1229.76 1744.19,1240.23 1735.02,1250.53 1725.64,1260.65 
  1716.07,1270.59 1706.32,1280.35 1696.37,1289.91 1686.25,1299.29 1675.95,1308.47 1665.47,1317.45 1654.82,1326.23 1644.01,1334.81 1633.04,1343.17 1621.91,1351.32 
  1610.63,1359.26 1599.2,1366.98 1587.62,1374.48 1575.9,1381.76 1564.05,1388.81 1552.06,1395.63 1539.94,1402.23 1527.7,1408.59 1515.35,1414.72 1502.87,1420.61 
  1490.29,1426.26 1477.6,1431.66 1464.81,1436.83 1451.93,1441.74 1438.95,1446.41 1425.88,1450.83 1412.74,1455 1399.52,1458.91 1386.22,1462.57 1372.86,1465.97 
  1359.43,1469.11 1345.95,1472 1332.41,1474.63 1318.83,1476.99 1305.2,1479.09 1291.53,1480.94 1277.83,1482.51 1264.1,1483.83 1250.35,1484.88 1236.58,1485.67 
  1222.79,1486.19 1209,1486.45 1195.2,1486.44 1181.41,1486.17 1167.62,1485.63 1153.85,1484.83 1140.09,1483.77 1126.35,1482.44 1112.64,1480.85 1098.97,1479 
  1085.33,1476.88 1071.74,1474.51 1058.19,1471.87 1044.7,1468.98 1031.27,1465.83 1017.9,1462.43 1004.6,1458.77 991.373,1454.85 978.222,1450.69 965.153,1446.27 
  952.17,1441.61 939.279,1436.7 926.484,1431.54 913.791,1426.14 901.204,1420.5 888.727,1414.62 876.366,1408.5 864.125,1402.14 852.009,1395.56 840.021,1388.74 
  828.168,1381.69 816.452,1374.42 804.878,1366.92 793.451,1359.2 782.174,1351.26 771.052,1343.11 760.089,1334.75 749.288,1326.17 738.654,1317.39 728.19,1308.41 
  717.901,1299.23 707.789,1289.85 697.859,1280.28 688.114,1270.52 678.558,1260.57 669.194,1250.44 660.025,1240.13 651.056,1229.64 642.288,1218.99 633.726,1208.17 
  625.372,1197.18 617.23,1186.04 609.303,1174.74 601.593,1163.3 594.103,1151.7 586.837,1139.97 579.796,1128.1 572.985,1116.1 566.405,1103.97 560.058,1091.72 
  553.949,1079.35 548.077,1066.87 542.445,1054.28 537.054,1041.58 531.908,1028.78 527.006,1015.89 522.353,1002.9 517.949,989.83 513.796,976.675 509.897,963.445 
  506.251,950.142 502.862,936.772 499.729,923.34 496.855,909.85 494.24,896.308 491.886,882.719 489.792,869.088 487.961,855.418 486.393,841.717 485.088,827.987 
  484.047,814.235 483.271,800.465 482.758,786.683 482.511,772.893 482.528,759.1 482.81,745.31 483.356,731.527 484.167,717.756 485.242,704.003 486.58,690.273 
  488.182,676.57 490.046,662.9 492.171,649.268 494.557,635.679 497.203,622.138 500.107,608.65 503.269,595.221 506.688,581.855 510.361,568.558 514.288,555.335 
  
  "/>
<polyline clip-path="url(#clip252)" style="stroke:#0077bb; stroke-linecap:round; stroke-linejoin:round; stroke-width:2; stroke-opacity:1; fill:none" points="
  1921.57,766.789 1917.99,695.162 1907.3,624.247 1889.61,554.749 1865.08,487.358 1833.96,422.744 1796.57,361.55 1753.26,304.383 1704.48,251.811 1650.71,204.358 
  1592.48,162.494 1530.38,126.637 1465.01,97.1407 1397.03,74.3002 1327.11,58.3419 1255.95,49.4245 1184.26,47.6366 1112.74,52.9959 1042.11,65.4493 973.079,84.8728 
  906.32,111.074 842.502,143.791 782.259,182.7 726.189,227.414 674.85,277.489 628.752,332.426 588.353,391.681 554.055,454.663 526.198,520.748 505.059,589.277 
  490.849,659.571 483.709,730.931 483.709,802.647 490.849,874.006 505.059,944.3 526.198,1012.83 554.055,1078.91 588.353,1141.9 628.752,1201.15 674.85,1256.09 
  726.189,1306.16 782.259,1350.88 842.502,1389.79 906.32,1422.5 973.079,1448.7 1042.11,1468.13 1112.74,1480.58 1184.26,1485.94 1255.95,1484.15 1327.11,1475.24 
  1397.03,1459.28 1465.01,1436.44 1530.38,1406.94 1592.48,1371.08 1650.71,1329.22 1704.48,1281.77 1753.26,1229.19 1796.57,1172.03 1833.96,1110.83 1865.08,1046.22 
  1889.61,978.828 1907.3,909.33 1917.99,838.415 1921.57,766.789 
  "/>
<path clip-path="url(#clip250)" d="
M1530.77 250.738 L1983.23 250.738 L1983.23 95.2176 L1530.77 95.2176  Z
  " fill="#ffffff" fill-rule="evenodd" fill-opacity="0.9"/>
<polyline clip-path="url(#clip250)" style="stroke:#222255; stroke-linecap:round; stroke-linejoin:round; stroke-width:4; stroke-opacity:0.1; fill:none" points="
  1530.77,250.738 1983.23,250.738 1983.23,95.2176 1530.77,95.2176 1530.77,250.738 
  "/>
<polyline clip-path="url(#clip250)" style="stroke:#ee7733; stroke-linecap:round; stroke-linejoin:round; stroke-width:4; stroke-opacity:1; fill:none" points="
  1554.93,147.058 1699.86,147.058 
  "/>
<path clip-path="url(#clip250)" d="M1728.69 133.62 L1728.69 146.606 L1734.57 146.606 Q1737.83 146.606 1739.61 144.916 Q1741.39 143.227 1741.39 140.102 Q1741.39 137 1739.61 135.31 Q1737.83 133.62 1734.57 133.62 L1728.69 133.62 M1724.01 129.778 L1734.57 129.778 Q1740.38 129.778 1743.34 132.416 Q1746.32 135.032 1746.32 140.102 Q1746.32 145.217 1743.34 147.833 Q1740.38 150.449 1734.57 150.449 L1728.69 150.449 L1728.69 164.338 L1724.01 164.338 L1724.01 129.778 Z" fill="#000000" fill-rule="evenodd" fill-opacity="1" /><path clip-path="url(#clip250)" d="M1766.6 142.393 Q1765.88 141.977 1765.03 141.791 Q1764.19 141.583 1763.18 141.583 Q1759.56 141.583 1757.62 143.944 Q1755.7 146.282 1755.7 150.68 L1755.7 164.338 L1751.42 164.338 L1751.42 138.412 L1755.7 138.412 L1755.7 142.44 Q1757.04 140.078 1759.19 138.944 Q1761.35 137.787 1764.43 137.787 Q1764.87 137.787 1765.4 137.856 Q1765.93 137.903 1766.58 138.018 L1766.6 142.393 Z" fill="#000000" fill-rule="evenodd" fill-opacity="1" /><path clip-path="url(#clip250)" d="M1780.07 141.398 Q1776.65 141.398 1774.66 144.083 Q1772.67 146.745 1772.67 151.398 Q1772.67 156.051 1774.63 158.736 Q1776.63 161.398 1780.07 161.398 Q1783.48 161.398 1785.47 158.713 Q1787.46 156.027 1787.46 151.398 Q1787.46 146.791 1785.47 144.106 Q1783.48 141.398 1780.07 141.398 M1780.07 137.787 Q1785.63 137.787 1788.8 141.398 Q1791.97 145.009 1791.97 151.398 Q1791.97 157.764 1788.8 161.398 Q1785.63 165.009 1780.07 165.009 Q1774.5 165.009 1771.32 161.398 Q1768.18 157.764 1768.18 151.398 Q1768.18 145.009 1771.32 141.398 Q1774.5 137.787 1780.07 137.787 Z" fill="#000000" fill-rule="evenodd" fill-opacity="1" /><path clip-path="url(#clip250)" d="M1803.25 131.051 L1803.25 138.412 L1812.02 138.412 L1812.02 141.722 L1803.25 141.722 L1803.25 155.796 Q1803.25 158.967 1804.1 159.87 Q1804.98 160.773 1807.64 160.773 L1812.02 160.773 L1812.02 164.338 L1807.64 164.338 Q1802.71 164.338 1800.84 162.509 Q1798.96 160.657 1798.96 155.796 L1798.96 141.722 L1795.84 141.722 L1795.84 138.412 L1798.96 138.412 L1798.96 131.051 L1803.25 131.051 Z" fill="#000000" fill-rule="evenodd" fill-opacity="1" /><path clip-path="url(#clip250)" d="M1827.67 141.398 Q1824.24 141.398 1822.25 144.083 Q1820.26 146.745 1820.26 151.398 Q1820.26 156.051 1822.23 158.736 Q1824.22 161.398 1827.67 161.398 Q1831.07 161.398 1833.06 158.713 Q1835.05 156.027 1835.05 151.398 Q1835.05 146.791 1833.06 144.106 Q1831.07 141.398 1827.67 141.398 M1827.67 137.787 Q1833.22 137.787 1836.39 141.398 Q1839.56 145.009 1839.56 151.398 Q1839.56 157.764 1836.39 161.398 Q1833.22 165.009 1827.67 165.009 Q1822.09 165.009 1818.92 161.398 Q1815.77 157.764 1815.77 151.398 Q1815.77 145.009 1818.92 141.398 Q1822.09 137.787 1827.67 137.787 Z" fill="#000000" fill-rule="evenodd" fill-opacity="1" /><path clip-path="url(#clip250)" d="M1868.18 148.689 L1868.18 164.338 L1863.92 164.338 L1863.92 148.828 Q1863.92 145.148 1862.48 143.319 Q1861.05 141.49 1858.18 141.49 Q1854.73 141.49 1852.74 143.69 Q1850.75 145.889 1850.75 149.685 L1850.75 164.338 L1846.46 164.338 L1846.46 138.412 L1850.75 138.412 L1850.75 142.44 Q1852.27 140.102 1854.33 138.944 Q1856.42 137.787 1859.12 137.787 Q1863.59 137.787 1865.88 140.565 Q1868.18 143.319 1868.18 148.689 Z" fill="#000000" fill-rule="evenodd" fill-opacity="1" /><polyline clip-path="url(#clip250)" style="stroke:#0077bb; stroke-linecap:round; stroke-linejoin:round; stroke-width:4; stroke-opacity:1; fill:none" points="
  1554.93,198.898 1699.86,198.898 
  "/>
<path clip-path="url(#clip250)" d="M1737.41 203.145 Q1732.25 203.145 1730.26 204.326 Q1728.27 205.506 1728.27 208.354 Q1728.27 210.622 1729.75 211.965 Q1731.25 213.284 1733.82 213.284 Q1737.37 213.284 1739.5 210.784 Q1741.65 208.261 1741.65 204.094 L1741.65 203.145 L1737.41 203.145 M1745.91 201.386 L1745.91 216.178 L1741.65 216.178 L1741.65 212.242 Q1740.19 214.603 1738.01 215.738 Q1735.84 216.849 1732.69 216.849 Q1728.71 216.849 1726.35 214.627 Q1724.01 212.381 1724.01 208.631 Q1724.01 204.256 1726.93 202.034 Q1729.87 199.812 1735.68 199.812 L1741.65 199.812 L1741.65 199.395 Q1741.65 196.455 1739.7 194.858 Q1737.78 193.238 1734.29 193.238 Q1732.07 193.238 1729.96 193.77 Q1727.85 194.303 1725.91 195.367 L1725.91 191.432 Q1728.25 190.53 1730.44 190.09 Q1732.64 189.627 1734.73 189.627 Q1740.35 189.627 1743.13 192.543 Q1745.91 195.46 1745.91 201.386 Z" fill="#000000" fill-rule="evenodd" fill-opacity="1" /><path clip-path="url(#clip250)" d="M1776.23 200.529 L1776.23 216.178 L1771.97 216.178 L1771.97 200.668 Q1771.97 196.988 1770.54 195.159 Q1769.1 193.33 1766.23 193.33 Q1762.78 193.33 1760.79 195.53 Q1758.8 197.729 1758.8 201.525 L1758.8 216.178 L1754.52 216.178 L1754.52 190.252 L1758.8 190.252 L1758.8 194.28 Q1760.33 191.942 1762.39 190.784 Q1764.47 189.627 1767.18 189.627 Q1771.65 189.627 1773.94 192.405 Q1776.23 195.159 1776.23 200.529 Z" fill="#000000" fill-rule="evenodd" fill-opacity="1" /><path clip-path="url(#clip250)" d="M1796.51 203.145 Q1791.35 203.145 1789.36 204.326 Q1787.37 205.506 1787.37 208.354 Q1787.37 210.622 1788.85 211.965 Q1790.35 213.284 1792.92 213.284 Q1796.46 213.284 1798.59 210.784 Q1800.75 208.261 1800.75 204.094 L1800.75 203.145 L1796.51 203.145 M1805 201.386 L1805 216.178 L1800.75 216.178 L1800.75 212.242 Q1799.29 214.603 1797.11 215.738 Q1794.94 216.849 1791.79 216.849 Q1787.81 216.849 1785.44 214.627 Q1783.11 212.381 1783.11 208.631 Q1783.11 204.256 1786.02 202.034 Q1788.96 199.812 1794.77 199.812 L1800.75 199.812 L1800.75 199.395 Q1800.75 196.455 1798.8 194.858 Q1796.88 193.238 1793.38 193.238 Q1791.16 193.238 1789.06 193.77 Q1786.95 194.303 1785 195.367 L1785 191.432 Q1787.34 190.53 1789.54 190.09 Q1791.74 189.627 1793.82 189.627 Q1799.45 189.627 1802.23 192.543 Q1805 195.46 1805 201.386 Z" fill="#000000" fill-rule="evenodd" fill-opacity="1" /><path clip-path="url(#clip250)" d="M1813.78 180.159 L1818.04 180.159 L1818.04 216.178 L1813.78 216.178 L1813.78 180.159 Z" fill="#000000" fill-rule="evenodd" fill-opacity="1" /><path clip-path="url(#clip250)" d="M1837.74 218.585 Q1835.93 223.215 1834.22 224.627 Q1832.5 226.039 1829.63 226.039 L1826.23 226.039 L1826.23 222.474 L1828.73 222.474 Q1830.49 222.474 1831.46 221.64 Q1832.43 220.807 1833.62 217.705 L1834.38 215.761 L1823.89 190.252 L1828.41 190.252 L1836.51 210.529 L1844.61 190.252 L1849.12 190.252 L1837.74 218.585 Z" fill="#000000" fill-rule="evenodd" fill-opacity="1" /><path clip-path="url(#clip250)" d="M1859.22 182.891 L1859.22 190.252 L1867.99 190.252 L1867.99 193.562 L1859.22 193.562 L1859.22 207.636 Q1859.22 210.807 1860.07 211.71 Q1860.95 212.613 1863.62 212.613 L1867.99 212.613 L1867.99 216.178 L1863.62 216.178 Q1858.68 216.178 1856.81 214.349 Q1854.93 212.497 1854.93 207.636 L1854.93 193.562 L1851.81 193.562 L1851.81 190.252 L1854.93 190.252 L1854.93 182.891 L1859.22 182.891 Z" fill="#000000" fill-rule="evenodd" fill-opacity="1" /><path clip-path="url(#clip250)" d="M1873.59 190.252 L1877.85 190.252 L1877.85 216.178 L1873.59 216.178 L1873.59 190.252 M1873.59 180.159 L1877.85 180.159 L1877.85 185.553 L1873.59 185.553 L1873.59 180.159 Z" fill="#000000" fill-rule="evenodd" fill-opacity="1" /><path clip-path="url(#clip250)" d="M1903.29 191.016 L1903.29 195.043 Q1901.49 194.117 1899.54 193.655 Q1897.6 193.192 1895.51 193.192 Q1892.34 193.192 1890.74 194.164 Q1889.17 195.136 1889.17 197.08 Q1889.17 198.562 1890.3 199.418 Q1891.44 200.252 1894.87 201.016 L1896.32 201.34 Q1900.86 202.312 1902.76 204.094 Q1904.68 205.854 1904.68 209.025 Q1904.68 212.636 1901.81 214.742 Q1898.96 216.849 1893.96 216.849 Q1891.88 216.849 1889.61 216.432 Q1887.37 216.039 1884.87 215.228 L1884.87 210.83 Q1887.23 212.057 1889.52 212.682 Q1891.81 213.284 1894.05 213.284 Q1897.06 213.284 1898.68 212.266 Q1900.3 211.224 1900.3 209.349 Q1900.3 207.613 1899.12 206.687 Q1897.97 205.761 1894.01 204.904 L1892.53 204.557 Q1888.57 203.724 1886.81 202.011 Q1885.05 200.275 1885.05 197.266 Q1885.05 193.608 1887.64 191.618 Q1890.24 189.627 1895 189.627 Q1897.37 189.627 1899.45 189.974 Q1901.53 190.321 1903.29 191.016 Z" fill="#000000" fill-rule="evenodd" fill-opacity="1" /><path clip-path="url(#clip250)" d="M1930.12 191.247 L1930.12 195.229 Q1928.31 194.233 1926.49 193.747 Q1924.68 193.238 1922.83 193.238 Q1918.68 193.238 1916.39 195.877 Q1914.1 198.492 1914.1 203.238 Q1914.1 207.983 1916.39 210.622 Q1918.68 213.238 1922.83 213.238 Q1924.68 213.238 1926.49 212.752 Q1928.31 212.242 1930.12 211.247 L1930.12 215.182 Q1928.34 216.016 1926.42 216.432 Q1924.52 216.849 1922.36 216.849 Q1916.51 216.849 1913.06 213.168 Q1909.61 209.488 1909.61 203.238 Q1909.61 196.895 1913.08 193.261 Q1916.58 189.627 1922.64 189.627 Q1924.61 189.627 1926.49 190.043 Q1928.36 190.437 1930.12 191.247 Z" fill="#000000" fill-rule="evenodd" fill-opacity="1" /><path clip-path="url(#clip250)" d="M1959.08 200.529 L1959.08 216.178 L1954.82 216.178 L1954.82 200.668 Q1954.82 196.988 1953.38 195.159 Q1951.95 193.33 1949.08 193.33 Q1945.63 193.33 1943.64 195.53 Q1941.65 197.729 1941.65 201.525 L1941.65 216.178 L1937.36 216.178 L1937.36 180.159 L1941.65 180.159 L1941.65 194.28 Q1943.18 191.942 1945.24 190.784 Q1947.32 189.627 1950.03 189.627 Q1954.49 189.627 1956.79 192.405 Q1959.08 195.159 1959.08 200.529 Z" fill="#000000" fill-rule="evenodd" fill-opacity="1" /></svg>
